<svg width="47" height="55" viewBox="0 0 47 55" fill="none" xmlns="http://www.w3.org/2000/svg">
<path d="M35.3247 33.0708H35.6912C36.2845 33.0708 36.7654 32.5898 36.7654 31.9966C36.7654 31.4034 36.2845 30.9224 35.6912 30.9224H35.3247C34.7314 30.9224 34.2505 31.4034 34.2505 31.9966C34.2505 32.5899 34.7314 33.0708 35.3247 33.0708Z" fill="white"/>
<path d="M46.2641 17.1518C46.466 16.9503 46.5794 16.6768 46.5794 16.3916C46.5794 16.1064 46.466 15.8329 46.2641 15.6314L40.5433 9.92073C40.1239 9.50222 39.4448 9.50222 39.0254 9.92073L36.0841 12.8568C33.455 11.0974 30.5029 9.90806 27.3824 9.35279C28.3043 8.35871 28.8686 7.02937 28.8686 5.57079C28.8686 2.49906 26.3659 0 23.2897 0C20.2135 0 17.7109 2.49906 17.7109 5.57079C17.7109 7.02926 18.275 8.35871 19.197 9.35279C16.0765 9.90806 13.1244 11.0974 10.4953 12.8568L7.55401 9.92073C7.13464 9.50222 6.45552 9.50222 6.03614 9.92073L0.315283 15.6314C0.113438 15.8329 0 16.1064 0 16.3916C0 16.6768 0.113438 16.9503 0.315283 17.1518L3.4491 20.2802C1.36114 23.79 0.247178 27.8079 0.247178 31.9966C0.247178 38.1413 2.64419 43.9183 6.99682 48.2631C11.3489 52.6075 17.1352 55 23.2897 55C29.4442 55 35.2305 52.6075 39.5825 48.2631C43.9351 43.9184 46.3321 38.1413 46.3321 31.9966C46.3321 27.8078 45.2182 23.79 43.1302 20.2801L46.2641 17.1518ZM39.7843 12.1988L43.9846 16.3916L41.9205 18.4521C41.2191 17.4947 40.4386 16.5848 39.5825 15.7301C39.0216 15.1703 38.4369 14.6429 37.8308 14.1489L39.7843 12.1988ZM23.2897 2.14844C25.1812 2.14844 26.7201 3.68371 26.7201 5.57079C26.7201 7.08372 25.7309 8.37053 24.3639 8.82127V6.33875C24.3639 5.74557 23.883 5.26453 23.2897 5.26453C22.6964 5.26453 22.2155 5.74557 22.2155 6.33875V8.82127C20.8484 8.37053 19.8593 7.08372 19.8593 5.57079C19.8593 3.68371 21.3982 2.14844 23.2897 2.14844ZM2.59478 16.3916L6.79508 12.1988L8.74865 14.1489C8.14247 14.6429 7.55777 15.1702 6.99692 15.7301C6.14077 16.5848 5.36035 17.4948 4.65889 18.4521L2.59478 16.3916ZM23.2897 52.8516C11.7686 52.8516 2.39562 43.4961 2.39562 31.9966C2.39562 20.4971 11.7686 11.1417 23.2897 11.1417C34.8108 11.1417 44.1838 20.4972 44.1838 31.9967C44.1838 43.4962 34.8107 52.8516 23.2897 52.8516Z" fill="white"/>
<path d="M23.2898 14.5167C13.6352 14.5167 5.78064 22.3582 5.78064 31.9966C5.78064 41.6351 13.6352 49.4764 23.2898 49.4764C32.9443 49.4764 40.7989 41.635 40.7989 31.9965C40.7989 22.3581 32.9443 14.5167 23.2898 14.5167ZM23.2898 47.328C14.8199 47.328 7.92908 40.4504 7.92908 31.9965C7.92908 23.5427 14.8198 16.6651 23.2898 16.6651C31.7598 16.6651 38.6504 23.5426 38.6504 31.9965C38.6504 40.4504 31.7597 47.328 23.2898 47.328Z" fill="white"/>
<path d="M23.2898 42.9575C22.6965 42.9575 22.2156 43.4386 22.2156 44.0317V44.3982C22.2156 44.9913 22.6965 45.4724 23.2898 45.4724C23.8831 45.4724 24.364 44.9913 24.364 44.3982V44.0317C24.364 43.4384 23.8831 42.9575 23.2898 42.9575Z" fill="white"/>
<path d="M11.2547 30.9224H10.8882C10.2949 30.9224 9.81396 31.4034 9.81396 31.9966C9.81396 32.5898 10.2949 33.0708 10.8882 33.0708H11.2547C11.848 33.0708 12.3289 32.5898 12.3289 31.9966C12.3289 31.4034 11.848 30.9224 11.2547 30.9224Z" fill="white"/>
<path d="M14.0201 39.7472L13.761 40.0063C13.3415 40.4258 13.3415 41.106 13.761 41.5256C13.9708 41.7353 14.2457 41.8402 14.5206 41.8402C14.7955 41.8402 15.0705 41.7353 15.2802 41.5256L15.5393 41.2665C15.9588 40.847 15.9588 40.1668 15.5393 39.7472C15.1198 39.3277 14.4396 39.3277 14.0201 39.7472Z" fill="white"/>
<path d="M32.5595 39.7471C32.14 39.3278 31.4598 39.3278 31.0402 39.7471C30.6207 40.1666 30.6207 40.8468 31.0402 41.2664L31.2993 41.5255C31.5091 41.7352 31.784 41.8402 32.0589 41.8402C32.3338 41.8402 32.6088 41.7352 32.8185 41.5255C33.2379 41.106 33.2379 40.4258 32.8185 40.0062L32.5595 39.7471Z" fill="white"/>
<path d="M23.4757 20.5149C24.069 20.5149 24.5499 20.0339 24.5499 19.4407L24.5499 19.0743C24.5499 18.4811 24.069 18 23.4757 18C22.8824 18 22.4015 18.4811 22.4015 19.0743L22.4015 19.4407C22.4015 20.034 22.8824 20.5149 23.4757 20.5149Z" fill="white"/>
<path d="M32.7454 23.7252L33.0045 23.4661C33.424 23.0466 33.424 22.3664 33.0045 21.9468C32.7947 21.7371 32.5198 21.6322 32.2449 21.6322C31.97 21.6322 31.695 21.7371 31.4853 21.9468L31.2262 22.2059C30.8067 22.6254 30.8067 23.3056 31.2262 23.7252C31.6457 24.1447 32.3259 24.1447 32.7454 23.7252Z" fill="white"/>
<path d="M14.206 23.7253C14.6255 24.1446 15.3057 24.1446 15.7253 23.7253C16.1448 23.3058 16.1448 22.6256 15.7253 22.206L15.4662 21.9469C15.2564 21.7372 14.9815 21.6323 14.7066 21.6323C14.4317 21.6323 14.1567 21.7372 13.947 21.9469C13.5276 22.3664 13.5276 23.0466 13.947 23.4662L14.206 23.7253Z" fill="white"/>
<path d="M28.9711 30.7616H26.2557C25.8972 29.5799 24.9633 28.6459 23.7815 28.2875V24.9243C23.7815 24.331 23.3005 23.8501 22.7072 23.8501C22.1139 23.8501 21.633 24.331 21.633 24.9243V28.2875C20.1111 28.7491 19 30.1652 19 31.8358C19 33.88 20.6631 35.5431 22.7072 35.5431C24.378 35.5431 25.7941 34.4321 26.2557 32.9101H28.9711C29.5644 32.9101 30.0453 32.429 30.0453 31.8358C30.0453 31.2427 29.5644 30.7616 28.9711 30.7616ZM22.7072 33.3946C21.8478 33.3946 21.1484 32.6953 21.1484 31.8358C21.1484 30.9764 21.8476 30.2771 22.7072 30.2771C23.5667 30.2771 24.266 30.9764 24.266 31.8358C24.2659 32.6953 23.5667 33.3946 22.7072 33.3946Z" fill="white"/>
</svg>
