<svg width="63" height="57" viewBox="0 0 63 57" fill="none" xmlns="http://www.w3.org/2000/svg">
<path d="M61.8073 8.5242C61.8073 8.51754 61.8064 8.51089 61.8062 8.50412C61.8055 8.47764 61.804 8.45151 61.8009 8.42562C61.7997 8.41612 61.7979 8.40662 61.7965 8.39712C61.7929 8.37325 61.7885 8.34973 61.7831 8.32669C61.7809 8.31755 61.7785 8.30852 61.776 8.29938C61.7692 8.27432 61.7613 8.24973 61.7523 8.2255C61.7506 8.22087 61.7496 8.21612 61.7478 8.21161L59.3315 2.02612C59.0879 1.40285 58.498 1 57.8288 1H53.4293C52.9497 1 52.561 1.38872 52.561 1.86829C52.561 2.34786 52.9497 2.73657 53.4293 2.73657H57.7447L59.6676 7.65924H41.4879L40.3488 2.73657H53.4293C53.9089 2.73657 52.561 2.34786 52.561 1.86829C52.561 1.38872 53.9089 1 53.4293 1H39.2567H30.5076H11.9354C11.266 1 10.6763 1.40285 10.4327 2.02636L8.01641 8.21161C8.01463 8.21624 8.01368 8.22099 8.0119 8.2255C8.00287 8.24961 7.99503 8.2742 7.98814 8.29938C7.98565 8.30852 7.98327 8.31755 7.98114 8.32669C7.97567 8.34985 7.97128 8.37336 7.96772 8.39712C7.96629 8.40662 7.96451 8.41612 7.96332 8.42562C7.96035 8.45151 7.95869 8.47764 7.95798 8.50412C7.95786 8.51078 7.95703 8.51743 7.95691 8.5242L7.95679 8.5274V24.202C7.95679 24.6816 8.60429 24.2639 9.08386 24.2639C9.32054 24.5498 9.69336 25.4308 9.69336 24.9512V9.39581H28.0985V22.5938C28.0985 23.11 28.4025 23.5803 28.8732 23.7921C29.0455 23.8696 29.229 23.9075 29.4113 23.9075C29.7268 23.9075 30.0388 23.7942 30.2834 23.5773L34.8821 19.5032L39.4808 23.5772C39.8669 23.9196 40.4206 24.0038 40.8912 23.7921C41.3618 23.5802 41.6658 23.11 41.6658 22.5938V9.39581H60.0708V48.3414C60.0708 48.9644 59.5638 49.4714 58.9408 49.4714H43.0201C43.0201 49.4615 43.0189 49.4517 43.0188 49.4418C43.0178 49.3639 43.015 49.2861 43.0083 49.2089C44.5032 49.6053 46.1005 48.837 46.6995 47.3679C47.0146 46.5951 47.01 45.7459 46.6863 44.9768C46.6558 44.9043 46.6222 44.834 46.5868 44.7648C46.5803 44.7521 46.574 44.7392 46.5674 44.7267C46.5326 44.6606 46.4956 44.5961 46.4565 44.5333C46.4489 44.5211 46.4411 44.5092 46.4334 44.4971C46.392 44.4326 46.3492 44.3693 46.3034 44.3084L46.3008 44.305C46.2554 44.2448 46.2075 44.1869 46.1579 44.1302C46.1489 44.1199 46.14 44.1094 46.1309 44.0991C46.0818 44.0445 46.0309 43.9916 45.9781 43.9407C45.9678 43.9307 45.9573 43.9211 45.9469 43.9113C45.8917 43.8594 45.8351 43.809 45.7762 43.7613C45.7742 43.7598 45.7722 43.7582 45.7702 43.7567C45.7122 43.71 45.652 43.6658 45.5906 43.6233C45.5796 43.6156 45.5686 43.6078 45.5573 43.6002C45.4959 43.5588 45.433 43.5198 45.3684 43.4826C45.3631 43.4795 45.3582 43.4759 45.3527 43.4729C45.7197 43.1553 46.0094 42.7534 46.198 42.2909C46.513 41.5181 46.5084 40.6689 46.1848 39.8997C45.9016 39.2267 45.4039 38.6853 44.7664 38.3495C44.6753 38.3015 44.5813 38.2577 44.4848 38.2184L30.9709 32.7081L37.2614 30.761C38.758 30.2977 39.6008 28.7015 39.1403 27.2031C38.9684 26.6437 38.6277 26.172 38.1875 25.8272C37.5326 25.314 36.6571 25.0823 35.789 25.2646C35.7848 25.2656 35.7808 25.2663 35.7766 25.2674C35.7285 25.2782 30.9062 26.3625 25.8698 27.3445C25.6464 27.3881 25.4287 27.4302 25.2141 27.4715C25.0423 27.5045 24.873 27.5371 24.7068 27.5687C24.6591 27.5778 24.6112 27.5868 24.5638 27.5958C24.2705 27.6515 23.9863 27.7049 23.71 27.7562C23.5989 27.7768 23.4887 27.7973 23.3802 27.8172C17.0552 28.9824 15.2784 29.0033 14.7853 28.9366L14.7798 28.9357C14.7723 28.9347 14.765 28.9336 14.7581 28.9325C14.7531 28.9317 14.7484 28.9309 14.7438 28.9302C14.7405 28.9296 14.7369 28.929 14.7337 28.9285C14.703 28.9229 14.679 28.9171 14.6604 28.9115L14.5182 28.8536L14.6955 28.4188C14.8698 27.9912 14.8672 27.5214 14.6882 27.0958C14.6435 26.9894 14.5889 26.889 14.5258 26.7954C14.3362 26.5147 14.0682 26.2962 13.7475 26.1654L9.08386 24.2639C8.65643 24.0894 8.18648 24.0922 7.76095 24.2712C7.3353 24.4501 7.00501 24.7842 6.83067 25.2117L1.12796 39.1977C0.768103 40.0802 1.1934 41.0909 2.07594 41.4509L6.73969 43.3525C6.95264 43.4394 7.17295 43.4805 7.38993 43.4805C8.07199 43.4805 8.71973 43.074 8.99277 42.4046L9.03565 42.2995L10.1109 42.7378L10.1128 42.7387C11.1413 43.158 12.089 43.7563 12.9091 44.4989C13.0583 44.6339 13.2032 44.7737 13.3437 44.918C13.4842 45.0623 13.6201 45.2112 13.7513 45.3644C13.8169 45.441 13.8813 45.5188 13.9444 45.5975C15.1395 47.0878 16.7063 48.2568 18.475 48.9781L19.6848 49.4713H10.8235C10.2005 49.4713 9.69348 48.9643 9.69348 48.3412C9.69348 48.3412 9.69348 42.8841 9.69348 42.4046C9.69348 41.925 9.03565 42.2995 9.03565 42.2995C9.03565 42.2995 7.95691 42.3388 7.95691 42.8183V48.3412C7.95691 49.9219 9.24277 51.2079 10.8235 51.2079H23.9438L35.1291 55.7686C35.5142 55.9257 35.9125 56.0001 36.3048 56C37.5374 56 38.7082 55.2654 39.2017 54.0554C39.404 53.559 39.469 53.0403 39.4145 52.5416C39.9963 52.6251 40.5995 52.5485 41.1463 52.3124C41.702 52.0723 42.1626 51.69 42.4897 51.2077H58.9409C60.5215 51.2077 61.8075 49.9219 61.8075 48.3411V8.52752L61.8073 8.5242ZM31.1979 2.73657H38.5663L39.7054 7.65924H30.0588L31.1979 2.73657ZM28.2764 7.65924H10.0966L12.0195 2.73657H29.4155L28.2764 7.65924ZM39.9295 21.6545L35.7533 17.955C35.505 17.7351 35.1936 17.6251 34.8823 17.6251C34.5709 17.6251 34.2594 17.7351 34.0111 17.955L29.8352 21.6545V9.39581H39.9295V21.6545ZM7.38779 41.7414L2.739 39.8459L8.43565 25.8751L13.0844 27.7707L7.38779 41.7414ZM42.0771 46.9814L41.0805 46.575L41.0791 46.5744L41.0777 46.5738L30.6993 42.3421C30.2554 42.1611 29.7486 42.3742 29.5675 42.8183C29.3864 43.2624 29.5996 43.7692 30.0438 43.9503L40.4223 48.1821C40.4657 48.1998 40.5076 48.2194 40.5481 48.2409C40.5595 48.2469 40.5701 48.2543 40.5812 48.2606C40.6097 48.2767 40.6384 48.2929 40.6653 48.3108C40.6783 48.3195 40.6901 48.3295 40.7027 48.3385C40.7266 48.3556 40.751 48.3725 40.7735 48.391C40.7872 48.4022 40.7995 48.4146 40.8127 48.4263C40.8329 48.4442 40.8536 48.4616 40.8726 48.4806C40.8857 48.4936 40.8975 48.508 40.9101 48.5215C40.9276 48.5403 40.9455 48.5587 40.9619 48.5784C40.9744 48.5935 40.9853 48.6095 40.9972 48.6251C41.012 48.6446 41.0274 48.6637 41.0411 48.6839C41.0526 48.7007 41.0625 48.7186 41.0732 48.7358C41.0855 48.7557 41.0986 48.7753 41.1099 48.7959C41.1201 48.8144 41.1286 48.8338 41.138 48.8526C41.148 48.8729 41.1588 48.8929 41.1678 48.9137C41.1765 48.9336 41.1835 48.9543 41.1912 48.9746C41.1991 48.9952 41.2076 49.0154 41.2145 49.0363C41.2214 49.0573 41.2266 49.0788 41.2324 49.1C41.2382 49.121 41.2448 49.1417 41.2496 49.163C41.2545 49.1845 41.2576 49.2063 41.2615 49.2279C41.2654 49.2495 41.27 49.2709 41.2728 49.2928C41.2757 49.3146 41.2767 49.3367 41.2785 49.3587C41.2803 49.3808 41.2829 49.4028 41.2836 49.4249C41.2843 49.4466 41.2833 49.4686 41.283 49.4904C41.2828 49.513 41.2831 49.5355 41.2817 49.5582C41.2804 49.5797 41.2772 49.6012 41.2748 49.6227C41.2723 49.6459 41.2704 49.669 41.2666 49.6921C41.2632 49.7132 41.2578 49.7342 41.2534 49.7554C41.2485 49.7788 41.2443 49.8022 41.238 49.8254C41.2325 49.846 41.2252 49.8664 41.2186 49.8868C41.2113 49.9101 41.2045 49.9334 41.1958 49.9563C41.1885 49.9721 41.1812 49.988 41.1745 50.0041C41.1729 50.0077 41.1721 50.0115 41.1707 50.0151C41.035 50.3283 40.7847 50.5771 40.4577 50.7183C40.0979 50.8735 39.6859 50.879 39.3272 50.7327L37.4884 49.9829C37.4798 49.9795 37.4712 49.9771 37.4626 49.9739C37.4539 49.97 37.4457 49.9655 37.437 49.9619L28.9957 46.52C28.5514 46.339 28.0448 46.5521 27.8638 46.9962C27.6827 47.4403 27.8959 47.9471 28.34 48.1282L36.7813 51.5701C36.7903 51.5738 36.7994 51.5764 36.8086 51.5797C36.8168 51.5833 36.8244 51.5877 36.8328 51.591C37.5412 51.8799 37.8827 52.6913 37.5938 53.3998C37.3049 54.1084 36.4938 54.45 35.7851 54.1608L24.4437 49.5364L24.4422 49.5357L19.1311 47.37C18.1962 46.9888 17.328 46.4597 16.5616 45.8087C16.1018 45.4181 15.6786 44.9838 15.2995 44.5111C14.926 44.0454 14.5163 43.6111 14.0754 43.2119C13.1055 42.3339 11.9849 41.6264 10.7689 41.1305L9.69182 40.6914L11.8363 35.4319L13.8629 30.4618L14.0125 30.5227C14.1532 30.58 14.3539 30.6615 14.8941 30.6819C15.5689 30.7125 16.6853 30.642 18.6852 30.3595C20.0457 30.1673 21.7145 29.8894 23.6625 29.531C23.7105 29.5222 23.7581 29.5134 23.8066 29.5045C23.8977 29.4876 23.9897 29.4705 24.0821 29.4534C24.154 29.4401 24.2262 29.4266 24.299 29.4129C24.3819 29.3974 24.4652 29.3818 24.549 29.366C24.638 29.3493 24.728 29.3323 24.8185 29.3151C24.8909 29.3013 24.9633 29.2876 25.0364 29.2738C25.1467 29.2527 25.259 29.2312 25.3716 29.2096C25.4295 29.1985 25.4869 29.1875 25.5453 29.1764C25.7178 29.1431 25.8925 29.1094 26.0704 29.0748C31.0895 28.0986 35.9339 27.012 36.1516 26.9631C36.1733 26.9586 36.195 26.9559 36.2168 26.9527C36.7745 26.8702 37.3209 27.1928 37.4809 27.7132C37.5371 27.8961 37.5436 28.0827 37.5082 28.2582C37.4304 28.6445 37.1497 28.9779 36.7484 29.102L28.1401 31.7664C27.7896 31.8749 27.5452 32.1917 27.5294 32.5582C27.5135 32.9246 27.7294 33.2615 28.0691 33.4L43.8296 39.8264C44.1728 39.9663 44.441 40.2315 44.5847 40.5732C44.7284 40.9149 44.7305 41.2921 44.5905 41.6352C44.4505 41.9784 44.1854 42.2466 43.8437 42.3903C43.6729 42.4621 43.4932 42.4984 43.3133 42.4995C43.3107 42.4995 43.3081 42.4991 43.3055 42.4991C43.2632 42.4991 43.221 42.4974 43.1789 42.4935C43.1664 42.4923 43.154 42.4897 43.1416 42.4883C43.1094 42.4844 43.0772 42.4807 43.0452 42.4745C43.0251 42.4706 43.0051 42.4647 42.985 42.4599C42.961 42.4542 42.9369 42.4493 42.9132 42.4423C42.8886 42.4351 42.8645 42.4255 42.8403 42.4168C42.821 42.4099 42.8014 42.4042 42.7824 42.3965L32.4029 38.1642C31.9588 37.9831 31.4522 38.1963 31.2711 38.6405C31.0899 39.0845 31.3031 39.5913 31.7473 39.7724L44.331 44.9034C44.4169 44.9383 44.498 44.9812 44.5736 45.031C44.8006 45.1807 44.9784 45.3939 45.0861 45.6502C45.2119 45.9491 45.2292 46.2752 45.1378 46.582C45.1247 46.6258 45.1094 46.6693 45.0919 46.7122C45.0739 46.7565 45.0538 46.7993 45.0318 46.8407C44.9806 46.9369 44.9183 47.0238 44.8487 47.103C44.8055 47.1522 44.7593 47.198 44.7101 47.2401C44.7022 47.2467 44.6951 47.2543 44.6872 47.2607C44.3703 47.5199 43.9467 47.6313 43.5328 47.5477C43.4488 47.5307 43.3653 47.5066 43.2831 47.4731L42.0771 46.9814Z" fill="white"/>
<path d="M53.4293 1H57.8288C58.498 1 59.0879 1.40285 59.3315 2.02612L61.7478 8.21161C61.7496 8.21612 61.7506 8.22087 61.7523 8.2255C61.7613 8.24973 61.7692 8.27432 61.776 8.29938C61.7785 8.30852 61.7809 8.31755 61.7831 8.32669C61.7885 8.34973 61.7929 8.37325 61.7965 8.39712C61.7979 8.40662 61.7997 8.41612 61.8009 8.42562C61.804 8.45151 61.8055 8.47764 61.8062 8.50412C61.8064 8.51089 61.8073 8.51754 61.8073 8.5242L61.8075 8.52752V48.3411C61.8075 49.9219 60.5215 51.2077 58.9409 51.2077H42.4897C42.1626 51.69 41.702 52.0723 41.1463 52.3124C40.5995 52.5485 39.9963 52.6251 39.4145 52.5416C39.469 53.0403 39.404 53.559 39.2017 54.0554C38.7082 55.2654 37.5374 56 36.3048 56C35.9125 56.0001 35.5142 55.9257 35.1291 55.7686L23.9438 51.2079H10.8235C9.24277 51.2079 7.95691 49.9219 7.95691 48.3412V42.8183C7.95691 42.3388 9.03565 42.2995 9.03565 42.2995M53.4293 1C52.9497 1 52.561 1.38872 52.561 1.86829M53.4293 1C53.9089 1 52.561 1.38872 52.561 1.86829M53.4293 1H39.2567H30.5076H11.9354C11.266 1 10.6763 1.40285 10.4327 2.02636L8.01641 8.21161C8.01463 8.21624 8.01368 8.22099 8.0119 8.2255C8.00287 8.24961 7.99503 8.2742 7.98814 8.29938C7.98565 8.30852 7.98327 8.31755 7.98114 8.32669C7.97567 8.34985 7.97128 8.37336 7.96772 8.39712C7.96629 8.40662 7.96451 8.41612 7.96332 8.42562C7.96035 8.45151 7.95869 8.47764 7.95798 8.50412C7.95786 8.51078 7.95703 8.51743 7.95691 8.5242L7.95679 8.5274V24.202C7.95679 24.6816 8.60429 24.2639 9.08386 24.2639M52.561 1.86829C52.561 2.34786 52.9497 2.73657 53.4293 2.73657M52.561 1.86829C52.561 2.34786 53.9089 2.73657 53.4293 2.73657M53.4293 2.73657H57.7447L59.6676 7.65924H41.4879L40.3488 2.73657H53.4293ZM9.08386 24.2639C9.32054 24.5498 9.69336 25.4308 9.69336 24.9512V9.39581H28.0985V22.5938C28.0985 23.11 28.4025 23.5803 28.8732 23.7921C29.0455 23.8696 29.229 23.9075 29.4113 23.9075C29.7268 23.9075 30.0388 23.7942 30.2834 23.5773L34.8821 19.5032L39.4808 23.5772C39.8669 23.9196 40.4206 24.0038 40.8912 23.7921C41.3618 23.5802 41.6658 23.11 41.6658 22.5938V9.39581H60.0708V48.3414C60.0708 48.9644 59.5638 49.4714 58.9408 49.4714H43.0201C43.0201 49.4615 43.0189 49.4517 43.0188 49.4418C43.0178 49.3639 43.015 49.2861 43.0083 49.2089C44.5032 49.6053 46.1005 48.837 46.6995 47.3678C47.0146 46.5951 47.01 45.7459 46.6863 44.9768C46.6558 44.9043 46.6222 44.834 46.5868 44.7648C46.5803 44.7521 46.574 44.7392 46.5674 44.7266C46.5326 44.6606 46.4956 44.5961 46.4565 44.5333C46.4489 44.5211 46.4411 44.5092 46.4334 44.4971C46.392 44.4326 46.3492 44.3693 46.3034 44.3084L46.3008 44.305C46.2554 44.2448 46.2075 44.1869 46.1579 44.1302C46.1489 44.1199 46.14 44.1094 46.1309 44.0991C46.0818 44.0445 46.0309 43.9916 45.9781 43.9407C45.9678 43.9307 45.9573 43.9211 45.9469 43.9113C45.8917 43.8594 45.8351 43.809 45.7762 43.7613C45.7742 43.7598 45.7722 43.7582 45.7702 43.7567C45.7122 43.71 45.652 43.6658 45.5906 43.6233C45.5796 43.6156 45.5686 43.6078 45.5573 43.6002C45.4959 43.5588 45.433 43.5198 45.3684 43.4826C45.3631 43.4795 45.3582 43.4759 45.3527 43.4729C45.7197 43.1553 46.0094 42.7534 46.198 42.2909C46.513 41.5181 46.5084 40.6689 46.1848 39.8997C45.9016 39.2267 45.4039 38.6853 44.7664 38.3495C44.6753 38.3015 44.5813 38.2577 44.4848 38.2184L30.9709 32.7081L37.2614 30.761C38.758 30.2977 39.6008 28.7015 39.1403 27.2031C38.9684 26.6437 38.6277 26.172 38.1875 25.8272C37.5326 25.314 36.6571 25.0823 35.789 25.2646C35.7848 25.2656 35.7808 25.2663 35.7766 25.2674C35.7285 25.2782 30.9062 26.3625 25.8698 27.3445C25.6464 27.3881 25.4287 27.4302 25.2141 27.4715C25.0423 27.5045 24.873 27.5371 24.7068 27.5687C24.6591 27.5778 24.6112 27.5868 24.5638 27.5958C24.2705 27.6515 23.9863 27.7049 23.71 27.7562C23.5989 27.7768 23.4887 27.7973 23.3802 27.8172C17.0552 28.9824 15.2784 29.0033 14.7853 28.9366L14.7798 28.9357C14.7723 28.9347 14.765 28.9336 14.7581 28.9325C14.7531 28.9317 14.7484 28.9309 14.7438 28.9302C14.7405 28.9296 14.7369 28.929 14.7337 28.9285C14.703 28.9229 14.679 28.9171 14.6604 28.9115L14.5182 28.8536L14.6955 28.4188C14.8698 27.9912 14.8672 27.5214 14.6882 27.0958C14.6435 26.9894 14.5889 26.889 14.5258 26.7954C14.3362 26.5147 14.0682 26.2962 13.7475 26.1654L9.08386 24.2639ZM9.08386 24.2639C8.65643 24.0894 8.18648 24.0922 7.76095 24.2712C7.3353 24.4501 7.00501 24.7842 6.83067 25.2117L1.12796 39.1977C0.768103 40.0802 1.1934 41.0909 2.07594 41.4509L6.73969 43.3525C6.95264 43.4394 7.17295 43.4805 7.38993 43.4805C8.07199 43.4805 8.71973 43.074 8.99277 42.4046L9.03565 42.2995M9.03565 42.2995L10.1109 42.7378L10.1128 42.7387C11.1413 43.158 12.089 43.7563 12.9091 44.4989C13.0583 44.6339 13.2032 44.7737 13.3437 44.918C13.4842 45.0623 13.6201 45.2112 13.7513 45.3644C13.8169 45.441 13.8813 45.5188 13.9444 45.5976C15.1395 47.0878 16.7063 48.2568 18.475 48.9781L19.6848 49.4713H10.8235C10.2005 49.4713 9.69348 48.9643 9.69348 48.3412C9.69348 48.3412 9.69348 42.8841 9.69348 42.4046C9.69348 41.925 9.03565 42.2995 9.03565 42.2995ZM31.1979 2.73657H38.5663L39.7054 7.65924H30.0588L31.1979 2.73657ZM28.2764 7.65924H10.0966L12.0195 2.73657H29.4155L28.2764 7.65924ZM39.9295 21.6545L35.7533 17.955C35.505 17.7351 35.1936 17.6251 34.8823 17.6251C34.5709 17.6251 34.2594 17.7351 34.0111 17.955L29.8352 21.6545V9.39581H39.9295V21.6545ZM7.38779 41.7414L2.739 39.8459L8.43565 25.8751L13.0844 27.7707L7.38779 41.7414ZM42.0771 46.9814L41.0805 46.575L41.0791 46.5744L41.0777 46.5738L30.6993 42.3421C30.2554 42.1611 29.7486 42.3742 29.5675 42.8183C29.3864 43.2624 29.5996 43.7692 30.0438 43.9503L40.4223 48.1821C40.4657 48.1998 40.5076 48.2194 40.5481 48.2409C40.5595 48.2469 40.5701 48.2543 40.5812 48.2606C40.6097 48.2768 40.6384 48.2929 40.6653 48.3108C40.6783 48.3195 40.6901 48.3295 40.7027 48.3385C40.7266 48.3556 40.751 48.3725 40.7735 48.391C40.7872 48.4022 40.7995 48.4146 40.8127 48.4263C40.8329 48.4442 40.8536 48.4616 40.8726 48.4806C40.8858 48.4936 40.8975 48.508 40.9101 48.5215C40.9276 48.5403 40.9455 48.5587 40.9619 48.5784C40.9744 48.5935 40.9853 48.6095 40.9972 48.6251C41.012 48.6446 41.0274 48.6637 41.0411 48.6839C41.0526 48.7007 41.0625 48.7186 41.0732 48.7358C41.0855 48.7557 41.0986 48.7753 41.1099 48.7959C41.1201 48.8144 41.1286 48.8338 41.138 48.8526C41.148 48.8729 41.1588 48.8929 41.1678 48.9137C41.1765 48.9336 41.1835 48.9543 41.1912 48.9746C41.1991 48.9952 41.2076 49.0153 41.2145 49.0363C41.2214 49.0573 41.2266 49.0788 41.2324 49.1C41.2382 49.121 41.2448 49.1417 41.2496 49.163C41.2545 49.1845 41.2576 49.2063 41.2615 49.2279C41.2654 49.2496 41.27 49.2709 41.2728 49.2928C41.2757 49.3146 41.2767 49.3367 41.2785 49.3587C41.2803 49.3808 41.2829 49.4028 41.2836 49.4248C41.2843 49.4466 41.2833 49.4686 41.283 49.4904C41.2828 49.513 41.2831 49.5355 41.2817 49.5582C41.2804 49.5797 41.2772 49.6012 41.2748 49.6227C41.2723 49.6459 41.2704 49.669 41.2666 49.6921C41.2632 49.7132 41.2578 49.7342 41.2534 49.7554C41.2485 49.7788 41.2443 49.8022 41.238 49.8254C41.2325 49.846 41.2252 49.8664 41.2186 49.8868C41.2113 49.9101 41.2045 49.9334 41.1958 49.9563C41.1885 49.9721 41.1812 49.988 41.1745 50.0041C41.1729 50.0077 41.1721 50.0115 41.1707 50.0151C41.035 50.3283 40.7847 50.5771 40.4577 50.7183C40.0979 50.8735 39.6859 50.879 39.3272 50.7327L37.4884 49.9829C37.4798 49.9795 37.4712 49.9771 37.4626 49.9739C37.4539 49.97 37.4457 49.9655 37.437 49.9619L28.9957 46.52C28.5514 46.339 28.0448 46.5521 27.8638 46.9962C27.6827 47.4403 27.8959 47.9471 28.34 48.1282L36.7813 51.5701C36.7903 51.5738 36.7994 51.5764 36.8086 51.5797C36.8168 51.5833 36.8244 51.5877 36.8328 51.591C37.5412 51.8799 37.8827 52.6913 37.5938 53.3998C37.3049 54.1084 36.4938 54.45 35.7851 54.1608L24.4437 49.5364L24.4422 49.5357L19.1311 47.37C18.1962 46.9888 17.328 46.4597 16.5616 45.8087C16.1018 45.4181 15.6786 44.9838 15.2995 44.5111C14.926 44.0454 14.5163 43.6111 14.0754 43.2119C13.1055 42.3339 11.9849 41.6264 10.7689 41.1305L9.69182 40.6914L11.8363 35.4319L13.8629 30.4618L14.0125 30.5227C14.1532 30.58 14.3539 30.6615 14.8941 30.6819C15.5689 30.7125 16.6853 30.642 18.6852 30.3595C20.0457 30.1673 21.7145 29.8894 23.6625 29.531C23.7105 29.5222 23.7581 29.5134 23.8066 29.5045C23.8977 29.4876 23.9897 29.4705 24.0821 29.4534C24.154 29.4401 24.2262 29.4266 24.299 29.4129C24.3819 29.3974 24.4652 29.3818 24.549 29.366C24.638 29.3493 24.728 29.3323 24.8185 29.3151C24.8909 29.3013 24.9633 29.2876 25.0364 29.2737C25.1467 29.2527 25.259 29.2312 25.3716 29.2096C25.4295 29.1985 25.4869 29.1875 25.5453 29.1764C25.7178 29.1431 25.8925 29.1094 26.0704 29.0748C31.0895 28.0986 35.9339 27.012 36.1516 26.9631C36.1733 26.9586 36.195 26.9559 36.2168 26.9527C36.7745 26.8702 37.3209 27.1928 37.4809 27.7132C37.5371 27.8961 37.5436 28.0827 37.5082 28.2582C37.4304 28.6445 37.1497 28.9779 36.7484 29.102L28.1401 31.7664C27.7896 31.8749 27.5452 32.1917 27.5294 32.5582C27.5135 32.9246 27.7294 33.2615 28.0691 33.4L43.8296 39.8264C44.1728 39.9663 44.441 40.2315 44.5847 40.5732C44.7284 40.9149 44.7305 41.2921 44.5905 41.6352C44.4505 41.9784 44.1854 42.2466 43.8437 42.3903C43.6729 42.4621 43.4932 42.4984 43.3133 42.4995C43.3107 42.4995 43.3081 42.4991 43.3055 42.4991C43.2632 42.4991 43.221 42.4974 43.1789 42.4935C43.1664 42.4923 43.154 42.4897 43.1416 42.4883C43.1094 42.4844 43.0772 42.4807 43.0452 42.4745C43.0251 42.4706 43.0051 42.4647 42.985 42.4599C42.961 42.4542 42.9369 42.4493 42.9132 42.4423C42.8886 42.4351 42.8645 42.4255 42.8403 42.4168C42.821 42.4099 42.8014 42.4042 42.7824 42.3965L32.4029 38.1642C31.9588 37.9831 31.4522 38.1963 31.2711 38.6405C31.0899 39.0845 31.3031 39.5913 31.7473 39.7724L44.331 44.9034C44.4169 44.9383 44.498 44.9812 44.5736 45.031C44.8006 45.1807 44.9784 45.3939 45.0861 45.6502C45.2119 45.9491 45.2292 46.2752 45.1378 46.582C45.1247 46.6258 45.1094 46.6693 45.0919 46.7122C45.0739 46.7565 45.0538 46.7993 45.0318 46.8407C44.9806 46.9369 44.9183 47.0238 44.8487 47.103C44.8054 47.1522 44.7593 47.198 44.7101 47.2401C44.7022 47.2467 44.6951 47.2543 44.6872 47.2607C44.3703 47.5199 43.9467 47.6313 43.5328 47.5477C43.4488 47.5307 43.3653 47.5066 43.2831 47.4731L42.0771 46.9814Z" stroke="white" stroke-width="0.7"/>
</svg>
