<svg width="14" height="20" viewBox="0 0 14 20" fill="none" xmlns="http://www.w3.org/2000/svg">
<path d="M12.7973 3.4249C11.5835 1.33021 9.42758 0.0504882 7.03013 0.00158203C6.92778 -0.000527343 6.82478 -0.000527343 6.72239 0.00158203C4.32497 0.0504882 2.16904 1.33021 0.95521 3.4249C-0.285492 5.56599 -0.319437 8.13786 0.86439 10.3047L5.82388 19.3823C5.8261 19.3863 5.82833 19.3904 5.83064 19.3943C6.04884 19.7736 6.43974 20 6.87634 20C7.3129 20 7.7038 19.7736 7.92196 19.3943C7.92427 19.3904 7.92649 19.3863 7.92872 19.3823L12.8882 10.3047C14.072 8.13786 14.038 5.56599 12.7973 3.4249ZM6.87626 9.06251C5.32544 9.06251 4.06376 7.80083 4.06376 6.25001C4.06376 4.69919 5.32544 3.43752 6.87626 3.43752C8.42708 3.43752 9.68876 4.69919 9.68876 6.25001C9.68876 7.80083 8.42712 9.06251 6.87626 9.06251Z" fill="#333333"/>
</svg>
