<svg width="119" height="52" viewBox="0 0 119 52" fill="none" xmlns="http://www.w3.org/2000/svg">
<g clip-path="url(#clip0)">
<path d="M63.5074 8.03857H58.821V24.5492H63.5074V8.03857Z" fill="black"/>
<path d="M61.1642 6.00385C62.8221 6.00385 64.1661 4.65984 64.1661 3.00192C64.1661 1.34401 62.8221 0 61.1642 0C59.5063 0 58.1623 1.34401 58.1623 3.00192C58.1623 4.65984 59.5063 6.00385 61.1642 6.00385Z" fill="#2F80ED"/>
<path d="M75.4567 33.1629C74.7073 31.9096 73.6286 30.8858 72.338 30.2026C70.9127 29.4951 69.343 29.127 67.7518 29.127C66.1605 29.127 64.5908 29.4951 63.1655 30.2026C61.8563 30.878 60.7596 31.9026 59.9968 33.1629C59.2486 34.4689 58.8549 35.9479 58.8549 37.4531C58.8549 38.9583 59.2486 40.4373 59.9968 41.7434C60.7547 43.0076 61.8527 44.0333 63.1655 44.7036C64.5908 45.4111 66.1605 45.7793 67.7518 45.7793C69.343 45.7793 70.9127 45.4111 72.338 44.7036C73.6445 44.0304 74.7363 43.005 75.4901 41.7434C76.2383 40.4373 76.632 38.9583 76.632 37.4531C76.632 35.9479 76.2383 34.4689 75.4901 33.1629H75.4567ZM67.7268 42.0019C66.8032 42.0019 65.9004 41.728 65.1324 41.2149C64.3645 40.7018 63.766 39.9725 63.4126 39.1192C63.0591 38.2659 62.9666 37.327 63.1468 36.4212C63.327 35.5154 63.7717 34.6833 64.4248 34.0302C65.0779 33.3772 65.9099 32.9324 66.8158 32.7523C67.7216 32.5721 68.6605 32.6646 69.5138 33.018C70.367 33.3714 71.0963 33.9699 71.6094 34.7379C72.1225 35.5058 72.3964 36.4086 72.3964 37.3322C72.3964 38.5707 71.9044 39.7584 71.0287 40.6341C70.153 41.5099 68.9652 42.0019 67.7268 42.0019Z" fill="black"/>
<path d="M51.0911 22.1392C52.1028 21.6924 52.9839 20.995 53.651 20.1129H53.9929C53.221 21.0322 52.22 21.7312 51.0911 22.1392ZM43.5863 20.5298C43.0056 19.9573 42.5446 19.2751 42.2299 18.5228C41.9152 17.7706 41.7531 16.9633 41.7531 16.1478C41.7531 15.3324 41.9152 14.5251 42.2299 13.7729C42.5446 13.0206 43.0056 12.3384 43.5863 11.7659C42.5028 12.9682 41.9032 14.5293 41.9032 16.1478C41.9032 17.7663 42.5028 19.3275 43.5863 20.5298ZM53.651 12.1911C52.9841 11.3068 52.1032 10.6066 51.0911 10.1565C52.2205 10.5675 53.2215 11.2694 53.9929 12.1911H53.651Z" fill="black"/>
<path d="M48.5895 7.83015C46.3283 7.78095 44.1402 8.63172 42.5061 10.1954C40.8721 11.7591 39.9259 13.9077 39.8755 16.1688C39.8994 17.2888 40.1438 18.393 40.5947 19.4184C41.0457 20.4438 41.6944 21.3703 42.5037 22.1447C43.3131 22.9192 44.2671 23.5265 45.3114 23.932C46.3556 24.3374 47.4696 24.533 48.5895 24.5075C50.4814 24.5337 52.3298 23.9386 53.8511 22.8134C55.3723 21.6883 56.4826 20.0952 57.0115 18.2785H52.6171C52.1473 19.2201 51.3733 19.9754 50.4204 20.4221C49.4676 20.8687 48.3919 20.9804 47.3677 20.739C46.3434 20.4977 45.4307 19.9175 44.7775 19.0926C44.1243 18.2676 43.7689 17.2461 43.7689 16.1938C43.7689 15.1416 44.1243 14.1201 44.7775 13.2951C45.4307 12.4701 46.3434 11.8899 47.3677 11.6486C48.3919 11.4073 49.4676 11.519 50.4204 11.9656C51.3733 12.4122 52.1473 13.1676 52.6171 14.1092H57.0115C56.4841 12.2909 55.3745 10.696 53.8531 9.56924C52.3317 8.44249 50.4825 7.84618 48.5895 7.87184V7.83015Z" fill="black"/>
<path d="M17.8114 1.91797H13.1334V9.42278C11.8876 8.52731 10.4189 7.99291 8.88896 7.87837C7.35901 7.76384 5.82712 8.07363 4.46189 8.77363C3.09665 9.47364 1.95101 10.5367 1.15104 11.8459C0.351072 13.1551 -0.0722046 14.6596 -0.0722046 16.1938C-0.0722046 17.728 0.351072 19.2325 1.15104 20.5417C1.95101 21.8508 3.09665 22.9139 4.46189 23.6139C5.82712 24.3139 7.35901 24.6237 8.88896 24.5092C10.4189 24.3947 11.8876 23.8603 13.1334 22.9648V24.5408H17.8114V1.91797ZM8.31365 20.8468C7.39008 20.8468 6.48725 20.5729 5.71933 20.0598C4.9514 19.5467 4.35288 18.8174 3.99945 17.9641C3.64601 17.1108 3.55354 16.1719 3.73372 15.2661C3.9139 14.3603 4.35864 13.5282 5.0117 12.8752C5.66476 12.2221 6.49682 11.7774 7.40264 11.5972C8.30847 11.417 9.24738 11.5095 10.1007 11.8629C10.9539 12.2163 11.6832 12.8149 12.1963 13.5828C12.7094 14.3507 12.9833 15.2535 12.9833 16.1771C12.9833 16.7903 12.8625 17.3976 12.6279 17.9641C12.3932 18.5307 12.0492 19.0454 11.6156 19.4791C11.182 19.9127 10.6672 20.2566 10.1007 20.4913C9.5341 20.726 8.92688 20.8468 8.31365 20.8468Z" fill="black"/>
<path d="M84.3207 1.91797H79.6344V9.42278C78.3886 8.52731 76.9199 7.99291 75.3899 7.87838C73.86 7.76384 72.3281 8.07363 70.9629 8.77363C69.5976 9.47364 68.452 10.5367 67.652 11.8459C66.852 13.1551 66.4288 14.6596 66.4288 16.1938C66.4288 17.728 66.852 19.2325 67.652 20.5417C68.452 21.8508 69.5976 22.9139 70.9629 23.6139C72.3281 24.3139 73.86 24.6237 75.3899 24.5092C76.9199 24.3947 78.3886 23.8603 79.6344 22.9648V38.5081C79.6344 40.9096 80.2598 42.6774 81.4939 43.9366C82.5583 44.8466 83.8522 45.4469 85.2345 45.6718C86.6167 45.8968 88.0342 45.7379 89.3323 45.2124C90.169 44.8452 90.9148 44.2986 91.517 43.6114V45.5293H95.9532V29.3772H91.2752V37.3657C91.364 38.5413 90.9967 39.7059 90.2495 40.6178C89.9066 40.9762 89.4913 41.2575 89.0312 41.443C88.5711 41.6285 88.0768 41.7139 87.5811 41.6935C85.4075 41.6935 84.3179 40.3926 84.3124 37.791V24.1822V1.91797H84.3207ZM74.8396 20.8468C73.9161 20.8468 73.0132 20.5729 72.2453 20.0598C71.4774 19.5467 70.8789 18.8174 70.5254 17.9641C70.172 17.1108 70.0795 16.1719 70.2597 15.2661C70.4399 14.3603 70.8846 13.5282 71.5377 12.8752C72.1908 12.2221 73.0228 11.7774 73.9286 11.5972C74.8345 11.417 75.7734 11.5095 76.6266 11.8629C77.4799 12.2163 78.2092 12.8149 78.7223 13.5828C79.2354 14.3507 79.5093 15.2535 79.5093 16.1771C79.5093 16.7903 79.3885 17.3976 79.1538 17.9641C78.9192 18.5307 78.5752 19.0454 78.1416 19.4791C77.708 19.9127 77.1932 20.2566 76.6266 20.4913C76.0601 20.726 75.4529 20.8468 74.8396 20.8468Z" fill="black"/>
<path d="M57.4118 29.1353C56.2865 29.1119 55.1685 29.3191 54.1263 29.7441C53.2167 30.1041 52.4295 30.7177 51.8582 31.5119V29.3772H47.3887V45.5292H52.0667V37.9076C52.0201 37.2968 52.0973 36.6829 52.2936 36.1026C52.4899 35.5223 52.8012 34.9876 53.2091 34.5305C53.6321 34.141 54.1291 33.8406 54.6706 33.6472C55.2122 33.4538 55.787 33.3713 56.3611 33.4047C56.5445 33.4047 56.8948 33.4047 57.4118 33.4631V29.1353Z" fill="black"/>
<path d="M34.3303 8.9558C32.905 8.24828 31.3353 7.88013 29.7441 7.88013C28.1528 7.88013 26.5831 8.24828 25.1578 8.9558C23.8468 9.62862 22.7495 10.6538 21.9891 11.916C21.2185 13.2143 20.8231 14.7009 20.8467 16.2104C20.8233 17.7174 21.2188 19.2012 21.9891 20.4965C22.747 21.7608 23.845 22.7865 25.1578 23.4568C26.5831 24.1643 28.1528 24.5324 29.7441 24.5324C31.3353 24.5324 32.905 24.1643 34.3303 23.4568C35.6368 22.7836 36.7286 21.7582 37.4824 20.4965C37.7274 20.0781 37.9312 19.6368 38.0911 19.179H33.213C32.6662 19.7871 31.9691 20.2407 31.1916 20.4942C30.4141 20.7477 29.5836 20.7922 28.7835 20.6232C27.9834 20.4542 27.2418 20.0777 26.6332 19.5315C26.0246 18.9853 25.5704 18.2885 25.3162 17.5113H38.5247C38.588 17.0749 38.6214 16.6347 38.6248 16.1938C38.6484 14.6842 38.2529 13.1976 37.4824 11.8994C36.7238 10.6458 35.6328 9.62695 34.3303 8.9558ZM25.2662 14.7929C25.5472 13.8202 26.1367 12.9652 26.9458 12.3568C27.755 11.7483 28.74 11.4192 29.7524 11.4192C30.7648 11.4192 31.7498 11.7483 32.559 12.3568C33.3682 12.9652 33.9576 13.8202 34.2386 14.7929H25.2662Z" fill="black"/>
<path d="M100.873 8.95568C99.4642 8.22829 97.897 7.86157 96.3117 7.88833C94.7214 7.86364 93.1493 8.23017 91.7338 8.95568C90.4246 9.63103 89.3279 10.6556 88.5651 11.9159C87.7975 13.2151 87.4049 14.7016 87.4311 16.2103C87.4047 17.7165 87.7973 19.2004 88.5651 20.4964C89.3255 21.7587 90.4228 22.7838 91.7338 23.4566C93.1493 24.1821 94.7214 24.5487 96.3117 24.524C97.897 24.5508 99.4642 24.184 100.873 23.4566C102.179 22.7835 103.271 21.758 104.025 20.4964C104.268 20.0886 104.472 19.6586 104.634 19.2123H99.764C99.2162 19.8201 98.5185 20.2733 97.7405 20.5265C96.9625 20.7798 96.1316 20.8242 95.3311 20.6553C94.5305 20.4864 93.7884 20.1102 93.179 19.5642C92.5696 19.0182 92.1144 18.3218 91.8589 17.5445H105.067C105.135 17.1086 105.168 16.6681 105.167 16.227C105.198 14.7113 104.802 13.2175 104.025 11.9159C103.269 10.6562 102.178 9.63138 100.873 8.95568ZM91.8172 14.7928C92.0954 13.8187 92.6834 12.9618 93.4921 12.3518C94.3008 11.7418 95.2862 11.4118 96.2992 11.4118C97.3122 11.4118 98.2977 11.7418 99.1064 12.3518C99.9151 12.9618 100.503 13.8187 100.781 14.7928H91.8172Z" fill="black"/>
<path d="M105.026 29.3606H100.339V52.0001H105.026V44.4953C106.271 45.3908 107.74 45.9252 109.27 46.0397C110.8 46.1542 112.332 45.8445 113.697 45.1444C115.062 44.4444 116.208 43.3814 117.008 42.0722C117.808 40.763 118.231 39.2585 118.231 37.7243C118.231 36.1901 117.808 34.6856 117.008 33.3764C116.208 32.0672 115.062 31.0041 113.697 30.3041C112.332 29.6041 110.8 29.2943 109.27 29.4089C107.74 29.5234 106.271 30.0578 105.026 30.9533V29.3689V29.3606ZM109.862 42.3856C108.938 42.3856 108.036 42.1117 107.268 41.5986C106.5 41.0855 105.901 40.3562 105.548 39.503C105.194 38.6497 105.102 37.7108 105.282 36.8049C105.462 35.8991 105.907 35.0671 106.56 34.414C107.213 33.7609 108.045 33.3162 108.951 33.136C109.857 32.9558 110.796 33.0483 111.649 33.4017C112.502 33.7552 113.232 34.3537 113.745 35.1216C114.258 35.8895 114.532 36.7924 114.532 37.716C114.532 38.9544 114.04 40.1422 113.164 41.0179C112.288 41.8936 111.101 42.3856 109.862 42.3856Z" fill="black"/>
<path d="M43.1526 29.3606H38.4663V30.9449C37.2205 30.0495 35.7518 29.5151 34.2218 29.4005C32.6919 29.286 31.16 29.5958 29.7948 30.2958C28.4295 30.9958 27.2839 32.0589 26.4839 33.3681C25.684 34.6772 25.2607 36.1817 25.2607 37.716C25.2607 39.2502 25.684 40.7547 26.4839 42.0638C27.2839 43.373 28.4295 44.4361 29.7948 45.1361C31.16 45.8361 32.6919 46.1459 34.2218 46.0314C35.7518 45.9168 37.2205 45.3824 38.4663 44.487V51.9918H43.1526V29.3606ZM33.6465 42.3856C32.723 42.3856 31.8201 42.1117 31.0522 41.5986C30.2843 41.0855 29.6858 40.3562 29.3323 39.503C28.9789 38.6497 28.8864 37.7108 29.0666 36.8049C29.2468 35.8991 29.6915 35.0671 30.3446 34.414C30.9977 33.7609 31.8297 33.3162 32.7355 33.136C33.6414 32.9558 34.5803 33.0483 35.4335 33.4017C36.2868 33.7552 37.0161 34.3537 37.5292 35.1216C38.0423 35.8895 38.3162 36.7924 38.3162 37.716C38.3162 38.9544 37.8242 40.1422 36.9485 41.0179C36.0728 41.8936 34.885 42.3856 33.6465 42.3856Z" fill="black"/>
</g>
<defs>
<clipPath id="clip0">
<rect width="118.159" height="52" fill="white"/>
</clipPath>
</defs>
</svg>
