<svg width="12" height="12" viewBox="0 0 12 12" fill="none" xmlns="http://www.w3.org/2000/svg">
<path d="M6 0C2.69147 0 0 2.69147 0 6C0 9.30853 2.69147 12 6 12C9.30853 12 12 9.30853 12 6C12 2.69147 9.30853 0 6 0Z" fill="#2F80ED"/>
<path d="M8.82426 3.17572C8.58996 2.94143 8.21005 2.94143 7.97575 3.17572L5.99999 5.15148L4.02427 3.17572C3.78994 2.94143 3.41006 2.94143 3.17572 3.17572C2.94143 3.41002 2.94143 3.78994 3.17572 4.02424L5.15148 5.99999L3.17572 7.97575C2.94143 8.21005 2.94143 8.58996 3.17572 8.82426C3.4101 9.0586 3.78994 9.05856 4.02427 8.82426L5.99999 6.8485L7.97575 8.82426C8.21009 9.0586 8.58996 9.05856 8.82426 8.82426C9.0586 8.58996 9.0586 8.21005 8.82426 7.97575L6.84854 5.99999L8.82426 4.02424C9.0586 3.78994 9.0586 3.41002 8.82426 3.17572V3.17572Z" fill="white"/>
</svg>
