<svg width="31" height="31" viewBox="0 0 31 31" fill="none" xmlns="http://www.w3.org/2000/svg">
<g clip-path="url(#clip0)">
<path d="M15.2882 30.7347C23.572 30.7347 30.2874 24.0193 30.2874 15.7355C30.2874 7.45168 23.572 0.736328 15.2882 0.736328C7.00442 0.736328 0.289062 7.45168 0.289062 15.7355C0.289062 24.0193 7.00442 30.7347 15.2882 30.7347Z" fill="#4D76A1"/>
<path fill-rule="evenodd" clip-rule="evenodd" d="M14.722 22.3137H15.8992C15.8992 22.3137 16.2548 22.2747 16.4364 22.0789C16.6035 21.8993 16.5981 21.5618 16.5981 21.5618C16.5981 21.5618 16.5751 19.9822 17.3083 19.7496C18.031 19.5204 18.959 21.2763 19.9427 21.9514C20.6866 22.4623 21.2518 22.3503 21.2518 22.3503L23.8819 22.3137C23.8819 22.3137 25.2579 22.2289 24.6055 21.1471C24.552 21.0586 24.2255 20.3469 22.6499 18.8843C21.0007 17.3536 21.2216 17.6012 23.2082 14.9534C24.418 13.3409 24.9017 12.3564 24.7506 11.9348C24.6065 11.5332 23.7167 11.6393 23.7167 11.6393L20.7553 11.6578C20.7553 11.6578 20.5358 11.6278 20.3729 11.7251C20.2138 11.8206 20.1114 12.043 20.1114 12.043C20.1114 12.043 19.6427 13.2909 19.0176 14.3521C17.6989 16.5913 17.1717 16.7095 16.9561 16.5705C16.4548 16.2464 16.58 15.2686 16.58 14.574C16.58 12.404 16.9091 11.4992 15.9391 11.265C15.6171 11.1872 15.3802 11.1358 14.557 11.1276C13.5003 11.1166 12.606 11.1308 12.0996 11.3789C11.7627 11.5439 11.5028 11.9115 11.6611 11.9326C11.8568 11.9588 12.3001 12.0521 12.5351 12.3722C12.8386 12.785 12.8279 13.7123 12.8279 13.7123C12.8279 13.7123 13.0022 16.2668 12.4207 16.5841C12.0215 16.8018 11.4739 16.3574 10.2983 14.3259C9.69586 13.2853 9.24106 12.135 9.24106 12.135C9.24106 12.135 9.15336 11.9201 8.99695 11.8051C8.80711 11.6658 8.54188 11.6214 8.54188 11.6214L5.72776 11.6398C5.72776 11.6398 5.30531 11.6516 5.15023 11.8353C5.01227 11.9987 5.13927 12.3366 5.13927 12.3366C5.13927 12.3366 7.34243 17.4911 9.83704 20.0886C12.1244 22.4701 14.722 22.3137 14.722 22.3137Z" fill="white"/>
</g>
<defs>
<clipPath id="clip0">
<rect width="29.9983" height="29.9983" fill="white" transform="translate(0.289062 0.736328)"/>
</clipPath>
</defs>
</svg>
