<svg width="20" height="20" viewBox="0 0 20 20" fill="none" xmlns="http://www.w3.org/2000/svg">
<path d="M10 0C4.48578 0 0 4.48578 0 10C0 15.5142 4.48578 20 10 20C15.5142 20 20 15.5142 20 10C20 4.48578 15.5142 0 10 0Z" fill="#2F80ED"/>
<path d="M15.0692 7.88086L9.6525 13.2974C9.48999 13.4599 9.27667 13.5417 9.06335 13.5417C8.85004 13.5417 8.63672 13.4599 8.47421 13.2974L5.76593 10.5891C5.44 10.2634 5.44 9.73663 5.76593 9.41086C6.09171 9.08493 6.61829 9.08493 6.94421 9.41086L9.06335 11.53L13.8909 6.70258C14.2167 6.37665 14.7433 6.37665 15.0692 6.70258C15.395 7.02835 15.395 7.55493 15.0692 7.88086Z" fill="#E5E5E5"/>
</svg>
