<svg width="28" height="30" viewBox="0 0 28 30" fill="none" xmlns="http://www.w3.org/2000/svg">
<g clip-path="url(#clip0)">
<path d="M24.0848 0H3.98143C2.13303 0 0.630859 1.68125 0.630859 3.75V26.25C0.630859 28.3175 2.13303 30 3.98143 30H24.0848C25.9321 30 27.4354 28.3175 27.4354 26.25V3.75C27.4354 1.68125 25.9321 0 24.0848 0Z" fill="#3B5999"/>
<path d="M19.059 15V11.25C19.059 10.215 19.8096 10.3125 20.7343 10.3125H22.4096V5.625H19.059C16.2825 5.625 14.0332 8.1425 14.0332 11.25V15H10.6826V19.6875H14.0332V30H19.059V19.6875H21.572L23.2472 15H19.059Z" fill="white"/>
</g>
<defs>
<clipPath id="clip0">
<rect width="26.8046" height="30" fill="white" transform="translate(0.630859)"/>
</clipPath>
</defs>
</svg>
