<svg width="29" height="30" viewBox="0 0 29 30" fill="none" xmlns="http://www.w3.org/2000/svg">
<g clip-path="url(#clip0)">
<path d="M2.59334 2.04112C0.408931 4.48987 0.856005 7.09112 0.856005 14.9936C0.856005 21.5561 -0.204927 28.1349 5.34759 29.6836C7.08145 30.1649 22.4441 30.1649 24.1757 29.6811C26.4875 29.0374 28.3684 27.0136 28.6255 23.4849C28.6614 22.9924 28.6614 7.00362 28.6244 6.50112C28.351 2.74237 26.2072 0.576125 23.3823 0.137375C22.7348 0.0361249 22.6051 0.00612488 19.2833 -0.000125118C7.50073 0.00612488 4.91789 -0.560125 2.59334 2.04112Z" fill="url(#paint0_linear)"/>
<path d="M14.7535 3.92329C10.548 3.92329 6.55443 3.51954 5.02905 7.74454C4.39898 9.48954 4.49047 11.7558 4.49047 15.0008C4.49047 17.8483 4.40592 20.5245 5.02905 22.2558C6.55095 26.4833 10.5769 26.0783 14.7512 26.0783C18.7783 26.0783 22.9305 26.5308 24.4744 22.2558C25.1057 20.4933 25.013 18.2608 25.013 15.0008C25.013 10.6733 25.2342 7.87954 23.2896 5.78204C21.3206 3.65704 18.6578 3.92329 14.7488 3.92329H14.7535ZM13.8339 5.91954C22.6062 5.90454 23.7228 4.85204 23.1066 19.4733C22.8877 24.6445 19.2393 24.077 14.7546 24.077C6.57759 24.077 6.34247 23.8245 6.34247 14.9958C6.34247 6.06454 6.99108 5.92454 13.8339 5.91704V5.91954ZM20.2319 7.75829C19.552 7.75829 19.0007 8.35329 19.0007 9.08704C19.0007 9.82079 19.552 10.4158 20.2319 10.4158C20.9117 10.4158 21.4631 9.82079 21.4631 9.08704C21.4631 8.35329 20.9117 7.75829 20.2319 7.75829ZM14.7535 9.31204C11.8429 9.31204 9.48357 11.8595 9.48357 15.0008C9.48357 18.142 11.8429 20.6883 14.7535 20.6883C17.6641 20.6883 20.0222 18.142 20.0222 15.0008C20.0222 11.8595 17.6641 9.31204 14.7535 9.31204ZM14.7535 11.3083C19.2763 11.3083 19.2821 18.6933 14.7535 18.6933C10.2318 18.6933 10.2248 11.3083 14.7535 11.3083Z" fill="white"/>
</g>
<defs>
<linearGradient id="paint0_linear" x1="2.64664" y1="28.0837" x2="30.1473" y2="6.02979" gradientUnits="userSpaceOnUse">
<stop stop-color="#FFDD55"/>
<stop offset="0.5" stop-color="#FF543E"/>
<stop offset="1" stop-color="#C837AB"/>
</linearGradient>
<clipPath id="clip0">
<rect width="27.7973" height="30" fill="white" transform="translate(0.856445)"/>
</clipPath>
</defs>
</svg>
