<svg xmlns="http://www.w3.org/2000/svg" viewBox="0 0 208.67 59"><defs><style>.cls-1{font-size:19.85px;font-family:ProximaNova-Bold, Proxima Nova;font-weight:700;letter-spacing:0.02em;}.cls-1,.cls-4{fill:#333;}.cls-2{font-size:33.21px;letter-spacing:0.05em;}.cls-3{fill:none;stroke:#cb142e;stroke-miterlimit:10;stroke-width:4px;}</style></defs><title>logo_header</title><g id="Слой_2" data-name="Слой 2"><g id="Слой_1-2" data-name="Слой 1"><text class="cls-1" transform="translate(62.1 18.43)">ПРАВИЛЬНЫЙ<tspan class="cls-2"><tspan x="-0.85" y="31.01">РЕМОНТ</tspan></tspan></text><rect class="cls-3" x="2.02" y="4.83" width="43.54" height="43.54" rx="5" ry="5"/><path class="cls-4" d="M48.12,3.82A.71.71,0,0,0,48,3.56C45.53-.15,39.3,0,35.42,0a.55.55,0,0,0-.49.72,3,3,0,0,0-1,.42c-4,2.81-5.88,8.72-7.76,13-1.8,4.12-3.84,8.12-5.59,12.27-.74,1.76-2.73,5.32-3,8-3.46-6.46-6.68-13-9.78-19.69A.6.6,0,0,0,7,14.53c-.77-.46-1.76-.1-2.58.11a17.68,17.68,0,0,0-3.3,1.12.67.67,0,0,0-.32.32.56.56,0,0,0-.75.65C2.81,27.18,10.54,36,14.51,46a.91.91,0,0,0,.75.58.57.57,0,0,0,.4.32,30.91,30.91,0,0,0,4.42.63,11.23,11.23,0,0,0,4.09,0,.8.8,0,0,0,.55-.93.59.59,0,0,0,.33-.21.19.19,0,0,0-.18-.31c1-.15,2-4.83,2.29-5.64.93-2.6,2-5.16,3-7.72.59-1.48,1.26-2.95,2-4.4.28-.51.54-1,.79-1.56C37,19,42.57,11.65,48.08,5.16A1.05,1.05,0,0,0,48.12,3.82ZM6.19,16.49,6,16.15a3.2,3.2,0,0,0,.79-.28l.14.39A1,1,0,0,0,6.19,16.49Zm4.25,8.69L10.28,25l0,0c-.13-.54-.27-1.08-.43-1.61h0c.26.57.52,1.14.79,1.71A1.07,1.07,0,0,0,10.43,25.18ZM21.74,45.79a.88.88,0,0,0,.11-.69c.17-.12.32-.25.48-.39,0,.12-.06.24-.09.36a.77.77,0,0,0,.15.7Zm5.44-10.9c-.18.47-.39,1-.61,1.47,0-.11,0-.22,0-.33.27-.72.56-1.44.85-2.15l.19-.13C27.49,34.12,27.33,34.5,27.18,34.89Zm5.08-10.76c-.9,1.62-1.76,3.27-2.56,4.94q-.38.55-.79,1.06C30,28,31.2,25.9,32.39,23.81ZM38.49,4.9l.19-.33c.28-.36.56-.74.82-1.15h.09l.51.15a.79.79,0,0,0-.51.24Z"/></g></g></svg>