<svg width="20" height="22" viewBox="0 0 20 22" fill="none" xmlns="http://www.w3.org/2000/svg">
<g clip-path="url(#clip0)">
<path d="M0.401627 4.04193C3.04279 6.56979 7.67721 11.0171 9.03932 12.4037C9.22218 12.5909 9.4183 12.686 9.6219 12.686C9.82509 12.686 10.0209 12.5918 10.2033 12.4055C11.5666 11.0175 16.201 6.56979 18.8422 4.04193C19.0067 3.88485 19.0317 3.60874 18.8986 3.4167C18.5908 2.97294 18.132 2.71851 17.6402 2.71851H1.60359C1.11185 2.71851 0.652964 2.97294 0.345248 3.41675C0.212119 3.60874 0.237189 3.88485 0.401627 4.04193Z" fill="white"/>
<path d="M19.0113 5.41187C18.8692 5.33711 18.702 5.36319 18.5837 5.47737C16.854 7.13441 14.575 9.32377 12.8562 10.9945C12.7658 11.0822 12.7149 11.2109 12.7169 11.3459C12.7188 11.4804 12.774 11.6073 12.8672 11.6914C14.4642 13.1369 16.8709 15.1254 18.6088 16.5387C18.6781 16.5953 18.7603 16.6241 18.8429 16.6241C18.9056 16.6241 18.9682 16.6077 19.0258 16.5741C19.1597 16.4966 19.2439 16.3409 19.2439 16.171V5.82292C19.2438 5.64639 19.153 5.48578 19.0113 5.41187Z" fill="white"/>
<path d="M0.635052 16.5385C2.3734 15.1253 4.78048 13.1368 6.37709 11.6913C6.47026 11.6072 6.52548 11.4802 6.52743 11.3457C6.52939 11.2108 6.4785 11.082 6.38806 10.9944C4.66926 9.32362 2.38982 7.13426 0.660121 5.47722C0.541087 5.36304 0.373529 5.33786 0.232582 5.41172C0.0908452 5.48563 0 5.64624 0 5.82278V16.1709C0 16.3408 0.0841924 16.4965 0.218073 16.574C0.275617 16.6076 0.338273 16.624 0.400929 16.624C0.483543 16.624 0.565743 16.5952 0.635052 16.5385Z" fill="white"/>
<path d="M18.7527 17.7713C17.0743 16.4143 13.9824 13.8842 12.1368 12.1913C11.9865 12.0528 11.7688 12.0572 11.6208 12.2015C11.2587 12.5586 10.9556 12.8595 10.7406 13.078C10.0805 13.7515 9.16437 13.7515 8.50271 13.0771C8.28854 12.859 7.98552 12.5572 7.62335 12.2015C7.47653 12.0563 7.25846 12.0519 7.1077 12.1913C5.26832 13.8784 2.17298 16.4115 0.491795 17.7713C0.398206 17.8474 0.337918 17.9646 0.326192 18.0943C0.314841 18.2239 0.352802 18.3527 0.431507 18.4482C0.734976 18.8178 1.16252 19.0297 1.60377 19.0297H17.6404C18.0817 19.0297 18.5088 18.8178 18.813 18.4483C18.8913 18.3531 18.9297 18.2244 18.9184 18.0948C18.9066 17.9652 18.8463 17.8474 18.7527 17.7713Z" fill="white"/>
</g>
<defs>
<clipPath id="clip0">
<rect width="19.244" height="21.7483" fill="white"/>
</clipPath>
</defs>
</svg>
