<svg width="15" height="22" viewBox="0 0 15 22" fill="none" xmlns="http://www.w3.org/2000/svg">
<path d="M7.5 0C3.36458 0 0 3.27377 0 7.29757C0 8.50551 0.310385 9.70319 0.900438 10.7655L7.08986 21.6575C7.17226 21.8027 7.32927 21.8927 7.5 21.8927C7.67073 21.8927 7.82774 21.8027 7.91014 21.6575L14.1018 10.7619C14.6896 9.70319 15 8.50547 15 7.29752C15 3.27377 11.6354 0 7.5 0ZM7.5 10.9463C5.43229 10.9463 3.75002 9.30947 3.75002 7.29757C3.75002 5.28567 5.43229 3.64881 7.5 3.64881C9.56771 3.64881 11.25 5.28567 11.25 7.29757C11.25 9.30947 9.56771 10.9463 7.5 10.9463Z" fill="white"/>
</svg>
