<svg width="27" height="30" viewBox="0 0 27 30" fill="none" xmlns="http://www.w3.org/2000/svg">
<g clip-path="url(#clip0)">
<path d="M5.27219 16.1011C4.58756 17.6074 5.36489 18.3274 7.13846 19.5574C8.64621 20.5999 10.7291 20.9811 12.0671 21.1336L10.9458 22.3411C9.35653 24.0348 7.84878 25.6748 6.79446 26.8111C5.2599 28.4573 7.73039 31.0986 9.26383 29.4873L13.4152 25.0061C15.0045 26.7173 16.5279 28.3573 17.5665 29.4936C19.1011 31.1111 21.5705 28.4923 20.0527 26.8173L15.9013 22.3474L14.7644 21.1399C16.1191 20.9874 18.1708 20.5836 19.6606 19.5636L19.6595 19.5624C21.4331 18.3261 22.2104 17.6074 21.5359 16.1011C21.1282 15.2461 20.0292 14.5311 18.5661 15.7674C18.5661 15.7674 16.5904 17.4611 13.404 17.4611C10.2165 17.4611 8.24191 15.7674 8.24191 15.7674C6.77883 14.5249 5.67537 15.2461 5.27219 16.1011Z" fill="#FFC107"/>
<path d="M13.4007 15.1775C17.2851 15.1775 20.457 11.78 20.457 7.5975C20.457 3.3975 17.2851 0 13.4007 0C9.51513 0 6.34326 3.3975 6.34326 7.5975C6.34326 11.78 9.51513 15.1775 13.4007 15.1775ZM13.4007 3.84875C15.3094 3.84875 16.8663 5.525 16.8663 7.5975C16.8663 9.6525 15.3094 11.3288 13.4007 11.3288C11.492 11.3288 9.93507 9.6525 9.93507 7.5975C9.93395 5.52375 11.4909 3.84875 13.4007 3.84875Z" fill="#FFC107"/>
</g>
<defs>
<clipPath id="clip0">
<rect width="26.8046" height="30" fill="white"/>
</clipPath>
</defs>
</svg>
