<svg width="20" height="21" viewBox="0 0 20 21" fill="none" xmlns="http://www.w3.org/2000/svg">
<path d="M18.3952 13.7524C17.1707 13.7524 15.9684 13.5517 14.8291 13.1573C14.2708 12.9578 13.5845 13.1408 13.2438 13.5074L10.995 15.2858C8.38701 13.8274 6.78056 12.1451 5.40743 9.43354L7.05509 7.13912C7.48316 6.69127 7.6367 6.03708 7.45274 5.42326C7.07462 4.22345 6.88253 2.96455 6.88253 1.68126C6.88259 0.754205 6.16264 0 5.27775 0H1.60484C0.719946 0 0 0.754205 0 1.68121C0 12.3071 8.25196 20.9517 18.3952 20.9517C19.2801 20.9517 20 20.1975 20 19.2705V15.4335C19.9999 14.5066 19.28 13.7524 18.3952 13.7524Z" fill="white"/>
</svg>
