<svg width="33" height="34" viewBox="0 0 33 34" fill="none" xmlns="http://www.w3.org/2000/svg">
<g clip-path="url(#clip0)">
<path d="M28.7897 10.9777C28.7897 10.6703 28.7791 10.3714 28.7659 10.0767C30.0578 9.095 31.1445 7.86958 32.0301 6.45858V6.45717C30.848 7.01108 29.5905 7.37942 28.2775 7.55792C29.6276 6.69517 30.6588 5.33942 31.1432 3.706C29.8844 4.50925 28.4945 5.07592 27.0133 5.39325C25.8181 4.03042 24.1145 3.1875 22.256 3.1875C18.6503 3.1875 15.7475 6.31975 15.7475 10.1589C15.7475 10.7114 15.7912 11.2427 15.8984 11.7484C10.4845 11.4651 5.69279 8.68842 2.47359 4.45683C1.91235 5.50092 1.58143 6.69517 1.58143 7.98008C1.58143 10.3941 2.7423 12.5332 4.475 13.7728C3.42797 13.7516 2.40211 13.4257 1.53245 12.9143V12.9908C1.53245 16.3781 3.78933 19.1916 6.75041 19.8404C5.755 20.1322 4.52927 20.1209 3.81051 19.9509C4.6537 22.7106 7.04956 24.7407 9.89548 24.8072C7.67963 26.6617 4.86549 27.7794 1.81969 27.7794C1.28625 27.7794 0.773984 27.7539 0.261719 27.6845C3.14735 29.6749 6.56509 30.8125 10.2529 30.8125C22.2375 30.8125 28.7897 20.1875 28.7897 10.9777Z" fill="#55ACEE"/>
</g>
<defs>
<clipPath id="clip0">
<rect width="31.7684" height="34" fill="white" transform="translate(0.261719)"/>
</clipPath>
</defs>
</svg>
