<svg width="30" height="30" viewBox="0 0 30 30" fill="none" xmlns="http://www.w3.org/2000/svg">
<g clip-path="url(#clip0)">
<path d="M29.2701 29V1C29.2701 0.447715 28.8223 0 28.27 0H14.875H1.47998C0.927696 0 0.47998 0.447716 0.47998 1V29C0.47998 29.5523 0.927697 30 1.47998 30H28.2701C28.8223 30 29.2701 29.5523 29.2701 29Z" fill="#44678D"/>
<path d="M7.93871 9.12973C8.62869 10.9053 9.50313 12.5793 10.6548 14.0821C10.8076 14.282 11.0002 14.4598 11.203 14.6046C11.4993 14.8166 11.7788 14.7421 11.8993 14.389C12.0267 14.0183 12.1437 13.2672 12.1506 12.8781C12.1696 11.8611 12.1478 11.1947 12.0953 10.179C12.0613 9.52852 11.8394 8.95733 10.9211 8.78492C10.6375 8.73147 10.6112 8.48823 10.7934 8.24559C11.1727 7.74043 11.7011 7.65992 12.274 7.62806C13.2027 7.57579 14.1348 7.61845 15.0645 7.62806C15.4433 7.63168 15.8243 7.66347 16.1972 7.74819C16.6837 7.85872 16.9443 8.21432 17.0244 8.70922C17.0659 8.9645 17.0873 9.22696 17.0815 9.48527C17.0573 10.5953 17.006 11.7047 16.9939 12.8141C16.9887 13.2495 17.0192 13.6958 17.1086 14.1199C17.2337 14.7109 17.6198 14.8593 18.0147 14.4323C18.5162 13.8899 18.9584 13.2796 19.3733 12.6598C20.1273 11.5323 20.6904 10.295 21.1752 9.01927C21.426 8.36099 21.618 8.21801 22.2975 8.21623C23.5749 8.2132 24.8522 8.21202 26.1296 8.21623C26.3562 8.21742 26.5931 8.23967 26.8069 8.31056C27.1539 8.4259 27.2917 8.72081 27.2104 9.09504C27.0207 9.972 26.566 10.7174 26.0789 11.434C25.2972 12.5836 24.4781 13.7057 23.6781 14.842C23.5761 14.9868 23.4862 15.1412 23.4025 15.2979C23.1034 15.8613 23.1241 16.1772 23.5605 16.6463C24.2551 17.393 24.9987 18.0915 25.6714 18.8585C26.1602 19.4165 26.6126 20.0219 27 20.6592C27.49 21.4653 27.1873 22.2245 26.272 22.3596C25.6962 22.4444 22.8833 22.3603 22.738 22.3596C21.9817 22.3561 21.3188 22.0828 20.785 21.5476C20.1913 20.9518 19.6518 20.2982 19.0817 19.6765C18.9099 19.4891 18.7266 19.3096 18.5289 19.1528C18.0626 18.7821 17.6049 18.8644 17.387 19.4351C17.2008 19.9252 17.04 21.2124 17.0325 21.3223C16.9933 21.8971 16.6422 22.2635 16.0243 22.2989C14.2403 22.3999 12.5115 22.1926 10.901 21.2935C9.53605 20.5319 8.44605 19.4549 7.50187 18.199C6.002 16.2041 4.81731 14.0113 3.73572 11.7541C3.68044 11.6387 2.58495 9.20965 2.55552 9.09491C2.45766 8.71073 2.54895 8.34374 2.86045 8.21742C3.05465 8.13869 6.66652 8.21715 6.7266 8.22051C7.30293 8.25303 7.69593 8.5064 7.93871 9.12973Z" fill="white"/>
</g>
<defs>
<clipPath id="clip0">
<rect x="0.47998" width="28.7901" height="30" rx="5" fill="white"/>
</clipPath>
</defs>
</svg>
