<svg width="42" height="50" viewBox="0 0 42 50" fill="none" xmlns="http://www.w3.org/2000/svg">
<path d="M23.5061 31.5942H21.1319C20.8109 30.4366 19.7495 29.5842 18.4923 29.5842C18.3579 29.5842 18.2259 29.5943 18.0966 29.6131L16.0642 24.7342C15.9087 24.3607 15.4799 24.1837 15.1064 24.3397C14.7331 24.4953 14.5564 24.924 14.712 25.2975L16.7564 30.2052C16.1423 30.7085 15.7498 31.4726 15.7498 32.3267C15.7498 33.8374 16.98 35.0664 18.4922 35.0664C19.7492 35.0664 20.8104 34.2152 21.1316 33.0591H23.5061C23.9106 33.0591 24.2385 32.7312 24.2385 32.3267C24.2385 31.9221 23.9106 31.5942 23.5061 31.5942ZM18.4923 33.6016C17.7878 33.6016 17.2147 33.0297 17.2147 32.3267C17.2147 31.6222 17.7879 31.049 18.4923 31.049C19.1952 31.049 19.7671 31.6222 19.7671 32.3267C19.7671 33.0297 19.1952 33.6016 18.4923 33.6016Z" fill="#636262"/>
<path d="M2.28418 32.3267C2.28418 29.2903 3.02832 26.4962 4.43613 24.2458C6.88047 20.336 7.73428 18.096 5.65283 13.0568C5.59697 12.9218 5.5416 12.7999 5.48965 12.6909C9.12031 12.3909 11.8172 14.8127 13.03 16.9969C13.2027 17.3081 13.5741 17.4498 13.9103 17.3333C14.2464 17.2167 14.4502 16.8754 14.3933 16.5241C13.8394 13.108 14.9272 12.038 16.3044 10.6834C17.9434 9.07121 19.7975 7.24748 18.8336 1.59308C18.8507 1.60226 18.8682 1.61193 18.886 1.62238C26.0887 5.82169 26.2785 8.65558 26.4983 11.9369C26.6651 14.4262 26.8542 17.2477 29.912 20.8231C29.9245 20.8377 29.9377 20.8519 29.9514 20.8655C31.0541 21.9658 31.9915 23.2178 32.7375 24.5868C32.9311 24.9419 33.3759 25.0732 33.7311 24.8795C34.0862 24.686 34.2173 24.2411 34.0238 23.8859C33.2152 22.4019 32.2003 21.0441 31.0068 19.8493C28.2826 16.6539 28.1185 14.2062 27.9599 11.839C27.7224 8.29513 27.4981 4.94787 19.6227 0.356265C19.2845 0.159781 18.4276 -0.247934 17.7802 0.207535C17.5524 0.367788 17.1928 0.758609 17.3429 1.57521C18.2779 6.68751 16.8202 8.1213 15.2771 9.63917C14.1958 10.7027 13.0039 11.8752 12.8138 14.2462C12.189 13.5828 11.4782 13.001 10.7143 12.5347C9.02608 11.5042 7.13008 11.0584 5.22969 11.2439C4.66201 11.3 4.12588 11.3529 3.86797 11.827C3.62842 12.2672 3.83652 12.6712 4.02012 13.0277C4.10449 13.1917 4.2002 13.3775 4.29902 13.6165C6.14541 18.0864 5.50234 19.7773 3.19424 23.4693C1.64053 25.9527 0.819336 29.0155 0.819336 32.3269C0.819336 32.7315 1.14727 33.0593 1.55176 33.0593C1.95625 33.0593 2.28418 32.7313 2.28418 32.3267Z" fill="#636262"/>
<path d="M34.5035 26.7394C34.1161 26.8558 33.8964 27.2642 34.0129 27.6516C34.4671 29.1628 34.6973 30.7359 34.6973 32.3268C34.6973 36.6554 33.0117 40.725 29.9508 43.7859C26.8882 46.8485 22.8188 48.5352 18.4921 48.5352C14.1638 48.5352 10.0933 46.8485 7.03043 43.7855C4.74713 41.5048 3.21187 38.6294 2.59058 35.4706C2.51246 35.0736 2.12681 34.8155 1.73062 34.8933C1.33375 34.9714 1.07525 35.3564 1.15328 35.7533C1.83092 39.1988 3.50513 42.3347 5.99488 44.8216C9.33424 48.1609 13.7725 50 18.4921 50C23.21 50 27.6473 48.1609 30.9867 44.8215C34.3242 41.484 36.1623 37.0466 36.1623 32.3267C36.1623 30.5928 35.9111 28.878 35.4158 27.23C35.2993 26.8427 34.8909 26.6232 34.5035 26.7394Z" fill="#636262"/>
<path d="M18.4922 19.4475C11.3785 19.4475 5.59111 25.2351 5.59111 32.349C5.59111 39.4614 11.3785 45.2477 18.4922 45.2477C25.6044 45.2477 31.3905 39.4613 31.3905 32.349C31.3905 25.2352 25.6044 19.4475 18.4922 19.4475ZM28.559 33.0591H29.903C29.7426 35.6646 28.7061 38.0365 27.0846 39.8834L26.1288 38.9275C25.8428 38.6415 25.3791 38.6414 25.093 38.9275C24.8069 39.2135 24.8069 39.6773 25.093 39.9632L26.0502 40.9205C24.2052 42.5494 21.8324 43.593 19.2247 43.7586V42.3938C19.2247 41.9892 18.8968 41.6613 18.4923 41.6613C18.0878 41.6613 17.7599 41.9892 17.7599 42.3938V43.7587C15.1512 43.593 12.7776 42.5492 10.932 40.9201L11.8889 39.9633C12.1749 39.6773 12.1749 39.2136 11.8889 38.9275C11.6028 38.6416 11.1391 38.6415 10.8531 38.9276L9.89765 39.8832C8.27597 38.0363 7.23925 35.6645 7.0788 33.0592H8.42285C8.82734 33.0592 9.15527 32.7314 9.15527 32.3268C9.15527 31.9222 8.82734 31.5943 8.42285 31.5943H7.08164C7.25185 28.9945 8.29443 26.6293 9.91904 24.789L10.8531 25.7231C10.9961 25.8661 11.1836 25.9376 11.371 25.9376C11.5584 25.9376 11.7459 25.8661 11.8889 25.7232C12.1749 25.437 12.1749 24.9733 11.8889 24.6874L10.9561 23.7545C12.7982 22.1371 15.1626 21.1015 17.76 20.9365V22.2568C17.76 22.6614 18.0879 22.9893 18.4924 22.9893C18.8969 22.9893 19.2248 22.6614 19.2248 22.2568V20.9365C21.8212 21.1016 24.1848 22.1369 26.0264 23.7541L25.0931 24.6874C24.807 24.9734 24.8071 25.4372 25.0931 25.7232C25.2361 25.8661 25.4235 25.9376 25.6109 25.9376C25.7983 25.9376 25.9858 25.8661 26.1289 25.7231L27.0633 24.7886C28.6877 26.629 29.7302 28.9943 29.9004 31.5943H28.5592C28.1547 31.5943 27.8268 31.9222 27.8268 32.3268C27.8268 32.7314 28.1545 33.0591 28.559 33.0591Z" fill="#636262"/>
<path d="M40.0261 10.7256C39.9214 10.615 39.8136 10.5028 39.7041 10.3885C38.4698 9.10197 37.0709 7.64386 37.1444 5.62482C37.172 4.89201 36.7858 4.49963 36.4151 4.37668C36.0505 4.25558 35.5199 4.33146 35.1242 4.90646C35.1242 4.90636 35.1242 4.90656 35.1242 4.90646C35.0352 5.03586 34.9374 5.17707 34.8328 5.32785C32.9973 7.9757 31.0392 10.9735 31.0392 13.0361C31.0392 16.3896 33.6549 18.4652 36.0785 18.4652C38.0978 18.4652 39.9978 17.2025 40.8064 15.3231C41.5054 13.6986 41.2137 11.9799 40.0261 10.7256ZM39.4609 14.7443C38.9777 15.8673 37.7444 17.0004 36.0785 17.0004C34.3594 17.0004 32.5041 15.4848 32.5041 13.0362C32.5041 11.4029 34.5188 8.36408 35.7352 6.59836C36.0391 8.68429 37.4677 10.1735 38.647 11.4028C38.7544 11.5147 38.8599 11.6245 38.9625 11.733C39.7465 12.5607 39.9281 13.6584 39.4609 14.7443Z" fill="#636262"/>
</svg>
