<svg width="50" height="50" viewBox="0 0 50 50" fill="none" xmlns="http://www.w3.org/2000/svg">
<path d="M30.4472 15.6355C30.8511 15.6355 31.1785 15.3114 31.1785 14.9117C31.1785 14.512 30.8511 14.188 30.4472 14.188H16.5686C16.1647 14.188 15.8373 14.512 15.8373 14.9117C15.8373 15.3114 16.1647 15.6355 16.5686 15.6355H30.4472Z" fill="#636262"/>
<path d="M8.46832 19.1138C8.46832 19.5135 8.79579 19.8376 9.19969 19.8376H26.2553C26.6592 19.8376 26.9866 19.5135 26.9866 19.1138C26.9866 18.714 26.6592 18.3899 26.2553 18.3899H9.19969C8.79579 18.3899 8.46832 18.714 8.46832 19.1138Z" fill="#636262"/>
<path d="M9.19969 24.0396H23.5079C23.9118 24.0396 24.2393 23.7155 24.2393 23.3158C24.2393 22.9161 23.9118 22.592 23.5079 22.592H9.19969C8.79579 22.592 8.46832 22.9161 8.46832 23.3158C8.46832 23.7155 8.79579 24.0396 9.19969 24.0396Z" fill="#636262"/>
<path d="M9.19969 28.2417H22.3252C22.729 28.2417 23.0565 27.9177 23.0565 27.5181C23.0565 27.1184 22.729 26.7944 22.3252 26.7944H9.19969C8.79579 26.7944 8.46832 27.1184 8.46832 27.5181C8.46832 27.9178 8.79579 28.2417 9.19969 28.2417Z" fill="#636262"/>
<path d="M9.19969 32.4438H22.3252C22.729 32.4438 23.0565 32.1198 23.0565 31.7201C23.0565 31.3204 22.729 30.9963 22.3252 30.9963H9.19969C8.79579 30.9963 8.46832 31.3204 8.46832 31.7201C8.46832 32.1198 8.79579 32.4438 9.19969 32.4438Z" fill="#636262"/>
<path d="M9.19969 36.646H23.5079C23.9118 36.646 24.2393 36.322 24.2393 35.9224C24.2393 35.5227 23.9118 35.1987 23.5079 35.1987H9.19969C8.79579 35.1987 8.46832 35.5227 8.46832 35.9224C8.46832 36.322 8.79579 36.646 9.19969 36.646Z" fill="#636262"/>
<path d="M9.19969 40.8481H30.4472C30.8511 40.8481 31.1786 40.5241 31.1786 40.1244C31.1786 39.7247 30.8511 39.4006 30.4472 39.4006H9.19969C8.79579 39.4006 8.46832 39.7247 8.46832 40.1244C8.46832 40.5242 8.79579 40.8481 9.19969 40.8481Z" fill="#636262"/>
<path d="M9.19969 45.0503H30.4472C30.8511 45.0503 31.1786 44.7262 31.1786 44.3265C31.1786 43.9268 30.8511 43.6028 30.4472 43.6028H9.19969C8.79579 43.6028 8.46832 43.9268 8.46832 44.3265C8.46832 44.7263 8.79579 45.0503 9.19969 45.0503Z" fill="#636262"/>
<path d="M35.796 18.2653C35.7462 18.2653 35.6966 18.2675 35.6468 18.2682V9.06512C35.6468 7.85976 34.6559 6.87909 33.438 6.87909H27.8019V5.77496C27.8019 5.05328 27.2111 4.46625 26.4849 4.46625H23.4695V4.1352C23.4695 2.13068 21.8339 0.5 19.8234 0.5C17.813 0.5 16.1774 2.13068 16.1774 4.13511V4.46615H13.1619C12.4358 4.46615 11.845 5.05328 11.845 5.77487V6.87909H6.20884C4.99091 6.87909 4 7.85976 4 9.06512V12.4931C4 12.8928 4.32747 13.2169 4.73137 13.2169C5.13527 13.2169 5.46274 12.8928 5.46274 12.4931V9.06512C5.46274 8.65795 5.79743 8.32672 6.20884 8.32672H11.845V9.43093C11.845 10.1525 12.4358 10.7397 13.1619 10.7397H26.485C27.2112 10.7397 27.802 10.1525 27.802 9.43093V8.32672H33.4381C33.8495 8.32672 34.1842 8.65795 34.1842 9.06512V18.3893C32.5693 18.6399 31.045 19.2676 29.7091 20.2417C29.3839 20.4787 29.3145 20.9319 29.5541 21.2536C29.7937 21.5755 30.2516 21.6442 30.5766 21.407C32.0968 20.2987 33.9017 19.7129 35.796 19.7129C40.6536 19.7129 44.6056 23.624 44.6056 28.4313C44.6056 33.2386 40.6536 37.1497 35.796 37.1497C30.9385 37.1497 26.9866 33.2386 26.9866 28.4313C26.9866 26.7236 27.4852 25.0702 28.4285 23.6497C28.6503 23.3156 28.5565 22.8668 28.219 22.6473C27.8816 22.4278 27.4281 22.5206 27.2061 22.8546C26.1056 24.5118 25.5239 26.4402 25.5239 28.4312C25.5239 33.4942 29.2831 37.704 34.1841 38.4717V47.7975C34.1841 48.2047 33.8494 48.5359 33.438 48.5359H6.20884C5.79743 48.5359 5.46274 48.2047 5.46274 47.7975V15.8514C5.46274 15.4516 5.13527 15.1276 4.73137 15.1276C4.32747 15.1276 4 15.4516 4 15.8514V47.7976C4 49.003 4.99091 49.9836 6.20884 49.9836H33.4381C34.656 49.9836 35.6469 49.003 35.6469 47.7976V38.5954C35.6966 38.5961 35.7463 38.5973 35.7961 38.5973C41.4602 38.5973 46.0683 34.0368 46.0683 28.4313C46.0683 22.8258 41.4601 18.2653 35.796 18.2653ZM26.3393 9.29212H13.3075V5.91378H16.9086C17.3125 5.91378 17.64 5.58969 17.64 5.18996V4.13511C17.64 2.92888 18.6195 1.94753 19.8233 1.94753C21.0273 1.94753 22.0067 2.92888 22.0067 4.13511V5.18987C22.0067 5.58959 22.3342 5.91368 22.7381 5.91368H26.3392L26.3393 9.29212Z" fill="#636262"/>
<path d="M34.465 33.5054C34.4861 33.5054 34.5071 33.5051 34.5302 33.5045C35.1411 33.4872 35.7292 33.2224 36.1436 32.7782L41.3921 27.1521C41.806 26.7084 42.0206 26.1317 41.9964 25.5282C41.9721 24.9248 41.7118 24.3669 41.2634 23.9571C40.8151 23.5476 40.2327 23.3356 39.6227 23.3592C39.0129 23.3832 38.4491 23.6409 38.0353 24.0846L34.3722 28.0111L33.4662 27.1445C32.5605 26.2783 31.1113 26.3028 30.2359 27.199C29.3606 28.0954 29.3853 29.5295 30.291 30.3959L32.8774 32.87C33.3056 33.2798 33.8694 33.5054 34.465 33.5054ZM31.2875 28.2051C31.4486 28.0403 31.6635 27.9574 31.8787 27.9574C32.0845 27.9574 32.2904 28.0332 32.4497 28.1855L33.8937 29.5667C34.0354 29.7021 34.2265 29.7752 34.4228 29.7698C34.6195 29.7642 34.8058 29.6804 34.9393 29.5372C34.9393 29.5372 39.1085 25.0682 39.1099 25.0666C39.4224 24.7317 39.9285 24.7076 40.2712 25.0207C40.602 25.323 40.6232 25.8422 40.3174 26.1701L35.0688 31.7962C34.9198 31.9561 34.7083 32.0513 34.4905 32.0574L34.4651 32.0578C34.2509 32.0578 34.048 31.9767 33.894 31.8293L31.3073 29.3551C30.9815 29.0435 30.9726 28.5276 31.2875 28.2051Z" fill="#636262"/>
</svg>
