<svg width="50" height="50" viewBox="0 0 50 50" fill="none" xmlns="http://www.w3.org/2000/svg">
<g clip-path="url(#clip0)">
<path d="M39.5541 25.7936C39.964 25.7936 40.2966 25.4614 40.2966 25.0511V23.384C40.2966 22.9738 39.964 22.6416 39.5541 22.6416C39.1439 22.6416 38.8117 22.9738 38.8117 23.384V25.0511C38.8117 25.4614 39.1439 25.7936 39.5541 25.7936Z" fill="#636262"/>
<path d="M47.8279 25.9196H45.7904C45.2687 23.877 44.3152 21.9343 43.012 20.2684C41.6991 18.5905 40.0251 17.1833 38.1504 16.1783V10.7904C38.1504 10.3403 37.9563 9.91183 37.6175 9.61484C37.28 9.31863 36.8314 9.18213 36.3863 9.24052C33.4652 9.62683 31.0557 11.6129 30.1044 14.3662H29.3209C29.3329 14.198 29.3391 14.029 29.3391 13.8585C29.3391 10.1032 26.285 7.04833 22.5305 7.04833C18.7753 7.04833 15.7204 10.1032 15.7204 13.8585C15.7204 14.3786 15.7807 14.8913 15.8959 15.3882C13.1832 16.4254 10.8271 18.1883 9.0506 20.5178C8.80196 20.8438 8.8646 21.3098 9.19097 21.5584C9.32516 21.6609 9.48332 21.7104 9.64032 21.7104C9.86421 21.7104 10.085 21.6098 10.2316 21.4184C11.8313 19.3206 13.9493 17.7305 16.3878 16.79C16.7196 17.483 17.1666 18.1191 17.7115 18.6674C17.6338 18.6872 17.5564 18.708 17.4791 18.7293C17.0839 18.8388 16.8522 19.2475 16.9613 19.6431C17.0525 19.9718 17.3511 20.1876 17.6767 20.1876C17.742 20.1876 17.8089 20.1787 17.8751 20.1605C18.4253 20.0081 18.9899 19.8995 19.5529 19.8372C20.4002 19.744 19.9083 19.7722 28.5185 19.7715C28.9288 19.7715 29.261 19.4393 29.261 19.029C29.261 18.6191 28.9288 18.2865 28.5185 18.2865H27.7092C28.3194 17.5762 28.7741 16.7483 29.046 15.8511H30.6535C30.9903 15.8511 31.285 15.6245 31.3712 15.2989C32.0216 12.8453 34.0665 11.0452 36.58 10.7131C36.5882 10.7115 36.6129 10.7088 36.6384 10.7312C36.6566 10.7471 36.6655 10.7668 36.6655 10.7908V16.6303C36.6655 16.9122 36.8248 17.1698 37.0773 17.2951C40.8399 19.1659 43.6056 22.7255 44.4756 26.8171C44.5483 27.1597 44.8511 27.4049 45.2019 27.4049H47.8279C48.2069 27.4049 48.5151 27.7131 48.5151 28.0917V33.587C48.5151 33.9652 48.2069 34.273 47.8279 34.273H44.9818C44.4134 34.273 43.9006 34.6118 43.6752 35.1377C43.4544 35.6559 43.1991 36.1671 42.9161 36.6563C42.7104 37.0109 42.8314 37.4652 43.1864 37.6706C43.3035 37.7386 43.4315 37.7707 43.5576 37.7707C43.814 37.7707 44.0634 37.6377 44.2007 37.4003C44.5077 36.8705 44.785 36.3175 45.0247 35.758H47.8279C49.0255 35.758 50 34.7843 50 33.587V28.0917C50 26.8941 49.0255 25.9196 47.8279 25.9196ZM19.6461 18.3357C18.1349 17.3589 17.2049 15.6643 17.2049 13.8585C17.2049 10.9223 19.5939 8.53363 22.5301 8.53363C25.4659 8.53363 27.8542 10.9223 27.8542 13.8585C27.8542 14.2158 27.8194 14.5665 27.7517 14.9072C27.7428 14.9397 27.7359 14.9729 27.7312 15.007C27.4408 16.3395 26.6488 17.5116 25.4872 18.2865C20.8824 18.302 20.5901 18.251 19.6461 18.3357Z" fill="#636262"/>
<path d="M42.1969 39.0171C41.8945 38.7406 41.4247 38.7615 41.1482 39.0643C40.4761 39.799 39.7236 40.4633 38.9116 41.0384C38.7217 41.1725 38.6057 41.3879 38.5983 41.6203C38.5461 43.2522 38.3818 45.0697 38.1099 47.0217C37.9367 48.2661 36.8617 49.2004 35.6061 49.2004H35.5925C34.3624 49.1938 33.3013 48.2561 33.1014 47.009C32.9688 46.0523 32.8617 45.125 32.7824 44.2522C32.7399 43.7909 32.7047 43.3442 32.6772 42.9243C32.6482 42.4703 32.6269 42.026 32.6134 41.6037C32.6006 41.1938 32.2538 40.8694 31.8481 40.8852C31.4382 40.898 31.1165 41.241 31.1293 41.6505C31.1432 42.0886 31.1652 42.5492 31.1954 43.0194C31.207 43.2 31.2201 43.3852 31.2348 43.5739C31.1285 43.5763 31.0225 43.5778 30.9177 43.5778H21.2696C20.7735 43.5778 20.2584 43.5488 19.7379 43.4916C19.5395 43.4695 19.3408 43.5287 19.1865 43.6552C19.0322 43.7812 18.9351 43.9645 18.9173 44.1633C18.8346 45.0855 18.7236 46.0473 18.5879 47.0217C18.415 48.2638 17.3388 49.2004 16.0844 49.2004C14.8303 49.2004 13.7537 48.2638 13.5809 47.0217C13.5778 47.0013 13.5751 46.9808 13.5724 46.9603C13.5712 46.9529 13.5701 46.9452 13.5693 46.9378C13.5681 46.9309 13.5674 46.9239 13.5662 46.917C13.4193 45.8462 13.2499 44.4046 13.1532 42.8787C12.9622 39.7974 13.1749 37.9436 13.3589 36.9939C13.4367 36.5913 13.1737 36.2019 12.7711 36.1238C12.3682 36.0461 11.9788 36.309 11.9011 36.7116C11.7271 37.6099 11.635 38.6084 11.6025 39.6486C8.92853 37.0558 7.41654 33.5275 7.40648 29.7522C7.4061 29.6911 7.40648 29.6304 7.40726 29.5693V29.5681C7.40726 29.5612 7.40726 29.5542 7.40726 29.5472C7.43084 27.6052 7.86124 25.7267 8.68877 23.9602C8.86279 23.5886 8.70269 23.1466 8.33146 22.9726C7.95985 22.799 7.51824 22.9591 7.34422 23.3303C6.52984 25.0689 6.06193 26.9057 5.94863 28.8025C3.80826 28.8365 2.30361 29.2912 1.24445 30.2143C0.181414 31.1431 -0.24318 32.4684 0.136944 33.6737C0.704231 35.4718 2.7924 36.0751 4.06 34.7816C4.51359 34.3187 4.73014 33.7131 4.65435 33.1196C4.60215 32.7128 4.23092 32.4258 3.82372 32.4773C3.41692 32.5291 3.12921 32.9011 3.18142 33.3079C3.20694 33.5066 3.0627 33.678 2.99967 33.7421C2.833 33.9123 2.59673 34.0086 2.39836 33.9873C2.00586 33.9452 1.69031 33.6609 1.55342 33.2271C1.3504 32.5836 1.60021 31.8756 2.22086 31.3334C2.98614 30.666 4.20346 30.3226 5.932 30.2885C6.09442 34.7313 8.13928 38.8237 11.606 41.6347C11.6629 43.4649 11.8562 45.4061 12.1099 47.2263C12.3844 49.1985 14.0933 50.6853 16.0844 50.6853C18.0755 50.6853 19.7839 49.1985 20.0585 47.2263C20.1617 46.4846 20.2511 45.7495 20.3249 45.0326C20.6443 45.0527 20.9599 45.0627 21.2696 45.0627H30.9173C31.0662 45.0627 31.2167 45.0604 31.3679 45.0562C31.439 45.7429 31.5241 46.4467 31.6219 47.1555C31.625 47.1787 31.6285 47.2023 31.6324 47.2255V47.2263C31.6335 47.2337 31.6347 47.241 31.6358 47.2484C31.9514 49.2039 33.6327 50.6749 35.5844 50.6853C35.5918 50.6853 35.5987 50.6857 35.6061 50.6853C37.5987 50.6853 39.3052 49.202 39.5805 47.2267C39.8396 45.3659 40.0036 43.6207 40.0689 42.0326C40.8536 41.4483 41.5836 40.7882 42.2437 40.0662C42.5206 39.7634 42.4997 39.294 42.1969 39.0171Z" fill="#636262"/>
<path d="M23.043 13.1156H22.0171C21.7924 13.1156 21.6095 12.9327 21.6095 12.7081C21.6095 12.4838 21.7924 12.3009 22.0171 12.3009H23.9803C24.3906 12.3009 24.7228 11.9687 24.7228 11.5584C24.7228 11.1485 24.3906 10.8159 23.9803 10.8159H23.3829V10.4486C23.3829 10.0383 23.0507 9.70611 22.6404 9.70611C22.2305 9.70611 21.898 10.0383 21.898 10.4486V10.8198C20.91 10.8813 20.1246 11.705 20.1246 12.7084C20.1246 13.7518 20.9734 14.6006 22.0171 14.6006H23.043C23.2673 14.6006 23.4502 14.7835 23.4502 15.0078C23.4502 15.2324 23.2673 15.4149 23.043 15.4149H21.0793C20.6694 15.4149 20.3369 15.7475 20.3369 16.1574C20.3369 16.5677 20.6694 16.8999 21.0793 16.8999H21.898V17.2676C21.898 17.6775 22.2305 18.0101 22.6404 18.0101C23.0507 18.0101 23.3829 17.6775 23.3829 17.2676V16.8693C24.2646 16.7088 24.9351 15.9351 24.9351 15.0078C24.9351 13.9644 24.0863 13.1156 23.043 13.1156Z" fill="#636262"/>
<path d="M9.1335 13.6192C12.8884 13.6192 15.9433 10.5646 15.9433 6.80939C15.9433 3.05454 12.8884 0 9.1335 0C7.76923 0 6.45251 0.402167 5.32567 1.16358C4.98576 1.39289 4.89644 1.85422 5.12614 2.19413C5.35545 2.53404 5.81717 2.62337 6.15708 2.39405C7.0372 1.79931 8.0666 1.48493 9.1335 1.48493C12.0697 1.48493 14.4584 3.87357 14.4584 6.80939C14.4584 9.74559 12.0697 12.1342 9.1335 12.1342C6.19768 12.1342 3.80904 9.74559 3.80904 6.80939C3.80904 5.95788 4.00393 5.14465 4.38793 4.39213C4.57432 4.02709 4.42969 3.57967 4.06426 3.39329C3.69922 3.2069 3.25219 3.35152 3.06542 3.71695C2.58049 4.66669 2.32411 5.7363 2.32411 6.80939C2.32411 10.5646 5.37865 13.6192 9.1335 13.6192Z" fill="#636262"/>
<path d="M9.24406 2.65778C8.83416 2.65778 8.5016 2.98996 8.5016 3.40024V3.77147C7.51358 3.83296 6.72858 4.65663 6.72858 5.66011C6.72858 6.70343 7.577 7.55223 8.6207 7.55223H9.64662C9.8709 7.55223 10.0538 7.73476 10.0538 7.95943C10.0538 8.1841 9.8709 8.36662 9.64662 8.36662H7.68334C7.27306 8.36662 6.94088 8.6988 6.94088 9.10908C6.94088 9.51937 7.27306 9.85155 7.68334 9.85155H8.50199V10.2189C8.50199 10.6292 8.83416 10.9614 9.24445 10.9614C9.65435 10.9614 9.98691 10.6292 9.98691 10.2189V9.821C10.8682 9.66052 11.5387 8.88673 11.5387 7.95943C11.5387 6.91611 10.6899 6.06731 9.64662 6.06731H8.6207C8.39603 6.06731 8.21351 5.8844 8.21351 5.66011C8.21351 5.43544 8.39603 5.25292 8.6207 5.25292H10.584C10.9943 5.25292 11.3264 4.92036 11.3264 4.51046C11.3264 4.10017 10.9943 3.76799 10.584 3.76799H9.98691V3.40024C9.98652 2.98996 9.65435 2.65778 9.24406 2.65778Z" fill="#636262"/>
</g>
<defs>
<clipPath id="clip0">
<rect width="50" height="50" fill="white"/>
</clipPath>
</defs>
</svg>
