<svg width="50" height="50" viewBox="0 0 50 50" fill="none" xmlns="http://www.w3.org/2000/svg">
<g opacity="0.4">
<path d="M47.3942 29.953C49.0259 28.83 50 26.9783 50 25C50 23.0217 49.0259 21.17 47.3943 20.047C46.7597 19.6101 46.5394 18.788 46.8706 18.0923C47.7221 16.3039 47.6398 14.2133 46.6507 12.5C45.6614 10.7868 43.8921 9.67031 41.9176 9.51338C41.1495 9.45234 40.5477 8.85059 40.4867 8.08242C40.3296 6.10781 39.2131 4.33848 37.5 3.34932C35.7866 2.36006 33.696 2.27803 31.9078 3.12939C31.2121 3.46074 30.39 3.24043 29.9531 2.60566C28.83 0.974121 26.9782 0 25 0C23.0218 0 21.17 0.974121 20.047 2.60566C19.61 3.24043 18.7877 3.46055 18.0923 3.12939C16.304 2.27812 14.2135 2.36016 12.5001 3.34932C10.7869 4.33838 9.67041 6.10771 9.51348 8.08252C9.45244 8.85059 8.85068 9.45234 8.08262 9.51338C6.10801 9.67031 4.33857 10.7868 3.34932 12.5C2.36016 14.2133 2.27803 16.3039 3.12939 18.0923C3.46055 18.788 3.24033 19.6101 2.60576 20.047C0.974121 21.17 0 23.0217 0 25C0 26.9783 0.974121 28.83 2.60566 29.953C3.24033 30.3899 3.46064 31.212 3.12939 31.9077C2.27793 33.6961 2.36016 35.7867 3.34932 37.5C4.33857 39.2133 6.10791 40.3297 8.08242 40.4866C8.85049 40.5477 9.45234 41.1494 9.51328 41.9176C9.67031 43.8923 10.7868 45.6616 12.4999 46.6506C14.2131 47.6398 16.3038 47.722 18.0921 46.8705C18.788 46.5395 19.6099 46.7596 20.0468 47.3942C21.17 49.0259 23.0218 50 25 50C26.9782 50 28.83 49.0259 29.953 47.3943C30.39 46.7597 31.2123 46.5395 31.9077 46.8706C32.694 47.2449 33.5696 47.4475 34.4396 47.4563H34.4472C34.8473 47.4563 35.1736 47.1341 35.1776 46.733C35.1817 46.3295 34.8578 45.999 34.4544 45.995C33.7953 45.9884 33.1319 45.8349 32.5359 45.5512C31.1883 44.9094 29.5957 45.3362 28.7493 46.5658C27.8989 47.8012 26.4974 48.5388 25.0001 48.5388C23.5028 48.5388 22.1013 47.8012 21.2509 46.5658C20.4046 45.3363 18.8121 44.9095 17.4643 45.5512C16.1102 46.1959 14.5275 46.1338 13.231 45.3851C11.9344 44.6365 11.0893 43.2971 10.9704 41.802C10.8522 40.314 9.68652 39.148 8.19834 39.0298C6.70332 38.911 5.36377 38.066 4.61514 36.7693C3.8665 35.4727 3.80449 33.89 4.44912 32.5359C5.09082 31.1882 4.66406 29.5956 3.43447 28.7493C2.19912 27.899 1.46152 26.4974 1.46152 25.0001C1.46152 23.5028 2.19912 22.1012 3.43457 21.2509C4.66406 20.4046 5.09072 18.812 4.44912 17.4643C3.80449 16.1102 3.8666 14.5275 4.61514 13.2309C5.36387 11.9342 6.70332 11.0892 8.19834 10.9704C9.68643 10.8522 10.8522 9.68643 10.9704 8.19844C11.0893 6.70332 11.9343 5.36377 13.231 4.61514C14.5274 3.8666 16.1102 3.80439 17.4643 4.44912C18.8122 5.09082 20.4046 4.66396 21.2509 3.43447C22.1013 2.19912 23.5028 1.46152 25.0001 1.46152C26.4974 1.46152 27.8989 2.19912 28.7493 3.43447C29.5956 4.66387 31.1881 5.09082 32.5359 4.44912C33.8901 3.80439 35.4727 3.8666 36.7692 4.61514C38.0658 5.36377 38.9109 6.70322 39.0298 8.19834C39.1479 9.68633 40.3138 10.8522 41.8019 10.9704C43.2969 11.0892 44.6364 11.9343 45.3851 13.2309C46.1337 14.5275 46.1957 16.1102 45.5511 17.4643C44.9094 18.812 45.3361 20.4046 46.5657 21.2509C47.8011 22.1012 48.5387 23.5028 48.5387 25.0001C48.5387 26.4974 47.8011 27.899 46.5656 28.7493C45.3361 29.5956 44.9095 31.1882 45.5511 32.5359C46.1957 33.89 46.1336 35.4727 45.3851 36.7693C44.6363 38.066 43.2969 38.911 41.8019 39.0298C40.3137 39.148 39.1479 40.3139 39.0298 41.8019C38.9258 43.1109 38.2657 44.3092 37.2188 45.0894C36.8952 45.3305 36.8283 45.7884 37.0695 46.1119C37.3106 46.4355 37.7685 46.5022 38.0921 46.2611C39.4765 45.2294 40.3493 43.6463 40.4867 41.9175C40.5478 41.1494 41.1495 40.5477 41.9176 40.4866C43.8921 40.3298 45.6615 39.2133 46.6507 37.5C47.6398 35.7867 47.722 33.6961 46.8706 31.9077C46.5394 31.212 46.7596 30.3899 47.3942 29.953Z" fill="#636262"/>
<path d="M10.063 26.8234C9.65936 26.8234 9.33231 27.1506 9.33231 27.5542V33.9926C9.33231 34.5373 9.77548 34.9805 10.3202 34.9805H16.8276L18.5065 35.9742C20.8758 37.3766 23.5835 38.1178 26.3368 38.1178H34.5198C36.2261 38.1178 37.6142 36.7296 37.6142 35.0234C37.6142 34.3764 37.4146 33.7751 37.0737 33.2779C38.379 32.9148 39.3395 31.7156 39.3395 30.2962C39.3395 29.6015 39.1094 28.9595 38.7214 28.4425C39.8609 27.9857 40.6678 26.8696 40.6678 25.5689C40.6678 24.2687 39.8617 23.1532 38.7231 22.6959C39.1468 22.1326 39.3631 21.4473 39.3376 20.7293C39.2791 19.085 37.8664 17.7472 36.1885 17.7472H30.7192C30.5437 17.7472 30.3842 17.6653 30.2813 17.5225C30.1803 17.3819 30.1536 17.2078 30.2082 17.0449C30.5011 16.1711 30.6993 15.3282 30.7976 14.5395C30.9736 13.1258 30.5328 11.7017 29.5882 10.6322C28.6397 9.5584 27.2741 8.94248 25.8415 8.94248C24.9417 8.94248 24.1351 9.48047 23.7868 10.3131C23.7868 10.3129 23.7869 10.3132 23.7868 10.3131C23.6715 10.5886 23.6129 10.881 23.6129 11.1816C23.6125 14.6597 22.4877 17.4012 20.2699 19.3299C18.7466 20.6547 17.1944 21.1321 16.9214 21.2088H10.3204C9.77567 21.2088 9.33251 21.652 9.33251 22.1966V24.1848C9.33251 24.5883 9.65956 24.9154 10.0632 24.9154C10.4668 24.9154 10.7938 24.5883 10.7938 24.1848V22.6701H16.3192V33.519H10.7938V27.5541C10.7937 27.1506 10.4666 26.8234 10.063 26.8234ZM17.7806 22.4669C18.5076 22.2077 19.8398 21.624 21.172 20.4816C22.9517 18.9553 25.0735 16.1027 25.0741 11.1816C25.0741 11.0757 25.0944 10.9732 25.1347 10.8774C25.255 10.5898 25.5324 10.4037 25.8414 10.4037C26.8552 10.4037 27.8216 10.8396 28.4928 11.5994C29.1601 12.355 29.4716 13.3607 29.3474 14.3587C29.261 15.0511 29.0845 15.7985 28.8225 16.5804C28.6167 17.1946 28.716 17.849 29.0951 18.3759C29.4702 18.8972 30.0772 19.2084 30.7191 19.2084H36.1884C37.0887 19.2084 37.8462 19.9139 37.877 20.7811C37.893 21.2294 37.7307 21.6535 37.4203 21.9752C37.1097 22.2971 36.6924 22.4743 36.2452 22.4743H34.2153C33.8117 22.4743 33.4847 22.8015 33.4847 23.2051C33.4847 23.6086 33.8118 23.9357 34.2153 23.9357H37.5734C38.4738 23.9357 39.2063 24.6683 39.2063 25.5687C39.2063 26.469 38.4738 27.2016 37.5734 27.2016H33.196C32.7924 27.2016 32.4653 27.5287 32.4653 27.9323C32.4653 28.3359 32.7924 28.663 33.196 28.663H36.2452C37.1457 28.663 37.8782 29.3955 37.8782 30.296C37.8782 31.1964 37.1457 31.9289 36.2452 31.9289H32.5858C32.1822 31.9289 31.8552 32.2561 31.8552 32.6596C31.8552 33.0631 32.1822 33.3903 32.5858 33.3903H34.5198C35.4203 33.3903 36.1528 34.1229 36.1528 35.0232C36.1528 35.9236 35.4203 36.6562 34.5198 36.6562H26.3368C23.8453 36.6562 21.3949 35.9854 19.251 34.7164L17.7806 33.8461V22.4669Z" fill="#636262"/>
</g>
</svg>
