<svg width="38" height="44" viewBox="0 0 38 44" fill="none" xmlns="http://www.w3.org/2000/svg">
<path d="M19 43.875L9.35001 38.7297C6.59897 37.2661 4.2984 35.081 2.6952 32.4089C1.092 29.7369 0.246698 26.6786 0.25001 23.5625V3.25C0.250837 2.42145 0.580343 1.62708 1.16621 1.0412C1.75209 0.455333 2.54646 0.125827 3.37501 0.125H34.625C35.4536 0.125827 36.2479 0.455333 36.8338 1.0412C37.4197 1.62708 37.7492 2.42145 37.75 3.25V23.5625C37.7533 26.6786 36.908 29.7369 35.3048 32.4089C33.7016 35.081 31.4011 37.2661 28.65 38.7297L19 43.875ZM3.37501 3.25V23.5625C3.37242 26.1122 4.06423 28.6145 5.3762 30.8007C6.68817 32.987 8.57076 34.7746 10.8219 35.9719L19 40.3328L27.1781 35.9734C29.4295 34.7761 31.3122 32.9881 32.6242 30.8016C33.9362 28.6151 34.6279 26.1125 34.625 23.5625V3.25H3.37501Z" fill="#FFC73B"/>
<path d="M19 36.4953V6.375H31.5V23.2578C31.4999 25.2383 30.9621 27.1816 29.9439 28.8803C28.9257 30.5791 27.4654 31.9695 25.7187 32.9031L19 36.4953Z" fill="#FFC73B"/>
</svg>
