<svg width="34" height="36" viewBox="0 0 34 36" fill="none" xmlns="http://www.w3.org/2000/svg">
<path d="M8.66683 14.9167C10.109 14.9167 11.5188 14.4891 12.7179 13.6878C13.917 12.8866 14.8516 11.7478 15.4035 10.4154C15.9553 9.08307 16.0997 7.61696 15.8184 6.20251C15.537 4.78807 14.8426 3.48882 13.8228 2.46906C12.8031 1.4493 11.5038 0.754838 10.0894 0.473488C8.67492 0.192137 7.20881 0.336537 5.87643 0.888426C4.54405 1.44031 3.40525 2.37491 2.60403 3.57401C1.80281 4.77312 1.37516 6.18289 1.37516 7.62505C1.37516 9.55892 2.14339 11.4136 3.51084 12.781C4.8783 14.1485 6.73296 14.9167 8.66683 14.9167ZM8.66683 4.50005C9.2849 4.50005 9.88908 4.68333 10.403 5.0267C10.9169 5.37008 11.3174 5.85814 11.554 6.42916C11.7905 7.00018 11.8524 7.62851 11.7318 8.2347C11.6112 8.8409 11.3136 9.39772 10.8765 9.83476C10.4395 10.2718 9.88268 10.5694 9.27649 10.69C8.6703 10.8106 8.04196 10.7487 7.47095 10.5122C6.89993 10.2756 6.41187 9.87511 6.06849 9.3612C5.72511 8.8473 5.54183 8.24311 5.54183 7.62505C5.54183 6.79625 5.87107 6.00139 6.45712 5.41534C7.04317 4.82929 7.83803 4.50005 8.66683 4.50005ZM25.3335 21.1667C23.8913 21.1667 22.4816 21.5944 21.2825 22.3956C20.0834 23.1968 19.1488 24.3356 18.5969 25.668C18.045 27.0004 17.9006 28.4665 18.1819 29.8809C18.4633 31.2954 19.1578 32.5946 20.1775 33.6144C21.1973 34.6341 22.4965 35.3286 23.911 35.6099C25.3254 35.8913 26.7915 35.7469 28.1239 35.195C29.4563 34.6431 30.5951 33.7085 31.3963 32.5094C32.1975 31.3103 32.6252 29.9005 32.6252 28.4584C32.6252 26.5245 31.8569 24.6698 30.4895 23.3024C29.122 21.9349 27.2674 21.1667 25.3335 21.1667ZM25.3335 31.5834C24.7154 31.5834 24.1112 31.4001 23.5973 31.0567C23.0834 30.7133 22.6829 30.2253 22.4464 29.6543C22.2099 29.0832 22.148 28.4549 22.2685 27.8487C22.3891 27.2425 22.6867 26.6857 23.1238 26.2487C23.5608 25.8116 24.1176 25.514 24.7238 25.3934C25.33 25.2728 25.9584 25.3347 26.5294 25.5713C27.1004 25.8078 27.5885 26.2083 27.9318 26.7222C28.2752 27.2361 28.4585 27.8403 28.4585 28.4584C28.4585 29.2872 28.1293 30.082 27.5432 30.6681C26.9572 31.2541 26.1623 31.5834 25.3335 31.5834ZM33.1252 0.875047C32.9529 0.70245 32.7484 0.565517 32.5231 0.472087C32.2979 0.378658 32.0565 0.330566 31.8127 0.330566C31.5688 0.330566 31.3274 0.378658 31.1022 0.472087C30.877 0.565517 30.6724 0.70245 30.5002 0.875047L0.875165 30.5C0.531409 30.8509 0.337219 31.3214 0.333498 31.8125C0.332941 32.1797 0.441383 32.5387 0.645083 32.8441C0.848784 33.1496 1.13857 33.3877 1.47772 33.5282C1.81688 33.6688 2.19012 33.7055 2.55017 33.6338C2.91021 33.562 3.24084 33.3849 3.50016 33.125L33.1252 3.50005C33.2978 3.32782 33.4347 3.12324 33.5281 2.89803C33.6216 2.67281 33.6696 2.43137 33.6696 2.18755C33.6696 1.94372 33.6216 1.70229 33.5281 1.47707C33.4347 1.25185 33.2978 1.04727 33.1252 0.875047Z" fill="#FFC73B"/>
</svg>
