<svg width="46" height="46" viewBox="0 0 46 46" fill="none" xmlns="http://www.w3.org/2000/svg">
<path d="M36.7775 42.8332H3.1664V9.22206H23.3636L26.4192 6.1665H3.1664C2.35601 6.1665 1.57882 6.48843 1.00579 7.06146C0.432763 7.63448 0.11084 8.41168 0.11084 9.22206V42.8332C0.11084 43.6436 0.432763 44.4207 1.00579 44.9938C1.57882 45.5668 2.35601 45.8887 3.1664 45.8887H36.7775C37.5879 45.8887 38.3651 45.5668 38.9381 44.9938C39.5111 44.4207 39.8331 43.6436 39.8331 42.8332V19.9165L36.7775 22.9721V42.8332Z" fill="#FFC73B"/>
<path d="M45.226 5.92221L40.0774 0.773601C39.8489 0.544481 39.5775 0.362696 39.2786 0.238661C38.9797 0.114627 38.6593 0.0507812 38.3357 0.0507812C38.0122 0.0507813 37.6917 0.114627 37.3929 0.238661C37.094 0.362696 36.8226 0.544481 36.5941 0.773601L15.6482 21.8417L13.9524 29.1903C13.8802 29.5465 13.8877 29.9143 13.9746 30.2672C14.0615 30.6201 14.2256 30.9494 14.4549 31.2314C14.6843 31.5133 14.9733 31.741 15.3011 31.8979C15.629 32.0548 15.9875 32.1371 16.351 32.1389C16.5389 32.1596 16.7284 32.1596 16.9163 32.1389L24.326 30.5042L45.226 9.40555C45.4551 9.17705 45.6369 8.9056 45.761 8.60673C45.885 8.30786 45.9488 7.98746 45.9488 7.66388C45.9488 7.3403 45.885 7.01989 45.761 6.72103C45.6369 6.42216 45.4551 6.15071 45.226 5.92221ZM22.7371 27.6778L17.1455 28.9153L18.4441 23.3694L34.2107 7.49582L38.5191 11.8042L22.7371 27.6778ZM40.2455 10.0778L35.9371 5.76943L38.3052 3.35555L42.6441 7.69443L40.2455 10.0778Z" fill="#FFC73B"/>
</svg>
