<svg width="31" height="31" viewBox="0 0 31 31" fill="none" xmlns="http://www.w3.org/2000/svg">
<g clip-path="url(#clip0)">
<path d="M15.4254 30.7356C23.7092 30.7356 30.4246 24.0203 30.4246 15.7365C30.4246 7.45266 23.7092 0.737305 15.4254 0.737305C7.14162 0.737305 0.42627 7.45266 0.42627 15.7365C0.42627 24.0203 7.14162 30.7356 15.4254 30.7356Z" fill="#3B5998"/>
<path d="M19.1961 16.3236H16.5197V26.1288H12.4647V16.3236H10.5361V12.8777H12.4647V10.6478C12.4647 9.05316 13.2222 6.55615 16.5558 6.55615L19.5595 6.56872V9.91357H17.3801C17.0226 9.91357 16.52 10.0922 16.52 10.8529V12.8809H19.5504L19.1961 16.3236Z" fill="white"/>
</g>
<defs>
<clipPath id="clip0">
<rect width="29.9983" height="29.9983" fill="white" transform="translate(0.42627 0.737305)"/>
</clipPath>
</defs>
</svg>
