<svg width="31" height="31" viewBox="0 0 31 31" fill="none" xmlns="http://www.w3.org/2000/svg">
<mask id="mask0" mask-type="alpha" maskUnits="userSpaceOnUse" x="0" y="0" width="31" height="31">
<path d="M1.07666 15.7355C1.07666 7.72816 7.56849 1.23633 15.5758 1.23633C23.5832 1.23633 30.075 7.72816 30.075 15.7355C30.075 23.7428 23.5832 30.2347 15.5758 30.2347C7.56849 30.2347 1.07666 23.7428 1.07666 15.7355Z" fill="#C4C4C4" stroke="white"/>
</mask>
<g mask="url(#mask0)">
<path d="M2.53306 2.81902C0.182924 5.26012 0.663916 7.85324 0.663916 15.7311C0.663916 22.273 -0.477507 28.8312 5.49627 30.3752C7.36167 30.8549 23.8899 30.8549 25.7528 30.3727C28.24 29.7309 30.2636 27.7135 30.5403 24.1958C30.5789 23.7048 30.5789 7.76602 30.539 7.26509C30.245 3.51808 27.9384 1.3586 24.8992 0.921219C24.2026 0.820286 24.0631 0.790379 20.4893 0.784149C7.81276 0.790379 5.03397 0.225898 2.53306 2.81902Z" fill="url(#paint0_linear)"/>
</g>
<path d="M15.5751 7.17281C12.0673 7.17281 8.73618 6.86077 7.46384 10.1261C6.93829 11.4748 7.01461 13.2263 7.01461 15.7343C7.01461 17.935 6.94408 20.0034 7.46384 21.3415C8.73328 24.6088 12.0914 24.2958 15.5732 24.2958C18.9323 24.2958 22.3957 24.6455 23.6835 21.3415C24.21 19.9793 24.1327 18.2539 24.1327 15.7343C24.1327 12.3897 24.3173 10.2305 22.6952 8.60939C21.0528 6.96704 18.8318 7.17281 15.5713 7.17281H15.5751ZM14.808 8.71566C22.1252 8.70406 23.0565 7.89062 22.5426 19.191C22.36 23.1877 19.3168 22.7491 15.5761 22.7491C8.7555 22.7491 8.55938 22.5539 8.55938 15.7304C8.55938 8.82772 9.10039 8.71952 14.808 8.71373V8.71566ZM20.1447 10.1368C19.5776 10.1368 19.1178 10.5966 19.1178 11.1637C19.1178 11.7308 19.5776 12.1907 20.1447 12.1907C20.7118 12.1907 21.1717 11.7308 21.1717 11.1637C21.1717 10.5966 20.7118 10.1368 20.1447 10.1368ZM15.5751 11.3376C13.1473 11.3376 11.1794 13.3065 11.1794 15.7343C11.1794 18.1621 13.1473 20.13 15.5751 20.13C18.0029 20.13 19.9699 18.1621 19.9699 15.7343C19.9699 13.3065 18.0029 11.3376 15.5751 11.3376ZM15.5751 12.8805C19.3477 12.8805 19.3525 18.5881 15.5751 18.5881C11.8035 18.5881 11.7977 12.8805 15.5751 12.8805Z" fill="white"/>
<defs>
<linearGradient id="paint0_linear" x1="2.5904" y1="28.7803" x2="30.3851" y2="4.72427" gradientUnits="userSpaceOnUse">
<stop stop-color="#FFDD55"/>
<stop offset="0.5" stop-color="#FF543E"/>
<stop offset="1" stop-color="#C837AB"/>
</linearGradient>
</defs>
</svg>
