<svg width="206" height="58" viewBox="0 0 206 58" fill="none" xmlns="http://www.w3.org/2000/svg">
<g clip-path="url(#clip0)">
<path fill-rule="evenodd" clip-rule="evenodd" d="M202.139 31.0937C199.878 33.3264 197.146 34.4448 193.946 34.4448C190.748 34.4448 188.016 33.3249 185.756 31.0937C183.495 28.8618 182.363 26.1637 182.363 23.0045C182.363 19.8446 183.495 17.1465 185.756 14.9139C188.016 12.6812 190.748 11.5635 193.946 11.5635C197.146 11.5635 199.878 12.6812 202.139 14.9139C204.4 17.1465 205.532 19.8446 205.532 23.0045C205.532 26.1637 204.4 28.8611 202.139 31.0937ZM198.399 18.6065C197.176 17.3986 195.69 16.7935 193.946 16.7935C192.226 16.7935 190.746 17.3986 189.511 18.6065C188.276 19.8152 187.659 21.2817 187.659 23.0045C187.659 24.7259 188.276 26.1924 189.511 27.4011C190.746 28.609 192.226 29.2141 193.946 29.2141C195.69 29.2141 197.176 28.609 198.399 27.4011C199.623 26.1924 200.236 24.7259 200.236 23.0045C200.236 21.2817 199.623 19.8152 198.399 18.6065ZM184.723 34.4448H178.093L171.102 25.2859L168.494 27.9238V34.4448H163.197V11.5635H168.494V20.585L177.431 11.5635H184.702L174.848 21.5058L184.723 34.4448ZM152.812 34.4448H139.801V29.2141H152.812C153.317 29.2141 153.752 29.0387 154.103 28.6914C154.456 28.3448 154.634 27.9173 154.634 27.4168C154.634 26.9156 154.456 26.491 154.103 26.143C153.75 25.7942 153.319 25.6181 152.812 25.6181H140.463V20.3881C144.579 20.3881 148.696 20.3881 152.812 20.3881C153.32 20.3881 153.75 20.2134 154.103 19.8646C154.456 19.5166 154.634 19.0927 154.634 18.5908C154.634 18.0888 154.456 17.6628 154.103 17.3162C153.752 16.9711 153.319 16.7935 152.812 16.7935H139.801V11.5635H152.812C154.773 11.5635 156.453 12.2487 157.844 13.6214C159.234 14.9948 159.93 16.651 159.93 18.5908C159.93 19.9864 159.93 22.9272 159.93 27.4168C159.93 29.3559 159.234 31.0135 157.844 32.3862C156.453 33.7589 154.776 34.4448 152.812 34.4448ZM128.424 34.4448H123.128V16.7935H115.019V11.5635H136.534V16.7935H128.424V34.4448ZM106.455 25.6181H95.5315V34.4448H90.2372V11.5635H95.5315V20.3881C99.1727 20.3881 102.814 20.3881 106.455 20.3881V11.5635H111.752V34.4448H106.455V25.6181ZM81.6734 19.9234L70.7518 34.4448H65.4553V11.5635H70.7518V26.0842L81.6734 11.5635H86.9698V34.4448H81.6734V19.9234ZM55.3704 26.7122H35.0424C33.1934 26.7122 31.6825 25.22 31.6825 23.3941V3.31817C31.6825 1.49225 33.1948 0 35.0424 0H55.3704C57.2173 0 58.7303 1.49368 58.7303 3.31817V23.3941C58.7303 25.2178 57.2195 26.7122 55.3704 26.7122ZM55.8697 3.31817C55.8697 3.04751 55.6444 2.82553 55.3704 2.82553H35.0424C34.7684 2.82553 34.5432 3.04894 34.5432 3.31817V23.3941C34.5432 23.6626 34.7684 23.8867 35.0424 23.8867H55.3704C55.643 23.8867 55.8697 23.664 55.8697 23.3941V3.31817ZM32.7648 48.5009H49.1112L49.1119 32.3576C49.1119 31.3708 49.9216 30.571 50.9209 30.571C51.9201 30.571 52.7298 31.3708 52.7298 32.3576V48.382C52.7298 50.4142 51.0491 52.0747 48.9916 52.0747L32.7648 52.074C31.7656 52.074 30.9559 51.2749 30.9559 50.2874C30.9559 49.3007 31.7656 48.5009 32.7648 48.5009ZM25.9655 9.49911H9.61918L9.61845 25.6424C9.61845 26.6299 8.80871 27.429 7.80948 27.429C6.80951 27.429 6.00051 26.6299 6.00051 25.6424V9.61798C6.00051 7.58583 7.6812 5.92531 9.73871 5.92531L25.9655 5.92602C26.9647 5.92602 27.7745 6.72585 27.7745 7.71257C27.7745 8.69928 26.9647 9.49911 25.9655 9.49911ZM27.0478 34.6067V54.6825C27.0478 56.5063 25.537 58 23.6879 58H3.35993C1.51088 58 0 56.5085 0 54.6825V34.6067C0 32.7807 1.51306 31.2885 3.35993 31.2885H23.6879C25.5355 31.2885 27.0478 32.7822 27.0478 34.6067ZM2.86068 34.6067V54.6825C2.86068 54.9511 3.08589 55.1752 3.35993 55.1752H23.6879C23.9605 55.1752 24.1872 54.9525 24.1872 54.6825V34.6067C24.1872 34.336 23.9619 34.1133 23.6879 34.1133H3.35993C3.08589 34.1133 2.86068 34.3374 2.86068 34.6067Z" fill="black"/>
<path fill-rule="evenodd" clip-rule="evenodd" d="M43.3351 43.9188H34.3318C33.7064 43.9188 33.1948 43.4133 33.1948 42.7961V33.9049C33.1948 33.2876 33.7064 32.7821 34.3318 32.7821H43.3351C43.9604 32.7821 44.4713 33.2876 44.4713 33.9049V42.7961C44.4713 43.4133 43.9604 43.9188 43.3351 43.9188ZM15.3952 14.0811H24.3985C25.0238 14.0811 25.5355 14.5866 25.5355 15.2038V24.095C25.5355 24.7122 25.0238 25.2178 24.3985 25.2178H15.3952C14.7698 25.2178 14.2589 24.7122 14.2589 24.095V15.2038C14.2589 14.5866 14.7698 14.0811 15.3952 14.0811Z" fill="black"/>
<path fill-rule="evenodd" clip-rule="evenodd" d="M202.528 39.7765H204.073V46.3448H202.528V42.2755L202.502 42.2705L200.067 46.3448H198.528V39.7765H200.067V43.8415L200.095 43.8458L202.528 39.7765ZM196.896 40.9501H195.142V46.3448H193.593V40.9501H191.852V39.7765H196.896V40.9501ZM190.479 44.0369L190.489 44.0642C190.459 44.8339 190.228 45.4225 189.796 45.8271C189.366 46.2338 188.741 46.4371 187.922 46.4371C187.1 46.4371 186.432 46.1872 185.917 45.6889C185.401 45.1898 185.144 44.5418 185.144 43.7455V42.375C185.144 41.5823 185.393 40.9343 185.886 40.4338C186.382 39.934 187.024 39.6841 187.817 39.6841C188.657 39.6841 189.299 39.8932 189.745 40.3106C190.19 40.7295 190.44 41.3217 190.498 42.0922L190.489 42.1194H188.986C188.965 41.6933 188.868 41.3761 188.696 41.1685C188.524 40.9601 188.231 40.857 187.817 40.857C187.467 40.857 187.191 40.9959 186.99 41.2744C186.789 41.5515 186.689 41.9167 186.689 42.3657V43.7455C186.689 44.1981 186.798 44.5647 187.018 44.8446C187.237 45.1239 187.539 45.2635 187.922 45.2635C188.293 45.2635 188.557 45.1669 188.711 44.9714C188.867 44.7759 188.956 44.4644 188.976 44.0369H190.479ZM181.789 42.4616C181.789 41.9919 181.677 41.6088 181.454 41.3081C181.229 41.0081 180.915 40.857 180.506 40.857C180.089 40.857 179.77 41.0066 179.549 41.3052C179.327 41.6038 179.219 41.989 179.219 42.4616V43.6503C179.219 44.1257 179.329 44.5124 179.554 44.8131C179.777 45.1132 180.098 45.2635 180.515 45.2635C180.919 45.2635 181.235 45.1132 181.455 44.8131C181.678 44.5124 181.789 44.1257 181.789 43.6503V42.4616ZM183.328 43.6517C183.328 44.4601 183.069 45.1253 182.55 45.6502C182.03 46.1751 181.353 46.4371 180.515 46.4371C179.672 46.4371 178.988 46.1751 178.464 45.6502C177.94 45.1253 177.678 44.4601 177.678 43.6517V42.4688C177.678 41.664 177.94 40.9987 178.462 40.4725C178.985 39.9476 179.666 39.6841 180.506 39.6841C181.34 39.6841 182.02 39.9476 182.542 40.4725C183.066 40.9987 183.328 41.664 183.328 42.4688V43.6517ZM175.709 46.3448H174.169V43.7026H171.707V46.3448H170.159V39.7765H171.707V42.5297H174.169V39.7765H175.709V46.3448ZM168.253 44.0369L168.262 44.0642C168.232 44.8339 168.002 45.4225 167.57 45.8271C167.14 46.2338 166.514 46.4371 165.696 46.4371C164.873 46.4371 164.205 46.1872 163.691 45.6889C163.175 45.1898 162.917 44.5418 162.917 43.7455V42.375C162.917 41.5823 163.165 40.9343 163.659 40.4338C164.155 39.934 164.798 39.6841 165.59 39.6841C166.43 39.6841 167.073 39.8932 167.518 40.3106C167.962 40.7295 168.214 41.3217 168.271 42.0922L168.262 42.1194H166.759C166.739 41.6933 166.642 41.3761 166.469 41.1685C166.297 40.9601 166.004 40.857 165.59 40.857C165.24 40.857 164.965 40.9959 164.764 41.2744C164.562 41.5515 164.463 41.9167 164.463 42.3657V43.7455C164.463 44.1981 164.571 44.5647 164.792 44.8446C165.01 45.1239 165.312 45.2635 165.696 45.2635C166.067 45.2635 166.33 45.1669 166.484 44.9714C166.64 44.7759 166.729 44.4644 166.75 44.0369H168.253ZM157.893 43.8966H159.304L158.61 41.5444H158.582L157.893 43.8966ZM159.647 45.0695H157.55L157.176 46.3448H155.623L157.768 39.7765H159.427L161.579 46.3448H160.026L159.647 45.0695ZM153.994 46.3448H152.449V40.9501H149.992V46.3448H148.444V39.7765H153.994V46.3448ZM144.933 42.4616C144.933 41.9919 144.821 41.6088 144.598 41.3081C144.374 41.0081 144.059 40.857 143.65 40.857C143.232 40.857 142.915 41.0066 142.693 41.3052C142.471 41.6038 142.362 41.989 142.362 42.4616V43.6503C142.362 44.1257 142.473 44.5124 142.697 44.8131C142.92 45.1132 143.242 45.2635 143.659 45.2635C144.063 45.2635 144.378 45.1132 144.6 44.8131C144.823 44.5124 144.933 44.1257 144.933 43.6503V42.4616ZM146.472 43.6517C146.472 44.4601 146.213 45.1253 145.694 45.6502C145.175 46.1751 144.497 46.4371 143.659 46.4371C142.816 46.4371 142.132 46.1751 141.608 45.6502C141.084 45.1253 140.822 44.4601 140.822 43.6517V42.4688C140.822 41.664 141.084 40.9987 141.606 40.4725C142.128 39.9476 142.81 39.6841 143.65 39.6841C144.484 39.6841 145.164 39.9476 145.686 40.4725C146.21 40.9987 146.472 41.664 146.472 42.4688V43.6517ZM138.842 41.5623C138.842 41.863 138.751 42.1387 138.572 42.3857C138.394 42.6335 138.147 42.8311 137.833 42.9758C138.192 43.1054 138.468 43.2973 138.66 43.5565C138.852 43.815 138.947 44.13 138.947 44.506C138.947 45.1096 138.706 45.5829 138.227 45.9245C137.745 46.266 137.12 46.4371 136.349 46.4371C135.663 46.4371 135.071 46.2767 134.572 45.9545C134.073 45.633 133.83 45.164 133.846 44.5461L133.854 44.5203H135.358C135.358 44.7329 135.45 44.9112 135.635 45.0516C135.822 45.1934 136.059 45.2635 136.349 45.2635C136.672 45.2635 136.928 45.1884 137.118 45.0387C137.308 44.8898 137.403 44.7022 137.403 44.4737C137.403 44.1551 137.322 43.9231 137.16 43.7792C136.996 43.6367 136.75 43.5636 136.421 43.5636H135.576V42.428H136.421C136.72 42.428 136.942 42.3557 137.087 42.211C137.23 42.0671 137.303 41.8609 137.303 41.5931C137.303 41.3854 137.221 41.2114 137.057 41.0696C136.891 40.9279 136.657 40.857 136.349 40.857C136.088 40.857 135.871 40.92 135.702 41.0482C135.534 41.1763 135.448 41.3482 135.448 41.5659H133.95L133.942 41.5372C133.924 40.9851 134.147 40.5369 134.617 40.1968C135.086 39.8552 135.663 39.6841 136.349 39.6841C137.12 39.6841 137.727 39.8466 138.173 40.1717C138.619 40.4968 138.842 40.9601 138.842 41.5623ZM131.802 43.5364H129.193V45.1712H132.268V46.3448H127.645V39.7765H132.277V40.9501H129.193V42.3628H131.802V43.5364ZM122.286 43.25V45.1712H123.181C123.522 45.1712 123.787 45.0774 123.977 44.8898C124.169 44.7036 124.264 44.4644 124.264 44.1766C124.264 43.9045 124.169 43.6811 123.977 43.5085C123.787 43.3359 123.522 43.25 123.181 43.25H122.286ZM125.195 40.9501H122.286V42.0764H123.181C123.976 42.0764 124.612 42.269 125.087 42.6543C125.565 43.0373 125.803 43.5486 125.803 44.1859C125.803 44.8282 125.565 45.3502 125.086 45.7476C124.607 46.1457 123.973 46.3448 123.181 46.3448H120.738V39.7765H125.195V40.9501ZM110.719 43.25V45.1712H111.614C111.956 45.1712 112.223 45.0774 112.413 44.8898C112.603 44.7036 112.698 44.4644 112.698 44.1766C112.698 43.9045 112.603 43.6811 112.413 43.5085C112.223 43.3359 111.956 43.25 111.614 43.25H110.719ZM116.279 46.3448H114.738V39.7765H116.279V46.3448ZM110.719 42.0764H111.614C112.409 42.0764 113.045 42.269 113.523 42.6543C113.998 43.0373 114.236 43.5486 114.236 44.1859C114.236 44.8282 113.998 45.3502 113.52 45.7476C113.041 46.1457 112.406 46.3448 111.614 46.3448H109.171V39.7765H110.719V42.0764ZM101.993 39.7765L103.482 44.3735H103.509L105.017 39.7765H107.054V46.3448H105.506V44.7158L105.651 41.7162L105.624 41.7119L104.022 46.3448H102.98L101.395 41.7513L101.367 41.7563L101.513 44.7158V46.3448H99.965V39.7765H101.993ZM97.7253 43.5364H95.1168V45.1712H98.1917V46.3448H93.5687V39.7765H98.2005V40.9501H95.1168V42.3628H97.7253V43.5364ZM91.8683 40.9501H90.114V46.3448H88.5645V40.9501H86.8248V39.7765H91.8683V40.9501ZM85.4509 44.0369L85.4611 44.0642C85.4305 44.8339 85.2002 45.4225 84.7687 45.8271C84.338 46.2338 83.7134 46.4371 82.8942 46.4371C82.0713 46.4371 81.4044 46.1872 80.8892 45.6889C80.3739 45.1898 80.1159 44.5418 80.1159 43.7455V42.375C80.1159 41.5823 80.3644 40.9343 80.8585 40.4338C81.3542 39.934 81.9963 39.6841 82.7885 39.6841C83.6288 39.6841 84.271 39.8932 84.717 40.3106C85.1616 40.7295 85.4123 41.3217 85.4699 42.0922L85.4611 42.1194H83.9576C83.9371 41.6933 83.8409 41.3761 83.6675 41.1685C83.4962 40.9601 83.2032 40.857 82.7885 40.857C82.4394 40.857 82.1632 40.9959 81.962 41.2744C81.7608 41.5515 81.661 41.9167 81.661 42.3657V43.7455C81.661 44.1981 81.7703 44.5647 81.9904 44.8446C82.2091 45.1239 82.5108 45.2635 82.8942 45.2635C83.2659 45.2635 83.529 45.1669 83.6835 44.9714C83.8395 44.7759 83.9284 44.4644 83.9488 44.0369H85.4509ZM76.6291 39.7765H78.1742V46.3448H76.6291V42.2755L76.6021 42.2705L74.1671 46.3448H72.6285V39.7765H74.1671V43.8415L74.1948 43.8458L76.6291 39.7765ZM70.7904 44.0369L70.7999 44.0642C70.77 44.8339 70.5397 45.4225 70.1075 45.8271C69.6767 46.2338 69.0521 46.4371 68.2336 46.4371C67.4108 46.4371 66.7432 46.1872 66.2286 45.6889C65.7126 45.1898 65.4553 44.5418 65.4553 43.7455V42.375C65.4553 41.5823 65.7031 40.9343 66.1973 40.4338C66.6929 39.934 67.3357 39.6841 68.1272 39.6841C68.9676 39.6841 69.6104 39.8932 70.0557 40.3106C70.5003 40.7295 70.7518 41.3217 70.8094 42.0922L70.7999 42.1194H69.297C69.2766 41.6933 69.1797 41.3761 69.0069 41.1685C68.8357 40.9601 68.5419 40.857 68.1272 40.857C67.7781 40.857 67.5026 40.9959 67.3015 41.2744C67.1003 41.5515 67.0005 41.9167 67.0005 42.3657V43.7455C67.0005 44.1981 67.1091 44.5647 67.3292 44.8446C67.5478 45.1239 67.8503 45.2635 68.2336 45.2635C68.6046 45.2635 68.8677 45.1669 69.0222 44.9714C69.1782 44.7759 69.2671 44.4644 69.2875 44.0369H70.7904Z" fill="black"/>
</g>
<defs>
<clipPath id="clip0">
<rect width="205.532" height="58" fill="white"/>
</clipPath>
</defs>
</svg>
