<svg width="15" height="11" viewBox="0 0 15 11" fill="none" xmlns="http://www.w3.org/2000/svg">
<path d="M9.94315 5.233L15 8.42988V1.90112L9.94315 5.233Z" fill="#1F2020"/>
<path d="M0 1.90112V8.42988L5.05688 5.233L0 1.90112Z" fill="#1F2020"/>
<path d="M14.0625 0H0.937482C0.469669 0 0.0984192 0.34875 0.0281067 0.797813L7.49999 5.72063L14.9719 0.797813C14.9016 0.34875 14.5303 0 14.0625 0Z" fill="#1F2020"/>
<path d="M9.08435 5.79928L7.75779 6.67303C7.67904 6.72459 7.58997 6.7499 7.49997 6.7499C7.40997 6.7499 7.32091 6.72459 7.24216 6.67303L5.9156 5.79834L0.0299683 9.52115C0.102156 9.96647 0.471531 10.3124 0.937469 10.3124H14.0625C14.5284 10.3124 14.8978 9.96647 14.97 9.52115L9.08435 5.79928Z" fill="#001424"/>
</svg>
