<svg width="31" height="31" viewBox="0 0 31 31" fill="none" xmlns="http://www.w3.org/2000/svg">
<g clip-path="url(#clip0)">
<path d="M15.7268 13.1673C17.159 13.1621 18.2997 12.0116 18.2945 10.5763C18.2893 9.14036 17.1461 7.99781 15.7132 7.99658C14.2684 7.99505 13.1145 9.15877 13.1256 10.6076C13.1363 12.0377 14.2899 13.1726 15.7268 13.1673Z" fill="#FF9800"/>
<path d="M15.713 0.736328C7.42919 0.736328 0.713867 7.45196 0.713867 15.7355C0.713867 24.019 7.42919 30.7347 15.713 30.7347C23.9969 30.7347 30.7122 24.019 30.7122 15.7355C30.7122 7.45196 23.9969 0.736328 15.713 0.736328ZM15.7345 5.29761C18.6561 5.30559 21.001 7.69533 20.986 10.6491C20.9713 13.5348 18.588 15.8736 15.6713 15.8638C12.7844 15.8539 10.4168 13.4605 10.4339 10.569C10.4502 7.64592 12.8191 5.28963 15.7345 5.29761ZM21.6519 17.9396C21.0059 18.6027 20.2283 19.0827 19.3647 19.4175C18.5484 19.7339 17.6538 19.8932 16.7681 19.9994C16.9022 20.1449 16.9651 20.2164 17.0486 20.2998C18.2504 21.5081 19.458 22.7101 20.6558 23.9217C21.0639 24.3348 21.1489 24.8467 20.9243 25.3264C20.6791 25.8511 20.1288 26.1961 19.589 26.1589C19.2472 26.1353 18.9805 25.9656 18.7439 25.7272C17.8367 24.8145 16.9123 23.9181 16.0242 22.9882C15.7649 22.7175 15.6409 22.7691 15.4123 23.0041C14.4999 23.9438 13.5725 24.8685 12.6399 25.7882C12.2209 26.2013 11.7226 26.2762 11.2365 26.0399C10.72 25.7901 10.3916 25.2625 10.4168 24.7319C10.4346 24.3741 10.6107 24.0997 10.8568 23.8548C12.0466 22.6675 13.2328 21.4764 14.4192 20.2863C14.4981 20.2075 14.5711 20.1237 14.6856 20.0009C13.0673 19.8318 11.6081 19.4335 10.3588 18.4567C10.2035 18.3351 10.0436 18.2179 9.90241 18.0817C9.35523 17.5566 9.30029 16.9548 9.7327 16.3355C10.1031 15.8052 10.7243 15.6634 11.3703 15.9681C11.4955 16.0267 11.6145 16.101 11.7287 16.1796C14.0568 17.7794 17.2551 17.8233 19.5924 16.2511C19.8238 16.0743 20.0715 15.9288 20.3584 15.8555C20.9157 15.7119 21.4362 15.9172 21.7351 16.4051C22.0773 16.9627 22.0733 17.5065 21.6519 17.9396Z" fill="#FF9800"/>
<path d="M9.58594 16.5066C9.06986 17.5491 9.65582 18.0474 10.9927 18.8987C12.1293 19.6202 13.6994 19.8841 14.708 19.9897C14.2946 20.398 16.1889 18.5258 10.7334 23.9183C9.57668 25.0577 11.4389 26.8857 12.5949 25.7706L15.7242 22.669C16.9222 23.8534 18.0705 24.9885 18.8535 25.7749C20.0103 26.8944 21.8717 25.0819 20.7275 23.9226C20.6417 23.8387 16.4869 19.7431 16.7403 19.994C17.7616 19.8884 19.3081 19.609 20.4312 18.903L20.4304 18.9022C21.7673 18.0466 22.3532 17.5491 21.8447 16.5066C21.5374 15.9148 20.709 15.42 19.6061 16.2756C19.6061 16.2756 18.1168 17.4479 15.7149 17.4479C13.3122 17.4479 11.8237 16.2756 11.8237 16.2756C10.7217 15.4157 9.88986 15.9148 9.58594 16.5066Z" fill="white"/>
<path d="M15.713 15.8679C18.6411 15.8679 21.0321 13.5164 21.0321 10.6216C21.0321 7.71475 18.6411 5.36328 15.713 5.36328C12.784 5.36328 10.3931 7.71475 10.3931 10.6216C10.3931 13.5164 12.784 15.8679 15.713 15.8679ZM15.713 8.02706C17.1518 8.02706 18.3254 9.18722 18.3254 10.6216C18.3254 12.0439 17.1518 13.2041 15.713 13.2041C14.2742 13.2041 13.1006 12.0439 13.1006 10.6216C13.0997 9.18636 14.2733 8.02706 15.713 8.02706Z" fill="white"/>
</g>
<defs>
<clipPath id="clip0">
<rect width="29.9983" height="29.9983" fill="white" transform="translate(0.713867 0.736328)"/>
</clipPath>
</defs>
</svg>
