<svg width="15" height="16" viewBox="0 0 15 16" fill="none" xmlns="http://www.w3.org/2000/svg">
<g clip-path="url(#clip0)">
<path d="M7.5 0.74585C3.36433 0.74585 0 4.11018 0 8.24585C0 12.3815 3.36433 15.7458 7.5 15.7458C11.6357 15.7458 15 12.3815 15 8.24585C15 4.11018 11.6357 0.74585 7.5 0.74585ZM11.0669 12.1252C10.945 12.247 10.785 12.3084 10.625 12.3084C10.465 12.3084 10.3049 12.247 10.1832 12.1252L7.05814 9.00024C6.94061 8.8834 6.87504 8.72456 6.87504 8.55839V4.49585C6.87504 4.15024 7.15496 3.87089 7.5 3.87089C7.84504 3.87089 8.12496 4.15024 8.12496 4.49585V8.29964L11.0669 11.2415C11.3112 11.4859 11.3112 11.8808 11.0669 12.1252Z" fill="#264B93"/>
</g>
<defs>
<clipPath id="clip0">
<rect width="15" height="15" fill="white" transform="translate(0 0.74585)"/>
</clipPath>
</defs>
</svg>
