<svg width="31" height="31" viewBox="0 0 31 31" fill="none" xmlns="http://www.w3.org/2000/svg">
<g clip-path="url(#clip0)">
<path d="M15.1656 30.7345C23.4496 30.7345 30.1651 24.0189 30.1651 15.7349C30.1651 7.45088 23.4496 0.735352 15.1656 0.735352C6.88154 0.735352 0.166016 7.45088 0.166016 15.7349C0.166016 24.0189 6.88154 30.7345 15.1656 30.7345Z" fill="#55ACEE"/>
<path d="M24.3525 11.5148C23.7097 11.7998 23.0182 11.9926 22.2931 12.0787C23.0335 11.6351 23.6017 10.9332 23.8698 10.0955C23.177 10.5065 22.4094 10.8046 21.5931 10.9653C20.9391 10.2688 20.0072 9.8335 18.9754 9.8335C16.9957 9.8335 15.3901 11.4391 15.3901 13.4188C15.3901 13.6998 15.4219 13.9734 15.4834 14.2359C12.5037 14.0865 9.86173 12.6592 8.09327 10.4894C7.78471 11.0188 7.60771 11.6351 7.60771 12.2921C7.60771 13.5357 8.24113 14.6335 9.20263 15.2763C8.6152 15.2579 8.06199 15.0966 7.57883 14.8274C7.57856 14.8426 7.57856 14.8579 7.57856 14.8728C7.57856 16.61 8.81493 18.0589 10.4548 18.3881C10.1542 18.4704 9.83686 18.514 9.51039 18.514C9.27884 18.514 9.05451 18.4918 8.83579 18.4501C9.29194 19.8742 10.6157 20.9108 12.185 20.94C10.9577 21.9017 9.41199 22.4747 7.73177 22.4747C7.443 22.4747 7.1569 22.4579 6.87695 22.4245C8.46279 23.4421 10.3478 24.0354 12.3724 24.0354C18.9671 24.0354 22.5736 18.5723 22.5736 13.8341C22.5736 13.6787 22.5701 13.5239 22.5631 13.3704C23.2642 12.8651 23.872 12.2338 24.3525 11.5148Z" fill="#F1F2F2"/>
</g>
<defs>
<clipPath id="clip0">
<rect width="29.9994" height="29.9994" fill="white" transform="translate(0.165039 0.735352)"/>
</clipPath>
</defs>
</svg>
