<svg width="20" height="21" viewBox="0 0 20 21" fill="none" xmlns="http://www.w3.org/2000/svg">
<path d="M8.84043 16.5285L8.94452 16.5354C11.4789 16.7048 13.4943 16.1842 13.6933 16.1182C13.6933 16.1182 13.6933 16.1182 13.6934 16.1182L13.7564 16.308L8.84043 16.5285ZM8.84043 16.5285L8.77516 16.6099M8.84043 16.5285L8.77516 16.6099M8.77516 16.6099L8.93118 16.735M8.77516 16.6099L8.93118 16.735M8.93118 16.735L8.77514 16.6099L8.77508 16.61L8.77482 16.6103L8.77379 16.6116L8.7697 16.6167L8.75363 16.6367L8.692 16.7133C8.6386 16.7797 8.56163 16.8751 8.4674 16.9917C8.27891 17.2248 8.02146 17.542 7.74548 17.8785C7.191 18.5545 6.56973 19.2985 6.27879 19.6014C6.25928 19.6215 6.242 19.636 6.2277 19.6462C6.22194 19.6198 6.21724 19.5805 6.21769 19.5251V19.5235M8.93118 16.735L6.21769 19.5235M6.21769 19.5235C6.21769 19.393 6.22134 18.5787 6.225 17.796L6.23002 16.7368L6.23167 16.3936L6.23214 16.298L6.23226 16.2729L6.23229 16.2665L6.2323 16.2649L6.2323 16.2644L6.2323 16.2643L6.0323 16.2633L6.2323 16.2643M6.21769 19.5235L6.2323 16.2643M6.2323 16.2643L6.23304 16.1128M6.2323 16.2643L6.23304 16.1128M6.23304 16.1128L6.0874 16.0711M6.23304 16.1128L6.0874 16.0711M6.0874 16.0711C4.2964 15.5578 3.45677 14.3445 3.06321 12.9866C2.69235 11.707 2.72206 10.3131 2.74435 9.2672C2.74596 9.19172 2.74753 9.11804 2.7489 9.04636C2.7892 6.94943 3.17345 5.28681 4.25562 4.17839C4.87816 3.59616 5.7966 3.18079 6.8717 2.9183C7.94598 2.656 9.16081 2.55026 10.357 2.57579C11.553 2.60133 12.7237 2.75798 13.7088 3.01642C14.7004 3.27656 15.4793 3.63352 15.9152 4.04316L15.9151 4.04322M6.0874 16.0711L15.9151 4.04322M15.9151 4.04322L15.9195 4.04708M15.9151 4.04322L15.9195 4.04708M15.9195 4.04708C16.4585 4.52496 16.8255 5.23137 17.0677 6.04571M15.9195 4.04708L17.0677 6.04571M17.0677 6.04571C17.3094 6.85843 17.4219 7.76256 17.4634 8.61709M17.0677 6.04571L17.4634 8.61709M17.4634 8.61709C17.5048 9.47063 17.475 10.2683 17.435 10.8657M17.4634 8.61709L17.435 10.8657M17.435 10.8657C17.4151 11.1642 17.3926 11.4123 17.3752 11.5922M17.435 10.8657L17.3752 11.5922M17.3752 11.5922L17.3632 11.7143M17.3752 11.5922L17.3632 11.7143M17.3632 11.7143L17.3538 11.8098M17.3632 11.7143L17.3538 11.8098M17.3538 11.8098L17.3536 11.8115M17.3538 11.8098L17.3536 11.8115M17.3536 11.8115C17.3501 11.8477 17.3463 11.8867 17.3453 11.9149L17.3536 11.8115ZM19.0636 12.3122C19.628 7.56102 18.8485 4.43106 17.3202 2.9065L17.3207 2.90597L17.2913 2.87794C17.2647 2.85194 17.2379 2.82642 17.2109 2.80137L17.1723 2.76466C16.5115 2.1353 15.4764 1.65451 14.2698 1.32647C13.0589 0.997263 11.6557 0.816626 10.2397 0.801094C8.82386 0.785563 7.38878 0.935054 6.11463 1.27027C4.84292 1.60483 3.71671 2.12834 2.93401 2.87161L2.93388 2.87148L2.92794 2.87763C1.52821 4.32548 1.05206 6.43324 0.999799 8.97752L1.19976 8.98163L0.999799 8.97752C0.973889 10.2394 0.943326 12.0891 1.48502 13.7872C2.01918 15.4616 3.11393 16.9993 5.30677 17.6874L5.30303 19.4983L5.30302 19.4984L5.30283 19.5072C5.30271 19.5146 5.30263 19.5248 5.30273 19.5376C5.30293 19.563 5.30385 19.5987 5.30671 19.6416C5.31237 19.7268 5.32584 19.8441 5.35777 19.9689C5.41875 20.2072 5.56474 20.5352 5.9203 20.6475C6.09033 20.7025 6.25984 20.7233 6.44594 20.6654C6.62333 20.6102 6.79362 20.4901 6.9834 20.3137C7.31523 20.0052 7.76617 19.4657 8.48324 18.6078C8.55912 18.517 8.63799 18.4226 8.72001 18.3246C11.7225 18.567 14.0216 17.9744 14.3049 17.8802L14.3054 17.8801C14.3516 17.8646 14.4207 17.8466 14.5088 17.8236C14.9399 17.7111 15.8245 17.4803 16.6903 16.8523C17.7467 16.0862 18.778 14.7359 19.0636 12.3122Z" fill="white" stroke="#E5E5E5" stroke-width="0.4"/>
<path d="M8.93118 16.735C8.93118 16.735 7.01781 19.1208 6.42277 19.7402C6.22794 19.9415 6.01444 19.9228 6.01769 19.5234C6.01769 19.2612 6.0323 16.2633 6.0323 16.2633C2.28755 15.1901 2.50835 11.154 2.54894 9.04251C2.58953 6.93025 2.97594 5.20034 4.11568 4.03543C6.74505 1.57004 14.1623 2.12124 16.0521 3.89742C18.3625 5.94555 17.5401 11.7319 17.545 11.9292C17.0701 15.8858 14.2711 16.1367 13.7564 16.308C13.5364 16.381 11.4948 16.9063 8.93118 16.735Z" fill="#7B519C"/>
<path d="M9.98918 4.49902C9.67664 4.49902 9.67664 4.98609 9.98918 4.99015C12.414 5.00882 14.411 6.69896 14.4329 9.79916C14.4329 10.1263 14.9118 10.1222 14.9078 9.7951H14.907C14.881 6.45461 12.7005 4.51769 9.98918 4.49902Z" fill="white"/>
<path d="M13.1799 9.28534C13.1726 9.60843 13.6507 9.62385 13.6548 9.2967C13.6946 7.45476 12.5589 5.93754 10.4247 5.77762C10.1122 5.75489 10.0797 6.24602 10.3914 6.26875C12.2423 6.40919 13.2172 7.67232 13.1799 9.28534Z" fill="white"/>
<path d="M12.6671 11.3803C12.2661 11.1482 11.8578 11.2927 11.6889 11.5208L11.3358 11.9778C11.1564 12.21 10.8211 12.1791 10.8211 12.1791C8.37442 11.5321 7.72012 8.97178 7.72012 8.97178C7.72012 8.97178 7.69009 8.62515 7.91414 8.43925L8.35575 8.07395C8.57655 7.8986 8.71618 7.47647 8.49131 7.06165C7.89059 5.9763 7.48714 5.60207 7.28176 5.31469C7.06582 5.04437 6.74111 4.98349 6.40341 5.16614H6.3961C5.69391 5.5769 4.92515 6.34566 5.17112 7.13715C5.59082 7.97166 6.36201 10.6319 8.82009 12.6419C9.97525 13.5925 11.8034 14.5666 12.5794 14.7915L12.5868 14.8028C13.3515 15.0577 14.095 14.2589 14.492 13.5356V13.5299C14.6682 13.1801 14.6097 12.8489 14.3524 12.6321C13.8962 12.1873 13.2078 11.6961 12.6671 11.3803Z" fill="white"/>
</svg>
