<svg width="21" height="20" viewBox="0 0 21 20" fill="none" xmlns="http://www.w3.org/2000/svg">
<path d="M0.430393 20C0.316813 20 0.206318 19.9556 0.124373 19.8737C0.016348 19.7656 -0.0253189 19.6088 0.0152678 19.4621L1.33024 14.7142C0.511567 13.2504 0.0799286 11.5945 0.0805459 9.91364C0.0828607 4.44717 4.58196 0 10.1101 0C12.7914 0.00106812 15.3109 1.03378 17.2046 2.90756C19.0979 4.78149 20.1402 7.27249 20.1395 9.92157C20.137 15.3882 15.6379 19.8357 10.1101 19.8357C10.1101 19.8357 10.1059 19.8357 10.1058 19.8357C8.49109 19.8351 6.89031 19.446 5.46499 18.709L0.539499 19.9861C0.503388 19.9954 0.466659 20 0.430393 20Z" fill="#E5E5E5"/>
<path d="M0.432129 19.5746L1.79386 14.6578C0.953891 13.2188 0.512068 11.5864 0.512685 9.914C0.514845 4.68222 4.82073 0.425781 10.1118 0.425781C12.6794 0.426849 15.0895 1.41501 16.9018 3.20853C18.714 5.00205 19.7117 7.38608 19.7108 9.92163C19.7085 15.1533 15.402 19.4103 10.1118 19.4103C10.1115 19.4103 10.112 19.4103 10.1118 19.4103H10.1076C8.50116 19.4097 6.92275 19.0113 5.52074 18.2552L0.432129 19.5746ZM5.75639 16.5375L6.0479 16.7083C7.2726 17.427 8.67677 17.8071 10.1087 17.8078H10.1118C14.5091 17.8078 18.0881 14.2696 18.0899 9.92102C18.0907 7.81363 17.2617 5.83197 15.7554 4.34134C14.2489 2.85071 12.2459 2.02933 10.1147 2.02841C5.71395 2.02841 2.13507 5.56616 2.13337 9.91461C2.13276 11.4048 2.55436 12.8559 3.35313 14.1117L3.54295 14.4102L2.73677 17.3203L5.75639 16.5375Z" fill="white"/>
<path d="M0.76416 19.2431L2.07883 14.4962C1.26771 13.1071 0.841321 11.531 0.841784 9.91678C0.84379 4.86612 5.00076 0.75708 10.1083 0.75708C12.5874 0.758148 14.9141 1.71213 16.6633 3.44354C18.413 5.17496 19.376 7.47644 19.3751 9.92395C19.3729 14.9748 15.2158 19.0843 10.1088 19.0843C10.1083 19.0843 10.109 19.0843 10.1088 19.0843H10.1046C8.55386 19.0836 7.02993 18.6988 5.67653 17.9695L0.76416 19.2431Z" fill="#64B161"/>
<path d="M0.432129 19.5746L1.79386 14.6578C0.953891 13.2188 0.512068 11.5864 0.512685 9.914C0.514845 4.68222 4.82073 0.425781 10.1118 0.425781C12.6794 0.426849 15.0895 1.41501 16.9018 3.20853C18.714 5.00205 19.7117 7.38608 19.7108 9.92163C19.7085 15.1533 15.402 19.4103 10.1118 19.4103C10.1115 19.4103 10.112 19.4103 10.1118 19.4103H10.1076C8.50116 19.4097 6.92275 19.0113 5.52074 18.2552L0.432129 19.5746ZM5.75639 16.5375L6.0479 16.7083C7.2726 17.427 8.67677 17.8071 10.1087 17.8078H10.1118C14.5091 17.8078 18.0881 14.2696 18.0899 9.92102C18.0907 7.81363 17.2617 5.83197 15.7554 4.34134C14.2489 2.85071 12.2459 2.02933 10.1147 2.02841C5.71395 2.02841 2.13507 5.56616 2.13337 9.91461C2.13276 11.4048 2.55436 12.8559 3.35313 14.1117L3.54295 14.4102L2.73677 17.3203L5.75639 16.5375Z" fill="white"/>
<path fill-rule="evenodd" clip-rule="evenodd" d="M7.71288 5.94733C7.53325 5.55243 7.34405 5.5445 7.17306 5.53763C7.03324 5.53168 6.87321 5.53199 6.71349 5.53199C6.55361 5.53199 6.29373 5.59149 6.07398 5.82877C5.85407 6.06604 5.23431 6.63977 5.23431 7.80661C5.23431 8.97361 6.09389 10.1011 6.21379 10.2595C6.3337 10.4177 7.87306 12.8887 10.3109 13.8393C12.337 14.6294 12.7492 14.4723 13.189 14.4327C13.6288 14.3932 14.608 13.859 14.8078 13.3053C15.0078 12.7515 15.0078 12.277 14.9478 12.1777C14.8878 12.0789 14.7279 12.0196 14.4881 11.901C14.2482 11.7824 13.0691 11.2086 12.8492 11.1295C12.6293 11.0503 12.4694 11.011 12.3095 11.2484C12.1495 11.4855 11.6902 12.0196 11.5502 12.1777C11.4103 12.3362 11.2703 12.356 11.0305 12.2373C10.7907 12.1184 10.0181 11.8682 9.10177 11.0602C8.38881 10.4317 7.90732 9.65537 7.76735 9.41794C7.62754 9.18082 7.76504 9.06364 7.87275 8.93409C8.06674 8.70078 8.3922 8.28132 8.47214 8.12324C8.55208 7.96485 8.51211 7.82645 8.45223 7.70774C8.3922 7.58918 7.92599 6.41639 7.71288 5.94733Z" fill="white"/>
</svg>
