<svg width="30" height="31" viewBox="0 0 30 31" fill="none" xmlns="http://www.w3.org/2000/svg">
<g clip-path="url(#clip0)">
<path d="M15.0007 30.7347C23.2845 30.7347 29.9999 24.0194 29.9999 15.7355C29.9999 7.4517 23.2845 0.736328 15.0007 0.736328C6.71683 0.736328 0.00146484 7.4517 0.00146484 15.7355C0.00146484 24.0194 6.71683 30.7347 15.0007 30.7347Z" fill="#D42428"/>
<path d="M22.8499 12.841C22.8499 11.5836 21.8312 10.5645 20.5745 10.5645H9.8994C8.64296 10.5645 7.62451 11.5838 7.62451 12.841V18.9456C7.62451 20.203 8.64315 21.2221 9.8994 21.2221H20.5744C21.8313 21.2221 22.8497 20.2027 22.8497 18.9456V12.841H22.8499ZM13.7142 18.4686V12.7349L18.0624 15.6019L13.7142 18.4686Z" fill="white"/>
</g>
<defs>
<clipPath id="clip0">
<rect width="29.9983" height="29.9983" fill="white" transform="translate(0.00146484 0.736328)"/>
</clipPath>
</defs>
</svg>
