<svg width="50" height="50" viewBox="0 0 50 50" fill="none" xmlns="http://www.w3.org/2000/svg">
<path d="M25 0.78125C11.6211 0.78125 0.78125 11.6211 0.78125 25C0.78125 38.3789 11.6211 49.2188 25 49.2188C38.3789 49.2188 49.2188 38.3789 49.2188 25C49.2188 11.6211 38.3789 0.78125 25 0.78125ZM13.877 23.3398L27.1094 10.1074C28.0273 9.18945 29.5117 9.18945 30.4199 10.1074L32.0801 11.7676C32.998 12.6855 32.998 14.1699 32.0801 15.0781L22.1582 25L32.0801 34.9219C32.998 35.8398 32.998 37.3242 32.0801 38.2324L30.4199 39.8926C29.502 40.8105 28.0176 40.8105 27.1094 39.8926L13.877 26.6602C12.959 25.7422 12.959 24.2578 13.877 23.3398Z" fill="#FFC73B"/>
</svg>
