<svg width="100" height="100" viewBox="0 0 100 100" fill="none" xmlns="http://www.w3.org/2000/svg">
<g clip-path="url(#clip0)">
<path id="first" d="M98.2208 100H1.77723C0.794949 100 -0.000976562 99.2041 -0.000976562 98.2218V1.77821C-0.000976562 0.795926 0.794949 0 1.77723 0H98.2208C99.2031 0 99.999 0.795926 99.999 1.77821V98.2218C99.999 99.2041 99.2031 100 98.2208 100ZM74.7677 96.4436H96.4426V74.7687L76.3375 94.8738C76.3346 94.8766 76.3318 94.8802 76.3282 94.883C76.3254 94.8859 76.3218 94.8894 76.319 94.8923L74.7677 96.4436ZM47.0874 96.4436H69.7389L72.557 93.6255L61.2313 82.2997L47.0874 96.4436ZM21.2443 96.4436H42.0579L72.9717 65.5298L62.5649 55.123L29.7399 87.948L21.2443 96.4436ZM3.55544 96.4436H16.2149L25.968 86.6905L15.0412 75.7637L3.55544 87.2495V96.4436ZM63.7456 79.7846L75.0714 91.1104L96.4426 69.7392V47.0884L76.7436 66.7874L63.7456 79.7846ZM17.5563 73.2486L28.4824 84.1754L83.0186 29.6392L72.0918 18.7124L50.7114 40.0936C50.7092 40.095 50.7078 40.0965 50.7064 40.0979L17.5563 73.2486ZM3.55544 58.3316V82.2193L13.7652 72.0089C13.7716 72.0032 13.7773 71.9968 13.783 71.9911C13.7887 71.9847 13.7951 71.979 13.8008 71.9733L46.9338 38.8396L35.2395 27.1454L3.55544 58.3316ZM65.0793 52.6079L75.4861 63.0147L96.3907 42.1108C96.4078 42.0937 96.4255 42.0767 96.4426 42.0603V21.2446L65.0793 52.6079ZM3.55544 29.3106V53.3413L17.6374 39.4805L5.5705 27.4129L3.55544 29.3106ZM8.16029 24.9732L20.1724 36.9853L54.0153 3.67449H30.7727L8.16029 24.9732ZM37.7738 24.6502L49.4488 36.3252L82.2184 3.55642H59.2048L37.7738 24.6502ZM74.6062 16.198L85.5329 27.1248L96.4426 16.2151V3.55642H87.2479L74.6062 16.198ZM3.55544 3.55642V24.4255L4.22049 23.7995C4.25819 23.754 4.29731 23.7106 4.33998 23.6679C4.40827 23.5997 4.48082 23.5378 4.55693 23.483L25.7105 3.55642H3.55544Z" fill="currentColor"/>
</g>
<defs>
<clipPath id="clip0">
<rect width="100" height="100" fill="white" transform="translate(-0.000976562)"/>
</clipPath>
</defs>
</svg>
