<svg width="98" height="100" viewBox="0 0 98 100" fill="none" xmlns="http://www.w3.org/2000/svg">
<path d="M80.1971 54.8517C80.1971 53.7729 79.3205 52.8986 78.2417 52.8986C77.1629 52.8986 76.2886 53.7729 76.2886 54.8517C76.2886 55.9305 77.1629 56.8048 78.2417 56.8048H78.2463C79.3251 56.8048 80.1971 55.9305 80.1971 54.8517Z" fill="#636262"/>
<path d="M92.6628 80.8464C92.6628 80.8456 92.6628 80.8449 92.6628 80.8441C92.6613 80.8411 92.6605 80.8372 92.6598 80.8342L90.6624 74.1333C90.4266 73.3421 89.8964 72.6906 89.1701 72.2977C88.4438 71.9055 87.6091 71.8185 86.8172 72.0543L85.5232 72.4403L84.597 69.3336L91.7374 67.205C95.0294 66.2239 97.3213 63.1279 97.3106 59.6764C97.2893 52.8275 94.0842 45.2995 87.7846 37.3024C86.2877 35.4019 84.716 33.6006 83.139 31.9199C83.6845 31.1676 84.0019 30.2498 84.0019 29.2831V19.4321C84.0019 19.2322 83.989 19.0353 83.963 18.8423H92.5629C95.1332 18.8423 97.2244 16.7511 97.2244 14.1808V5.06439C97.2244 2.27203 94.9532 0 92.16 0H71.936C70.7642 0 69.6846 0.400543 68.8255 1.07117C67.9665 0.400543 66.8861 0 65.7143 0H45.4903C42.6979 0 40.4259 2.27203 40.4259 5.06439V14.9361H32.267C29.4746 14.9361 27.2034 17.2081 27.2034 20.0005V29.9072H19.0445C16.2521 29.9072 13.9801 32.1793 13.9801 34.9716V44.8433H5.82123C3.02887 44.8433 0.756836 47.1153 0.756836 49.9077V59.137C0.756836 61.6455 2.79694 63.6864 5.30548 63.6864H53.0067C55.5145 63.6864 57.5554 61.6455 57.5554 59.137V48.7495H60.434C60.1097 57.3235 61.6165 64.2357 64.9269 69.3298C66.3948 71.5881 68.9171 72.8973 71.5187 72.8973C72.2511 72.8973 72.9897 72.7936 73.7129 72.5777L80.8533 70.4498L81.7795 73.5565L80.3406 73.9853C78.7079 74.472 77.7756 76.1963 78.2623 77.8297L80.2574 84.5222L83.4183 95.3781C84.2545 98.1827 86.834 100 89.621 100C90.2313 100 90.8524 99.913 91.4665 99.7299C94.8853 98.7106 96.8376 95.1004 95.8214 91.6931L92.6628 80.8464ZM80.0949 19.4321V28.8177C77.5078 26.2932 75.0374 24.1478 73.0164 22.4915C72.9881 22.4678 72.9591 22.4442 72.9309 22.4213C72.02 21.6759 70.8931 21.283 69.7456 21.2814C69.2619 21.2814 68.7737 21.3501 68.2968 21.4928C66.6916 21.9711 65.432 23.2101 64.9277 24.807C64.9254 24.8161 64.9223 24.8253 64.9193 24.8344C64.8918 24.9214 64.8643 25.0092 64.8369 25.0977C64.8323 25.1106 64.8293 25.1228 64.8247 25.135C64.389 26.532 63.9214 28.1265 63.4598 29.8729H57.5554V18.8423H79.5059C79.8309 18.8423 80.0949 19.1071 80.0949 19.4321ZM60.7994 43.8438C60.7986 43.8499 60.7986 43.8568 60.7971 43.8629C60.7864 43.9621 60.7765 44.0613 60.7658 44.1605C60.7643 44.1765 60.762 44.1933 60.7605 44.2101C60.7513 44.3039 60.7414 44.3985 60.7315 44.4931C60.73 44.5114 60.7285 44.5305 60.7262 44.5496C60.717 44.6434 60.7079 44.738 60.6987 44.8318C60.6979 44.8364 60.6979 44.8395 60.6972 44.8433H44.3321V33.8135H62.4954C61.7989 36.9164 61.1832 40.3221 60.7994 43.8438ZM71.936 3.90625H92.16C92.7986 3.90625 93.3182 4.42581 93.3182 5.06439V14.1808C93.3182 14.5973 92.9794 14.9361 92.5629 14.9361H70.7787V5.06439C70.7787 4.42581 71.2975 3.90625 71.936 3.90625ZM44.3321 5.06439C44.3321 4.42581 44.8517 3.90625 45.4903 3.90625H65.7143C66.3528 3.90625 66.8724 4.42581 66.8724 5.06439V14.9361H44.3321V5.06439ZM31.1089 20.0005C31.1089 19.3619 31.6284 18.8423 32.267 18.8423H53.6491V29.8729H31.1089V20.0005ZM17.8864 34.9716C17.8864 34.333 18.4059 33.8135 19.0437 33.8135H40.4259V44.8441H17.8864V34.9716ZM4.66309 59.1377V49.9077C4.66309 49.2699 5.18188 48.7503 5.82047 48.7503H27.2026V59.7801H5.30548C4.95148 59.7801 4.66309 59.4917 4.66309 59.1377ZM53.6491 59.1377C53.6491 59.4917 53.3607 59.7801 53.0067 59.7801H31.1089V48.7503H53.6491V59.1377ZM72.5975 68.8347C70.9274 69.3321 69.1612 68.676 68.203 67.2012C65.1001 62.4275 63.8367 55.616 64.4432 46.9429C64.4432 46.9391 64.444 46.936 64.444 46.933C64.4577 46.7278 64.4737 46.521 64.4897 46.3142C64.4913 46.2975 64.4928 46.2807 64.4943 46.2639C64.4981 46.2143 64.502 46.1647 64.5058 46.1151C64.5088 46.0823 64.5119 46.0495 64.5142 46.0167C64.5172 45.9839 64.5195 45.9511 64.5226 45.9183C64.5271 45.8679 64.5309 45.8168 64.5355 45.7657C64.537 45.7489 64.5386 45.7329 64.5401 45.7169C64.5447 45.6688 64.5485 45.62 64.5531 45.5719C64.5538 45.5597 64.5554 45.5475 64.5561 45.5345C64.5828 45.2454 64.6103 44.957 64.64 44.6686C64.6408 44.6617 64.6416 44.6548 64.6423 44.6472C64.6477 44.5992 64.6523 44.5503 64.6576 44.5015C64.6599 44.4809 64.6622 44.4595 64.6645 44.4389C64.669 44.397 64.6729 44.3558 64.6774 44.3138C64.6805 44.2863 64.6835 44.2589 64.6866 44.2314C64.6904 44.1948 64.6942 44.1582 64.6988 44.1216C64.7064 44.0544 64.7133 43.9873 64.7217 43.9201C65.1367 40.2672 65.8539 36.3823 66.8633 32.3326C66.8648 32.328 66.8655 32.3227 66.8663 32.3174C66.8686 32.3112 66.8701 32.3051 66.8716 32.2983C67.3836 30.246 67.9619 28.1891 68.5905 26.1826C68.5921 26.1765 68.5944 26.1696 68.5966 26.1635C68.615 26.1032 68.634 26.0429 68.6531 25.9827C68.6737 25.9178 68.6981 25.8583 68.7256 25.8041C68.9186 25.4227 69.2604 25.2815 69.413 25.2365C69.4214 25.2335 69.4305 25.2312 69.4405 25.2281C69.442 25.2281 69.4427 25.2274 69.4435 25.2274C69.4473 25.2266 69.4511 25.2258 69.4542 25.2251C69.4565 25.2243 69.4588 25.2235 69.4611 25.2228C69.4649 25.222 69.4679 25.2213 69.4717 25.2205C69.474 25.2197 69.4756 25.2197 69.4778 25.219C69.4824 25.2182 69.4862 25.2174 69.4908 25.2159C69.4931 25.2159 69.4954 25.2151 69.4977 25.2144C69.5007 25.2144 69.5038 25.2136 69.5076 25.2129C69.5099 25.2121 69.5129 25.2121 69.5152 25.2113C69.519 25.2106 69.5236 25.2098 69.5282 25.209C69.5305 25.2083 69.5328 25.2075 69.5358 25.2075C69.5396 25.2068 69.5427 25.206 69.5465 25.2052C69.5511 25.2045 69.5549 25.2037 69.5595 25.2029C69.5618 25.2029 69.5648 25.2022 69.5671 25.2022C69.5724 25.2014 69.577 25.2007 69.5816 25.1999C69.5854 25.1999 69.5892 25.1991 69.5923 25.1984C69.5961 25.1984 69.5992 25.1976 69.6022 25.1968C69.6053 25.1968 69.6083 25.1961 69.6121 25.1961C69.6167 25.1953 69.622 25.1945 69.6274 25.1945C69.6304 25.1938 69.6342 25.1938 69.6381 25.193C69.6411 25.193 69.6442 25.193 69.6472 25.1923C69.6533 25.1923 69.6587 25.1915 69.6648 25.1907H69.6732C69.6793 25.19 69.6846 25.19 69.6899 25.1892H69.7006C69.7052 25.1892 69.7098 25.1884 69.7144 25.1884H69.7762C69.7807 25.1884 69.7861 25.1884 69.7906 25.1892C69.8128 25.19 69.8357 25.1915 69.8578 25.1938H69.8616C69.8662 25.1938 69.8715 25.1945 69.8761 25.1953H69.8807C69.8845 25.1961 69.8891 25.1968 69.8936 25.1976C69.8959 25.1976 69.8982 25.1976 69.9005 25.1984C69.9051 25.1991 69.9089 25.1999 69.9135 25.2007H69.9158C69.9326 25.2029 69.9493 25.206 69.9661 25.2098C69.9669 25.2098 69.9684 25.2098 69.9699 25.2106C69.9745 25.2113 69.9791 25.2121 69.9837 25.2129C69.986 25.2136 69.9883 25.2144 69.9905 25.2144C69.9951 25.2159 69.9989 25.2167 70.0027 25.2174C70.0058 25.2182 70.0081 25.219 70.0111 25.2197C70.015 25.2205 70.0195 25.2213 70.0233 25.2228C70.0264 25.2228 70.0287 25.2243 70.031 25.2243C70.0356 25.2258 70.0394 25.2266 70.0439 25.2281C70.0462 25.2289 70.0478 25.2289 70.05 25.2296C70.0584 25.2319 70.0661 25.2342 70.0745 25.2365C70.0775 25.238 70.0806 25.2388 70.0836 25.2396C70.0874 25.2411 70.0912 25.2419 70.0943 25.2434C70.0981 25.2441 70.1012 25.2457 70.105 25.2464C70.108 25.248 70.1118 25.2495 70.1157 25.2502C70.1187 25.2518 70.1225 25.2533 70.1263 25.2541C70.1294 25.2556 70.1332 25.2571 70.1363 25.2579C70.1401 25.2594 70.1439 25.2609 70.1485 25.2625C70.1515 25.264 70.1546 25.2647 70.1576 25.2663C70.1614 25.2678 70.166 25.2693 70.1691 25.2708C70.1729 25.2724 70.1759 25.2739 70.1797 25.2754C70.1859 25.2777 70.1935 25.2815 70.2003 25.2846C70.2019 25.2853 70.2034 25.2861 70.2049 25.2861C70.2103 25.2892 70.2164 25.2914 70.2217 25.2945C70.224 25.2953 70.2271 25.2968 70.2293 25.2983C70.2339 25.3006 70.2393 25.3029 70.2438 25.3052C70.2469 25.3067 70.2492 25.3075 70.2515 25.309C70.2568 25.3113 70.2614 25.3143 70.266 25.3166C70.269 25.3181 70.2713 25.3197 70.2744 25.3212C70.2789 25.3235 70.2835 25.3258 70.2881 25.3288C70.2911 25.3304 70.2934 25.3319 70.2965 25.3334C70.3018 25.3365 70.3072 25.3395 70.3125 25.3426C70.314 25.3441 70.3163 25.3448 70.3186 25.3464C70.3255 25.3502 70.3323 25.3548 70.34 25.3593C70.3415 25.3609 70.3438 25.3616 70.3453 25.3632C70.3506 25.367 70.356 25.37 70.3621 25.3738C70.3644 25.3754 70.3667 25.3769 70.369 25.3784C70.3735 25.3822 70.3789 25.3853 70.3835 25.3891C70.3865 25.3906 70.3896 25.3929 70.3918 25.3952C70.3964 25.3983 70.401 25.4013 70.4056 25.4044C70.4079 25.4066 70.4109 25.4089 70.414 25.4105C70.4185 25.4143 70.4239 25.4181 70.4285 25.4219C70.4308 25.4242 70.433 25.4257 70.4353 25.4272C70.443 25.4326 70.4498 25.4387 70.4575 25.4448C70.4887 25.4707 70.52 25.4967 70.5521 25.5226C70.5551 25.5249 70.5574 25.5272 70.5597 25.5287C72.6013 27.2034 75.663 29.85 78.8429 33.0879C78.8681 33.1139 78.894 33.1383 78.92 33.1627C80.8777 35.1608 82.8598 37.3627 84.7153 39.7194C90.4617 47.0146 93.3853 53.7331 93.4036 59.6886C93.409 61.4479 92.2913 62.9639 90.6212 63.4621L83.4808 65.5907L82.3441 61.7783C82.0358 60.7445 80.9486 60.1555 79.9149 60.4645C78.8811 60.7727 78.2928 61.8599 78.6011 62.8937L79.7371 66.7061L72.5975 68.8347ZM87.1513 76.0307L88.3583 80.0781L83.445 81.543L82.2388 77.4956L87.1513 76.0307ZM90.3503 95.9862C88.9961 96.389 87.5656 95.6162 87.1651 94.2741L84.5497 85.2898L89.4623 83.8257L92.0746 92.7971C92.4782 94.1521 91.7053 95.5826 90.3503 95.9862Z" fill="#636262"/>
</svg>
