<svg width="100" height="100" viewBox="0 0 100 100" fill="none" xmlns="http://www.w3.org/2000/svg">
<g clip-path="url(#clip0)">
<path d="M87.1256 10.6582H85.4502C84.6644 8.62423 82.6884 7.17771 80.3805 7.17771H78.4663C78.1909 6.18894 77.8392 5.21696 77.4104 4.26939C76.237 1.67541 73.64 0 70.7934 0H13.4931C10.6466 0 8.04955 1.67541 6.87615 4.26939C4.47748 9.57104 4.47748 15.6524 6.87615 20.954C7.36748 22.0397 8.10829 22.9644 9.01237 23.6732V47.0701C9.01237 50.9474 12.1664 54.1013 16.0436 54.1013C19.9208 54.1013 23.0748 50.9474 23.0748 47.0701V37.1886C23.0748 35.6146 24.355 34.3344 25.929 34.3344C27.5029 34.3344 28.7823 35.6146 28.7823 37.1886V39.0936C28.7823 42.523 31.5724 45.3123 35.001 45.3123C38.4297 45.3123 41.219 42.523 41.219 39.0936V33.7615C41.219 32.878 41.9377 32.1593 42.8211 32.1593H50.0072C53.4649 32.1593 56.2778 29.3463 56.2778 25.8887V25.2227H70.7927C73.6392 25.2227 76.237 23.5473 77.4096 20.954C77.8384 20.0065 78.1909 19.0337 78.4663 18.045H80.3797C82.6876 18.045 84.6644 16.5984 85.4502 14.5645H87.1256C89.3023 14.5645 91.0731 16.3352 91.0731 18.5119V27.1819C91.0731 29.2784 89.509 31.0897 87.4346 31.3956L54.2904 36.2761C51.4965 36.6873 48.9422 38.0911 47.0966 40.2281C45.2511 42.3651 44.2349 45.0972 44.2349 47.9208V57.1577C44.2349 57.3026 44.2509 57.4445 44.2814 57.5811C42.2154 57.5834 40.5354 59.2649 40.5354 61.3309V66.0032C39.1827 66.1855 38.1367 67.3475 38.1367 68.749V92.0468C38.1367 96.4321 41.705 100 46.0903 100C50.4749 100 54.0432 96.4321 54.0432 92.0468V68.749C54.0432 67.3475 52.9972 66.1855 51.6445 66.0024V61.3302C51.6445 59.3298 50.0698 57.6894 48.0938 57.5857C48.1251 57.4476 48.1411 57.3042 48.1411 57.1569V47.9208C48.1411 44.0489 51.0296 40.7042 54.8595 40.1404L88.0038 35.2599C91.9802 34.6739 94.9793 31.201 94.9793 27.1819V18.5119C94.9793 14.1815 91.456 10.6582 87.1256 10.6582ZM52.3723 25.8887C52.3723 27.1926 51.3111 28.2531 50.008 28.2531H42.8211C39.7839 28.2531 37.3127 30.7242 37.3127 33.7615V39.0936C37.3127 40.3685 36.2759 41.4061 35.001 41.4061C33.7262 41.4061 32.6893 40.3685 32.6893 39.0936V37.1886C32.6893 33.4609 29.6567 30.4282 25.929 30.4282C22.2013 30.4282 19.1693 33.4609 19.1693 37.1886V47.0701C19.1693 48.7928 17.7671 50.1951 16.0444 50.1951C14.3209 50.1951 12.9194 48.7928 12.9194 47.0701V25.1998C12.9651 25.2036 13.0117 25.2067 13.059 25.2097H13.0659C13.0857 25.2112 13.1055 25.2128 13.1254 25.2135C13.1307 25.2135 13.1353 25.2143 13.1406 25.2143C13.1582 25.215 13.1757 25.2158 13.1933 25.2166C13.1994 25.2166 13.2062 25.2173 13.2123 25.2173C13.2291 25.2181 13.2451 25.2181 13.2612 25.2189C13.2688 25.2189 13.2764 25.2196 13.2833 25.2196C13.2993 25.2204 13.3146 25.2204 13.3298 25.2212C13.3382 25.2212 13.3459 25.2212 13.3542 25.2219C13.3695 25.2219 13.3848 25.2219 13.4 25.2227H13.4244C13.4473 25.2227 13.4702 25.2234 13.4931 25.2234H52.3723V25.8887ZM70.7934 21.3164H13.4931C13.474 21.3164 13.455 21.3164 13.4359 21.3157C13.429 21.3157 13.4214 21.3157 13.4145 21.3157C13.4031 21.3149 13.3916 21.3149 13.3794 21.3142C13.371 21.3142 13.3619 21.3142 13.3535 21.3134C13.3436 21.3126 13.3336 21.3126 13.3237 21.3119C13.3138 21.3111 13.3039 21.3111 13.294 21.3103C13.2863 21.3096 13.2787 21.3096 13.2711 21.3088C13.2589 21.3081 13.2474 21.3073 13.236 21.3065C13.2306 21.3058 13.2261 21.3058 13.2215 21.305C13.1574 21.2997 13.0941 21.2928 13.0308 21.2844C13.0285 21.2836 13.0262 21.2836 13.0231 21.2829C13.0094 21.2813 12.9949 21.2791 12.9804 21.2768C12.9766 21.276 12.9728 21.2752 12.969 21.2745C12.9552 21.2722 12.9415 21.2707 12.9278 21.2684C12.9232 21.2676 12.9186 21.2669 12.914 21.2661C12.9011 21.263 12.8881 21.2607 12.8744 21.2585C12.8698 21.2577 12.8652 21.2569 12.8606 21.2554C12.8477 21.2531 12.8347 21.2508 12.8217 21.2478C12.8049 21.2447 12.7874 21.2409 12.7698 21.2371C12.7668 21.2363 12.763 21.2356 12.7599 21.2348C12.7439 21.231 12.7279 21.2279 12.7126 21.2241C12.7096 21.2234 12.7073 21.2226 12.7042 21.2218C12.6867 21.218 12.6699 21.2134 12.6523 21.2089C12.6523 21.2089 12.6523 21.2089 12.6516 21.2089C11.6842 20.9571 10.8587 20.2796 10.4353 19.3435C9.49226 17.2599 9.00932 15.0268 8.98491 12.7891H28.642C29.72 12.7891 30.5951 11.9148 30.5951 10.836C30.5951 9.75719 29.72 8.88287 28.642 8.88287H9.41444C9.65477 7.85901 9.99427 6.85269 10.4353 5.87919C10.9769 4.68061 12.1778 3.90623 13.4931 3.90623H70.7934C72.1087 3.90623 73.3088 4.68061 73.8513 5.87919C75.7869 10.1577 75.7869 15.0649 73.8513 19.3435C73.3088 20.5421 72.1087 21.3164 70.7934 21.3164ZM80.3805 14.1387H79.1529C79.2308 13.1217 79.2308 12.1017 79.1529 11.0847H80.3805C81.2228 11.0847 81.9071 11.7691 81.9071 12.6113C81.9071 13.4536 81.2228 14.1387 80.3805 14.1387ZM47.7383 65.978H44.4416V61.4866H47.7383V65.978ZM50.1369 92.0468C50.1369 94.2776 48.3211 96.0934 46.0903 96.0934C43.8587 96.0934 42.0429 94.2783 42.0429 92.0468V69.8842H50.1369V92.0468Z" fill="#636262"/>
<path d="M36.4588 8.88269H36.4543C35.3755 8.88269 34.5034 9.75702 34.5034 10.8358C34.5034 11.9146 35.38 12.7889 36.4588 12.7889C37.5376 12.7889 38.412 11.9146 38.412 10.8358C38.412 9.75702 37.5376 8.88269 36.4588 8.88269Z" fill="#636262"/>
</g>
<defs>
<clipPath id="clip0">
<rect width="100" height="100" fill="white" transform="translate(-0.000976562)"/>
</clipPath>
</defs>
</svg>
