<svg width="100" height="100" viewBox="0 0 100 100" fill="none" xmlns="http://www.w3.org/2000/svg">
<path d="M98.5352 26.3672H55.6256C54.8613 11.6988 42.6873 0 27.832 0C12.4854 0 0 12.4854 0 27.832V72.168C0 87.5146 12.4854 100 27.832 100H98.5352C99.3443 100 100 99.3441 100 98.5352V27.832C100 27.023 99.3443 26.3672 98.5352 26.3672ZM2.92969 27.832C2.92969 14.1008 14.1008 2.92969 27.832 2.92969C41.5633 2.92969 52.7344 14.1008 52.7344 27.832V59.7486C48.1627 50.6191 38.7182 44.3359 27.832 44.3359C16.9459 44.3359 7.50137 50.6191 2.92969 59.7486V27.832ZM2.92969 72.168C2.92969 58.4367 14.1008 47.2656 27.832 47.2656C41.5633 47.2656 52.7344 58.4367 52.7344 72.168C52.7344 85.8992 41.5633 97.0703 27.832 97.0703C14.1008 97.0703 2.92969 85.8992 2.92969 72.168ZM40.2514 97.0703C49.3809 92.4986 55.6641 83.0541 55.6641 72.168V29.2969H91.2109V63.3789C91.2109 67.4176 87.9254 70.7031 83.8867 70.7031H66.3086C65.4994 70.7031 64.8438 71.359 64.8438 72.168V89.7461C64.8438 93.7848 61.5582 97.0703 57.5195 97.0703H40.2514ZM83.9934 73.6301L67.7707 89.8527C67.7711 89.817 67.7734 89.7818 67.7734 89.7461V73.6328H83.8867C83.9225 73.6328 83.9576 73.6305 83.9934 73.6301ZM97.0703 97.0703H64.6859C64.7125 97.0443 64.7404 97.0195 64.7668 96.9934C64.7701 96.9967 91.134 70.6262 91.134 70.6262C92.9906 68.7693 94.1406 66.2059 94.1406 63.3789V29.2969H97.0703V97.0703Z" fill="#FFC73B"/>
<path d="M27.832 88.2812C36.717 88.2812 43.9453 81.0529 43.9453 72.168C43.9453 63.283 36.717 56.0547 27.832 56.0547C18.9471 56.0547 11.7188 63.283 11.7188 72.168C11.7188 81.0529 18.9471 88.2812 27.832 88.2812ZM27.832 58.9844C35.1016 58.9844 41.0156 64.8984 41.0156 72.168C41.0156 79.4375 35.1016 85.3516 27.832 85.3516C20.5625 85.3516 14.6484 79.4375 14.6484 72.168C14.6484 64.8984 20.5625 58.9844 27.832 58.9844Z" fill="#FFC73B"/>
<path d="M27.832 82.4219C33.4861 82.4219 38.0859 77.8221 38.0859 72.168C38.0859 66.5139 33.4861 61.9141 27.832 61.9141C22.1779 61.9141 17.5781 66.5139 17.5781 72.168C17.5781 77.8221 22.1779 82.4219 27.832 82.4219ZM27.832 64.8438C31.8707 64.8438 35.1562 68.1293 35.1562 72.168C35.1562 76.2066 31.8707 79.4922 27.832 79.4922C23.7934 79.4922 20.5078 76.2066 20.5078 72.168C20.5078 68.1293 23.7934 64.8438 27.832 64.8438Z" fill="#FFC73B"/>
<path d="M27.832 50.1953C23.0447 50.1953 18.4941 51.7084 14.6723 54.5707C14.0248 55.0557 13.893 55.9738 14.3779 56.6213C14.8629 57.2688 15.7809 57.4008 16.4285 56.9156C19.7396 54.4357 23.6828 53.125 27.832 53.125C38.3324 53.125 46.875 61.6676 46.875 72.168C46.875 82.6684 38.3324 91.2109 27.832 91.2109C17.3316 91.2109 8.78906 82.6684 8.78906 72.168C8.78906 68.0188 10.0998 64.0756 12.5797 60.7645C13.0646 60.117 12.933 59.1988 12.2854 58.7139C11.6377 58.2287 10.7197 58.3605 10.2348 59.0082C7.37246 62.8301 5.85938 67.3807 5.85938 72.168C5.85938 84.2838 15.7162 94.1406 27.832 94.1406C39.9479 94.1406 49.8047 84.2838 49.8047 72.168C49.8047 60.0521 39.9479 50.1953 27.832 50.1953V50.1953Z" fill="#FFC73B"/>
</svg>
