<svg width="100" height="100" viewBox="0 0 100 100" fill="none" xmlns="http://www.w3.org/2000/svg">
<path d="M61.6667 66.6667H56.6667V51.6669C56.6613 47.067 52.9333 43.3391 48.3333 43.3337H15C10.4 43.3391 6.67208 47.067 6.66667 51.6669V66.6667H1.66667C0.74625 66.6667 0 67.413 0 68.3334V91.6664C0 92.5868 0.74625 93.3331 1.66667 93.3331H3.33333V98.333C3.33333 99.2534 4.07958 99.9996 5 99.9996H11.6667C12.5871 99.9996 13.3333 99.2534 13.3333 98.333V93.3331H50V98.333C50 99.2534 50.7463 99.9996 51.6667 99.9996H58.3333C59.2538 99.9996 60 99.2534 60 98.333V93.3331H61.6667C62.5871 93.3331 63.3333 92.5868 63.3333 91.6664V68.3334C63.3333 67.413 62.5873 66.6667 61.6667 66.6667ZM10 96.6663H6.66667V93.3331H10V96.6663ZM13.3333 89.9998H3.33333V70H13.3333V89.9998ZM46.6667 89.9998H16.6667V79.9999H46.6667V89.9998ZM48.3333 66.6667C47.4129 66.6667 46.6667 67.413 46.6667 68.3334V76.6666H16.6667V68.3334C16.6667 67.413 15.9204 66.6667 15 66.6667H10V51.6669C10 48.9055 12.2385 46.667 15 46.667H48.3333C51.0948 46.667 53.3333 48.9055 53.3333 51.6669V66.6667H48.3333ZM56.6667 96.6663H53.3333V93.3331H56.6667V96.6663ZM60 89.9998H50V70H60V89.9998Z" fill="#FFC73B"/>
<path d="M99.9233 27.8342L91.59 1.16788C91.3717 0.473514 90.7279 0.00122837 90 0.00122837H76.6667C75.9387 0.00122837 75.295 0.473514 75.0767 1.16788L66.7433 27.8342C66.4671 28.7123 66.9552 29.6479 67.8333 29.9242C67.9952 29.975 68.1637 30.0011 68.3333 30.0009H81.6667V90.0001H70C69.0796 90.0001 68.3333 90.7464 68.3333 91.6668V98.3334C68.3333 99.2538 69.0796 100 70 100H96.6667C97.5871 100 98.3333 99.2538 98.3333 98.3334V91.6668C98.3333 90.7464 97.5871 90.0001 96.6667 90.0001H85V30.0009H98.3333C99.2537 30.0009 100 29.2548 100 28.3342C100 28.1646 99.9744 27.9961 99.9233 27.8342ZM95 93.3334V96.6667H71.6667V93.3334H95ZM70.6 26.6676L77.8917 3.33452H88.775L96.0667 26.6676H70.6Z" fill="#FFC73B"/>
<path d="M55.0001 6.66721H40.5868L32.7084 0.365621C32.0995 -0.121874 31.234 -0.121874 30.6251 0.365621L22.7468 6.66721H8.33341V36.6668H55.0001V6.66721ZM31.6668 3.80058L35.2484 6.66721H28.0818L31.6668 3.80058ZM51.6668 33.3336H11.6667V10.0005H51.6668V33.3336Z" fill="#FFC73B"/>
<path d="M50.0001 11.667H13.3334V31.6668H50.0001V11.667ZM46.6667 28.3335H16.6667V15.0003H46.6667V28.3335Z" fill="#FFC73B"/>
</svg>
