<svg width="15" height="15" viewBox="0 0 15 15" fill="none" xmlns="http://www.w3.org/2000/svg">
<path d="M7.5 0C3.3645 0 0 3.36455 0 7.50005C0 11.6355 3.3645 15 7.5 15C11.6355 15 15 11.6355 15 7.50005C15 3.36455 11.6355 0 7.5 0ZM7.5 13.6364C4.11636 13.6364 1.36364 10.8836 1.36364 7.50005C1.36364 4.11646 4.11636 1.36364 7.5 1.36364C10.8836 1.36364 13.6364 4.11646 13.6364 7.50005C13.6364 10.8836 10.8836 13.6364 7.5 13.6364Z" fill="#636262"/>
<path d="M7.49973 3.18164C6.99855 3.18164 6.59082 3.58964 6.59082 4.09114C6.59082 4.59219 6.99855 4.99982 7.49973 4.99982C8.00091 4.99982 8.40864 4.59219 8.40864 4.09114C8.40864 3.58964 8.00091 3.18164 7.49973 3.18164Z" fill="#636262"/>
<path d="M7.50018 6.36377C7.12363 6.36377 6.81836 6.66904 6.81836 7.04559V11.1365C6.81836 11.513 7.12363 11.8183 7.50018 11.8183C7.87672 11.8183 8.182 11.513 8.182 11.1365V7.04559C8.182 6.66904 7.87672 6.36377 7.50018 6.36377Z" fill="#636262"/>
</svg>
