<svg width="20" height="20" viewBox="0 0 20 20" fill="none" xmlns="http://www.w3.org/2000/svg">
<g clip-path="url(#clip0)">
<path d="M0.416966 3.71703C3.16189 6.04168 7.97837 10.1314 9.394 11.4066C9.58404 11.5787 9.78786 11.6662 9.99947 11.6662C10.2106 11.6662 10.4141 11.5796 10.6037 11.4083C12.0206 10.1318 16.837 6.04168 19.582 3.71703C19.7529 3.57258 19.779 3.31867 19.6406 3.14207C19.3208 2.73398 18.8439 2.5 18.3328 2.5H1.66615C1.15509 2.5 0.678177 2.73398 0.358372 3.14211C0.220013 3.31867 0.246067 3.57258 0.416966 3.71703Z" fill="#CB132D"/>
<path d="M19.7586 4.97683C19.6109 4.90808 19.4371 4.93207 19.3142 5.03707C17.5165 6.5609 15.148 8.57426 13.3617 10.1107C13.2677 10.1913 13.2148 10.3097 13.2169 10.4338C13.2189 10.5575 13.2763 10.6743 13.3731 10.7516C15.0329 12.0809 17.5341 13.9095 19.3403 15.2092C19.4123 15.2612 19.4978 15.2877 19.5836 15.2877C19.6487 15.2877 19.7138 15.2727 19.7737 15.2417C19.9128 15.1705 20.0003 15.0273 20.0003 14.871V5.35484C20.0003 5.1925 19.9058 5.0448 19.7586 4.97683Z" fill="#CB132D"/>
<path d="M0.66 15.2092C2.46664 13.9095 4.96828 12.0809 6.62762 10.7516C6.72445 10.6743 6.78184 10.5575 6.78387 10.4338C6.7859 10.3097 6.73301 10.1913 6.63902 10.1107C4.8527 8.57426 2.48371 6.5609 0.686055 5.03707C0.562344 4.93207 0.388203 4.90891 0.241719 4.97684C0.0944141 5.04481 0 5.1925 0 5.35485V14.8711C0 15.0273 0.0875 15.1706 0.226641 15.2418C0.286445 15.2727 0.351562 15.2877 0.41668 15.2877C0.502539 15.2877 0.587969 15.2613 0.66 15.2092Z" fill="#CB132D"/>
<path d="M19.4884 16.3428C17.744 15.0948 14.5307 12.7682 12.6126 11.2113C12.4563 11.084 12.2301 11.088 12.0763 11.2207C11.6999 11.5491 11.385 11.8258 11.1616 12.0268C10.4755 12.6461 9.52338 12.6461 8.83572 12.0259C8.61314 11.8254 8.29822 11.5478 7.92182 11.2207C7.76924 11.0872 7.5426 11.0831 7.38592 11.2113C5.47428 12.7628 2.25732 15.0923 0.510097 16.3427C0.412832 16.4127 0.350175 16.5205 0.337988 16.6398C0.326191 16.759 0.365644 16.8774 0.447441 16.9653C0.762832 17.3051 1.20717 17.5 1.66576 17.5H18.3324C18.791 17.5 19.2349 17.3051 19.5511 16.9653C19.6325 16.8778 19.6724 16.7594 19.6606 16.6402C19.6483 16.521 19.5857 16.4128 19.4884 16.3428Z" fill="#CB132D"/>
</g>
<defs>
<clipPath id="clip0">
<rect width="20" height="20" fill="white"/>
</clipPath>
</defs>
</svg>
