<svg width="18" height="26" viewBox="0 0 18 26" fill="none" xmlns="http://www.w3.org/2000/svg">
<path d="M9 0C4.03749 0 0 3.88797 0 8.66668C0 10.1013 0.372462 11.5236 1.08053 12.7852L8.50783 25.7207C8.60671 25.8932 8.79513 26 9 26C9.20487 26 9.39329 25.8932 9.49217 25.7207L16.9222 12.781C17.6275 11.5236 18 10.1012 18 8.66663C18 3.88797 13.9625 0 9 0ZM9 13C6.51875 13 4.50003 11.056 4.50003 8.66668C4.50003 6.27732 6.51875 4.33337 9 4.33337C11.4813 4.33337 13.5 6.27732 13.5 8.66668C13.5 11.056 11.4813 13 9 13Z" fill="#CB132D"/>
</svg>
