<svg width="20" height="24" viewBox="0 0 20 24" fill="none" xmlns="http://www.w3.org/2000/svg">
<path d="M18.3952 15.7532C17.1707 15.7532 15.9684 15.5234 14.8291 15.0716C14.2708 14.8431 13.5845 15.0527 13.2438 15.4726L10.995 17.5098C8.38701 15.8392 6.78056 13.9121 5.40743 10.806L7.05509 8.17779C7.48316 7.66479 7.6367 6.91542 7.45274 6.2123C7.07462 4.83792 6.88253 3.39587 6.88253 1.92587C6.88259 0.863935 6.16264 0 5.27775 0H1.60484C0.719946 0 0 0.863935 0 1.92581C0 14.0977 8.25196 23.9999 18.3952 23.9999C19.2801 23.9999 20 23.136 20 22.0741V17.679C19.9999 16.6171 19.28 15.7532 18.3952 15.7532Z" fill="#CB132D"/>
</svg>
