<svg width="100" height="100" viewBox="0 0 100 100" fill="none" xmlns="http://www.w3.org/2000/svg">
<g clip-path="url(#clip0)">
<path d="M92.2911 4.58301H7.70832C6.56249 4.58301 5.625 5.5205 5.625 6.66633V93.3325C5.625 94.4783 6.56249 95.4158 7.70832 95.4158H92.2911C93.437 95.4158 94.3744 94.4783 94.3744 93.3325V6.66633C94.3744 5.5205 93.437 4.58301 92.2911 4.58301ZM47.9164 91.2491H9.79164V30.4162H47.9164V91.2491ZM47.9164 26.2495H9.79164V8.74965H47.9164V26.2495ZM90.2078 91.2491H52.083V52.0827H90.2078V91.2491ZM90.2078 47.9161H52.083V8.74965H90.2078V47.9161Z" fill="#FFC73B"/>
</g>
<defs>
<clipPath id="clip0">
<rect width="90.8328" height="90.8328" fill="white" transform="translate(4.58203 4.58301)"/>
</clipPath>
</defs>
</svg>
