<svg width="51" height="38" viewBox="0 0 51 38" fill="none" xmlns="http://www.w3.org/2000/svg">
<path d="M48.5 11H46V10C46 9.46957 45.7893 8.96086 45.4142 8.58579C45.0391 8.21071 44.5304 8 44 8C43.4696 8 42.9609 8.21071 42.5858 8.58579C42.2107 8.96086 42 9.46957 42 10V11H38V10C38 9.46957 37.7893 8.96086 37.4142 8.58579C37.0391 8.21071 36.5304 8 36 8C35.4696 8 34.9609 8.21071 34.5858 8.58579C34.2107 8.96086 34 9.46957 34 10V11H30V10C30 9.46957 29.7893 8.96086 29.4142 8.58579C29.0391 8.21071 28.5304 8 28 8C27.4696 8 26.9609 8.21071 26.5858 8.58579C26.2107 8.96086 26 9.46957 26 10V11H23.5C22.837 11 22.2011 11.2634 21.7322 11.7322C21.2634 12.2011 21 12.837 21 13.5V33.5C21 34.163 21.2634 34.7989 21.7322 35.2678C22.2011 35.7366 22.837 36 23.5 36H37.5C37.6326 36 37.7598 35.9473 37.8536 35.8535C37.9473 35.7598 38 35.6326 38 35.5C38 35.3674 37.9473 35.2402 37.8536 35.1464C37.7598 35.0527 37.6326 35 37.5 35H23.5C23.1025 34.9988 22.7217 34.8404 22.4407 34.5593C22.1596 34.2783 22.0012 33.8975 22 33.5V18H50V26.5C50 26.6326 50.0527 26.7598 50.1464 26.8536C50.2402 26.9473 50.3674 27 50.5 27C50.6326 27 50.7598 26.9473 50.8535 26.8536C50.9473 26.7598 51 26.6326 51 26.5V13.5C51 12.837 50.7366 12.2011 50.2678 11.7322C49.7989 11.2634 49.163 11 48.5 11ZM43 10C43 9.73478 43.1054 9.48043 43.2929 9.29289C43.4804 9.10536 43.7348 9 44 9C44.2652 9 44.5196 9.10536 44.7071 9.29289C44.8946 9.48043 45 9.73478 45 10V13C45 13.2652 44.8946 13.5196 44.7071 13.7071C44.5196 13.8946 44.2652 14 44 14C43.7348 14 43.4804 13.8946 43.2929 13.7071C43.1054 13.5196 43 13.2652 43 13V10ZM35 10C35 9.73478 35.1054 9.48043 35.2929 9.29289C35.4804 9.10536 35.7348 9 36 9C36.2652 9 36.5196 9.10536 36.7071 9.29289C36.8946 9.48043 37 9.73478 37 10V13C37 13.2652 36.8946 13.5196 36.7071 13.7071C36.5196 13.8946 36.2652 14 36 14C35.7348 14 35.4804 13.8946 35.2929 13.7071C35.1054 13.5196 35 13.2652 35 13V10ZM27 10C27 9.73478 27.1054 9.48043 27.2929 9.29289C27.4804 9.10536 27.7348 9 28 9C28.2652 9 28.5196 9.10536 28.7071 9.29289C28.8946 9.48043 29 9.73478 29 10V13C29 13.2652 28.8946 13.5196 28.7071 13.7071C28.5196 13.8946 28.2652 14 28 14C27.7348 14 27.4804 13.8946 27.2929 13.7071C27.1054 13.5196 27 13.2652 27 13V10ZM50 17H22V13.5C22.0012 13.1025 22.1596 12.7217 22.4407 12.4407C22.7217 12.1596 23.1025 12.0012 23.5 12H26V13C26 13.5304 26.2107 14.0391 26.5858 14.4142C26.9609 14.7893 27.4696 15 28 15C28.5304 15 29.0391 14.7893 29.4142 14.4142C29.7893 14.0391 30 13.5304 30 13V12H34V13C34 13.5304 34.2107 14.0391 34.5858 14.4142C34.9609 14.7893 35.4696 15 36 15C36.5304 15 37.0391 14.7893 37.4142 14.4142C37.7893 14.0391 38 13.5304 38 13V12H42V13C42 13.5304 42.2107 14.0391 42.5858 14.4142C42.9609 14.7893 43.4696 15 44 15C44.5304 15 45.0391 14.7893 45.4142 14.4142C45.7893 14.0391 46 13.5304 46 13V12H48.5C48.8975 12.0012 49.2783 12.1596 49.5593 12.4407C49.8404 12.7217 49.9988 13.1025 50 13.5V17Z" fill="white"/>
<path d="M35 21.5C35 21.2348 34.8946 20.9804 34.7071 20.7929C34.5196 20.6054 34.2652 20.5 34 20.5H32C31.7348 20.5 31.4804 20.6054 31.2929 20.7929C31.1054 20.9804 31 21.2348 31 21.5V23C31 23.2652 31.1054 23.5196 31.2929 23.7071C31.4804 23.8946 31.7348 24 32 24H34C34.2652 24 34.5196 23.8946 34.7071 23.7071C34.8946 23.5196 35 23.2652 35 23V21.5ZM32 23V21.5H34V23H32Z" fill="white"/>
<path d="M29 21.5C29 21.2348 28.8946 20.9804 28.7071 20.7929C28.5196 20.6054 28.2652 20.5 28 20.5H26C25.7348 20.5 25.4804 20.6054 25.2929 20.7929C25.1054 20.9804 25 21.2348 25 21.5V23C25 23.2652 25.1054 23.5196 25.2929 23.7071C25.4804 23.8946 25.7348 24 26 24H28C28.2652 24 28.5196 23.8946 28.7071 23.7071C28.8946 23.5196 29 23.2652 29 23V21.5ZM26 23V21.5H28V23H26Z" fill="white"/>
<path d="M46 24C46.2652 24 46.5196 23.8946 46.7071 23.7071C46.8946 23.5196 47 23.2652 47 23V21.5C47 21.2348 46.8946 20.9804 46.7071 20.7929C46.5196 20.6054 46.2652 20.5 46 20.5H44C43.7348 20.5 43.4804 20.6054 43.2929 20.7929C43.1054 20.9804 43 21.2348 43 21.5V23C43 23.2652 43.1054 23.5196 43.2929 23.7071C43.4804 23.8946 43.7348 24 44 24H46ZM44 21.5H46V23H44V21.5Z" fill="white"/>
<path d="M35 26C35 25.7348 34.8946 25.4804 34.7071 25.2929C34.5196 25.1054 34.2652 25 34 25H32C31.7348 25 31.4804 25.1054 31.2929 25.2929C31.1054 25.4804 31 25.7348 31 26V27.5C31 27.7652 31.1054 28.0196 31.2929 28.2071C31.4804 28.3946 31.7348 28.5 32 28.5H34C34.2652 28.5 34.5196 28.3946 34.7071 28.2071C34.8946 28.0196 35 27.7652 35 27.5V26ZM32 27.5V26H34V27.5H32Z" fill="white"/>
<path d="M29 26C29 25.7348 28.8946 25.4804 28.7071 25.2929C28.5196 25.1054 28.2652 25 28 25H26C25.7348 25 25.4804 25.1054 25.2929 25.2929C25.1054 25.4804 25 25.7348 25 26V27.5C25 27.7652 25.1054 28.0196 25.2929 28.2071C25.4804 28.3946 25.7348 28.5 26 28.5H28C28.2652 28.5 28.5196 28.3946 28.7071 28.2071C28.8946 28.0196 29 27.7652 29 27.5V26ZM26 27.5V26H28V27.5H26Z" fill="white"/>
<path d="M34 29.5H32C31.7348 29.5 31.4804 29.6054 31.2929 29.7929C31.1054 29.9804 31 30.2348 31 30.5V32C31 32.2652 31.1054 32.5196 31.2929 32.7071C31.4804 32.8946 31.7348 33 32 33H34C34.2652 33 34.5196 32.8946 34.7071 32.7071C34.8946 32.5196 35 32.2652 35 32V30.5C35 30.2348 34.8946 29.9804 34.7071 29.7929C34.5196 29.6054 34.2652 29.5 34 29.5ZM32 32V30.5H34V32H32Z" fill="white"/>
<path d="M38 24H40C40.2652 24 40.5196 23.8946 40.7071 23.7071C40.8946 23.5196 41 23.2652 41 23V21.5C41 21.2348 40.8946 20.9804 40.7071 20.7929C40.5196 20.6054 40.2652 20.5 40 20.5H38C37.7348 20.5 37.4804 20.6054 37.2929 20.7929C37.1054 20.9804 37 21.2348 37 21.5V23C37 23.2652 37.1054 23.5196 37.2929 23.7071C37.4804 23.8946 37.7348 24 38 24ZM38 21.5H40V23H38V21.5Z" fill="white"/>
<path d="M37 27.5C37 27.7652 37.1054 28.0196 37.2929 28.2071C37.4804 28.3946 37.7348 28.5 38 28.5C38.1326 28.5 38.2598 28.4473 38.3536 28.3536C38.4473 28.2598 38.5 28.1326 38.5 28C38.5 27.8674 38.4473 27.7402 38.3536 27.6464C38.2598 27.5527 38.1326 27.5 38 27.5V26H40C40.1326 26 40.2598 25.9473 40.3536 25.8536C40.4473 25.7598 40.5 25.6326 40.5 25.5C40.5 25.3674 40.4473 25.2402 40.3536 25.1464C40.2598 25.0527 40.1326 25 40 25H38C37.7348 25 37.4804 25.1054 37.2929 25.2929C37.1054 25.4804 37 25.7348 37 26V27.5Z" fill="white"/>
<path d="M28 29.5H26C25.7348 29.5 25.4804 29.6054 25.2929 29.7929C25.1054 29.9804 25 30.2348 25 30.5V32C25 32.2652 25.1054 32.5196 25.2929 32.7071C25.4804 32.8946 25.7348 33 26 33H28C28.2652 33 28.5196 32.8946 28.7071 32.7071C28.8946 32.5196 29 32.2652 29 32V30.5C29 30.2348 28.8946 29.9804 28.7071 29.7929C28.5196 29.6054 28.2652 29.5 28 29.5ZM26 32V30.5H28V32H26Z" fill="white"/>
<path d="M44.5 25C43.2144 25 41.9577 25.3812 40.8888 26.0954C39.8199 26.8097 38.9868 27.8248 38.4948 29.0126C38.0028 30.2003 37.8741 31.5072 38.1249 32.7681C38.3757 34.029 38.9948 35.1872 39.9038 36.0962C40.8129 37.0052 41.971 37.6243 43.2319 37.8751C44.4928 38.1259 45.7997 37.9972 46.9874 37.5052C48.1752 37.0132 49.1903 36.1801 49.9046 35.1112C50.6188 34.0423 51 32.7856 51 31.5C50.998 29.7767 50.3126 28.1246 49.094 26.906C47.8754 25.6874 46.2233 25.002 44.5 25ZM44.5 37C43.4122 37 42.3488 36.6774 41.4444 36.0731C40.5399 35.4687 39.8349 34.6098 39.4187 33.6048C39.0024 32.5998 38.8935 31.4939 39.1057 30.427C39.3179 29.3601 39.8417 28.3801 40.6109 27.6109C41.3801 26.8417 42.3601 26.3179 43.427 26.1057C44.4939 25.8935 45.5998 26.0024 46.6048 26.4187C47.6098 26.8349 48.4687 27.5399 49.0731 28.4444C49.6774 29.3488 50 30.4122 50 31.5C49.9983 32.9582 49.4183 34.3561 48.3872 35.3872C47.3561 36.4183 45.9582 36.9983 44.5 37Z" fill="white"/>
<path d="M47.3886 29.404L43.4996 33.293L41.7321 31.525C41.6378 31.4339 41.5115 31.3836 41.3804 31.3847C41.2493 31.3858 41.1239 31.4384 41.0312 31.5311C40.9385 31.6238 40.8859 31.7492 40.8848 31.8803C40.8836 32.0114 40.934 32.1377 41.0251 32.232L43.1461 34.3535C43.2399 34.4473 43.367 34.4999 43.4996 34.4999C43.6322 34.4999 43.7594 34.4473 43.8531 34.3535L48.0956 30.111C48.1867 30.0167 48.2371 29.8904 48.236 29.7593C48.2348 29.6282 48.1822 29.5028 48.0895 29.4101C47.9968 29.3174 47.8714 29.2648 47.7403 29.2637C47.6092 29.2626 47.4829 29.3129 47.3886 29.404Z" fill="white"/>
<circle cx="13" cy="13" r="11.5" fill="white" stroke="#2F80ED" stroke-width="3"/>
<path d="M14.5848 8.7V18.5H12.3168V10.52H10.3568V8.7H14.5848Z" fill="#333333"/>
</svg>
