<svg width="51" height="30" viewBox="0 0 51 30" fill="none" xmlns="http://www.w3.org/2000/svg">
<g clip-path="url(#clip0)">
<path d="M23.9297 16.8221C23.6063 16.8221 23.3438 17.0847 23.3438 17.4081C23.3438 17.7315 23.6063 17.994 23.9297 17.994C24.2531 17.994 24.5156 17.7315 24.5156 17.4081C24.5156 17.0847 24.2531 16.8221 23.9297 16.8221Z" fill="white"/>
<path d="M47.9307 18.8539L42.4069 20.753C42.4314 20.617 42.4451 20.4783 42.4451 20.3376C42.4451 19.0453 41.3939 17.9938 40.1014 17.9938H36.307C36.2063 17.9938 36.1069 17.9679 36.0193 17.9185L32.9236 16.1774C32.3116 15.8325 31.616 15.65 30.9122 15.65H26.7584C26.5167 14.9682 25.8654 14.4784 25.1016 14.4784H21.5859C21.2623 14.4784 21 14.7407 21 15.0643V25.611C21 25.9346 21.2623 26.1969 21.5859 26.1969H25.1016C25.848 26.1969 26.4879 25.728 26.742 25.0692C27.4053 25.1516 28.1727 25.3478 28.655 25.6371L31.7192 27.4757C32.8801 28.1724 34.2093 28.5407 35.5633 28.5407C36.6363 28.5407 37.6759 28.3155 38.6535 27.8714L49.5897 23.056C50.8009 22.5646 51.399 21.1114 50.7066 19.8306C50.1974 18.888 49.0047 18.4687 47.9307 18.8539ZM25.6875 24.4419C25.6861 24.7637 25.4236 25.0251 25.1016 25.0251H22.1719V15.6503H25.1016C25.4245 15.6503 25.6875 15.913 25.6875 16.2362V24.4419ZM49.1445 21.9722C49.1383 21.9745 49.1321 21.9773 49.126 21.9798C49.126 21.9798 38.1735 26.8023 38.1714 26.8032C37.3463 27.1786 36.4688 27.3688 35.5633 27.3688C34.4217 27.3688 33.301 27.0584 32.3223 26.4709L29.2578 24.6323C28.6019 24.2388 27.6625 23.999 26.8594 23.9029V16.8221H30.9122C31.4148 16.8221 31.9115 16.9522 32.3489 17.1987L35.4445 18.9398C35.7068 19.0876 36.0053 19.1659 36.307 19.1659H40.1014C40.7475 19.1659 41.2732 19.6914 41.2732 20.3378C41.2732 20.9816 40.7473 21.5097 40.1014 21.5097H34.1449C33.8213 21.5097 33.559 21.772 33.559 22.0956C33.559 22.419 33.8213 22.6813 34.1449 22.6813H40.1014C40.4857 22.6813 40.864 22.5859 41.1998 22.4069C41.1998 22.4069 48.3214 19.9588 48.3242 19.9578C48.8492 19.7683 49.443 19.9569 49.6757 20.3877C50.0248 21.0334 49.7362 21.7353 49.1445 21.9722Z" fill="white"/>
<path d="M38.6927 15.2122C38.8031 15.3077 38.9397 15.3553 39.0766 15.3553C39.2135 15.3553 39.3503 15.3077 39.4604 15.2122C44.2411 11.069 47.1982 8.9722 47.1982 5.71383C47.1982 3.13616 45.3734 1 42.8097 1C41.126 1 39.8367 1.97046 39.0063 3.42684C38.1778 1.97367 36.8898 1 35.2037 1C33.241 1 31.6001 2.2719 31.0234 4.24006C30.9323 4.55065 31.1103 4.87612 31.4209 4.96722C31.7315 5.05831 32.057 4.88024 32.1479 4.56965C32.5747 3.11304 33.7741 2.17188 35.2037 2.17188C36.8752 2.17188 38.0478 3.65618 38.4417 5.03817C38.5119 5.292 38.7431 5.46778 39.0063 5.46778C39.2698 5.46778 39.5007 5.292 39.571 5.03817C39.579 5.00956 40.3929 2.17188 42.8097 2.17188C44.6435 2.17188 46.0264 3.6944 46.0264 5.71383C46.0264 8.32034 43.4784 10.1995 39.0761 13.9952C36.3939 11.6918 34.2632 10.0704 33.0522 8.48422C32.8558 8.22696 32.4882 8.17752 32.2309 8.3739C31.9737 8.57028 31.9245 8.93787 32.1206 9.19536C33.4857 10.9832 35.7901 12.6961 38.6927 15.2122Z" fill="white"/>
</g>
<circle cx="13" cy="13" r="11.5" fill="white" stroke="#2F80ED" stroke-width="3"/>
<path d="M16.2391 16.152V18H8.83309V16.53L12.6131 12.96C13.0144 12.5773 13.2851 12.2507 13.4251 11.98C13.5651 11.7 13.6351 11.4247 13.6351 11.154C13.6351 10.762 13.4998 10.4633 13.2291 10.258C12.9678 10.0433 12.5804 9.936 12.0671 9.936C11.6378 9.936 11.2504 10.02 10.9051 10.188C10.5598 10.3467 10.2704 10.5893 10.0371 10.916L8.38509 9.852C8.76776 9.28267 9.29509 8.83933 9.96709 8.522C10.6391 8.19533 11.4091 8.032 12.2771 8.032C13.0051 8.032 13.6398 8.15333 14.1811 8.396C14.7318 8.62933 15.1564 8.96533 15.4551 9.404C15.7631 9.83333 15.9171 10.342 15.9171 10.93C15.9171 11.462 15.8051 11.9613 15.5811 12.428C15.3571 12.8947 14.9231 13.4267 14.2791 14.024L12.0251 16.152H16.2391Z" fill="#333333"/>
<defs>
<clipPath id="clip0">
<rect width="30" height="30" fill="white" transform="translate(21)"/>
</clipPath>
</defs>
</svg>
