<svg width="45" height="30" viewBox="0 0 45 30" fill="none" xmlns="http://www.w3.org/2000/svg">
<path d="M44.9996 29H15V30H44.9996V29Z" fill="white"/>
<path d="M43.9467 4.27685L41.9467 0.276906C41.8234 0.029784 41.5232 -0.0705896 41.2761 0.0527212C41.2759 0.0527837 41.2758 0.0528462 41.2757 0.0529087L37.2758 2.05288C37.0286 2.17632 36.9283 2.47675 37.0518 2.72387C37.1752 2.97099 37.4756 3.07131 37.7227 2.94787L40.6197 1.50039L39.8292 3.75736C36.3547 13.6527 27.4055 20.5949 16.957 21.5001L17.042 22.5001C27.8842 21.5609 37.1701 14.3562 40.7737 4.08735L41.5807 1.78139L43.0517 4.72385C43.1751 4.97097 43.4755 5.07128 43.7227 4.94784C43.9698 4.82441 44.0701 4.52403 43.9467 4.27685Z" fill="white"/>
<path d="M20.9999 24.0001H17.5C17.2239 24.0001 17 24.224 17 24.5001V27.5001C17 27.7762 17.2239 28.0001 17.5 28.0001H20.9999C21.2761 28.0001 21.4999 27.7762 21.4999 27.5001V24.5001C21.4999 24.224 21.2761 24.0001 20.9999 24.0001ZM20.5 27.0001H18V25.0001H20.5V27.0001Z" fill="white"/>
<path d="M26.4999 22.5001H23C22.7239 22.5001 22.5 22.724 22.5 23.0001V27.5001C22.5 27.7762 22.7239 28 23 28H26.4999C26.7761 28 26.9999 27.7762 26.9999 27.5001V23.0001C26.9999 22.724 26.7761 22.5001 26.4999 22.5001ZM26 27.0001H23.5V23.5001H26V27.0001Z" fill="white"/>
<path d="M31.9999 20.0001H28.5C28.2239 20.0001 28 20.224 28 20.5001V27.5C28 27.7761 28.2239 28 28.5 28H31.9999C32.2761 28 32.4999 27.7761 32.4999 27.5V20.5001C32.4999 20.224 32.2761 20.0001 31.9999 20.0001ZM31.5 27H29V21.0001H31.5V27Z" fill="white"/>
<path d="M37.4999 16.5002H34C33.7239 16.5002 33.5 16.7241 33.5 17.0002V27.5001C33.5 27.7762 33.7239 28.0001 34 28.0001H37.4999C37.7761 28.0001 37.9999 27.7762 37.9999 27.5001V17.0002C37.9999 16.7241 37.7761 16.5002 37.4999 16.5002ZM37 27.0001H34.5V17.5002H37V27.0001Z" fill="white"/>
<path d="M42.9999 9.50024H39.5C39.2239 9.50024 39 9.72412 39 10.0002V27.5C39 27.7761 39.2239 28 39.5 28H42.9999C43.2761 28 43.4999 27.7761 43.4999 27.5V10.0002C43.4999 9.72412 43.2761 9.50024 42.9999 9.50024ZM42.5 27H40V10.5002H42.5V27Z" fill="white"/>
<circle cx="13.8008" cy="14" r="11.5" fill="white" stroke="#2F80ED" stroke-width="3"/>
<path d="M14.7822 13.69C15.6409 13.83 16.2989 14.152 16.7562 14.656C17.2135 15.1507 17.4422 15.7667 17.4422 16.504C17.4422 17.0733 17.2929 17.6007 16.9942 18.086C16.6955 18.562 16.2382 18.9447 15.6222 19.234C15.0155 19.5233 14.2689 19.668 13.3822 19.668C12.6915 19.668 12.0102 19.5793 11.3382 19.402C10.6755 19.2153 10.1109 18.954 9.6442 18.618L10.5262 16.882C10.8995 17.162 11.3289 17.3813 11.8142 17.54C12.3089 17.6893 12.8129 17.764 13.3262 17.764C13.8955 17.764 14.3435 17.6567 14.6702 17.442C14.9969 17.218 15.1602 16.9053 15.1602 16.504C15.1602 15.7013 14.5489 15.3 13.3262 15.3H12.2902V13.802L14.3062 11.52H10.1342V9.7H16.9942V11.17L14.7822 13.69Z" fill="#333333"/>
</svg>
