<svg width="45" height="38" viewBox="0 0 45 38" fill="none" xmlns="http://www.w3.org/2000/svg">
<g clip-path="url(#clip0)">
<path d="M39.9935 24.6368L35.514 17.6147C36.1487 17.2812 36.5829 16.6157 36.5829 15.8503C36.5829 15.0125 36.0628 14.2943 35.3288 14.0003L36.6858 9.25607C36.7443 9.05139 36.6872 8.83112 36.5367 8.68058C35.6341 7.77795 34.1654 7.77795 33.2627 8.68058C33.0467 8.89651 32.7597 9.01541 32.4543 9.01541C32.149 9.01541 31.8619 8.89651 31.6446 8.67918L31.6418 8.6763C30.7423 7.77672 29.2761 7.7742 28.373 8.67097L28.3562 8.68773C27.9105 9.13032 27.1865 9.12903 26.7424 8.68486L26.7381 8.68058C25.8354 7.77795 24.3667 7.77795 23.464 8.68058C23.3134 8.83124 23.2564 9.05168 23.3151 9.25648L24.675 13.9992C23.9394 14.2924 23.4179 15.0114 23.4179 15.8503C23.4179 16.6157 23.852 17.2813 24.4867 17.6148L20.0073 24.6368C18.2743 27.3534 18.1645 30.6621 19.7135 33.4876C21.2625 36.3131 24.1111 38 27.3334 38H32.6673C35.8895 38 38.7381 36.3131 40.2871 33.4876C41.8362 30.6621 41.7264 27.3534 39.9935 24.6368ZM25.9094 9.50926L25.9136 9.51354C26.8132 10.4131 28.2793 10.4155 29.1824 9.51887L29.1992 9.50212C29.6449 9.05953 30.3689 9.06082 30.8144 9.50633L30.8172 9.50921C31.7199 10.4118 33.1886 10.4118 34.0913 9.50921C34.4586 9.14192 35.0157 9.07729 35.4498 9.31531L34.1505 13.8579H25.8538L24.5511 9.31525C24.9852 9.07729 25.5421 9.14204 25.9094 9.50926ZM39.2595 32.9243C37.9194 35.3687 35.455 36.8281 32.6673 36.8281H27.3335C24.5457 36.8281 22.0814 35.3688 20.7413 32.9243C19.4011 30.4798 19.4961 27.6174 20.9953 25.2671L25.7315 17.8426H27.3635C27.6871 17.8426 27.9495 17.5802 27.9495 17.2566C27.9495 16.933 27.6871 16.6706 27.3635 16.6706H25.4102C24.9579 16.6706 24.5899 16.3026 24.5899 15.8503C24.5899 15.3979 24.9579 15.0299 25.4102 15.0299H25.4122H34.5905C35.0429 15.0299 35.4109 15.3979 35.4109 15.8503C35.4109 16.3026 35.0429 16.6706 34.5905 16.6706H32.6373C32.3136 16.6706 32.0513 16.933 32.0513 17.2566C32.0513 17.5802 32.3136 17.8426 32.6373 17.8426H34.2693L39.0054 25.2671C40.5047 27.6173 40.5996 30.4798 39.2595 32.9243Z" fill="white"/>
<path d="M30 17.8426C30.1541 17.8426 30.3053 17.7799 30.4143 17.6709C30.5233 17.5619 30.586 17.4107 30.586 17.2566C30.586 17.1025 30.5233 16.9513 30.4143 16.8423C30.3053 16.7334 30.1541 16.6707 30 16.6707C29.8459 16.6707 29.6947 16.7334 29.5858 16.8423C29.4768 16.9513 29.4141 17.1025 29.4141 17.2566C29.4141 17.4107 29.4768 17.5619 29.5858 17.6709C29.6947 17.7799 29.8459 17.8426 30 17.8426Z" fill="white"/>
</g>
<circle cx="13.8008" cy="13" r="11.5" fill="white" stroke="#2F80ED" stroke-width="3"/>
<path d="M18.4946 16.442H16.8986V18.5H14.6866V16.442H9.40861V14.916L14.0286 8.7H16.4086L12.1246 14.594H14.7566V12.76H16.8986V14.594H18.4946V16.442Z" fill="#333333"/>
<path d="M28.2512 29.71V30.564H31.4012V31.18H28.2512V33H27.2152V31.18H25.7452V30.564H27.2152V23.2H30.8832C32.1432 23.2 33.1232 23.4847 33.8232 24.054C34.5325 24.614 34.8872 25.412 34.8872 26.448C34.8872 27.4933 34.5325 28.3007 33.8232 28.87C33.1232 29.43 32.1432 29.71 30.8832 29.71H28.2512ZM28.2512 24.096V28.828H30.8972C31.8492 28.828 32.5772 28.6227 33.0812 28.212C33.5945 27.8013 33.8512 27.218 33.8512 26.462C33.8512 25.706 33.5945 25.1227 33.0812 24.712C32.5772 24.3013 31.8492 24.096 30.8972 24.096H28.2512Z" fill="white"/>
<defs>
<clipPath id="clip0">
<rect width="30" height="30" fill="white" transform="translate(15 8)"/>
</clipPath>
</defs>
</svg>
