<svg width="67" height="55" viewBox="0 0 67 55" fill="none" xmlns="http://www.w3.org/2000/svg">
<path d="M66.1326 21.739C66.1063 21.1346 65.7695 20.0142 63.8107 19.3013L11.5859 0.311766C8.90892 -0.662298 5.93803 0.722652 4.96358 3.39981L3.54982 7.28379L0.369036 16.0231C-0.605286 18.7004 0.779923 21.671 3.45747 22.6456L18.6782 28.1791C18.389 29.9384 18.8715 31.6766 19.9216 33.0064L16.6792 41.9143C16.53 42.3243 16.1363 42.5998 15.6996 42.5998H6.20011V39.4997C6.20011 37.7904 4.80948 36.3997 3.10006 36.3997H1.03335C0.462683 36.3997 0 36.8623 0 37.433V53.9666C0 54.5373 0.462683 55 1.03335 55H3.10006C4.80948 55 6.20011 53.6092 6.20011 51.8999V48.7999H15.6996C18.7335 48.7999 21.4685 46.8846 22.5054 44.0341L25.6796 35.3134C27.4961 35.0584 29.1469 33.9978 30.1267 32.3413L47.9137 38.8078C48.4951 39.0193 49.0901 39.1197 49.6757 39.1197C51.4519 39.1196 53.1396 38.1963 54.0848 36.6552L56.1259 37.398C56.3565 37.4818 56.5954 37.5237 56.8337 37.5237C57.1312 37.5237 57.4277 37.4586 57.7052 37.3292C58.2053 37.096 58.5845 36.682 58.7731 36.1638L61.6015 28.3927C61.9455 27.4476 61.5529 26.4118 60.7194 25.9142L64.0321 24.3696C65.9213 23.4887 66.159 22.3434 66.1326 21.739ZM4.13341 51.8999C4.13341 52.4697 3.66982 52.9333 3.10006 52.9333H2.0667V38.4664H3.10006C3.66982 38.4664 4.13341 38.93 4.13341 39.4997V51.8999ZM20.5633 43.3274C19.8223 45.3645 17.8677 46.7332 15.6996 46.7332H6.20011V44.6665H15.6996C17.0019 44.6665 18.1759 43.8446 18.6213 42.6212L21.5876 34.4714C21.928 34.6759 22.2926 34.8514 22.6799 34.9924C22.9548 35.0925 23.2321 35.1716 23.5099 35.2317L20.5633 43.3274ZM24.9431 33.3019C24.9192 33.3018 24.8954 33.3018 24.8716 33.3032C24.3795 33.3098 23.8774 33.2289 23.3867 33.0503C22.8123 32.8412 22.3114 32.5194 21.901 32.1186C21.8634 32.0729 21.8217 32.0305 21.7761 31.9916C21.0065 31.1719 20.5945 30.0591 20.6725 28.9041L28.133 31.6164C27.3782 32.6531 26.1965 33.2633 24.9431 33.3019ZM59.6597 27.6859L56.8331 35.4561L54.8896 34.7488L57.5706 27.3826L58.1195 27.1267L59.6597 27.6859ZM63.1589 22.4966L57.6347 25.0724C57.6341 25.0727 57.6335 25.073 57.633 25.0732L56.3101 25.6901C56.3096 25.6904 56.3092 25.6905 56.3087 25.6908L54.7576 26.414C52.9373 27.2628 49.8049 27.3994 47.9171 26.7124L18.0262 15.8517C17.49 15.657 16.897 15.9337 16.7021 16.47C16.5072 17.0065 16.784 17.5992 17.3204 17.7943L47.2108 28.6547C48.2508 29.0333 49.5328 29.2176 50.8411 29.2176C52.2714 29.2176 53.7317 28.9961 54.9404 28.5671L52.5944 35.0128C52.0098 36.6191 50.2273 37.4502 48.6207 36.8654L4.16389 20.7034C2.55755 20.1188 1.72647 18.3364 2.31109 16.7301L4.07916 11.8723C4.66882 12.7788 5.54574 13.5087 6.638 13.9063L7.60935 14.2597C8.14514 14.455 8.73854 14.1783 8.93372 13.642C9.12889 13.1058 8.85234 12.5128 8.31603 12.3176L7.34481 11.9642C5.73872 11.3796 4.90752 9.5976 5.49175 7.99138L5.84542 7.01964L6.90564 4.10662C7.49038 2.50028 9.27279 1.66882 10.8794 2.25382L63.1041 21.2435C63.7675 21.4849 64.013 21.7365 64.0628 21.8293C64.0212 21.9261 63.7988 22.198 63.1589 22.4966Z" fill="#264B93"/>
<path d="M24.9431 33.3019C24.9192 33.3018 24.8954 33.3018 24.8716 33.3032C24.3795 33.3098 23.8774 33.2289 23.3867 33.0503C22.8123 32.8412 22.3114 32.5194 21.901 32.1186C21.8634 32.0729 21.8217 32.0305 21.7761 31.9916C21.0065 31.1719 20.5945 30.0591 20.6725 28.9041L28.133 31.6164C27.3782 32.6531 26.1965 33.2633 24.9431 33.3019Z" fill="#264B93"/>
<path d="M20.5633 43.3274C19.8223 45.3645 17.8677 46.7332 15.6996 46.7332H6.20011V44.6665H15.6996C17.0019 44.6665 18.1759 43.8446 18.6213 42.6212L21.5876 34.4714C21.928 34.6759 22.2926 34.8514 22.6799 34.9924C22.9548 35.0925 23.2321 35.1716 23.5099 35.2317L20.5633 43.3274Z" fill="#264B93"/>
<path d="M4.13341 51.8999C4.13341 52.4697 3.66982 52.9333 3.10006 52.9333H2.0667V38.4664H3.10006C3.66982 38.4664 4.13341 38.93 4.13341 39.4997V51.8999Z" fill="#264B93"/>
<path d="M59.6597 27.6859L56.8331 35.4561L54.8896 34.7488L57.5706 27.3826L58.1195 27.1267L59.6597 27.6859Z" fill="#264B93"/>
<path d="M14.1422 14.4383L12.1998 13.7313C11.6637 13.5358 11.0706 13.8126 10.8753 14.3488C10.6802 14.885 10.9566 15.478 11.4929 15.6733L13.4352 16.3804C13.5519 16.4229 13.6712 16.4429 13.7886 16.4429C14.2107 16.4429 14.6069 16.1823 14.7597 15.7627C14.955 15.2267 14.6785 14.6336 14.1422 14.4383Z" fill="#264B93"/>
</svg>
