<svg width="55" height="42" viewBox="0 0 55 42" fill="none" xmlns="http://www.w3.org/2000/svg">
<path d="M50.8206 41.4384H3.90928C2.87285 41.4371 1.87923 41.0248 1.14637 40.292C0.413509 39.5591 0.00124147 38.5655 0 37.5291V3.9093C0.00124147 2.87288 0.413509 1.87926 1.14637 1.14639C1.87923 0.413531 2.87285 0.00126355 3.90928 2.20708e-05H19.9842C20.1916 2.20708e-05 20.3905 0.082396 20.5371 0.229022C20.6837 0.375649 20.7661 0.574516 20.7661 0.781877C20.7661 0.989238 20.6837 1.18811 20.5371 1.33473C20.3905 1.48136 20.1916 1.56373 19.9842 1.56373H3.90928C3.28719 1.56373 2.69059 1.81085 2.25071 2.25073C1.81083 2.69061 1.56371 3.28722 1.56371 3.9093V37.5291C1.56371 38.1512 1.81083 38.7478 2.25071 39.1876C2.69059 39.6275 3.28719 39.8746 3.90928 39.8746H50.8206C51.4427 39.8746 52.0393 39.6275 52.4792 39.1876C52.9191 38.7478 53.1662 38.1512 53.1662 37.5291V3.9093C53.1662 3.28722 52.9191 2.69061 52.4792 2.25073C52.0393 1.81085 51.4427 1.56373 50.8206 1.56373H41.0005C40.7931 1.56373 40.5943 1.48136 40.4476 1.33473C40.301 1.18811 40.2186 0.989238 40.2186 0.781877C40.2186 0.574516 40.301 0.375649 40.4476 0.229022C40.5943 0.082396 40.7931 2.20708e-05 41.0005 2.20708e-05H50.8206C51.857 0.00126355 52.8506 0.413531 53.5835 1.14639C54.3164 1.87926 54.7286 2.87288 54.7299 3.9093V37.5291C54.7286 38.5655 54.3164 39.5591 53.5835 40.292C52.8506 41.0248 51.857 41.4371 50.8206 41.4384Z" fill="#264B93"/>
<path d="M32.3506 1.56371H30.0754C29.868 1.56371 29.6691 1.48134 29.5225 1.33471C29.3759 1.18808 29.2935 0.989217 29.2935 0.781856C29.2935 0.574495 29.3759 0.375627 29.5225 0.229C29.6691 0.082374 29.868 0 30.0754 0H32.3506C32.5579 0 32.7568 0.082374 32.9034 0.229C33.05 0.375627 33.1324 0.574495 33.1324 0.781856C33.1324 0.989217 33.05 1.18808 32.9034 1.33471C32.7568 1.48134 32.5579 1.56371 32.3506 1.56371Z" fill="#264B93"/>
<path d="M41.0292 1.56371H38.754C38.5466 1.56371 38.3477 1.48134 38.2011 1.33471C38.0545 1.18808 37.9721 0.989217 37.9721 0.781856C37.9721 0.574495 38.0545 0.375627 38.2011 0.229C38.3477 0.082374 38.5466 0 38.754 0H41.0292C41.2365 0 41.4354 0.082374 41.582 0.229C41.7286 0.375627 41.811 0.574495 41.811 0.781856C41.811 0.989217 41.7286 1.18808 41.582 1.33471C41.4354 1.48134 41.2365 1.56371 41.0292 1.56371Z" fill="#264B93"/>
<path d="M38.1363 1.56371H35.8611C35.6537 1.56371 35.4549 1.48134 35.3082 1.33471C35.1616 1.18808 35.0792 0.989217 35.0792 0.781856C35.0792 0.574495 35.1616 0.375627 35.3082 0.229C35.4549 0.082374 35.6537 0 35.8611 0H38.1363C38.3437 0 38.5425 0.082374 38.6891 0.229C38.8358 0.375627 38.9181 0.574495 38.9181 0.781856C38.9181 0.989217 38.8358 1.18808 38.6891 1.33471C38.5425 1.48134 38.3437 1.56371 38.1363 1.56371Z" fill="#264B93"/>
<path d="M39.1006 1.56371H36.8254C36.618 1.56371 36.4192 1.48134 36.2725 1.33471C36.1259 1.18808 36.0435 0.989217 36.0435 0.781856C36.0435 0.574495 36.1259 0.375627 36.2725 0.229C36.4192 0.082374 36.618 0 36.8254 0H39.1006C39.3079 0 39.5068 0.082374 39.6534 0.229C39.8001 0.375627 39.8824 0.574495 39.8824 0.781856C39.8824 0.989217 39.8001 1.18808 39.6534 1.33471C39.5068 1.48134 39.3079 1.56371 39.1006 1.56371Z" fill="#264B93"/>
<path d="M22.7077 1.56371H20.4325C20.2251 1.56371 20.0263 1.48134 19.8796 1.33471C19.733 1.18808 19.6506 0.989217 19.6506 0.781856C19.6506 0.574495 19.733 0.375627 19.8796 0.229C20.0263 0.082374 20.2251 0 20.4325 0H22.7077C22.915 0 23.1139 0.082374 23.2605 0.229C23.4072 0.375627 23.4895 0.574495 23.4895 0.781856C23.4895 0.989217 23.4072 1.18808 23.2605 1.33471C23.1139 1.48134 22.915 1.56371 22.7077 1.56371Z" fill="#264B93"/>
<path d="M21.7434 1.56371H19.4682C19.2608 1.56371 19.062 1.48134 18.9153 1.33471C18.7687 1.18808 18.6863 0.989217 18.6863 0.781856C18.6863 0.574495 18.7687 0.375627 18.9153 0.229C19.062 0.082374 19.2608 0 19.4682 0H21.7434C21.9507 0 22.1496 0.082374 22.2962 0.229C22.4429 0.375627 22.5252 0.574495 22.5252 0.781856C22.5252 0.989217 22.4429 1.18808 22.2962 1.33471C22.1496 1.48134 21.9507 1.56371 21.7434 1.56371Z" fill="#264B93"/>
<path d="M26.5648 1.56371H24.2896C24.0823 1.56371 23.8834 1.48134 23.7368 1.33471C23.5902 1.18808 23.5078 0.989217 23.5078 0.781856C23.5078 0.574495 23.5902 0.375627 23.7368 0.229C23.8834 0.082374 24.0823 0 24.2896 0H26.5648C26.7722 0 26.9711 0.082374 27.1177 0.229C27.2643 0.375627 27.3467 0.574495 27.3467 0.781856C27.3467 0.989217 27.2643 1.18808 27.1177 1.33471C26.9711 1.48134 26.7722 1.56371 26.5648 1.56371Z" fill="#264B93"/>
<path d="M24.6363 1.56371H22.3611C22.1537 1.56371 21.9548 1.48134 21.8082 1.33471C21.6616 1.18808 21.5792 0.989217 21.5792 0.781856C21.5792 0.574495 21.6616 0.375627 21.8082 0.229C21.9548 0.082374 22.1537 0 22.3611 0H24.6363C24.8436 0 25.0425 0.082374 25.1891 0.229C25.3357 0.375627 25.4181 0.574495 25.4181 0.781856C25.4181 0.989217 25.3357 1.18808 25.1891 1.33471C25.0425 1.48134 24.8436 1.56371 24.6363 1.56371Z" fill="#264B93"/>
<path d="M53.948 28.9283H0.781855C0.574494 28.9283 0.375626 28.8459 0.229 28.6993C0.0823738 28.5527 0 28.3538 0 28.1465C0 27.9391 0.0823738 27.7402 0.229 27.5936C0.375626 27.447 0.574494 27.3646 0.781855 27.3646H53.948C54.1554 27.3646 54.3543 27.447 54.5009 27.5936C54.6475 27.7402 54.7299 27.9391 54.7299 28.1465C54.7299 28.3538 54.6475 28.5527 54.5009 28.6993C54.3543 28.8459 54.1554 28.9283 53.948 28.9283Z" fill="#264B93"/>
<path d="M47.6932 35.1834H14.0734C13.866 35.1834 13.6672 35.101 13.5205 34.9544C13.3739 34.8078 13.2915 34.6089 13.2915 34.4015C13.2915 34.1942 13.3739 33.9953 13.5205 33.8487C13.6672 33.7021 13.866 33.6197 14.0734 33.6197H47.6932C47.9006 33.6197 48.0994 33.7021 48.246 33.8487C48.3927 33.9953 48.4751 34.1942 48.4751 34.4015C48.4751 34.6089 48.3927 34.8078 48.246 34.9544C48.0994 35.101 47.9006 35.1834 47.6932 35.1834Z" fill="#264B93"/>
<path d="M10.9929 35.1834H7.0367C6.82934 35.1834 6.63048 35.101 6.48385 34.9544C6.33722 34.8078 6.25485 34.6089 6.25485 34.4015C6.25485 34.1942 6.33722 33.9953 6.48385 33.8487C6.63048 33.7021 6.82934 33.6197 7.0367 33.6197H10.9929C11.2003 33.6197 11.3991 33.7021 11.5457 33.8487C11.6924 33.9953 11.7747 34.1942 11.7747 34.4015C11.7747 34.6089 11.6924 34.8078 11.5457 34.9544C11.3991 35.101 11.2003 35.1834 10.9929 35.1834Z" fill="#264B93"/>
<path d="M12.5339 38.335C11.9185 38.3342 11.3286 38.0894 10.8934 37.6542C10.4583 37.2191 10.2134 36.6291 10.2126 36.0137V32.7893C10.2126 32.1737 10.4572 31.5832 10.8925 31.1479C11.3278 30.7126 11.9183 30.468 12.5339 30.468C13.1496 30.468 13.74 30.7126 14.1753 31.1479C14.6107 31.5832 14.8552 32.1737 14.8552 32.7893V36.0137C14.8546 36.6292 14.6099 37.2192 14.1747 37.6544C13.7395 38.0896 13.1494 38.3344 12.5339 38.335ZM12.5339 32.0317C12.3331 32.0319 12.1405 32.1118 11.9984 32.2538C11.8564 32.3959 11.7765 32.5885 11.7763 32.7893V36.0137C11.7763 36.2146 11.8561 36.4073 11.9982 36.5494C12.1403 36.6915 12.333 36.7713 12.5339 36.7713C12.7349 36.7713 12.9276 36.6915 13.0696 36.5494C13.2117 36.4073 13.2915 36.2146 13.2915 36.0137V32.7893C13.2913 32.5885 13.2114 32.3959 13.0694 32.2538C12.9274 32.1118 12.7348 32.0319 12.5339 32.0317Z" fill="#264B93"/>
<path d="M24.6339 20.9692C24.0107 20.9682 23.4133 20.7201 22.9726 20.2795C22.5319 19.8388 22.2839 19.2414 22.2829 18.6182V10.3102C22.2829 9.8727 22.4051 9.44394 22.6357 9.07218C22.8663 8.70041 23.1961 8.4004 23.5879 8.20593C23.9798 8.01147 24.4182 7.93026 24.8537 7.97147C25.2892 8.01268 25.7046 8.17467 26.053 8.43918L31.5205 12.594C31.8087 12.8131 32.0424 13.096 32.2033 13.4204C32.3642 13.7448 32.4479 14.102 32.4479 14.4642C32.4479 14.8263 32.3642 15.1835 32.2033 15.5079C32.0424 15.8323 31.8087 16.1152 31.5205 16.3344L26.0538 20.4891C25.6457 20.8001 25.147 20.9688 24.6339 20.9692ZM24.6339 9.52205C24.5114 9.52258 24.3907 9.55148 24.2813 9.60649C24.1493 9.67029 24.0382 9.77034 23.9609 9.89494C23.8837 10.0195 23.8435 10.1636 23.845 10.3102V18.6182C23.8436 18.7651 23.8835 18.9095 23.9604 19.0348C24.0372 19.16 24.1478 19.2611 24.2794 19.3264C24.4111 19.3917 24.5585 19.4186 24.7047 19.4039C24.8509 19.3893 24.9901 19.3337 25.1062 19.2436L30.5705 15.0896C30.667 15.0163 30.7451 14.9217 30.7989 14.8132C30.8527 14.7047 30.8807 14.5853 30.8807 14.4642C30.8807 14.3431 30.8527 14.2236 30.7989 14.1151C30.7451 14.0066 30.667 13.912 30.5705 13.8387L25.103 9.68468C24.9689 9.58074 24.8036 9.52362 24.6339 9.52205Z" fill="#264B93"/>
<path d="M24.6339 9.52205C24.5114 9.52258 24.3907 9.55148 24.2813 9.60649C24.1493 9.67029 24.0382 9.77034 23.9609 9.89494C23.8837 10.0195 23.8435 10.1636 23.845 10.3102V18.6182C23.8436 18.7651 23.8835 18.9095 23.9604 19.0348C24.0372 19.16 24.1478 19.2611 24.2794 19.3264C24.4111 19.3917 24.5585 19.4186 24.7047 19.4039C24.8509 19.3893 24.9901 19.3337 25.1062 19.2436L30.5705 15.0896C30.667 15.0163 30.7451 14.9217 30.7989 14.8132C30.8527 14.7047 30.8807 14.5853 30.8807 14.4642C30.8807 14.3431 30.8527 14.2236 30.7989 14.1151C30.7451 14.0066 30.667 13.912 30.5705 13.8387L25.103 9.68468C24.9689 9.58074 24.8036 9.52362 24.6339 9.52205Z" fill="#264B93"/>
<path d="M12.5339 32.0317C12.3331 32.0319 12.1405 32.1118 11.9984 32.2538C11.8564 32.3959 11.7765 32.5885 11.7763 32.7893V36.0137C11.7763 36.2146 11.8561 36.4073 11.9982 36.5494C12.1403 36.6915 12.333 36.7713 12.5339 36.7713C12.7349 36.7713 12.9276 36.6915 13.0696 36.5494C13.2117 36.4073 13.2915 36.2146 13.2915 36.0137V32.7893C13.2913 32.5885 13.2114 32.3959 13.0694 32.2538C12.9274 32.1118 12.7348 32.0319 12.5339 32.0317Z" fill="#264B93"/>
</svg>
