<svg width="55" height="55" viewBox="0 0 55 55" fill="none" xmlns="http://www.w3.org/2000/svg">
<g clip-path="url(#clip0)">
<path d="M50.5576 4.61537C47.6962 1.70885 43.8821 0.0706583 39.8178 0.00255273C35.7621 -0.0666271 31.8905 1.50786 28.9168 4.43221C25.8627 7.43552 24.1111 11.5908 24.1111 15.8324V18.9446H21.4724C20.0785 18.9446 18.9446 20.0787 18.9446 21.4725V33.5279C18.9446 34.9218 20.0786 36.0558 21.4724 36.0558H24.1111V39.5557C24.1111 41.9862 23.0766 44.3221 21.2725 45.9643C19.4454 47.6275 17.0778 48.4153 14.6071 48.1828C10.217 47.7695 6.77816 43.8582 6.77816 39.2782C6.77816 38.8333 6.41744 38.4726 5.9725 38.4726C5.52755 38.4726 5.16683 38.8333 5.16683 39.2782C5.16683 41.8765 6.10345 44.383 7.80404 46.336C9.53204 48.3203 11.8945 49.5458 14.456 49.7869C14.7925 49.8186 15.127 49.8343 15.4594 49.8343C18.0204 49.8343 20.4394 48.9016 22.3573 47.1558C24.4959 45.2089 25.7226 42.4388 25.7226 39.5557V36.0558H29.2779V39.168C29.2779 42.9805 27.7018 46.717 24.9538 49.4193C22.2905 52.0383 18.8316 53.4474 15.2096 53.3867C11.5703 53.3258 8.15424 51.8583 5.59115 49.2546C3.02494 46.6479 1.6118 43.2034 1.6118 39.5556V28.3613C1.6118 28.3307 1.63662 28.3059 1.66723 28.3059H5.11162C5.14223 28.3059 5.16705 28.3307 5.16705 28.3613V35.7884C5.16705 36.2333 5.52777 36.5941 5.97271 36.5941C6.41765 36.5941 6.77838 36.2333 6.77838 35.7884V28.3613C6.77838 27.4422 6.03072 26.6946 5.11162 26.6946H4.19498V22.3336C4.19498 21.8886 3.83426 21.5279 3.38932 21.5279C2.94438 21.5279 2.58365 21.8886 2.58365 22.3336V26.6946H1.66713C0.748024 26.6946 0.000366211 27.4422 0.000366211 28.3613V39.5556C0.000366211 43.6291 1.57807 47.4752 4.44281 50.385C7.30421 53.2915 11.1183 54.9298 15.1827 54.9978C15.2669 54.9992 15.3506 55 15.4346 55C19.3984 55 23.1715 53.4319 26.0835 50.5682C29.1376 47.5649 30.8892 43.4096 30.8892 39.168V36.0558H33.5279C34.9218 36.0558 36.0557 34.9217 36.0557 33.5279V21.4726C36.0557 20.0787 34.9217 18.9447 33.5279 18.9447H30.8892V15.4448C30.8892 13.0143 31.9237 10.6784 33.7278 9.03621C35.5549 7.373 37.9224 6.58538 40.3932 6.81773C44.7833 7.23099 48.2221 11.1423 48.2221 15.7223C48.2221 16.1672 48.5829 16.5279 49.0278 16.5279C49.4728 16.5279 49.8335 16.1672 49.8335 15.7223C49.8335 13.1239 48.8969 10.6175 47.1963 8.66453C45.4683 6.68023 43.1058 5.45465 40.5443 5.2136C37.6154 4.93795 34.8099 5.87231 32.643 7.84469C30.5044 9.7916 29.2777 12.5617 29.2777 15.4448V18.9447H25.7223V15.8325C25.7223 12.02 27.2984 8.28351 30.0464 5.5812C32.7098 2.96214 36.1691 1.55394 39.7906 1.61378C43.4299 1.67468 46.846 3.14218 49.409 5.74587C51.9753 8.35258 53.3884 11.7971 53.3884 15.4449V26.6391C53.3884 26.6698 53.3636 26.6946 53.333 26.6946H49.8886C49.858 26.6946 49.8332 26.6698 49.8332 26.6391V19.2121C49.8332 18.7672 49.4724 18.4064 49.0275 18.4064C48.5825 18.4064 48.2218 18.7672 48.2218 19.2121V26.6391C48.2218 27.5583 48.9695 28.3059 49.8886 28.3059H50.8051V32.6669C50.8051 33.1119 51.1658 33.4726 51.6108 33.4726C52.0557 33.4726 52.4164 33.1119 52.4164 32.6669V28.3059H53.333C54.2521 28.3059 54.9997 27.5583 54.9997 26.6391V15.4448C55 11.3712 53.4223 7.52543 50.5576 4.61537ZM33.5279 20.5561C34.0332 20.5561 34.4444 20.9673 34.4444 21.4726V33.528C34.4444 34.0334 34.0332 34.4445 33.5279 34.4445H21.4724C20.967 34.4445 20.5559 34.0333 20.5559 33.528V21.4726C20.5559 20.9672 20.9671 20.5561 21.4724 20.5561H33.5279Z" fill="#264B93"/>
<path d="M33.5279 20.5561C34.0332 20.5561 34.4444 20.9673 34.4444 21.4726V33.528C34.4444 34.0334 34.0332 34.4445 33.5279 34.4445H21.4724C20.967 34.4445 20.5559 34.0333 20.5559 33.528V21.4726C20.5559 20.9672 20.9671 20.5561 21.4724 20.5561H33.5279Z" fill="#264B93"/>
<path d="M2.38754 19.39L1.52644 17.6678C1.32749 17.2698 0.843558 17.1083 0.445559 17.3075C0.0475604 17.5064 -0.113788 17.9904 0.0852656 18.3884L0.946361 20.1106C1.08751 20.3929 1.37197 20.556 1.66759 20.556C1.78866 20.556 1.91155 20.5286 2.02724 20.4709C2.42524 20.2719 2.58659 19.788 2.38754 19.39Z" fill="#264B93"/>
<path d="M6.33261 17.3076C5.93462 17.1084 5.45068 17.27 5.25173 17.6679L4.39064 19.3901C4.19169 19.7881 4.35293 20.272 4.75093 20.471C4.86663 20.5289 4.98952 20.5561 5.11058 20.5561C5.4061 20.5561 5.69066 20.3929 5.83181 20.1107L6.69291 18.3885C6.89196 17.9905 6.73061 17.5065 6.33261 17.3076Z" fill="#264B93"/>
<path d="M54.9149 36.612L54.0538 34.8898C53.8548 34.4918 53.371 34.3304 52.9729 34.5295C52.5749 34.7285 52.4136 35.2124 52.6126 35.6104L53.4737 37.3326C53.6149 37.6149 53.8993 37.7781 54.1949 37.7781C54.316 37.7781 54.4389 37.7507 54.5546 37.6929C54.9526 37.4939 55.1139 37.01 54.9149 36.612Z" fill="#264B93"/>
<path d="M50.249 34.5295C49.851 34.3303 49.3672 34.4919 49.1682 34.8898L48.3071 36.612C48.108 37.01 48.2694 37.4939 48.6674 37.6929C48.7831 37.7508 48.9059 37.7781 49.027 37.7781C49.3225 37.7781 49.6071 37.6148 49.7482 37.3326L50.6093 35.6104C50.8084 35.2124 50.647 34.7285 50.249 34.5295Z" fill="#264B93"/>
<path d="M29.8894 27.0485C29.7395 26.827 29.4897 26.6945 29.2223 26.6945H26.9678L28.2481 23.4938C28.4134 23.0807 28.2124 22.6118 27.7993 22.4466C27.386 22.2809 26.9172 22.4822 26.752 22.8954L25.0298 27.201C24.9306 27.4492 24.9607 27.7305 25.1107 27.9518C25.2606 28.1732 25.5105 28.3058 25.7778 28.3058H28.0323L26.752 31.5064C26.5867 31.9196 26.7877 32.3885 27.2008 32.5537C27.299 32.593 27.4002 32.6116 27.4998 32.6116C27.8196 32.6116 28.1221 32.42 28.2481 32.105L29.9703 27.7994C30.0695 27.5512 30.0393 27.2698 29.8894 27.0485Z" fill="black"/>
</g>
<defs>
<clipPath id="clip0">
<rect width="55" height="55" fill="white"/>
</clipPath>
</defs>
</svg>
