<svg width="52" height="50" viewBox="0 0 52 50" fill="none" xmlns="http://www.w3.org/2000/svg">
<path fill-rule="evenodd" clip-rule="evenodd" d="M29.8633 7.403L47.551 0V1.47479L31.051 7.91093V19.0046H27.2852V48.653H33.7305V41.778H43.6133V48.653H50.0586V48.6496H51.3477V48.653V49.9421H0V48.653H5.37109V5.25457H3.65234V0.528003H29.8633V5.25457H27.2852V17.7155H29.8633V7.403ZM25.9961 39.6296H6.66016V48.653H11.3867V43.0671H9.45312V41.778H23.2031V43.0671H21.2695V48.653H25.9961V39.6296ZM26.051 5.24785H6.55096V38.4108H26.051V5.24785Z" fill="#264B93"/>
<path d="M34.051 37.8221V10.6424L43.051 7.14117V37.8221H34.051Z" stroke="#264B93"/>
<path d="M10.051 35.9102V8.91016H22.551V35.9102H10.051Z" stroke="#264B93"/>
<path d="M47.051 1.41016C47.051 19.958 47.051 30.8623 47.051 49.4102" stroke="#264B93"/>
</svg>
