<svg width="129" height="119" viewBox="0 0 129 119" fill="none" xmlns="http://www.w3.org/2000/svg">
<path d="M124.561 33.7046C121.694 31.0226 117.883 29.5455 113.828 29.5455C109.774 29.5455 105.963 31.0226 103.096 33.7046L91.615 44.445V7.68032H70.1896V0.307861H61.7761V7.68008H50.0145V0.307861H41.601V7.68008H29.8388V0.307861H21.4253V7.68008H0V118.773H91.6152V84.6059L124.562 53.7849C130.48 48.2487 130.479 39.241 124.561 33.7046ZM83.202 110.902H83.2017H8.41347V15.551H21.4253V22.9235H29.8388V15.551H41.601V22.9235H50.0145V15.551H61.7761V22.9235H70.1896V15.551H83.2015V52.316L70.268 64.4152V57.1035H21.347V64.9742H69.6706L61.3347 72.7724L60.4073 75.9927H21.347V83.8635H58.1407L54.9676 94.882H21.347V102.753H70.2682V96.0112L82.8001 92.8526L83.202 92.4766V110.902ZM72.5015 87.2969L65.3458 89.1002L67.2735 82.4061L72.5015 87.2969ZM80.6202 83.7607L71.0536 74.8112L103.194 44.7444L112.76 53.6936L80.6202 83.7607ZM118.705 48.1238L109.146 39.1814C110.411 38.0432 112.068 37.4164 113.829 37.4164C115.636 37.4164 117.335 38.0748 118.613 39.27C121.217 41.7064 121.244 45.6497 118.705 48.1238Z" fill="#FFC73B"/>
</svg>
