<svg width="129" height="129" viewBox="0 0 129 129" fill="none" xmlns="http://www.w3.org/2000/svg">
<path d="M64.5 120.938L39.603 107.663C32.5053 103.887 26.5699 98.249 22.4336 91.3551C18.2974 84.4611 16.1165 76.5709 16.125 68.5312V16.125C16.1272 13.9873 16.9773 11.9379 18.4888 10.4263C20.0004 8.91476 22.0499 8.06463 24.1875 8.0625H104.813C106.95 8.06463 109 8.91476 110.511 10.4263C112.023 11.9379 112.873 13.9873 112.875 16.125V68.5312C112.884 76.5709 110.703 84.4611 106.566 91.3551C102.43 98.249 96.4947 103.887 89.397 107.663L64.5 120.938ZM24.1875 16.125V68.5312C24.1808 75.1095 25.9657 81.5653 29.3506 87.2058C32.7355 92.8463 37.5926 97.4586 43.4005 100.547L64.5 111.799L85.5996 100.551C91.4081 97.4623 96.2656 92.8494 99.6505 87.2081C103.035 81.5668 104.82 75.1101 104.813 68.5312V16.125H24.1875Z" fill="#FFC73B"/>
<path d="M64.5 101.898V24.1875H96.75V67.7452C96.7498 72.8548 95.3621 77.8686 92.7352 82.2513C90.1083 86.634 86.3406 90.2212 81.8344 92.6301L64.5 101.898Z" fill="#FFC73B"/>
</svg>
