<svg width="129" height="129" viewBox="0 0 129 129" fill="none" xmlns="http://www.w3.org/2000/svg">
<path d="M109.554 107.281L116.991 114.083C119.541 111.295 121.741 108.198 123.53 104.88L114.66 100.097C113.263 102.687 111.545 105.104 109.554 107.281Z" fill="#FFC73B"/>
<path d="M94.9668 116.924L98.2956 126.436C101.855 125.191 105.259 123.501 108.414 121.415L102.854 113.009C100.394 114.636 97.74 115.953 94.9668 116.924Z" fill="#FFC73B"/>
<path d="M78.1058 80.8195L67.4746 89.8873L74.0148 97.5552L88.1839 85.4696V58.957H78.1058V80.8195Z" fill="#FFC73B"/>
<path d="M117.846 91.8906L127.62 94.3454C128.535 90.7019 128.999 86.9334 128.999 83.1445H118.921C118.921 86.1065 118.559 89.0491 117.846 91.8906Z" fill="#FFC73B"/>
<path d="M113.883 10.0781H107.836V0H97.7578V10.0781H31.2422V0H21.1641V10.0781H15.1172C6.78157 10.0781 0 16.8597 0 25.1953V113.883C0 122.218 6.78157 129 15.1172 129H32.25H37.541H51.0923C48.4413 127.138 45.9318 125.034 43.5934 122.696C42.3808 121.483 41.2339 120.222 40.1477 118.922H37.541H32.25H15.1172C12.3386 118.922 10.0781 116.661 10.0781 113.883V47.1152H40.148C41.2341 45.8147 42.381 44.5541 43.5937 43.3415C45.9318 41.0034 48.4413 38.8988 51.0926 37.0371H10.0781V25.1953C10.0781 22.4168 12.3386 20.1562 15.1172 20.1562H21.1641V30.2344H31.2422V20.1562H97.7578V30.2344H107.836V20.1562H113.883C116.661 20.1562 118.922 22.4168 118.922 25.1953V34.2656H129V25.1953C129 16.8597 122.218 10.0781 113.883 10.0781Z" fill="#FFC73B"/>
<path d="M118.922 54.435C110.36 43.7514 97.3078 37.2891 83.1445 37.2891C57.8598 37.2891 37.2891 57.8598 37.2891 83.1445C37.2891 108.429 57.8595 129 83.144 129C83.1455 129 83.147 129 83.1488 129C84.5164 129 85.8979 128.939 87.2544 128.818L86.361 118.78C85.3 118.874 84.2194 118.922 83.1486 118.922C83.1473 118.922 83.146 118.922 83.1448 118.922L83.1445 123.961V118.922C63.4169 118.922 47.3672 102.872 47.3672 83.1445C47.3672 63.4169 63.4169 47.3672 83.1445 47.3672C94.7301 47.3672 105.359 52.9119 112.002 61.9805H101.285V72.0586H129V44.3438H118.922V54.435Z" fill="#FFC73B"/>
</svg>
