<svg width="155" height="146" viewBox="0 0 155 146" fill="none" xmlns="http://www.w3.org/2000/svg">
<path d="M35.6032 1.74868C37.3146 3.78994 42.1451 12.5564 44.9067 17.6654C45.341 18.4685 44.1675 19.1941 43.4182 18.5856C38.6522 14.716 30.5031 8.00116 28.7917 5.95968C27.4374 4.34456 27.8644 2.09248 29.7455 0.929584C31.6264 -0.233314 34.249 0.133554 35.6032 1.74868Z" fill="#FFF082"/>
<path d="M128.398 1.74868C126.686 3.78994 121.856 12.5564 119.094 17.6654C118.66 18.4685 119.833 19.1941 120.583 18.5856C125.349 14.716 133.498 8.00095 135.209 5.95968C136.564 4.34456 136.137 2.09248 134.255 0.929584C132.375 -0.233314 129.752 0.133554 128.398 1.74868Z" fill="#FFF082"/>
<path d="M151.542 88.0625C148.807 87.1611 137.814 85.6719 131.423 84.8547C130.418 84.7261 129.978 86.0907 130.864 86.5856C136.503 89.7336 146.251 95.0815 148.986 95.9829C151.15 96.6962 153.477 95.5015 154.182 93.3142C154.888 91.1269 153.706 88.7759 151.542 88.0625Z" fill="#FFF082"/>
<path d="M2.84501 88.0625C5.57994 87.1611 16.5736 85.6719 22.9643 84.8547C23.9689 84.7261 24.4091 86.0907 23.5229 86.5856C17.8842 89.7336 8.13589 95.0815 5.40096 95.9829C3.23698 96.6962 0.910541 95.5015 0.204744 93.3142C-0.501052 91.1269 0.681027 88.7759 2.84501 88.0625Z" fill="#FFF082"/>
<path d="M75.0005 141.565C75.0005 138.715 77.68 127.907 79.2986 121.639C79.5529 120.654 81.4481 120.654 81.7024 121.639C83.321 127.907 86.0005 138.715 86.0005 141.565C86.0005 143.82 83.5381 145.649 80.5007 145.649C77.4629 145.649 75.0005 143.82 75.0005 141.565Z" fill="#FFF082"/>
<path d="M69.8647 54.2802V83.6802H63.0607V59.7402H57.1807V54.2802H69.8647ZM87.572 84.1842C85.136 84.1842 82.966 83.5822 81.062 82.3782C79.158 81.1742 77.66 79.4382 76.568 77.1702C75.504 74.8742 74.972 72.1442 74.972 68.9802C74.972 65.8162 75.504 63.1002 76.568 60.8322C77.66 58.5362 79.158 56.7862 81.062 55.5822C82.966 54.3782 85.136 53.7762 87.572 53.7762C90.008 53.7762 92.178 54.3782 94.082 55.5822C95.986 56.7862 97.47 58.5362 98.534 60.8322C99.626 63.1002 100.172 65.8162 100.172 68.9802C100.172 72.1442 99.626 74.8742 98.534 77.1702C97.47 79.4382 95.986 81.1742 94.082 82.3782C92.178 83.5822 90.008 84.1842 87.572 84.1842ZM87.572 78.4302C89.364 78.4302 90.764 77.6602 91.772 76.1202C92.808 74.5802 93.326 72.2002 93.326 68.9802C93.326 65.7602 92.808 63.3802 91.772 61.8402C90.764 60.3002 89.364 59.5302 87.572 59.5302C85.808 59.5302 84.408 60.3002 83.372 61.8402C82.364 63.3802 81.86 65.7602 81.86 68.9802C81.86 72.2002 82.364 74.5802 83.372 76.1202C84.408 77.6602 85.808 78.4302 87.572 78.4302Z" fill="#FFC73B"/>
<path d="M135.961 42.9834C134.28 41.4589 132.21 40.4762 129.976 40.1414L102.623 36.0428L90.3901 10.4833C89.3909 8.39572 87.845 6.66966 85.9196 5.4923C84.1334 4.40023 82.0865 3.82275 79.9997 3.82275C77.9129 3.82275 75.8658 4.40003 74.0797 5.4923C72.1544 6.66966 70.6087 8.39552 69.6095 10.4833L57.3768 36.043L30.0234 40.1414C27.7892 40.4762 25.7197 41.4589 24.0389 42.9834C22.4797 44.3975 21.3148 46.2267 20.6699 48.2734C20.0252 50.3198 19.925 52.5058 20.3801 54.595C20.871 56.847 21.985 58.8965 23.6019 60.5215L43.3949 80.4169L38.7223 108.51C38.1434 111.991 39.0727 115.53 41.272 118.22C43.4878 120.93 46.7207 122.485 50.1417 122.485C52.0049 122.485 53.8696 122.008 55.5343 121.105L79.9999 107.842L104.465 121.105C106.13 122.008 107.995 122.485 109.858 122.485C113.279 122.485 116.512 120.93 118.728 118.22C120.927 115.53 121.856 111.991 121.277 108.51L116.605 80.4169L136.398 60.5215C138.015 58.8963 139.129 56.847 139.62 54.595C140.075 52.5058 139.975 50.3198 139.33 48.2734C138.685 46.2269 137.52 44.3977 135.961 42.9834ZM130.438 54.2171L108.579 76.1896C107.861 76.912 107.533 77.9527 107.702 78.9726L112.863 109.998C113.201 112.03 111.635 113.681 109.858 113.681C109.389 113.681 108.906 113.566 108.439 113.313L81.419 98.6646C80.9748 98.4238 80.4874 98.3033 80.0001 98.3033C79.5128 98.3033 79.0254 98.4238 78.5811 98.6646L51.5616 113.313C51.0947 113.566 50.6108 113.681 50.1421 113.681C48.3652 113.681 46.7994 112.03 47.1374 109.998L52.2976 78.9726C52.4674 77.9527 52.1394 76.912 51.4207 76.1896L29.5611 54.2171C27.7513 52.3981 28.75 49.2288 31.2509 48.8539L61.4598 44.3274C62.4529 44.1786 63.3115 43.5354 63.7557 42.6073L77.2656 14.3795C77.8248 13.211 78.9124 12.6267 79.9999 12.6267C81.0876 12.6267 82.175 13.2112 82.734 14.3795L96.2439 42.6073C96.6881 43.5352 97.5465 44.1786 98.5398 44.3274L128.749 48.8539C131.25 49.2288 132.248 52.3981 130.438 54.2171Z" fill="#FFC73B"/>
</svg>
