<svg width="67" height="54" viewBox="0 0 67 54" fill="none" xmlns="http://www.w3.org/2000/svg">
<path d="M65.1777 49.6803L53.1584 37.226C55.4866 34.2462 56.8883 30.4597 56.8883 26.3356C56.8883 16.7773 49.3827 9 40.1582 9C30.9338 9 23.4282 16.7772 23.4282 26.3356C23.4282 35.8939 30.9339 43.6712 40.1583 43.6712C44.1383 43.6712 47.7925 42.2187 50.6683 39.8063L62.6875 52.2606C63.031 52.6164 63.4818 52.7953 63.9326 52.7953C64.3835 52.7953 64.8343 52.6164 65.1777 52.2606C65.8663 51.5471 65.8663 50.3938 65.1777 49.6803ZM40.1583 40.0216C32.8746 40.0216 26.9504 33.883 26.9504 26.3356C26.9504 18.7882 32.8746 12.6495 40.1583 12.6495C47.4421 12.6495 53.3663 18.7882 53.3663 26.3356C53.3663 33.883 47.442 40.0216 40.1583 40.0216Z" fill="#2F80ED" stroke="white"/>
<path d="M17.0886 33.6971C25.7478 33.6971 32.6772 26.4388 32.6772 17.5986C32.6772 8.75829 25.7478 1.5 17.0886 1.5C8.42944 1.5 1.5 8.75829 1.5 17.5986C1.5 26.4388 8.42944 33.6971 17.0886 33.6971Z" fill="#2F80ED" stroke="white" stroke-width="3"/>
<path d="M19.6535 12.8V24H17.0615V14.88H14.8215V12.8H19.6535Z" fill="white"/>
</svg>
