<svg width="66" height="52" viewBox="0 0 66 52" fill="none" xmlns="http://www.w3.org/2000/svg">
<g clip-path="url(#clip0)">
<path d="M63.2713 9C63.2713 9 30.4472 9 29.9834 9C29.5196 9 30.3121 9.376 30.3121 9.83984C30.3121 10.3037 29.0084 10.6797 29.4723 10.6797C29.9361 10.6797 63.2713 10.6797 63.2713 10.6797C63.8308 10.6797 64.2859 11.1338 64.2859 11.692V17.8368H44.4828H24.6797V11.692C24.6797 11.1338 25.1338 10.6797 25.692 10.6797H29.4723C29.9361 10.6797 30.3121 10.3037 30.3121 9.83984C30.3121 9.376 29.9361 9 29.4723 9H25.692C24.2076 9 23 10.2076 23 11.692V49.3056C23 50.7913 24.2076 52 25.692 52H63.2713C64.7569 52 65.9656 50.7913 65.9656 49.3056V11.692C65.9656 10.2076 64.7569 9 63.2713 9ZM63.2713 50.3203H25.692C25.1338 50.3203 24.6797 49.8651 24.6797 49.3056V19.5165H64.2859V49.3056C64.2859 49.8651 63.8307 50.3203 63.2713 50.3203Z" fill="#2F80ED"/>
<path d="M28.6346 32H60.3654C60.7462 32 61 31.7556 61 31.3889V21.6111C61 21.2444 60.7462 21 60.3654 21H28.6346C28.2538 21 28 21.2444 28 21.6111V31.3889C28 31.7556 28.2538 32 28.6346 32ZM29.2692 22.2222H59.7308V30.7778H29.2692V22.2222Z" fill="#2F80ED"/>
<path d="M28.6364 42H41.3636C41.7455 42 42 41.7714 42 41.4286V34.5714C42 34.2286 41.7455 34 41.3636 34H28.6364C28.2545 34 28 34.2286 28 34.5714V41.4286C28 41.7714 28.2545 42 28.6364 42ZM29.2727 35.1429H40.7273V40.8571H29.2727V35.1429Z" fill="#2F80ED"/>
<path d="M51 34H47V35H51V34Z" fill="#2F80ED"/>
<path d="M61 39H47V40H61V39Z" fill="#2F80ED"/>
<path d="M61 36H47V37H61V36Z" fill="#2F80ED"/>
<path d="M56 34H52V35H56V34Z" fill="#2F80ED"/>
<path d="M28.625 49H32.375C32.75 49 33 48.75 33 48.375V44.625C33 44.25 32.75 44 32.375 44H28.625C28.25 44 28 44.25 28 44.625V48.375C28 48.75 28.25 49 28.625 49ZM29.25 45.25H31.75V47.75H29.25V45.25Z" fill="#2F80ED"/>
<path d="M35 44H34V45H35V44Z" fill="#2F80ED"/>
<path d="M42 47H34V48H42V47Z" fill="#2F80ED"/>
<path d="M38 44H37V45H38V44Z" fill="#2F80ED"/>
<path d="M52 48.375V44.625C52 44.25 51.75 44 51.375 44H47.625C47.25 44 47 44.25 47 44.625V48.375C47 48.75 47.25 49 47.625 49H51.375C51.75 49 52 48.75 52 48.375ZM50.75 47.75H48.25V45.25H50.75V47.75Z" fill="#2F80ED"/>
<path d="M54 44H53V45H54V44Z" fill="#2F80ED"/>
<path d="M61 47H53V48H61V47Z" fill="#2F80ED"/>
<path d="M57 44H55V45H57V44Z" fill="#2F80ED"/>
<path d="M59 44H58V45H59V44Z" fill="#2F80ED"/>
<path d="M40 44H39V45H40V44Z" fill="#2F80ED"/>
</g>
<path d="M17.428 33.6971C26.0872 33.6971 33.0166 26.4388 33.0166 17.5986C33.0166 8.75829 26.0872 1.5 17.428 1.5C8.7688 1.5 1.83936 8.75829 1.83936 17.5986C1.83936 26.4388 8.7688 33.6971 17.428 33.6971Z" fill="#2F80ED" stroke="white" stroke-width="3"/>
<path d="M22.4549 21.888V24H13.9909V22.32L18.3109 18.24C18.7696 17.8027 19.0789 17.4293 19.2389 17.12C19.3989 16.8 19.4789 16.4853 19.4789 16.176C19.4789 15.728 19.3242 15.3867 19.0149 15.152C18.7162 14.9067 18.2736 14.784 17.6869 14.784C17.1962 14.784 16.7536 14.88 16.3589 15.072C15.9642 15.2533 15.6336 15.5307 15.3669 15.904L13.4789 14.688C13.9162 14.0373 14.5189 13.5307 15.2869 13.168C16.0549 12.7947 16.9349 12.608 17.9269 12.608C18.7589 12.608 19.4842 12.7467 20.1029 13.024C20.7322 13.2907 21.2176 13.6747 21.5589 14.176C21.9109 14.6667 22.0869 15.248 22.0869 15.92C22.0869 16.528 21.9589 17.0987 21.7029 17.632C21.4469 18.1653 20.9509 18.7733 20.2149 19.456L17.6389 21.888H22.4549Z" fill="white"/>
<defs>
<clipPath id="clip0">
<rect width="43" height="43" fill="white" transform="translate(23 9)"/>
</clipPath>
</defs>
</svg>
