<svg width="71" height="50" viewBox="0 0 71 50" fill="none" xmlns="http://www.w3.org/2000/svg">
<path d="M33.3734 12.3121C33.1977 11.8904 32.6992 11.6827 32.2766 11.8586C31.854 12.0345 31.6469 12.5321 31.8222 12.9554C31.997 13.3777 32.4974 13.584 32.919 13.4089C33.3431 13.2329 33.5473 12.7362 33.3734 12.3121Z" fill="#2F80ED"/>
<path d="M36.2463 12.3128C36.0728 11.8894 35.571 11.6837 35.1494 11.8585C34.7266 12.0338 34.5203 12.5313 34.6951 12.9545C34.8696 13.3772 35.3694 13.5848 35.792 13.4088C36.2134 13.2334 36.4225 12.7355 36.2463 12.3128Z" fill="#2F80ED"/>
<path d="M39.2882 12.313C39.1147 11.8893 38.6129 11.6845 38.1914 11.8586C37.7682 12.0334 37.5624 12.5318 37.737 12.9546C37.9117 13.3773 38.4114 13.5848 38.834 13.4089C39.2553 13.2336 39.4644 12.7355 39.2882 12.313Z" fill="#2F80ED"/>
<path d="M70.756 44.0722L67.039 40.3552L70.377 39.3212C70.7235 39.2138 70.967 38.8849 70.9683 38.5222C70.9697 38.1595 70.7289 37.8286 70.3832 37.7186L66.0047 36.3248V22.8125C66.0047 22.3487 65.6286 23.6524 65.1648 23.6524C64.701 23.6524 64.3249 21.5363 64.3249 22.0001C64.3249 22.464 64.3249 35.7901 64.3249 35.7901L57.2946 33.552C56.6565 33.3492 56.0368 33.9715 56.2393 34.6072L58.5823 41.9664H32.0191C30.7291 41.9664 29.6798 40.917 29.6798 39.6272V16.5486H64.3249V22.8125C64.3249 23.2764 64.701 23.6524 65.1648 23.6524C65.6286 23.6524 66.0047 23.2764 66.0047 22.8125L66.0055 12.7378C66.0055 10.5219 64.2027 8.71912 61.9868 8.71912H32.0191C29.8031 8.71912 28.0004 10.5219 28.0004 12.7378L28 39.6272C28 41.8433 29.803 43.6462 32.0191 43.6462H59.1171L60.4062 47.6957C60.5159 48.0403 60.8451 48.281 61.2067 48.2809C61.5684 48.2808 61.8978 48.0398 62.007 47.6948L63.0854 44.2943L66.8096 48.0185C67.1376 48.3466 67.6693 48.3466 67.9974 48.0185L70.7561 45.2599C71.0813 44.9472 71.0813 44.3849 70.756 44.0722ZM29.6802 12.7378C29.6802 11.4481 30.7294 10.3989 32.0191 10.3989H61.9869C63.2765 10.3989 64.3258 11.4481 64.3258 12.7378V14.8687H29.6802V12.7378ZM67.4035 46.2369L63.2963 42.1297C62.8585 41.6919 62.0884 41.8812 61.9017 42.4697L61.2049 44.6673L58.3329 35.6456L67.3253 38.5081L65.2124 39.1626C64.62 39.3462 64.4276 40.1193 64.867 40.5588L68.9743 44.6661L67.4035 46.2369Z" fill="#2F80ED"/>
<path d="M37.8441 18.2936C37.6147 18.2629 37.3865 18.2473 37.1661 18.2473C34.366 18.2473 32.0879 20.5254 32.0879 23.3254C32.0879 26.1254 34.366 28.4035 37.1661 28.4035C39.5713 28.4035 41.664 26.6946 42.1419 24.3401C42.2342 23.8855 41.9406 23.4422 41.4859 23.3499C41.0313 23.2577 40.588 23.5512 40.4957 24.0059C40.176 25.5807 38.7757 26.7238 37.166 26.7238C35.292 26.7238 33.7676 25.1993 33.7676 23.3254C33.7676 21.4516 35.292 19.9271 37.166 19.9271C37.3122 19.9271 37.4655 19.9377 37.6215 19.9585C38.0807 20.0201 38.5038 19.6972 38.5652 19.2374C38.6267 18.7776 38.304 18.3551 37.8441 18.2936Z" fill="#2F80ED"/>
<path d="M37.1661 40.1719C39.9662 40.1719 42.2442 37.8938 42.2442 35.0938C42.2442 32.2937 39.9662 30.0156 37.1661 30.0156C34.366 30.0156 32.0879 32.2937 32.0879 35.0938C32.0879 37.8938 34.366 40.1719 37.1661 40.1719ZM37.1661 31.6953C39.0399 31.6953 40.5644 33.2198 40.5644 35.0937C40.5644 36.9676 39.0399 38.4921 37.1661 38.4921C35.2921 38.4921 33.7677 36.9676 33.7677 35.0937C33.7677 33.2199 35.2921 31.6953 37.1661 31.6953Z" fill="#2F80ED"/>
<path d="M58.7966 20.358H45.0948C44.631 20.358 44.2549 20.734 44.2549 21.1979C44.2549 21.6618 44.631 22.0378 45.0948 22.0378H58.7966C59.2604 22.0378 59.6365 21.6618 59.6365 21.1979C59.6365 20.734 59.2604 20.358 58.7966 20.358Z" fill="#2F80ED"/>
<path d="M59.6365 25.2328C59.6365 24.769 59.2604 24.3929 58.7966 24.3929H45.0948C44.631 24.3929 44.2549 24.769 44.2549 25.2328C44.2549 25.6967 44.631 26.0727 45.0948 26.0727H58.7966C59.2604 26.0727 59.6365 25.6967 59.6365 25.2328Z" fill="#2F80ED"/>
<path d="M45.0948 33.9702H52.8282C53.292 33.9702 53.6681 33.5941 53.6681 33.1303C53.6681 32.6664 53.292 32.2904 52.8282 32.2904H45.0948C44.631 32.2904 44.2549 32.6664 44.2549 33.1303C44.2549 33.5941 44.631 33.9702 45.0948 33.9702Z" fill="#2F80ED"/>
<path d="M45.0948 38.0051H53.6689C54.1327 38.0051 54.5088 37.6291 54.5088 37.1652C54.5088 36.7013 54.1327 36.3253 53.6689 36.3253H45.0948C44.631 36.3253 44.2549 36.7013 44.2549 37.1652C44.2549 37.6291 44.631 38.0051 45.0948 38.0051Z" fill="#2F80ED"/>
<path d="M36.5286 22.2379C36.2005 21.9099 35.6688 21.9099 35.3407 22.2379C35.0127 22.5659 35.0127 23.0977 35.3407 23.4258L36.6281 24.7131C36.9561 25.0411 37.4878 25.0411 37.8159 24.7131L41.8963 20.6327C42.2243 20.3047 42.2243 19.7729 41.8963 19.445C41.5684 19.117 41.0368 19.117 40.7085 19.445L37.222 22.9315L36.5286 22.2379Z" fill="#2F80ED"/>
<path d="M17.0886 33.6971C25.7478 33.6971 32.6772 26.4388 32.6772 17.5986C32.6772 8.75829 25.7478 1.5 17.0886 1.5C8.42944 1.5 1.5 8.75829 1.5 17.5986C1.5 26.4388 8.42944 33.6971 17.0886 33.6971Z" fill="#2F80ED" stroke="white" stroke-width="3"/>
<path d="M18.9634 17.36C19.9448 17.52 20.6968 17.888 21.2194 18.464C21.7421 19.0293 22.0034 19.7333 22.0034 20.576C22.0034 21.2267 21.8328 21.8293 21.4914 22.384C21.1501 22.928 20.6274 23.3653 19.9234 23.696C19.2301 24.0267 18.3768 24.192 17.3634 24.192C16.5741 24.192 15.7954 24.0907 15.0274 23.888C14.2701 23.6747 13.6248 23.376 13.0914 22.992L14.0994 21.008C14.5261 21.328 15.0168 21.5787 15.5714 21.76C16.1368 21.9307 16.7128 22.016 17.2994 22.016C17.9501 22.016 18.4621 21.8933 18.8354 21.648C19.2088 21.392 19.3954 21.0347 19.3954 20.576C19.3954 19.6587 18.6968 19.2 17.2994 19.2H16.1154V17.488L18.4194 14.88H13.6514V12.8H21.4914V14.48L18.9634 17.36Z" fill="white"/>
</svg>
