<svg width="71" height="52" viewBox="0 0 71 52" fill="none" xmlns="http://www.w3.org/2000/svg">
<path d="M66.8008 9H32.1992C29.8837 9 28 10.8837 28 13.1992V38.8984C28 41.2139 29.8837 43.0977 32.1992 43.0977H45.3008V46.9609H44.4609C43.3396 46.9609 42.2855 47.3979 41.492 48.1912C40.6987 48.9848 40.2617 50.0388 40.2617 51.1602C40.2617 51.624 40.6377 52 41.1016 52H57.8984C58.3623 52 58.7383 51.624 58.7383 51.1602C58.7383 48.8447 56.8545 46.9609 54.5391 46.9609H53.6992V43.0977H66.8008C69.1163 43.0977 71 41.2139 71 38.8984V13.1992C71 10.8837 69.1163 9 66.8008 9ZM32.1992 10.6797H66.8008C68.1901 10.6797 69.3203 11.8099 69.3203 13.1992V34.6992H65.457V15.3828C65.457 14.9189 65.0811 14.543 64.6172 14.543H57.8984C57.4346 14.543 57.0586 14.9189 57.0586 15.3828V34.6992H52.8548C52.8459 33.8305 52.8233 32.9743 52.7872 32.1436C52.6402 28.7232 52.3053 26.432 52.1311 25.4242C53.8639 24.1484 54.337 21.7837 53.2777 19.9465L50.3667 14.9048C50.2165 14.645 49.9393 14.4849 49.6394 14.4849C49.3392 14.4849 49.062 14.645 48.9121 14.9048L45.9999 19.9468C45.0013 21.679 45.3552 23.9226 46.924 25.2467C46.7423 26.2516 46.3755 28.6248 46.2161 32.142C46.1784 32.9815 46.1544 33.8384 46.1452 34.6992H41.9414V22.1016C41.9414 21.9684 41.9099 21.847 41.8584 21.7391C41.8561 21.7348 41.8548 21.7302 41.8528 21.7259L38.4935 15.0072C38.3511 14.7227 38.0604 14.543 37.7422 14.543C37.424 14.543 37.1333 14.7227 36.9909 15.0072L33.6315 21.7259C33.6296 21.7302 33.6283 21.7348 33.6263 21.7391C33.5738 21.848 33.543 21.9713 33.543 22.1016V34.6992H29.6797V13.1992C29.6797 11.8099 30.8099 10.6797 32.1992 10.6797ZM58.7383 34.6992V16.2227H63.7773V17.9023H62.9375C62.4736 17.9023 62.0977 18.2783 62.0977 18.7422C62.0977 19.2061 62.4736 19.582 62.9375 19.582H63.7773V22.1016H62.9375C62.4736 22.1016 62.0977 22.4775 62.0977 22.9414C62.0977 23.4053 62.4736 23.7812 62.9375 23.7812H63.7773V26.3008H62.9375C62.4736 26.3008 62.0977 26.6767 62.0977 27.1406C62.0977 27.6045 62.4736 27.9805 62.9375 27.9805H63.7773V31.3398H62.9375C62.4736 31.3398 62.0977 31.7158 62.0977 32.1797C62.0977 32.6436 62.4736 33.0195 62.9375 33.0195H63.7773V34.6992H58.7383ZM49.6394 26.2427C49.9445 26.2427 50.2483 26.2076 50.5455 26.142C50.7014 27.141 50.9304 28.9086 51.0658 31.3398H47.9397C48.0818 28.9102 48.3216 27.115 48.4873 26.0823C48.8593 26.1883 49.2467 26.2427 49.6394 26.2427ZM49.6394 24.563C47.7199 24.563 46.4821 22.4739 47.4548 20.7864L49.6394 17.0044L51.8227 20.786C52.7918 22.4667 51.5711 24.563 49.6394 24.563ZM47.8626 33.0195H51.1397C51.1574 33.5713 51.1695 34.1327 51.1754 34.6992H47.8249C47.8311 34.1363 47.8439 33.5749 47.8626 33.0195ZM38.582 34.6992V22.9414H40.2617V34.6992H38.582ZM35.2227 34.6992V22.9414H36.9023V34.6992H35.2227ZM35.7417 21.2617L37.7422 17.2607L39.7427 21.2617H35.7417ZM56.9146 50.3203H42.0844C42.2078 49.9703 42.4092 49.6494 42.6796 49.3788C43.1559 48.9027 43.7884 48.6406 44.4609 48.6406H54.5391C55.6341 48.6406 56.5681 49.3427 56.9146 50.3203ZM52.0195 46.9609H46.9805V43.0977H52.0195V46.9609ZM66.8008 41.418H32.1992C30.8099 41.418 29.6797 40.2878 29.6797 38.8984V36.3789H69.3203V38.8984C69.3203 40.2878 68.1901 41.418 66.8008 41.418Z" fill="#2F80ED"/>
<path d="M17.0886 33.6971C25.7478 33.6971 32.6772 26.4388 32.6772 17.5986C32.6772 8.75829 25.7478 1.5 17.0886 1.5C8.42944 1.5 1.5 8.75829 1.5 17.5986C1.5 26.4388 8.42944 33.6971 17.0886 33.6971Z" fill="#2F80ED" stroke="white" stroke-width="3"/>
<path d="M18.9639 17.36C19.9453 17.52 20.6973 17.888 21.2199 18.464C21.7426 19.0293 22.0039 19.7333 22.0039 20.576C22.0039 21.2267 21.8333 21.8293 21.4919 22.384C21.1506 22.928 20.6279 23.3653 19.9239 23.696C19.2306 24.0267 18.3773 24.192 17.3639 24.192C16.5746 24.192 15.7959 24.0907 15.0279 23.888C14.2706 23.6747 13.6253 23.376 13.0919 22.992L14.0999 21.008C14.5266 21.328 15.0173 21.5787 15.5719 21.76C16.1373 21.9307 16.7133 22.016 17.2999 22.016C17.9506 22.016 18.4626 21.8933 18.8359 21.648C19.2093 21.392 19.3959 21.0347 19.3959 20.576C19.3959 19.6587 18.6973 19.2 17.2999 19.2H16.1159V17.488L18.4199 14.88H13.6519V12.8H21.4919V14.48L18.9639 17.36Z" fill="white"/>
</svg>
