<svg width="66" height="52" viewBox="0 0 66 52" fill="none" xmlns="http://www.w3.org/2000/svg">
<path d="M63.2879 9C63.2879 9 30.4638 9 30 9C29.5362 9 30.3287 9.376 30.3287 9.83984C30.3287 10.3037 29.025 10.6797 29.4889 10.6797C29.9527 10.6797 63.2879 10.6797 63.2879 10.6797C63.8474 10.6797 64.3025 11.1338 64.3025 11.692V17.8368H24.6963V11.692C24.6963 11.1338 25.1504 10.6797 25.7086 10.6797H29.4889C29.9527 10.6797 30.3287 10.3037 30.3287 9.83984C30.3287 9.376 29.9527 9 29.4889 9H25.7086C24.2242 9 23.0166 10.2076 23.0166 11.692V49.3056C23.0166 50.7913 24.2242 52 25.7086 52H63.2879C64.7735 52 65.9822 50.7913 65.9822 49.3056V11.692C65.9822 10.2076 64.7735 9 63.2879 9ZM63.2879 50.3203H25.7086C25.1504 50.3203 24.6963 49.8651 24.6963 49.3056V19.5165H64.3025V49.3056C64.3025 49.8651 63.8473 50.3203 63.2879 50.3203Z" fill="#2F80ED"/>
<path d="M30.8652 41.1335C28.9359 41.1335 27.3662 42.7031 27.3662 44.6325C27.3662 46.5605 28.9358 48.1291 30.8652 48.1291C32.7932 48.1291 34.3617 46.5605 34.3617 44.6325C34.3617 42.7032 32.7932 41.1335 30.8652 41.1335ZM30.8652 46.4495C29.8621 46.4495 29.0459 45.6344 29.0459 44.6326C29.0459 43.6295 29.862 42.8133 30.8652 42.8133C31.8669 42.8133 32.682 43.6295 32.682 44.6326C32.682 45.6344 31.867 46.4495 30.8652 46.4495Z" fill="#2F80ED"/>
<path d="M39.954 41.1335C38.026 41.1335 36.4575 42.7031 36.4575 44.6325C36.4575 46.5605 38.0261 48.1291 39.954 48.1291C41.882 48.1291 43.4506 46.5605 43.4506 44.6325C43.4506 42.7032 41.8821 41.1335 39.954 41.1335ZM39.954 46.4495C38.9522 46.4495 38.1372 45.6344 38.1372 44.6326C38.1372 43.6295 38.9523 42.8133 39.954 42.8133C40.9558 42.8133 41.7709 43.6295 41.7709 44.6326C41.7709 45.6344 40.9559 46.4495 39.954 46.4495Z" fill="#2F80ED"/>
<path d="M49.0434 41.1335C47.1154 41.1335 45.5469 42.7031 45.5469 44.6325C45.5469 46.5605 47.1155 48.1291 49.0434 48.1291C50.9727 48.1291 52.5424 46.5605 52.5424 44.6325C52.5423 42.7032 50.9727 41.1335 49.0434 41.1335ZM49.0434 46.4495C48.0415 46.4495 47.2266 45.6344 47.2266 44.6326C47.2266 43.6295 48.0416 42.8133 49.0434 42.8133C50.0465 42.8133 50.8627 43.6295 50.8627 44.6326C50.8626 45.6344 50.0465 46.4495 49.0434 46.4495Z" fill="#2F80ED"/>
<path d="M58.1342 41.1335C56.2049 41.1335 54.6353 42.7031 54.6353 44.6325C54.6353 46.5605 56.2048 48.1291 58.1342 48.1291C60.0622 48.1291 61.6307 46.5605 61.6307 44.6325C61.6307 42.7032 60.0622 41.1335 58.1342 41.1335ZM58.1342 46.4495C57.1311 46.4495 56.3149 45.6344 56.3149 44.6326C56.3149 43.6295 57.131 42.8133 58.1342 42.8133C59.1361 42.8133 59.951 43.6295 59.951 44.6326C59.951 45.6344 59.136 46.4495 58.1342 46.4495Z" fill="#2F80ED"/>
<path d="M27.0029 37.1135C27.0332 37.5477 27.4042 37.8944 27.841 37.8944H46.6378C47.0961 37.8944 47.4788 37.512 47.4788 37.0545V22.8398C47.4788 22.376 47.1028 22 46.639 22H27.8398C27.376 22 27 22.376 27 22.8398V37.0545C27.001 37.0742 27.0019 37.0938 27.0029 37.1135ZM40.9256 36.2147L39.3609 33.7486L41.454 30.4514L45.1114 36.2147H40.9256ZM38.9364 36.2147H29.3676L34.1529 28.6757L38.9364 36.2147ZM45.7991 23.6797V34.1637L42.1633 28.4343C42.0093 28.1915 41.7417 28.0444 41.4543 28.0444C41.1668 28.0444 40.8993 28.1915 40.7452 28.4342L38.3664 32.1813L34.8622 26.6584C34.7082 26.4156 34.4406 26.2686 34.1531 26.2685C33.8656 26.2685 33.5981 26.4156 33.444 26.6583L28.6796 34.1642V23.6797H45.7991Z" fill="#2F80ED"/>
<path d="M51.3906 23.6064H60.7581C61.2219 23.6064 61.5979 23.2304 61.5979 22.7666C61.5979 22.3028 61.2219 21.9268 60.7581 21.9268H51.3906C50.9268 21.9268 50.5508 22.3028 50.5508 22.7666C50.5508 23.2304 50.9268 23.6064 51.3906 23.6064Z" fill="#2F80ED"/>
<path d="M51.3906 30.6797H60.7581C61.2219 30.6797 61.5979 30.3037 61.5979 29.8398C61.5979 29.376 61.2219 29 60.7581 29H51.3906C50.9268 29 50.5508 29.376 50.5508 29.8398C50.5508 30.3037 50.9268 30.6797 51.3906 30.6797Z" fill="#2F80ED"/>
<path d="M51.3906 37.6797H60.7581C61.2219 37.6797 61.5979 37.3037 61.5979 36.8398C61.5979 36.376 61.2219 36 60.7581 36H51.3906C50.9268 36 50.5508 36.376 50.5508 36.8398C50.5508 37.3037 50.9268 37.6797 51.3906 37.6797Z" fill="#2F80ED"/>
<path d="M16.8696 33.6971C25.4295 33.6971 32.2393 26.4162 32.2393 17.5986C32.2393 8.7809 25.4295 1.5 16.8696 1.5C8.30975 1.5 1.5 8.7809 1.5 17.5986C1.5 26.4162 8.30975 33.6971 16.8696 33.6971Z" fill="#2F80ED" stroke="white" stroke-width="3"/>
<path d="M22.9759 21.648H21.1519V24H18.6239V21.648H12.5919V19.904L17.8719 12.8H20.5919L15.6959 19.536H18.7039V17.44H21.1519V19.536H22.9759V21.648Z" fill="white"/>
</svg>
