<svg width="66" height="52" viewBox="0 0 66 52" fill="none" xmlns="http://www.w3.org/2000/svg">
<g clip-path="url(#clip0)">
<path d="M39.4833 34.0834H40.2717C40.5682 34.0839 40.8334 33.8989 40.9353 33.6204C41.0227 33.3911 41.1166 33.1668 41.2177 32.9446C41.3433 32.6744 41.2859 32.3545 41.0743 32.1448L40.5125 31.5822C39.6784 30.7408 39.6799 29.3837 40.5161 28.5443L42.5413 26.519C43.3819 25.6833 44.7395 25.6833 45.58 26.519L46.1419 27.0801C46.352 27.2909 46.6714 27.3481 46.9417 27.2234C47.1638 27.1224 47.3882 27.0285 47.6182 26.9368C47.8982 26.8356 48.0844 26.5694 48.0833 26.2717V25.4834C48.0833 24.2959 49.0459 23.3334 50.2333 23.3334H53.1C54.2874 23.3334 55.25 24.2959 55.25 25.4834V26.2717C55.2495 26.5682 55.4345 26.8335 55.713 26.9353C55.9423 27.0228 56.1666 27.1167 56.3888 27.2177C56.6591 27.3427 56.9785 27.2854 57.1886 27.0744L57.7512 26.5125C58.5916 25.6774 59.9486 25.6774 60.7891 26.5125L62.8144 28.5443C63.65 29.3848 63.65 30.7424 62.8144 31.5829L62.2533 32.1448C62.0417 32.3545 61.9843 32.6744 62.1099 32.9446C62.211 33.1668 62.3049 33.3911 62.393 33.6211C62.4956 33.9013 62.7634 34.0864 63.0617 34.0834H63.85C65.0374 34.0834 66 35.0459 66 36.2334V39.1C66 40.2875 65.0374 41.25 63.85 41.25H63.0617C62.7651 41.2495 62.4999 41.4345 62.398 41.713C62.3106 41.9423 62.2167 42.1667 62.1157 42.3888C61.9901 42.659 62.0474 42.9789 62.259 43.1886L62.8209 43.7512C63.656 44.5917 63.656 45.9487 62.8209 46.7892L60.7956 48.8145C59.955 49.6501 58.5975 49.6501 57.7569 48.8145L57.195 48.2533C56.9849 48.0425 56.6655 47.9853 56.3952 48.11C56.1731 48.211 55.9487 48.3049 55.7187 48.3966C55.4373 48.4966 55.2495 48.7631 55.25 49.0617V49.85C55.25 51.0375 54.2874 52 53.1 52H50.2333C49.0459 52 48.0833 51.0375 48.0833 49.85V49.0617C48.0839 48.7652 47.8989 48.4999 47.6204 48.3981C47.391 48.3106 47.1667 48.2168 46.9445 48.1157C46.6743 47.9907 46.3548 48.048 46.1447 48.259L45.5822 48.8209C44.7405 49.6547 43.3839 49.653 42.5442 48.8173L40.5189 46.792C39.6833 45.9515 39.6833 44.5939 40.5189 43.7534L41.0801 43.1915C41.2917 42.9818 41.349 42.6619 41.2234 42.3917C41.1224 42.1695 41.0285 41.9452 40.9367 41.7152C40.8356 41.4352 40.5693 41.249 40.2717 41.25H39.4833C38.2959 41.25 37.3333 40.2875 37.3333 39.1V36.2334C37.3333 35.0459 38.2959 34.0834 39.4833 34.0834ZM38.7667 39.1C38.7667 39.4958 39.0876 39.8167 39.4833 39.8167H40.2717C41.1626 39.82 41.9599 40.3707 42.2783 41.2027C42.3543 41.4034 42.4364 41.6009 42.5249 41.7954C42.8933 42.6088 42.7224 43.5652 42.0949 44.2006L41.5344 44.7617C41.2544 45.0414 41.2541 45.4952 41.5339 45.7753C41.5341 45.7754 41.5343 45.7756 41.5344 45.7758L43.5597 47.8011C43.8396 48.0809 44.2932 48.0809 44.5731 47.8011L45.135 47.2399C45.77 46.6119 46.7268 46.4409 47.5401 46.8099C47.7343 46.8981 47.9321 46.9805 48.1313 47.0565C48.9628 47.3749 49.5131 48.1714 49.5167 49.0617V49.85C49.5167 50.2458 49.8376 50.5667 50.2333 50.5667H53.1C53.4958 50.5667 53.8167 50.2458 53.8167 49.85V49.0617C53.82 48.1708 54.3706 47.3735 55.2027 47.055C55.4034 46.9791 55.6009 46.8969 55.7954 46.8085C56.6088 46.4402 57.5651 46.6112 58.2005 47.2385L58.7617 47.7989C59.0413 48.079 59.4952 48.0792 59.7752 47.7995C59.7754 47.7993 59.7756 47.7991 59.7757 47.7989L61.801 45.7758C62.0808 45.4959 62.0808 45.0423 61.801 44.7624L61.2399 44.2006C60.6124 43.5652 60.4414 42.6088 60.8099 41.7954C60.898 41.6012 60.9805 41.4034 61.0564 41.2042C61.3741 40.3719 62.1708 39.8206 63.0617 39.8167H63.85C64.2458 39.8167 64.5667 39.4958 64.5667 39.1V36.2334C64.5667 35.8376 64.2458 35.5167 63.85 35.5167H63.0617C62.1708 35.5134 61.3735 34.9627 61.055 34.1307C60.979 33.93 60.8969 33.7325 60.8085 33.538C60.44 32.7246 60.611 31.7682 61.2385 31.1329L61.8018 30.5717C62.0818 30.292 62.0821 29.8382 61.8023 29.5582C61.8021 29.558 61.8019 29.5578 61.8018 29.5576L59.7765 27.5323C59.4966 27.2526 59.043 27.2526 58.7631 27.5323L58.2012 28.0935C57.5662 28.7215 56.6094 28.8926 55.7961 28.5235C55.6019 28.4353 55.4041 28.3529 55.2048 28.2769C54.3723 27.9595 53.8207 27.1627 53.8167 26.2717V25.4834C53.8167 25.0876 53.4958 24.7667 53.1 24.7667H50.2333C49.8376 24.7667 49.5167 25.0876 49.5167 25.4834V26.2717C49.5134 27.1626 48.9627 27.9599 48.1306 28.2784C47.93 28.3543 47.7324 28.4365 47.5379 28.5249C46.7246 28.894 45.7679 28.723 45.1328 28.0949L44.5717 27.5345C44.2907 27.2566 43.8385 27.2566 43.5576 27.5345L41.5323 29.5598C41.2525 29.8396 41.2525 30.2933 41.5323 30.5731L42.0934 31.135C42.7209 31.7703 42.8919 32.7267 42.5234 33.5401C42.4353 33.7344 42.3529 33.9322 42.2769 34.1314C41.9585 34.9628 41.1619 35.5131 40.2717 35.5167H39.4833C39.0876 35.5167 38.7667 35.8376 38.7667 36.2334V39.1Z" fill="#2F80ED" stroke="#2F80ED" stroke-width="0.5"/>
<path d="M45.2312 37.38C45.2384 37.208 45.2506 37.0367 45.2714 36.8662C45.2943 36.6827 45.3215 36.5007 45.3595 36.3222C45.3846 36.2054 45.4176 36.09 45.4491 35.9739C45.4892 35.8263 45.5344 35.6808 45.5845 35.5375C45.6197 35.4378 45.6562 35.3389 45.6935 35.2408C45.7857 35.0113 45.8913 34.7872 46.0095 34.57C46.0188 34.5535 46.0246 34.5356 46.0339 34.5191C46.2203 34.1873 46.4362 33.8727 46.6789 33.5795C46.6997 33.5537 46.7233 33.5294 46.7448 33.5043C46.8437 33.3875 46.9455 33.2742 47.0523 33.166C47.1082 33.108 47.1669 33.0535 47.2257 32.9976C47.2974 32.9309 47.369 32.865 47.4407 32.8019C47.5277 32.7264 47.6163 32.6533 47.7066 32.5826L47.8241 32.4952C48.9331 31.6646 50.2814 31.216 51.6669 31.2167C51.7386 31.2167 51.8102 31.2274 51.8819 31.2303C52.0345 31.2346 52.1879 31.2432 52.342 31.259C52.423 31.2676 52.5047 31.2769 52.5857 31.2883C52.8193 31.3191 53.0511 31.3624 53.2801 31.4181C56.7309 32.3098 58.8055 35.8302 57.9138 39.2811C57.3261 41.5551 55.5495 43.3302 53.2751 43.916C53.2636 43.916 53.2514 43.9196 53.2393 43.9225C52.9917 43.9842 52.741 44.0321 52.4882 44.0658C52.3212 44.0866 52.1542 44.0909 51.9865 44.0988C51.8747 44.1045 51.7715 44.121 51.6547 44.121C51.4505 44.121 51.2383 44.1074 51.0219 44.0859C50.999 44.0859 50.976 44.0794 50.9502 44.0766C50.7761 44.0572 50.5998 44.0314 50.4199 43.9956C50.3482 43.982 50.2816 43.964 50.2128 43.9483C50.0866 43.9189 49.9612 43.8881 49.8322 43.8501C49.7319 43.82 49.6344 43.7849 49.5362 43.7505C49.4381 43.7161 49.3363 43.6788 49.2345 43.6401C49.1328 43.6014 49.0475 43.557 48.955 43.514C48.8346 43.4588 48.7149 43.4043 48.5967 43.3398H48.5924C47.9236 42.9818 47.3058 42.5356 46.7556 42.0133C46.607 41.8746 46.4777 41.7164 46.3714 41.5431C45.8121 40.6464 45.4446 39.6435 45.2921 38.5976C45.2721 38.4593 45.2542 38.321 45.2434 38.1798C45.2334 38.0501 45.2262 37.9211 45.2233 37.7921C45.2233 37.7512 45.2176 37.7126 45.2176 37.6717C45.2169 37.5706 45.2269 37.4775 45.2312 37.38ZM46.6595 37.8494C46.6595 37.9089 46.6646 37.9684 46.6681 38.0272C46.681 38.2006 46.7033 38.374 46.7326 38.5482C47.0005 40.0382 47.9256 41.3282 49.251 42.0599C49.3399 42.1064 49.4273 42.1502 49.5147 42.1903L49.5742 42.219C49.9906 42.408 50.4301 42.541 50.8814 42.6146C50.913 42.6196 50.9452 42.6253 50.9775 42.6296C51.067 42.6425 51.1552 42.6533 51.2426 42.6611C51.358 42.6712 51.4741 42.6769 51.5924 42.6791C51.6425 42.6791 51.692 42.6791 51.7421 42.6791C51.9117 42.6771 52.081 42.6666 52.2495 42.6475L52.3355 42.6375C52.5326 42.6117 52.7281 42.5749 52.9211 42.5271C55.6052 41.8401 57.2241 39.1073 56.5372 36.4232C56.0833 34.6496 54.6992 33.2641 52.9261 32.8084V32.8077C52.5143 32.7039 52.0915 32.6508 51.6669 32.65C51.462 32.6512 51.2573 32.6651 51.0541 32.6916C50.9997 32.698 50.9459 32.7081 50.8922 32.7159C50.7374 32.7403 50.584 32.7711 50.4328 32.8098C50.3833 32.8227 50.3339 32.8342 50.2852 32.8478C49.9041 32.9578 49.5372 33.1123 49.1922 33.3079C49.1371 33.3402 49.0833 33.3738 49.0288 33.4075C48.9156 33.4792 48.806 33.5509 48.6977 33.6326C48.6397 33.6748 48.5809 33.7164 48.525 33.7616C48.3844 33.8739 48.2497 33.9935 48.1215 34.1199C48.0707 34.1715 48.0241 34.2281 47.9746 34.2819C47.8922 34.3714 47.8119 34.4632 47.7353 34.5599C47.6822 34.6266 47.6313 34.6954 47.5812 34.7649C47.5095 34.8681 47.4378 34.9756 47.3733 35.0845C47.3375 35.144 47.3017 35.2021 47.2651 35.263C47.1727 35.4331 47.0903 35.6085 47.0186 35.7883C46.9899 35.86 46.9656 35.9316 46.9398 36.0033C46.8932 36.1352 46.853 36.2685 46.8179 36.4032C46.8 36.4749 46.7799 36.5386 46.7649 36.6082C46.7231 36.8018 46.6927 36.9979 46.6739 37.1951C46.6696 37.2474 46.6696 37.3005 46.666 37.3528C46.656 37.5176 46.6531 37.6832 46.6595 37.8494Z" fill="#2F80ED" stroke="#2F80ED" stroke-width="0.5"/>
<path d="M25.1498 24.05H27.4037C27.7042 24.053 27.9731 23.8638 28.0716 23.5799C28.2939 22.9142 28.5628 22.2649 28.8764 21.637C29.0096 21.3658 28.9541 21.0398 28.7388 20.8279L27.1407 19.2276C26.3018 18.3881 26.3018 17.0277 27.1407 16.1882L30.1879 13.1459C31.0274 12.3071 32.3878 12.3071 33.2273 13.1459L34.8248 14.7427C35.0365 14.9578 35.362 15.0136 35.6332 14.881C36.2611 14.5657 36.9106 14.2954 37.5768 14.0719C37.8618 13.9743 38.0525 13.7052 38.0498 13.4039V11.15C38.0498 9.96257 39.0123 9 40.1998 9H44.4998C45.6872 9 46.6498 9.96257 46.6498 11.15V13.4039C46.6467 13.7045 46.8359 13.9733 47.1199 14.0719C47.7857 14.2953 48.435 14.5655 49.0628 14.8802C49.334 15.0138 49.6601 14.9584 49.8719 14.7427L51.4722 13.1445C52.3127 12.308 53.6711 12.308 54.5116 13.1445L57.5531 16.186C58.3924 17.0256 58.3924 18.3865 57.5531 19.2261L55.2032 21.5804C54.9189 21.8557 54.4652 21.8486 54.1898 21.5642C53.9212 21.2869 53.9205 20.8465 54.1884 20.5684L56.5398 18.2149C56.8195 17.935 56.8195 17.4814 56.5398 17.2015L53.4982 14.16C53.2184 13.8802 52.7647 13.8802 52.4849 14.16L50.8838 15.7582C50.2361 16.4098 49.2435 16.5727 48.4214 16.1624C47.8537 15.8781 47.2667 15.6341 46.6648 15.4321C45.796 15.138 45.2127 14.3212 45.2164 13.4039V11.15C45.2164 10.7542 44.8955 10.4333 44.4998 10.4333H40.1998C39.804 10.4333 39.4831 10.7542 39.4831 11.15V13.4039C39.4868 14.321 38.9034 15.1375 38.0347 15.4314C37.4325 15.6335 36.8453 15.8777 36.2775 16.1624C35.4552 16.5705 34.4639 16.4075 33.8157 15.7575L32.2147 14.16C31.9348 13.8802 31.4812 13.8802 31.2013 14.16L28.1598 17.2023C27.8804 17.482 27.8804 17.9351 28.1598 18.2149L29.7579 19.8159C30.4089 20.4641 30.5717 21.4562 30.1621 22.2784C29.8779 22.8461 29.6339 23.433 29.4319 24.035C29.1379 24.9039 28.321 25.4873 27.4037 25.4833H25.1498C24.754 25.4833 24.4331 25.8042 24.4331 26.2V30.5C24.4331 30.8958 24.754 31.2167 25.1498 31.2167H27.4037C28.3208 31.213 29.1373 31.7964 29.4311 32.6651C29.6331 33.2672 29.8774 33.8544 30.1621 34.4223C30.571 35.2445 30.4079 36.2361 29.7572 36.8841L28.1591 38.4851C27.8793 38.765 27.8793 39.2186 28.1591 39.4985L31.202 42.54C31.4818 42.8193 31.9349 42.8193 32.2147 42.54L34.5696 40.1901C34.845 39.9057 35.2988 39.8985 35.583 40.1739C35.8673 40.4493 35.8745 40.903 35.5991 41.1873C35.5934 41.1932 35.5875 41.1991 35.5816 41.2049L33.2273 43.5548C32.3878 44.3937 31.0274 44.3937 30.1879 43.5548L27.1464 40.514C26.3071 39.6744 26.3071 38.3135 27.1464 37.4739L28.7424 35.875C28.9574 35.6632 29.0131 35.3378 28.8807 35.0666C28.5655 34.4386 28.2951 33.7891 28.0716 33.123C27.9741 32.8379 27.705 32.6473 27.4037 32.65H25.1498C23.9623 32.65 22.9998 31.6874 22.9998 30.5V26.2C22.9998 25.0126 23.9623 24.05 25.1498 24.05Z" fill="#2F80ED" stroke="#2F80ED" stroke-width="0.5"/>
<path d="M35.7623 21.7624C39.4028 18.1295 45.297 18.1295 48.9375 21.7624C49.2125 22.0471 49.2046 22.5008 48.9199 22.7757C48.6422 23.044 48.2019 23.044 47.9242 22.7757C44.8662 19.6765 39.8749 19.6431 36.7757 22.701C33.6765 25.759 33.643 30.7503 36.701 33.8495C36.7257 33.8746 36.7506 33.8995 36.7757 33.9242C37.0604 34.1992 37.0683 34.6529 36.7932 34.9376C36.5182 35.2223 36.0646 35.2302 35.7799 34.9551C35.774 34.9494 35.768 34.9435 35.7623 34.9376C32.1294 31.2971 32.1294 25.4029 35.7623 21.7624Z" fill="#2F80ED" stroke="#2F80ED" stroke-width="0.5"/>
</g>
<path d="M17.2036 33.6971C25.7635 33.6971 32.5732 26.4162 32.5732 17.5986C32.5732 8.7809 25.7635 1.5 17.2036 1.5C8.64373 1.5 1.83398 8.7809 1.83398 17.5986C1.83398 26.4162 8.64373 33.6971 17.2036 33.6971Z" fill="#2F80ED" stroke="white" stroke-width="3"/>
<path d="M17.6517 17.008C19.2304 17.008 20.3931 17.3227 21.1397 17.952C21.8971 18.5813 22.2757 19.424 22.2757 20.48C22.2757 21.1627 22.1051 21.7867 21.7637 22.352C21.4224 22.9067 20.8997 23.3547 20.1957 23.696C19.5024 24.0267 18.6437 24.192 17.6197 24.192C16.8304 24.192 16.0517 24.0907 15.2837 23.888C14.5264 23.6747 13.8811 23.376 13.3477 22.992L14.3717 21.008C14.7984 21.328 15.2891 21.5787 15.8437 21.76C16.3984 21.9307 16.9691 22.016 17.5557 22.016C18.2064 22.016 18.7184 21.888 19.0917 21.632C19.4651 21.376 19.6517 21.0187 19.6517 20.56C19.6517 20.08 19.4544 19.7173 19.0597 19.472C18.6757 19.2267 18.0037 19.104 17.0437 19.104H14.1797L14.7557 12.8H21.5877V14.88H16.9157L16.7397 17.008H17.6517Z" fill="white"/>
<defs>
<clipPath id="clip0">
<rect width="43" height="43" fill="white" transform="matrix(-1 0 0 1 66 9)"/>
</clipPath>
</defs>
</svg>
