<svg width="71" height="52" viewBox="0 0 71 52" fill="none" xmlns="http://www.w3.org/2000/svg">
<path d="M33.3734 14.3121C33.1977 13.8904 32.6992 13.6827 32.2766 13.8586C31.854 14.0345 31.6469 14.5321 31.8222 14.9554C31.997 15.3777 32.4974 15.584 32.919 15.4089C33.3431 15.2329 33.5473 14.7362 33.3734 14.3121Z" fill="#2F80ED"/>
<path d="M36.2463 14.3128C36.0728 13.8894 35.571 13.6837 35.1494 13.8585C34.7266 14.0338 34.5203 14.5313 34.6951 14.9545C34.8696 15.3772 35.3694 15.5848 35.792 15.4088C36.2134 15.2334 36.4225 14.7355 36.2463 14.3128Z" fill="#2F80ED"/>
<path d="M39.2878 14.313C39.1142 13.8893 38.6124 13.6845 38.1909 13.8586C37.7677 14.0334 37.562 14.5318 37.7366 14.9546C37.9112 15.3773 38.4109 15.5848 38.8335 15.4089C39.2548 15.2336 39.4639 14.7355 39.2878 14.313Z" fill="#2F80ED"/>
<path d="M70.756 46.0722L67.039 42.3552L70.377 41.3212C70.7235 41.2138 70.967 40.8849 70.9683 40.5222C70.9697 40.1595 70.7289 39.8286 70.3832 39.7186L66.0047 38.3248V24.8125C66.0047 24.3487 65.6286 25.6524 65.1648 25.6524C64.701 25.6524 64.3249 23.5363 64.3249 24.0001C64.3249 24.464 64.3249 37.7901 64.3249 37.7901L57.2946 35.552C56.6565 35.3492 56.0368 35.9715 56.2393 36.6072L58.5823 43.9664H32.0191C30.7291 43.9664 29.6798 42.917 29.6798 41.6272V18.5486H64.3249V24.8125C64.3249 25.2764 64.701 25.6524 65.1648 25.6524C65.6286 25.6524 66.0047 25.2764 66.0047 24.8125L66.0055 14.7378C66.0055 12.5219 64.2027 10.7191 61.9868 10.7191H32.0191C29.8031 10.7191 28.0004 12.5219 28.0004 14.7378L28 41.6272C28 43.8433 29.803 45.6462 32.0191 45.6462H59.1171L60.4062 49.6957C60.5159 50.0403 60.8451 50.281 61.2067 50.2809C61.5684 50.2808 61.8978 50.0398 62.007 49.6948L63.0854 46.2943L66.8096 50.0185C67.1376 50.3466 67.6693 50.3466 67.9974 50.0185L70.7561 47.2599C71.0813 46.9472 71.0813 46.3849 70.756 46.0722ZM29.6802 14.7378C29.6802 13.4481 30.7294 12.3989 32.0191 12.3989H61.9869C63.2765 12.3989 64.3258 13.4481 64.3258 14.7378V16.8687H29.6802V14.7378ZM67.4035 48.2369L63.2963 44.1297C62.8585 43.6919 62.0884 43.8812 61.9017 44.4697L61.2049 46.6673L58.3329 37.6456L67.3253 40.5081L65.2124 41.1626C64.62 41.3462 64.4276 42.1193 64.867 42.5588L68.9743 46.6661L67.4035 48.2369Z" fill="#2F80ED"/>
<path d="M37.8436 20.2936C37.6143 20.2629 37.3861 20.2473 37.1656 20.2473C34.3655 20.2473 32.0874 22.5254 32.0874 25.3254C32.0874 28.1254 34.3655 30.4035 37.1656 30.4035C39.5708 30.4035 41.6635 28.6946 42.1414 26.3401C42.2337 25.8855 41.9401 25.4422 41.4854 25.3499C41.0308 25.2577 40.5875 25.5512 40.4952 26.0059C40.1755 27.5807 38.7752 28.7238 37.1655 28.7238C35.2916 28.7238 33.7671 27.1993 33.7671 25.3254C33.7671 23.4516 35.2916 21.9271 37.1655 21.9271C37.3117 21.9271 37.465 21.9377 37.621 21.9585C38.0802 22.0201 38.5033 21.6972 38.5648 21.2374C38.6262 20.7776 38.3035 20.3551 37.8436 20.2936Z" fill="#2F80ED"/>
<path d="M37.1656 42.1719C39.9657 42.1719 42.2437 39.8938 42.2437 37.0938C42.2437 34.2937 39.9657 32.0156 37.1656 32.0156C34.3655 32.0156 32.0874 34.2937 32.0874 37.0938C32.0874 39.8938 34.3655 42.1719 37.1656 42.1719ZM37.1656 33.6953C39.0395 33.6953 40.5639 35.2198 40.5639 37.0937C40.5639 38.9676 39.0395 40.4921 37.1656 40.4921C35.2916 40.4921 33.7672 38.9676 33.7672 37.0937C33.7672 35.2199 35.2916 33.6953 37.1656 33.6953Z" fill="#2F80ED"/>
<path d="M58.7971 22.358H45.0953C44.6315 22.358 44.2554 22.734 44.2554 23.1979C44.2554 23.6618 44.6315 24.0378 45.0953 24.0378H58.7971C59.2609 24.0378 59.637 23.6618 59.637 23.1979C59.637 22.734 59.2609 22.358 58.7971 22.358Z" fill="#2F80ED"/>
<path d="M59.637 27.2328C59.637 26.769 59.2609 26.3929 58.7971 26.3929H45.0953C44.6315 26.3929 44.2554 26.769 44.2554 27.2328C44.2554 27.6967 44.6315 28.0727 45.0953 28.0727H58.7971C59.2609 28.0727 59.637 27.6967 59.637 27.2328Z" fill="#2F80ED"/>
<path d="M45.0953 35.9702H52.8287C53.2925 35.9702 53.6686 35.5941 53.6686 35.1303C53.6686 34.6664 53.2925 34.2904 52.8287 34.2904H45.0953C44.6315 34.2904 44.2554 34.6664 44.2554 35.1303C44.2554 35.5941 44.6315 35.9702 45.0953 35.9702Z" fill="#2F80ED"/>
<path d="M45.0953 40.0051H53.6694C54.1332 40.0051 54.5093 39.6291 54.5093 39.1652C54.5093 38.7013 54.1332 38.3253 53.6694 38.3253H45.0953C44.6315 38.3253 44.2554 38.7013 44.2554 39.1652C44.2554 39.6291 44.6315 40.0051 45.0953 40.0051Z" fill="#2F80ED"/>
<path d="M36.529 24.2379C36.201 23.9099 35.6693 23.9099 35.3412 24.2379C35.0132 24.5659 35.0132 25.0977 35.3412 25.4258L36.6286 26.7131C36.9566 27.0411 37.4883 27.0411 37.8164 26.7131L41.8968 22.6327C42.2248 22.3047 42.2248 21.7729 41.8968 21.445C41.5689 21.117 41.0373 21.117 40.709 21.445L37.2224 24.9315L36.529 24.2379Z" fill="#2F80ED"/>
<path d="M16.8696 33.6971C25.4295 33.6971 32.2393 26.4162 32.2393 17.5986C32.2393 8.7809 25.4295 1.5 16.8696 1.5C8.30975 1.5 1.5 8.7809 1.5 17.5986C1.5 26.4162 8.30975 33.6971 16.8696 33.6971Z" fill="#2F80ED" stroke="white" stroke-width="3"/>
<path d="M18.5338 16.976C19.2485 16.976 19.8992 17.12 20.4858 17.408C21.0725 17.696 21.5365 18.1067 21.8778 18.64C22.2192 19.1627 22.3898 19.7707 22.3898 20.464C22.3898 21.2107 22.2032 21.8667 21.8298 22.432C21.4565 22.9973 20.9445 23.4347 20.2938 23.744C19.6538 24.0427 18.9392 24.192 18.1498 24.192C16.5818 24.192 15.3552 23.712 14.4698 22.752C13.5845 21.792 13.1418 20.4213 13.1418 18.64C13.1418 17.3707 13.3818 16.2827 13.8618 15.376C14.3418 14.4693 15.0085 13.7813 15.8618 13.312C16.7258 12.8427 17.7232 12.608 18.8538 12.608C19.4512 12.608 20.0218 12.6773 20.5658 12.816C21.1205 12.944 21.5898 13.1307 21.9738 13.376L21.0138 15.28C20.4592 14.9067 19.7605 14.72 18.9178 14.72C17.9685 14.72 17.2165 14.9973 16.6618 15.552C16.1072 16.1067 15.8085 16.912 15.7658 17.968C16.4272 17.3067 17.3498 16.976 18.5338 16.976ZM18.0058 22.256C18.5605 22.256 19.0085 22.1067 19.3498 21.808C19.7018 21.5093 19.8778 21.104 19.8778 20.592C19.8778 20.08 19.7018 19.6747 19.3498 19.376C19.0085 19.0667 18.5498 18.912 17.9738 18.912C17.4085 18.912 16.9445 19.072 16.5818 19.392C16.2192 19.7013 16.0378 20.1013 16.0378 20.592C16.0378 21.0827 16.2138 21.4827 16.5658 21.792C16.9178 22.1013 17.3978 22.256 18.0058 22.256Z" fill="white"/>
</svg>
