<svg width="48" height="55" viewBox="0 0 48 55" fill="none" xmlns="http://www.w3.org/2000/svg">
<path d="M23.7211 55C23.5187 54.9999 23.3205 54.9449 23.1496 54.8414C8.43588 45.9234 1.22283e-06 33.0159 1.22283e-06 19.4295V9.65255C-0.000411841 9.39239 0.103836 9.14198 0.291277 8.9529C0.478718 8.76381 0.73508 8.65044 1.00757 8.63613C9.14388 8.3904 16.9307 5.42624 23.0067 0.261869C23.2027 0.0933061 23.4572 0 23.7211 0C23.985 0 24.2395 0.0933061 24.4355 0.261869C30.5106 5.42557 38.2962 8.38969 46.4314 8.63613C46.7039 8.65044 46.9603 8.76381 47.1477 8.9529C47.3352 9.14198 47.4394 9.39239 47.439 9.65255V19.4274C47.3527 26.7543 44.9944 33.893 40.6611 39.9448C36.3433 45.9352 30.7699 51.0074 24.2926 54.8414C24.1217 54.9449 23.9235 54.9999 23.7211 55ZM2.13243 10.607V19.4295C2.13243 32.1347 9.99041 44.2534 23.7211 52.7751C29.7099 49.1448 34.8685 44.3996 38.888 38.8237C42.9885 33.1051 45.2229 26.358 45.3098 19.4315V10.609C37.3662 10.1692 29.7885 7.27722 23.7211 2.36992C17.6534 7.27649 10.0757 10.1677 2.13243 10.607Z" fill="#264B93"/>
<path d="M19.2589 36.0664C18.9762 36.0663 18.705 35.9592 18.5051 35.7686L12.3467 29.8977C12.1524 29.706 12.045 29.4493 12.0474 29.1828C12.0498 28.9163 12.162 28.6613 12.3597 28.4729C12.5573 28.2844 12.8248 28.1776 13.1043 28.1752C13.3839 28.1729 13.6532 28.2754 13.8543 28.4605L19.2589 33.6148L33.6709 19.8738C33.8716 19.6832 34.1434 19.5764 34.4266 19.5769C34.7099 19.5774 34.9813 19.6851 35.1812 19.8764C35.3811 20.0676 35.4932 20.3268 35.4927 20.5968C35.4922 20.8668 35.3792 21.1255 35.1786 21.3161L20.0127 35.7686C19.8128 35.9592 19.5417 36.0663 19.2589 36.0664Z" fill="#264B93"/>
</svg>
