<svg width="57" height="52" viewBox="0 0 57 52" fill="none" xmlns="http://www.w3.org/2000/svg">
<path d="M55.9998 7.80559C55.9998 7.79957 55.999 7.79355 55.9988 7.78743C55.9982 7.76348 55.9968 7.73984 55.994 7.71643C55.9929 7.70783 55.9913 7.69924 55.99 7.69064C55.9868 7.66905 55.9828 7.64778 55.9779 7.62694C55.9759 7.61867 55.9738 7.61051 55.9715 7.60224C55.9653 7.57957 55.9582 7.55733 55.9501 7.53542C55.9486 7.53123 55.9476 7.52693 55.946 7.52285L53.7605 1.92812C53.5402 1.36437 53.0066 1 52.4013 1H48.4219C47.9882 1 47.6366 1.35159 47.6366 1.78536C47.6366 2.21913 47.9882 2.57072 48.4219 2.57072H52.3252L54.0645 7.02323H37.621L36.5907 2.57072H48.4219C48.8557 2.57072 47.6366 2.21913 47.6366 1.78536C47.6366 1.35159 48.8557 1 48.4219 1H35.6029H27.6895H10.891C10.2856 1 9.75211 1.36437 9.53179 1.92834L7.3463 7.52285C7.34469 7.52704 7.34383 7.53134 7.34222 7.53542C7.33405 7.55723 7.32696 7.57946 7.32073 7.60224C7.31848 7.61051 7.31633 7.61867 7.31439 7.62694C7.30945 7.64789 7.30548 7.66916 7.30225 7.69064C7.30097 7.69924 7.29935 7.70783 7.29828 7.71643C7.29559 7.73984 7.29409 7.76348 7.29345 7.78743C7.29334 7.79345 7.29259 7.79946 7.29248 7.80559L7.29237 7.80849V21.9861C7.29237 22.4199 7.87803 22.0421 8.3118 22.0421C8.52587 22.3007 8.86309 23.0975 8.86309 22.6637V8.59395H25.5104V20.5315C25.5104 20.9984 25.7854 21.4237 26.2111 21.6153C26.367 21.6854 26.533 21.7197 26.6979 21.7197C26.9832 21.7197 27.2654 21.6172 27.4867 21.4211L31.6461 17.7361L35.8056 21.4209C36.1548 21.7306 36.6556 21.8068 37.0813 21.6153C37.507 21.4236 37.7819 20.9984 37.7819 20.5315V8.59395H54.4292V43.82C54.4292 44.3835 53.9706 44.8421 53.4071 44.8421H39.0069C39.0069 44.8332 39.0058 44.8242 39.0057 44.8153C39.0048 44.7449 39.0023 44.6745 38.9962 44.6047C40.3484 44.9631 41.7931 44.2682 42.3349 42.9394C42.6199 42.2404 42.6157 41.4724 42.323 40.7767C42.2954 40.7112 42.265 40.6476 42.233 40.585C42.2271 40.5735 42.2214 40.5619 42.2155 40.5505C42.184 40.4907 42.1505 40.4324 42.1151 40.3756C42.1082 40.3645 42.1012 40.3538 42.0942 40.3428C42.0568 40.2845 42.018 40.2272 41.9767 40.1721L41.9743 40.1691C41.9333 40.1147 41.8899 40.0622 41.8451 40.011C41.8369 40.0017 41.8288 39.9922 41.8206 39.9829C41.7762 39.9334 41.7301 39.8856 41.6824 39.8396C41.6731 39.8305 41.6636 39.8218 41.6542 39.813C41.6042 39.7661 41.5531 39.7204 41.4998 39.6774C41.498 39.676 41.4962 39.6746 41.4943 39.6732C41.4419 39.6309 41.3874 39.591 41.3319 39.5525C41.3219 39.5455 41.312 39.5385 41.3018 39.5316C41.2463 39.4942 41.1894 39.4589 41.1309 39.4252C41.1261 39.4224 41.1217 39.4192 41.1167 39.4164C41.4487 39.1292 41.7107 38.7657 41.8813 38.3474C42.1663 37.6484 42.1621 36.8803 41.8693 36.1845C41.6132 35.5758 41.163 35.0862 40.5864 34.7824C40.504 34.739 40.419 34.6993 40.3317 34.6638L28.1085 29.6797L33.7982 27.9187C35.1518 27.4996 35.9142 26.0559 35.4976 24.7005C35.3422 24.1946 35.034 23.7679 34.6359 23.456C34.0435 22.9919 33.2517 22.7823 32.4664 22.9472C32.4626 22.9481 32.459 22.9487 32.4552 22.9497C32.4117 22.9594 28.05 23.9402 23.4946 24.8285C23.2925 24.8679 23.0956 24.9059 22.9015 24.9433C22.7461 24.9732 22.593 25.0026 22.4427 25.0312C22.3995 25.0394 22.3562 25.0476 22.3133 25.0558C22.048 25.1062 21.791 25.1544 21.5411 25.2008C21.4405 25.2195 21.3409 25.238 21.2428 25.256C15.5218 26.3099 13.9147 26.3288 13.4687 26.2685L13.4637 26.2677C13.457 26.2667 13.4503 26.2658 13.4441 26.2648C13.4396 26.264 13.4354 26.2633 13.4312 26.2626C13.4282 26.2621 13.425 26.2616 13.4221 26.2611C13.3942 26.2561 13.3725 26.2508 13.3558 26.2458L13.2271 26.1934L13.3875 25.8001C13.5452 25.4134 13.5428 24.9884 13.3809 24.6035C13.3404 24.5073 13.2911 24.4164 13.234 24.3317C13.0625 24.0779 12.8201 23.8803 12.53 23.762L8.3118 22.0421C7.92519 21.8843 7.50012 21.8867 7.11523 22.0486C6.73023 22.2105 6.4315 22.5127 6.2738 22.8993L1.11574 35.5496C0.790251 36.3478 1.17493 37.262 1.97318 37.5876L6.19152 39.3076C6.38412 39.3861 6.58339 39.4233 6.77965 39.4233C7.39657 39.4233 7.98245 39.0557 8.22941 38.4502L8.26819 38.3551L9.24078 38.7516L9.2425 38.7523C10.1728 39.1316 11.0299 39.6728 11.7717 40.3444C11.9067 40.4666 12.0377 40.593 12.1648 40.7235C12.2919 40.854 12.4148 40.9888 12.5335 41.1273C12.5928 41.1966 12.6511 41.267 12.7081 41.3382C13.7891 42.6861 15.2062 43.7435 16.8061 44.3958L17.9003 44.842H9.88531C9.32178 44.842 8.8632 44.3834 8.8632 43.8198C8.8632 43.8198 8.8632 38.8839 8.8632 38.4502C8.8632 38.0164 8.26819 38.3551 8.26819 38.3551C8.26819 38.3551 7.29248 38.3907 7.29248 38.8244V43.8198C7.29248 45.2495 8.45553 46.4127 9.88531 46.4127H21.7525L31.8696 50.5379C32.2178 50.6799 32.5781 50.7472 32.9329 50.7471C34.0479 50.7471 35.1068 50.0827 35.5532 48.9882C35.7362 48.5393 35.795 48.0701 35.7457 47.619C36.2719 47.6945 36.8175 47.6253 37.3121 47.4117C37.8147 47.1946 38.2313 46.8488 38.5271 46.4126H53.4072C54.8368 46.4126 56 45.2495 56 43.8197V7.80859L55.9998 7.80559ZM28.3138 2.57072H34.9785L36.0087 7.02323H27.2835L28.3138 2.57072ZM25.6713 7.02323H9.22779L10.967 2.57072H26.7016L25.6713 7.02323ZM36.2114 19.6819L32.4342 16.3357C32.2096 16.1368 31.9279 16.0373 31.6463 16.0373C31.3647 16.0373 31.0829 16.1368 30.8583 16.3357L27.0813 19.6819V8.59395H36.2114V19.6819ZM6.77772 37.8503L2.57291 36.1359L7.7255 23.4993L11.9303 25.2139L6.77772 37.8503ZM38.1539 42.5899L37.2526 42.2223L37.2513 42.2217L37.25 42.2212L27.8629 38.3937C27.4613 38.2299 27.0029 38.4227 26.8391 38.8244C26.6753 39.2261 26.8681 39.6844 27.2699 39.8483L36.6572 43.6759C36.6965 43.6919 36.7344 43.7096 36.771 43.7291C36.7813 43.7346 36.7909 43.7412 36.801 43.7469C36.8268 43.7615 36.8526 43.7761 36.877 43.7923C36.8887 43.8002 36.8995 43.8092 36.9109 43.8174C36.9325 43.8328 36.9545 43.8481 36.9749 43.8649C36.9872 43.875 36.9984 43.8862 37.0103 43.8968C37.0286 43.913 37.0473 43.9287 37.0645 43.9459C37.0764 43.9577 37.087 43.9707 37.0984 43.9829C37.1142 43.9999 37.1304 44.0165 37.1453 44.0344C37.1565 44.048 37.1664 44.0625 37.1772 44.0766C37.1906 44.0942 37.2046 44.1115 37.2169 44.1298C37.2273 44.145 37.2362 44.1611 37.2459 44.1767C37.2571 44.1947 37.2689 44.2125 37.2791 44.2311C37.2883 44.2478 37.2961 44.2653 37.3046 44.2824C37.3136 44.3008 37.3234 44.3188 37.3315 44.3376C37.3394 44.3557 37.3457 44.3744 37.3527 44.3927C37.3598 44.4113 37.3675 44.4296 37.3737 44.4485C37.38 44.4675 37.3847 44.4869 37.39 44.5062C37.3952 44.5252 37.4011 44.5439 37.4055 44.5631C37.4099 44.5825 37.4127 44.6023 37.4163 44.6219C37.4198 44.6414 37.4239 44.6607 37.4265 44.6805C37.4291 44.7003 37.43 44.7202 37.4316 44.7401C37.4333 44.7601 37.4356 44.78 37.4363 44.8C37.4369 44.8196 37.4359 44.8395 37.4357 44.8593C37.4355 44.8797 37.4358 44.9001 37.4345 44.9206C37.4334 44.94 37.4305 44.9595 37.4283 44.9789C37.4261 44.9999 37.4243 45.0208 37.4209 45.0417C37.4178 45.0608 37.413 45.0798 37.409 45.0989C37.4045 45.1201 37.4007 45.1412 37.395 45.1623C37.3901 45.1809 37.3834 45.1994 37.3775 45.2178C37.3708 45.2389 37.3647 45.2599 37.3569 45.2807C37.3502 45.295 37.3437 45.3094 37.3375 45.3239C37.3361 45.3272 37.3354 45.3306 37.3341 45.3338C37.2114 45.6171 36.985 45.8422 36.6893 45.9699C36.3638 46.1103 35.9911 46.1152 35.6667 45.9829L34.0035 45.3047C33.9958 45.3016 33.9879 45.2995 33.9802 45.2966C33.9723 45.293 33.9649 45.2889 33.957 45.2857L26.3219 42.1725C25.92 42.0088 25.4619 42.2015 25.2982 42.6033C25.1343 43.0049 25.3272 43.4633 25.7288 43.6271L33.3639 46.7403C33.3721 46.7436 33.3803 46.746 33.3886 46.749C33.396 46.7522 33.4029 46.7562 33.4105 46.7592C34.0513 47.0206 34.3601 47.7545 34.0989 48.3952C33.8375 49.0362 33.104 49.3452 32.4629 49.0836L22.2046 44.9008L22.2033 44.9002L17.3995 42.9414C16.5538 42.5965 15.7686 42.118 15.0754 41.5292C14.6595 41.1759 14.2767 40.783 13.9338 40.3555C13.596 39.9343 13.2254 39.5415 12.8266 39.1804C11.9493 38.3862 10.9358 37.7463 9.8359 37.2977L8.86169 36.9006L10.8014 32.1434L12.6344 27.648L12.7697 27.7031C12.897 27.755 13.0785 27.8286 13.5671 27.8471C14.1775 27.8747 15.1872 27.811 16.9962 27.5555C18.2267 27.3817 19.7361 27.1303 21.4981 26.8061C21.5415 26.7981 21.5846 26.7902 21.6284 26.7821C21.7108 26.7669 21.7941 26.7514 21.8776 26.736C21.9426 26.7239 22.0079 26.7117 22.0738 26.6993C22.1488 26.6852 22.2241 26.6712 22.2999 26.6569C22.3804 26.6417 22.4618 26.6264 22.5437 26.6108C22.6092 26.5983 22.6746 26.586 22.7408 26.5734C22.8406 26.5544 22.9421 26.535 23.0439 26.5154C23.0963 26.5053 23.1482 26.4954 23.2011 26.4853C23.3571 26.4553 23.5151 26.4248 23.676 26.3935C28.2157 25.5105 32.5975 24.5277 32.7944 24.4834C32.814 24.4793 32.8337 24.477 32.8533 24.4741C33.3578 24.3994 33.852 24.6912 33.9967 25.1619C34.0475 25.3273 34.0535 25.4961 34.0214 25.6549C33.9511 26.0043 33.6971 26.3058 33.3342 26.4181L25.548 28.828C25.231 28.9262 25.01 29.2127 24.9957 29.5442C24.9813 29.8756 25.1766 30.1803 25.4838 30.3056L39.7391 36.1183C40.0495 36.2448 40.2921 36.4847 40.4221 36.7937C40.552 37.1028 40.554 37.4439 40.4273 37.7543C40.3007 38.0647 40.0609 38.3073 39.7518 38.4373C39.5974 38.5022 39.4348 38.535 39.2721 38.536C39.2697 38.536 39.2674 38.5357 39.265 38.5357C39.2268 38.5357 39.1886 38.5342 39.1505 38.5306C39.1392 38.5295 39.128 38.5272 39.1168 38.5259C39.0877 38.5224 39.0585 38.519 39.0296 38.5134C39.0114 38.5099 38.9933 38.5045 38.9752 38.5002C38.9535 38.4951 38.9317 38.4907 38.9102 38.4843C38.888 38.4778 38.8662 38.4691 38.8442 38.4612C38.8268 38.455 38.8091 38.4498 38.7919 38.4429L29.4037 34.6148C29.0021 34.451 28.5438 34.6438 28.38 35.0455C28.2162 35.4472 28.409 35.9056 28.8107 36.0694L40.1926 40.7103C40.2703 40.7419 40.3436 40.7807 40.4121 40.8258C40.6173 40.9611 40.7781 41.154 40.8756 41.3858C40.9893 41.6562 41.005 41.9511 40.9223 42.2286C40.9105 42.2683 40.8966 42.3076 40.8808 42.3463C40.8645 42.3864 40.8464 42.4252 40.8265 42.4626C40.7802 42.5496 40.7238 42.6282 40.6608 42.6999C40.6217 42.7443 40.58 42.7858 40.5355 42.8238C40.5284 42.8298 40.5219 42.8367 40.5148 42.8425C40.2281 43.0769 39.845 43.1777 39.4706 43.1021C39.3947 43.0867 39.3191 43.0649 39.2448 43.0346L38.1539 42.5899Z" fill="#264B93"/>
<path d="M48.4219 1H52.4013C53.0066 1 53.5402 1.36437 53.7605 1.92812L55.946 7.52285C55.9476 7.52693 55.9486 7.53123 55.9501 7.53542C55.9582 7.55733 55.9653 7.57957 55.9715 7.60224C55.9738 7.61051 55.9759 7.61867 55.9779 7.62694C55.9828 7.64778 55.9868 7.66905 55.99 7.69064C55.9913 7.69924 55.9929 7.70783 55.994 7.71643C55.9968 7.73984 55.9982 7.76348 55.9988 7.78743C55.999 7.79355 55.9998 7.79957 55.9998 7.80559L56 7.80859V43.8197C56 45.2495 54.8368 46.4126 53.4072 46.4126H38.5271C38.2313 46.8488 37.8147 47.1946 37.3121 47.4117C36.8175 47.6253 36.2719 47.6945 35.7457 47.619C35.795 48.0701 35.7362 48.5393 35.5532 48.9882C35.1068 50.0827 34.0479 50.7471 32.9329 50.7471C32.5781 50.7473 32.2178 50.6799 31.8696 50.5379L21.7525 46.4127H9.88531C8.45553 46.4127 7.29248 45.2495 7.29248 43.8198V38.8244C7.29248 38.3907 8.26819 38.3551 8.26819 38.3551M48.4219 1C47.9882 1 47.6366 1.35159 47.6366 1.78536M48.4219 1C48.8557 1 47.6366 1.35159 47.6366 1.78536M48.4219 1H35.6029H27.6895H10.891C10.2856 1 9.75211 1.36437 9.53179 1.92834L7.3463 7.52285C7.34469 7.52704 7.34383 7.53134 7.34222 7.53542C7.33405 7.55723 7.32696 7.57946 7.32073 7.60224C7.31848 7.61051 7.31633 7.61867 7.31439 7.62694C7.30945 7.64789 7.30548 7.66916 7.30225 7.69064C7.30097 7.69924 7.29935 7.70783 7.29828 7.71643C7.29559 7.73984 7.29409 7.76348 7.29345 7.78743C7.29334 7.79345 7.29259 7.79946 7.29248 7.80559L7.29237 7.80849V21.9861C7.29237 22.4199 7.87803 22.0421 8.3118 22.0421M47.6366 1.78536C47.6366 2.21913 47.9882 2.57072 48.4219 2.57072M47.6366 1.78536C47.6366 2.21913 48.8557 2.57072 48.4219 2.57072M48.4219 2.57072H52.3252L54.0645 7.02323H37.621L36.5907 2.57072H48.4219ZM8.3118 22.0421C8.52587 22.3007 8.86309 23.0975 8.86309 22.6637V8.59395H25.5104V20.5315C25.5104 20.9984 25.7854 21.4237 26.2111 21.6153C26.367 21.6854 26.533 21.7197 26.6979 21.7197C26.9832 21.7197 27.2654 21.6172 27.4867 21.4211L31.6461 17.7361L35.8056 21.4209C36.1548 21.7306 36.6556 21.8068 37.0813 21.6153C37.507 21.4236 37.7819 20.9984 37.7819 20.5315V8.59395H54.4292V43.82C54.4292 44.3835 53.9706 44.8421 53.4071 44.8421H39.0069C39.0069 44.8332 39.0058 44.8242 39.0057 44.8153C39.0048 44.7449 39.0023 44.6745 38.9962 44.6047C40.3484 44.9631 41.7931 44.2682 42.3349 42.9394C42.6199 42.2404 42.6157 41.4724 42.323 40.7767C42.2954 40.7112 42.265 40.6476 42.233 40.585C42.2271 40.5735 42.2214 40.5619 42.2154 40.5505C42.184 40.4907 42.1505 40.4324 42.1151 40.3756C42.1082 40.3645 42.1012 40.3538 42.0942 40.3428C42.0568 40.2845 42.018 40.2272 41.9767 40.1721L41.9743 40.1691C41.9333 40.1147 41.8899 40.0622 41.8451 40.011C41.8369 40.0017 41.8288 39.9922 41.8206 39.9829C41.7762 39.9334 41.7301 39.8856 41.6824 39.8396C41.6731 39.8305 41.6636 39.8218 41.6542 39.813C41.6042 39.7661 41.5531 39.7204 41.4998 39.6774C41.498 39.676 41.4962 39.6746 41.4943 39.6732C41.4419 39.6309 41.3874 39.591 41.3319 39.5525C41.3219 39.5455 41.312 39.5385 41.3018 39.5316C41.2463 39.4942 41.1894 39.4589 41.1309 39.4252C41.1261 39.4224 41.1217 39.4192 41.1167 39.4164C41.4487 39.1292 41.7107 38.7657 41.8813 38.3474C42.1663 37.6484 42.1621 36.8803 41.8693 36.1845C41.6132 35.5758 41.163 35.0861 40.5864 34.7824C40.504 34.739 40.419 34.6993 40.3317 34.6638L28.1085 29.6797L33.7982 27.9187C35.1518 27.4996 35.9142 26.0559 35.4976 24.7005C35.3422 24.1946 35.034 23.7679 34.6359 23.456C34.0435 22.9919 33.2517 22.7823 32.4664 22.9472C32.4626 22.9481 32.459 22.9487 32.4552 22.9497C32.4117 22.9594 28.05 23.9402 23.4946 24.8285C23.2925 24.8679 23.0956 24.9059 22.9015 24.9433C22.7461 24.9732 22.593 25.0026 22.4427 25.0312C22.3995 25.0394 22.3562 25.0476 22.3133 25.0558C22.048 25.1062 21.791 25.1544 21.5411 25.2008C21.4405 25.2195 21.3409 25.238 21.2428 25.256C15.5218 26.3099 13.9147 26.3288 13.4687 26.2685L13.4637 26.2677C13.457 26.2667 13.4503 26.2658 13.4441 26.2648C13.4396 26.264 13.4354 26.2633 13.4312 26.2627C13.4282 26.2621 13.425 26.2616 13.4221 26.2611C13.3942 26.2561 13.3725 26.2508 13.3558 26.2458L13.2271 26.1934L13.3875 25.8001C13.5452 25.4134 13.5428 24.9884 13.3809 24.6035C13.3404 24.5073 13.2911 24.4164 13.234 24.3317C13.0625 24.0779 12.8201 23.8803 12.53 23.762L8.3118 22.0421ZM8.3118 22.0421C7.92519 21.8843 7.50012 21.8867 7.11523 22.0486C6.73023 22.2105 6.4315 22.5127 6.2738 22.8993L1.11574 35.5496C0.790251 36.3478 1.17493 37.262 1.97318 37.5876L6.19152 39.3076C6.38412 39.3861 6.58339 39.4233 6.77965 39.4233C7.39657 39.4233 7.98245 39.0557 8.22941 38.4502L8.26819 38.3551M8.26819 38.3551L9.24078 38.7516L9.2425 38.7523C10.1728 39.1316 11.0299 39.6728 11.7717 40.3444C11.9067 40.4666 12.0377 40.593 12.1648 40.7235C12.2919 40.854 12.4148 40.9888 12.5335 41.1273C12.5928 41.1966 12.6511 41.267 12.7081 41.3382C13.7891 42.6861 15.2062 43.7435 16.8061 44.3958L17.9003 44.842H9.88531C9.32178 44.842 8.8632 44.3834 8.8632 43.8198C8.8632 43.8198 8.8632 38.8839 8.8632 38.4502C8.8632 38.0164 8.26819 38.3551 8.26819 38.3551ZM28.3138 2.57072H34.9785L36.0087 7.02323H27.2835L28.3138 2.57072ZM25.6713 7.02323H9.22779L10.967 2.57072H26.7016L25.6713 7.02323ZM36.2114 19.6819L32.4342 16.3357C32.2096 16.1368 31.9279 16.0373 31.6463 16.0373C31.3647 16.0373 31.0829 16.1368 30.8583 16.3357L27.0813 19.6819V8.59395H36.2114V19.6819ZM6.77772 37.8503L2.57291 36.1359L7.7255 23.4993L11.9303 25.2139L6.77772 37.8503ZM38.1539 42.5899L37.2526 42.2223L37.2513 42.2217L37.25 42.2212L27.8629 38.3937C27.4613 38.2299 27.0029 38.4227 26.8391 38.8244C26.6753 39.2261 26.8681 39.6844 27.2699 39.8483L36.6572 43.6759C36.6965 43.6919 36.7344 43.7096 36.771 43.7291C36.7813 43.7346 36.7909 43.7412 36.801 43.7469C36.8268 43.7615 36.8526 43.7761 36.877 43.7923C36.8887 43.8002 36.8995 43.8092 36.9109 43.8174C36.9325 43.8328 36.9545 43.8481 36.9749 43.8649C36.9872 43.875 36.9984 43.8862 37.0103 43.8968C37.0286 43.913 37.0473 43.9287 37.0645 43.9459C37.0764 43.9577 37.087 43.9707 37.0984 43.9829C37.1142 43.9999 37.1304 44.0165 37.1453 44.0344C37.1565 44.048 37.1664 44.0625 37.1772 44.0766C37.1906 44.0942 37.2046 44.1115 37.2169 44.1298C37.2273 44.145 37.2362 44.1611 37.2459 44.1767C37.2571 44.1947 37.2689 44.2125 37.2791 44.2311C37.2883 44.2478 37.2961 44.2653 37.3046 44.2824C37.3136 44.3008 37.3234 44.3188 37.3315 44.3376C37.3394 44.3557 37.3457 44.3744 37.3527 44.3927C37.3598 44.4113 37.3675 44.4296 37.3737 44.4485C37.38 44.4675 37.3847 44.4869 37.39 44.5062C37.3952 44.5252 37.4011 44.5439 37.4055 44.5631C37.4099 44.5825 37.4127 44.6023 37.4163 44.6219C37.4198 44.6414 37.4239 44.6607 37.4265 44.6805C37.4291 44.7003 37.43 44.7203 37.4316 44.7401C37.4333 44.7601 37.4356 44.78 37.4363 44.8C37.4369 44.8196 37.4359 44.8395 37.4357 44.8593C37.4355 44.8797 37.4358 44.9001 37.4345 44.9206C37.4334 44.94 37.4305 44.9595 37.4283 44.9789C37.4261 44.9999 37.4243 45.0208 37.4209 45.0417C37.4178 45.0608 37.413 45.0798 37.409 45.0989C37.4045 45.1201 37.4007 45.1412 37.395 45.1623C37.3901 45.1809 37.3834 45.1994 37.3775 45.2178C37.3708 45.2389 37.3647 45.2599 37.3569 45.2807C37.3502 45.295 37.3437 45.3094 37.3375 45.3239C37.3361 45.3272 37.3354 45.3306 37.3341 45.3338C37.2114 45.6171 36.985 45.8422 36.6893 45.9699C36.3638 46.1103 35.9911 46.1152 35.6667 45.9829L34.0035 45.3047C33.9958 45.3016 33.9879 45.2995 33.9802 45.2966C33.9723 45.293 33.9649 45.2889 33.957 45.2857L26.3219 42.1725C25.92 42.0088 25.4619 42.2015 25.2982 42.6033C25.1343 43.0049 25.3272 43.4633 25.7288 43.6271L33.3639 46.7403C33.3721 46.7436 33.3803 46.746 33.3886 46.749C33.396 46.7522 33.4029 46.7562 33.4105 46.7592C34.0513 47.0206 34.3601 47.7545 34.0989 48.3952C33.8375 49.0362 33.104 49.3452 32.4629 49.0836L22.2046 44.9008L22.2033 44.9002L17.3995 42.9414C16.5538 42.5965 15.7686 42.118 15.0754 41.5292C14.6595 41.1759 14.2767 40.783 13.9338 40.3555C13.596 39.9343 13.2254 39.5415 12.8266 39.1804C11.9493 38.3862 10.9358 37.7463 9.8359 37.2977L8.86169 36.9006L10.8014 32.1434L12.6344 27.648L12.7697 27.7031C12.897 27.755 13.0785 27.8286 13.5671 27.8471C14.1775 27.8747 15.1872 27.811 16.9962 27.5555C18.2267 27.3817 19.7361 27.1303 21.4981 26.8061C21.5415 26.7981 21.5846 26.7902 21.6284 26.7821C21.7108 26.7669 21.7941 26.7514 21.8776 26.736C21.9426 26.7239 22.0079 26.7117 22.0738 26.6993C22.1488 26.6852 22.2241 26.6712 22.2999 26.6569C22.3804 26.6417 22.4618 26.6264 22.5437 26.6108C22.6092 26.5983 22.6746 26.586 22.7408 26.5734C22.8406 26.5544 22.9421 26.535 23.0439 26.5154C23.0963 26.5053 23.1482 26.4954 23.2011 26.4853C23.3571 26.4553 23.5151 26.4248 23.676 26.3935C28.2157 25.5105 32.5975 24.5277 32.7944 24.4834C32.814 24.4793 32.8337 24.477 32.8533 24.4741C33.3578 24.3994 33.852 24.6912 33.9967 25.1619C34.0475 25.3273 34.0535 25.4961 34.0214 25.6549C33.9511 26.0043 33.6971 26.3058 33.3342 26.4181L25.548 28.828C25.231 28.9262 25.01 29.2127 24.9957 29.5442C24.9813 29.8756 25.1766 30.1803 25.4838 30.3056L39.7391 36.1183C40.0495 36.2448 40.2921 36.4847 40.422 36.7937C40.552 37.1028 40.554 37.4439 40.4273 37.7543C40.3007 38.0647 40.0609 38.3073 39.7518 38.4373C39.5974 38.5022 39.4348 38.535 39.2721 38.536C39.2697 38.536 39.2674 38.5357 39.265 38.5357C39.2268 38.5357 39.1886 38.5342 39.1505 38.5306C39.1392 38.5295 39.128 38.5272 39.1168 38.5259C39.0877 38.5223 39.0585 38.519 39.0296 38.5134C39.0114 38.5099 38.9933 38.5045 38.9752 38.5002C38.9535 38.4951 38.9317 38.4907 38.9102 38.4843C38.888 38.4778 38.8662 38.4691 38.8442 38.4612C38.8268 38.455 38.8091 38.4498 38.7919 38.4429L29.4037 34.6148C29.0021 34.451 28.5438 34.6438 28.38 35.0455C28.2162 35.4472 28.409 35.9056 28.8107 36.0694L40.1926 40.7103C40.2703 40.7419 40.3436 40.7807 40.4121 40.8258C40.6173 40.9611 40.7781 41.154 40.8756 41.3858C40.9893 41.6562 41.005 41.9511 40.9223 42.2286C40.9105 42.2683 40.8966 42.3076 40.8808 42.3463C40.8645 42.3864 40.8464 42.4252 40.8265 42.4626C40.7802 42.5496 40.7238 42.6282 40.6608 42.6999C40.6217 42.7443 40.58 42.7858 40.5355 42.8238C40.5284 42.8299 40.5219 42.8367 40.5148 42.8425C40.2282 43.0769 39.845 43.1777 39.4706 43.1021C39.3947 43.0867 39.3192 43.0649 39.2448 43.0346L38.1539 42.5899Z" stroke="#264B93" stroke-width="0.7"/>
</svg>
