<svg width="57" height="56" viewBox="0 0 57 56" fill="none" xmlns="http://www.w3.org/2000/svg">
<path d="M28.5 55.7471C13.3359 55.7471 1 43.4112 1 28.2471C1 13.083 13.3359 0.747131 28.5 0.747131C43.6641 0.747131 56 13.083 56 28.2471C56 43.4112 43.6641 55.7471 28.5 55.7471ZM28.5 4.18463C15.2313 4.18463 4.4375 14.9784 4.4375 28.2471C4.4375 41.5158 15.2313 52.3096 28.5 52.3096C41.7687 52.3096 52.5625 41.5158 52.5625 28.2471C52.5625 14.9784 41.7687 4.18463 28.5 4.18463Z" fill="#264B93" stroke="black" stroke-width="0.4"/>
<path d="M40.5312 43.1431C40.0911 43.1431 39.6513 42.9757 39.3165 42.6387L27.2852 30.6075C26.9621 30.2843 26.7812 29.8467 26.7812 29.3931V13.3511C26.7812 12.4024 27.5512 11.6324 28.5 11.6324C29.4488 11.6324 30.2188 12.4024 30.2188 13.3511V28.6802L41.746 40.2074C42.4174 40.8788 42.4174 41.9673 41.746 42.6387C41.4112 42.9757 40.9714 43.1431 40.5312 43.1431Z" fill="#264B93" stroke="black" stroke-width="0.4"/>
</svg>
