<svg width="55" height="56" viewBox="0 0 55 56" fill="none" xmlns="http://www.w3.org/2000/svg">
<path d="M31.7969 14.2823C31.2039 14.2823 30.7227 14.7635 30.7227 15.3565C30.7227 15.9495 31.2039 16.4307 31.7969 16.4307C32.3898 16.4307 32.8711 15.9495 32.8711 15.3565C32.8711 14.7635 32.3898 14.2823 31.7969 14.2823Z" fill="#264B93"/>
<path d="M53.9258 7.83698H1.07422C0.480928 7.83698 0 8.31801 0 8.91119V15.3565C0 18.1734 2.18013 20.489 4.94141 20.7089V26.0987C4.94141 34.428 9.46247 41.7294 16.2197 45.6383C16.2281 45.6431 16.2366 45.6479 16.2451 45.6527C16.2454 45.6529 16.2457 45.6531 16.2461 45.6532C19.6528 47.6184 23.5435 48.6573 27.5 48.6573C31.5946 48.6573 35.5028 47.5418 38.7803 45.6383L38.7802 45.6384C42.1473 43.6906 44.9713 40.8897 46.9469 37.5384C48.9825 34.0849 50.0586 30.1292 50.0586 26.0987V20.7089C52.8199 20.4891 55 18.1734 55 15.3565V8.91119C55 8.31801 54.5191 7.83698 53.9258 7.83698ZM37.168 44.0773C34.2121 45.6693 30.8833 46.5089 27.5 46.5089C24.1169 46.5089 20.788 45.6693 17.832 44.0773V34.6924C17.832 29.3615 22.1691 25.0245 27.5 25.0245C32.8309 25.0245 37.168 29.3615 37.168 34.6924V44.0773ZM47.9102 26.0987C47.9102 32.7202 44.6596 38.9338 39.3164 42.7396V34.6924C39.3164 28.1769 34.0156 22.876 27.5 22.876C20.9844 22.876 15.6836 28.1769 15.6836 34.6924V42.7396C10.3404 38.9338 7.08984 32.7202 7.08984 26.0987V20.7276H47.9102V26.0987ZM52.8516 14.2823H36.0938C35.5005 14.2823 35.0195 14.7633 35.0195 15.3565C35.0195 15.9497 35.5005 16.42 36.0938 16.42H52.6668C52.2234 17.6703 51.0293 18.5792 49.6289 18.5792C45.7011 18.5792 10.8066 18.5792 5.37109 18.5792C3.59412 18.5792 2.14844 17.1335 2.14844 15.3565V9.98541H52.8516V14.2823Z" fill="#264B93"/>
<path d="M27.5 27.1729C23.3537 27.1729 19.9805 30.5462 19.9805 34.6924C19.9805 38.8387 23.3537 42.212 27.5 42.212C31.6463 42.212 35.0195 38.8387 35.0195 34.6924C35.0195 30.5462 31.6463 27.1729 27.5 27.1729ZM27.5 40.0635C24.5384 40.0635 22.1289 37.6541 22.1289 34.6924C22.1289 31.7308 24.5384 29.3214 27.5 29.3214C30.4616 29.3214 32.8711 31.7308 32.8711 34.6924C32.8711 37.6541 30.4616 40.0635 27.5 40.0635Z" fill="#264B93"/>
<path d="M27.5 31.4698C25.723 31.4698 24.2773 32.9155 24.2773 34.6924C24.2773 36.4694 25.723 37.9151 27.5 37.9151C29.277 37.9151 30.7227 36.4694 30.7227 34.6924C30.7227 32.9155 29.277 31.4698 27.5 31.4698ZM27.5 35.7667C26.9077 35.7667 26.4258 35.2848 26.4258 34.6924C26.4258 34.1001 26.9077 33.6182 27.5 33.6182C28.0923 33.6182 28.5742 34.1001 28.5742 34.6924C28.5742 35.2848 28.0923 35.7667 27.5 35.7667Z" fill="#264B93"/>
</svg>
