<svg width="55" height="57" viewBox="0 0 55 57" fill="none" xmlns="http://www.w3.org/2000/svg">
<path d="M22.1558 12.2255C18.949 12.2255 16.3401 14.8345 16.3401 18.0412C16.3401 21.2479 18.949 23.8569 22.1558 23.8569C25.3625 23.8569 27.9714 21.2479 27.9714 18.0412C27.9714 14.8345 25.3625 12.2255 22.1558 12.2255ZM22.1558 20.6846C20.6982 20.6846 19.5123 19.4988 19.5123 18.0411C19.5123 16.5835 20.6982 15.3977 22.1558 15.3977C23.6134 15.3977 24.7993 16.5835 24.7993 18.0411C24.7992 19.4988 23.6134 20.6846 22.1558 20.6846Z" fill="#264B93" stroke="black"/>
<path d="M51.2301 29.2126C51.0088 28.7598 51.0088 28.2405 51.2301 27.7878L53.2814 23.5914C54.4235 21.2549 53.5186 18.47 51.2213 17.2511L47.0952 15.0619C46.6501 14.8257 46.3449 14.4055 46.2578 13.9093L45.4508 9.30859C45.0015 6.74702 42.632 5.02571 40.0574 5.38997L35.4326 6.04417C34.9334 6.11463 34.4398 5.95415 34.0777 5.60385L30.7207 2.35629C28.8514 0.547958 25.9231 0.547851 24.054 2.35629L20.6969 5.60417C20.3346 5.95458 19.841 6.11474 19.342 6.04449L14.7172 5.39029C12.1417 5.02581 9.77309 6.74735 9.32375 9.30891L8.5168 13.9094C8.42968 14.4057 8.1245 14.8259 7.67945 15.0621L3.5534 17.2513C1.25609 18.4701 0.351176 21.2552 1.49328 23.5917L3.54449 27.7881C3.76578 28.2408 3.76578 28.7601 3.54449 29.2128L1.49317 33.4091C0.351069 35.7456 1.25599 38.5305 3.5533 39.7494L7.67935 41.9386C8.1245 42.1748 8.42968 42.595 8.5168 43.0912L9.32375 47.6919C9.73281 50.0238 11.7323 51.6592 14.0304 51.659C14.2567 51.659 14.4864 51.6431 14.7173 51.6104L19.3421 50.9562C19.8408 50.8854 20.3348 51.0463 20.697 51.3966L24.054 54.6441C24.9888 55.5484 26.1878 56.0004 27.3873 56.0003C28.5864 56.0002 29.7862 55.5482 30.7206 54.6441L34.0777 51.3966C34.4399 51.0463 34.9336 50.8862 35.4326 50.9562L40.0574 51.6104C42.6331 51.9748 45.0015 50.2534 45.4508 47.6918L46.2579 43.0913C46.345 42.595 46.6502 42.1749 47.0952 41.9386L51.2213 39.7494C53.5186 38.5306 54.4235 35.7455 53.2814 33.409L51.2301 29.2126ZM49.7344 36.9471L45.6084 39.1364C44.2929 39.8345 43.3907 41.0761 43.1334 42.543L42.3265 47.1436C42.1745 48.0103 41.3732 48.5924 40.5017 48.4694L35.8769 47.8152C34.402 47.6063 32.9426 48.081 31.8721 49.1164L28.515 52.3639C27.8827 52.9755 26.892 52.9755 26.2595 52.3639L22.9024 49.1163C21.9977 48.2412 20.815 47.7669 19.5803 47.7669C19.3541 47.7669 19.126 47.7828 18.8977 47.8151L14.2729 48.4693C13.4021 48.5924 12.6002 48.0102 12.4481 47.1435L11.641 42.5428C11.3837 41.0758 10.4815 39.8342 9.16595 39.1362L5.0399 36.947C4.2626 36.5346 3.95645 35.5924 4.34284 34.8019L6.39416 30.6055C7.04814 29.2675 7.04814 27.7328 6.39416 26.3948L4.34284 22.1984C3.95645 21.4079 4.2626 20.4657 5.0399 20.0533L9.16595 17.864C10.4814 17.1659 11.3837 15.9243 11.6409 14.4574L12.4479 9.85676C12.6 8.99009 13.4011 8.40786 14.2726 8.53097L18.8975 9.18516C20.3718 9.39388 21.8318 8.9194 22.9022 7.88397L26.2594 4.63641C26.8916 4.02475 27.8824 4.02475 28.5149 4.63641L31.8719 7.88397C32.9424 8.91951 34.4021 9.39388 35.8767 9.18516L40.5015 8.53097C41.3723 8.40776 42.1742 8.99009 42.3262 9.85676L43.1332 14.4575C43.3906 15.9244 44.2927 17.1661 45.6083 17.864L49.7343 20.0533C50.5116 20.4657 50.8178 21.4079 50.4314 22.1984L48.3801 26.3947C47.7261 27.7326 47.7261 29.2675 48.3801 30.6054L50.4314 34.8017C50.8179 35.5924 50.5117 36.5347 49.7344 36.9471Z" fill="#264B93" stroke="black"/>
<path d="M38.9763 16.9111C38.3571 16.2917 37.3527 16.2917 36.7333 16.9111L15.798 37.8464C15.1786 38.4658 15.1786 39.4701 15.798 40.0895C16.1077 40.3992 16.5137 40.5541 16.9195 40.5541C17.3254 40.5541 17.7314 40.3993 18.041 40.0895L38.9762 19.1542C39.5958 18.5347 39.5958 17.5306 38.9763 16.9111Z" fill="#264B93" stroke="black"/>
<path d="M33.7315 31.1437C30.5247 31.1437 27.9158 33.7527 27.9158 36.9594C27.9158 40.1662 30.5247 42.7751 33.7315 42.7751C36.9382 42.7751 39.5471 40.1662 39.5471 36.9594C39.5471 33.7527 36.9382 31.1437 33.7315 31.1437ZM33.7315 39.6028C32.2739 39.6028 31.0879 38.417 31.0879 36.9594C31.0879 35.5018 32.2737 34.316 33.7315 34.316C35.189 34.316 36.3749 35.5018 36.3749 36.9594C36.3749 38.417 35.189 39.6028 33.7315 39.6028Z" fill="#264B93" stroke="black"/>
</svg>
