<svg width="55" height="42" viewBox="0 0 55 42" fill="none" xmlns="http://www.w3.org/2000/svg">
<path d="M51.0714 41.6429H3.92857C2.88703 41.6416 1.88851 41.2273 1.15203 40.4908C0.41555 39.7544 0.0012476 38.7558 0 37.7143V3.92859C0.0012476 2.88705 0.41555 1.88853 1.15203 1.15205C1.88851 0.415572 2.88703 0.00126978 3.92857 2.21797e-05H20.0829C20.2912 2.21797e-05 20.4911 0.0828027 20.6384 0.230153C20.7858 0.377503 20.8686 0.577352 20.8686 0.785736C20.8686 0.994121 20.7858 1.19397 20.6384 1.34132C20.4911 1.48867 20.2912 1.57145 20.0829 1.57145H3.92857C3.30342 1.57145 2.70387 1.81979 2.26182 2.26184C1.81977 2.70389 1.57143 3.30344 1.57143 3.92859V37.7143C1.57143 38.3395 1.81977 38.939 2.26182 39.3811C2.70387 39.8231 3.30342 40.0714 3.92857 40.0714H51.0714C51.6966 40.0714 52.2961 39.8231 52.7382 39.3811C53.1802 38.939 53.4286 38.3395 53.4286 37.7143V3.92859C53.4286 3.30344 53.1802 2.70389 52.7382 2.26184C52.2961 1.81979 51.6966 1.57145 51.0714 1.57145H41.2029C40.9945 1.57145 40.7946 1.48867 40.6473 1.34132C40.4999 1.19397 40.4171 0.994121 40.4171 0.785736C40.4171 0.577352 40.4999 0.377503 40.6473 0.230153C40.7946 0.0828027 40.9945 2.21797e-05 41.2029 2.21797e-05H51.0714C52.113 0.00126978 53.1115 0.415572 53.848 1.15205C54.5845 1.88853 54.9987 2.88705 55 3.92859V37.7143C54.9987 38.7558 54.5845 39.7544 53.848 40.4908C53.1115 41.2273 52.113 41.6416 51.0714 41.6429Z" fill="#264B93"/>
<path d="M32.5102 1.57143H30.2238C30.0154 1.57143 29.8156 1.48865 29.6682 1.3413C29.5209 1.19395 29.4381 0.994099 29.4381 0.785714C29.4381 0.57733 29.5209 0.377481 29.6682 0.230131C29.8156 0.0827805 30.0154 0 30.2238 0H32.5102C32.7186 0 32.9185 0.0827805 33.0658 0.230131C33.2132 0.377481 33.2959 0.57733 33.2959 0.785714C33.2959 0.994099 33.2132 1.19395 33.0658 1.3413C32.9185 1.48865 32.7186 1.57143 32.5102 1.57143Z" fill="#264B93"/>
<path d="M41.2317 1.57143H38.9452C38.7368 1.57143 38.537 1.48865 38.3896 1.3413C38.2423 1.19395 38.1595 0.994099 38.1595 0.785714C38.1595 0.57733 38.2423 0.377481 38.3896 0.230131C38.537 0.0827805 38.7368 0 38.9452 0H41.2317C41.44 0 41.6399 0.0827805 41.7872 0.230131C41.9346 0.377481 42.0174 0.57733 42.0174 0.785714C42.0174 0.994099 41.9346 1.19395 41.7872 1.3413C41.6399 1.48865 41.44 1.57143 41.2317 1.57143Z" fill="#264B93"/>
<path d="M38.3245 1.57143H36.0381C35.8297 1.57143 35.6299 1.48865 35.4825 1.3413C35.3352 1.19395 35.2524 0.994099 35.2524 0.785714C35.2524 0.57733 35.3352 0.377481 35.4825 0.230131C35.6299 0.0827805 35.8297 0 36.0381 0H38.3245C38.5329 0 38.7327 0.0827805 38.8801 0.230131C39.0274 0.377481 39.1102 0.57733 39.1102 0.785714C39.1102 0.994099 39.0274 1.19395 38.8801 1.3413C38.7327 1.48865 38.5329 1.57143 38.3245 1.57143Z" fill="#264B93"/>
<path d="M39.2936 1.57143H37.0071C36.7988 1.57143 36.5989 1.48865 36.4516 1.3413C36.3042 1.19395 36.2214 0.994099 36.2214 0.785714C36.2214 0.57733 36.3042 0.377481 36.4516 0.230131C36.5989 0.0827805 36.7988 0 37.0071 0H39.2936C39.5019 0 39.7018 0.0827805 39.8491 0.230131C39.9965 0.377481 40.0793 0.57733 40.0793 0.785714C40.0793 0.994099 39.9965 1.19395 39.8491 1.3413C39.7018 1.48865 39.5019 1.57143 39.2936 1.57143Z" fill="#264B93"/>
<path d="M22.8197 1.57143H20.5333C20.3249 1.57143 20.1251 1.48865 19.9777 1.3413C19.8304 1.19395 19.7476 0.994099 19.7476 0.785714C19.7476 0.57733 19.8304 0.377481 19.9777 0.230131C20.1251 0.0827805 20.3249 0 20.5333 0H22.8197C23.0281 0 23.228 0.0827805 23.3753 0.230131C23.5227 0.377481 23.6055 0.57733 23.6055 0.785714C23.6055 0.994099 23.5227 1.19395 23.3753 1.3413C23.228 1.48865 23.0281 1.57143 22.8197 1.57143Z" fill="#264B93"/>
<path d="M21.8507 1.57143H19.5643C19.3559 1.57143 19.156 1.48865 19.0087 1.3413C18.8613 1.19395 18.7786 0.994099 18.7786 0.785714C18.7786 0.57733 18.8613 0.377481 19.0087 0.230131C19.156 0.0827805 19.3559 0 19.5643 0H21.8507C22.0591 0 22.2589 0.0827805 22.4063 0.230131C22.5536 0.377481 22.6364 0.57733 22.6364 0.785714C22.6364 0.994099 22.5536 1.19395 22.4063 1.3413C22.2589 1.48865 22.0591 1.57143 21.8507 1.57143Z" fill="#264B93"/>
<path d="M26.6959 1.57143H24.4095C24.2011 1.57143 24.0013 1.48865 23.8539 1.3413C23.7066 1.19395 23.6238 0.994099 23.6238 0.785714C23.6238 0.57733 23.7066 0.377481 23.8539 0.230131C24.0013 0.0827805 24.2011 0 24.4095 0H26.6959C26.9043 0 27.1042 0.0827805 27.2515 0.230131C27.3989 0.377481 27.4817 0.57733 27.4817 0.785714C27.4817 0.994099 27.3989 1.19395 27.2515 1.3413C27.1042 1.48865 26.9043 1.57143 26.6959 1.57143Z" fill="#264B93"/>
<path d="M24.7578 1.57143H22.4714C22.263 1.57143 22.0632 1.48865 21.9158 1.3413C21.7685 1.19395 21.6857 0.994099 21.6857 0.785714C21.6857 0.57733 21.7685 0.377481 21.9158 0.230131C22.0632 0.0827805 22.263 0 22.4714 0H24.7578C24.9662 0 25.1661 0.0827805 25.3134 0.230131C25.4608 0.377481 25.5436 0.57733 25.5436 0.785714C25.5436 0.994099 25.4608 1.19395 25.3134 1.3413C25.1661 1.48865 24.9662 1.57143 24.7578 1.57143Z" fill="#264B93"/>
<path d="M54.2143 29.0711H0.785714C0.57733 29.0711 0.37748 28.9883 0.23013 28.841C0.0827804 28.6936 0 28.4938 0 28.2854C0 28.077 0.0827804 27.8771 0.23013 27.7298C0.37748 27.5824 0.57733 27.4997 0.785714 27.4997H54.2143C54.4227 27.4997 54.6225 27.5824 54.7699 27.7298C54.9172 27.8771 55 28.077 55 28.2854C55 28.4938 54.9172 28.6936 54.7699 28.841C54.6225 28.9883 54.4227 29.0711 54.2143 29.0711Z" fill="#264B93"/>
<path d="M47.9286 35.357H14.1429C13.9345 35.357 13.7346 35.2743 13.5873 35.1269C13.4399 34.9796 13.3571 34.7797 13.3571 34.5713C13.3571 34.3629 13.4399 34.1631 13.5873 34.0157C13.7346 33.8684 13.9345 33.7856 14.1429 33.7856H47.9286C48.137 33.7856 48.3368 33.8684 48.4842 34.0157C48.6315 34.1631 48.7143 34.3629 48.7143 34.5713C48.7143 34.7797 48.6315 34.9796 48.4842 35.1269C48.3368 35.2743 48.137 35.357 47.9286 35.357Z" fill="#264B93"/>
<path d="M11.0471 35.357H7.07143C6.86305 35.357 6.6632 35.2743 6.51585 35.1269C6.3685 34.9796 6.28572 34.7797 6.28572 34.5713C6.28572 34.3629 6.3685 34.1631 6.51585 34.0157C6.6632 33.8684 6.86305 33.7856 7.07143 33.7856H11.0471C11.2555 33.7856 11.4554 33.8684 11.6027 34.0157C11.7501 34.1631 11.8329 34.3629 11.8329 34.5713C11.8329 34.7797 11.7501 34.9796 11.6027 35.1269C11.4554 35.2743 11.2555 35.357 11.0471 35.357Z" fill="#264B93"/>
<path d="M12.5958 38.5242C11.9773 38.5234 11.3845 38.2774 10.9472 37.8401C10.5099 37.4028 10.2638 36.8099 10.263 36.1914V32.9512C10.263 32.3325 10.5088 31.7391 10.9463 31.3016C11.3837 30.8641 11.9771 30.6184 12.5958 30.6184C13.2145 30.6184 13.8078 30.8641 14.2453 31.3016C14.6828 31.7391 14.9286 32.3325 14.9286 32.9512V36.1914C14.9279 36.8099 14.682 37.4029 14.2446 37.8403C13.8073 38.2776 13.2143 38.5236 12.5958 38.5242ZM12.5958 32.1898C12.3939 32.19 12.2004 32.2703 12.0577 32.413C11.9149 32.5558 11.8346 32.7493 11.8344 32.9512V36.1914C11.8344 36.3934 11.9146 36.587 12.0574 36.7298C12.2002 36.8726 12.3939 36.9528 12.5958 36.9528C12.7977 36.9528 12.9914 36.8726 13.1341 36.7298C13.2769 36.587 13.3571 36.3934 13.3571 36.1914V32.9512C13.3569 32.7493 13.2766 32.5558 13.1339 32.413C12.9912 32.2703 12.7976 32.19 12.5958 32.1898Z" fill="#264B93"/>
<path d="M24.7555 21.0727C24.1292 21.0717 23.5289 20.8224 23.086 20.3795C22.6431 19.9367 22.3939 19.3363 22.3929 18.7101V10.361C22.3929 9.92143 22.5157 9.49055 22.7474 9.11695C22.9791 8.74335 23.3105 8.44186 23.7043 8.24643C24.0981 8.05101 24.5387 7.9694 24.9763 8.01082C25.414 8.05223 25.8314 8.21501 26.1816 8.48083L31.6761 12.6561C31.9657 12.8764 32.2006 13.1606 32.3622 13.4866C32.5239 13.8127 32.608 14.1716 32.608 14.5356C32.608 14.8995 32.5239 15.2584 32.3622 15.5845C32.2006 15.9105 31.9657 16.1947 31.6761 16.415L26.1824 20.5903C25.7723 20.9028 25.2711 21.0723 24.7555 21.0727ZM24.7555 9.56905C24.6324 9.56958 24.5111 9.59863 24.4011 9.6539C24.2685 9.71802 24.1568 9.81856 24.0792 9.94378C24.0016 10.069 23.9612 10.2137 23.9627 10.361V18.7101C23.9612 18.8577 24.0014 19.0028 24.0786 19.1287C24.1558 19.2546 24.267 19.3562 24.3993 19.4218C24.5316 19.4874 24.6797 19.5144 24.8266 19.4997C24.9736 19.485 25.1134 19.4292 25.2301 19.3386L30.7214 15.1641C30.8183 15.0905 30.8969 14.9954 30.9509 14.8864C31.005 14.7773 31.0331 14.6573 31.0331 14.5356C31.0331 14.4138 31.005 14.2938 30.9509 14.1847C30.8969 14.0757 30.8183 13.9806 30.7214 13.907L25.2269 9.73248C25.0921 9.62803 24.926 9.57062 24.7555 9.56905Z" fill="#264B93"/>
<path d="M24.7555 9.56905C24.6324 9.56958 24.5111 9.59863 24.4011 9.6539C24.2685 9.71802 24.1568 9.81856 24.0792 9.94378C24.0016 10.069 23.9612 10.2137 23.9627 10.361V18.7101C23.9612 18.8577 24.0014 19.0028 24.0786 19.1287C24.1558 19.2546 24.267 19.3562 24.3993 19.4218C24.5316 19.4874 24.6797 19.5144 24.8266 19.4997C24.9736 19.485 25.1134 19.4292 25.2301 19.3386L30.7214 15.1641C30.8183 15.0905 30.8969 14.9954 30.9509 14.8864C31.005 14.7773 31.0331 14.6573 31.0331 14.5356C31.0331 14.4138 31.005 14.2938 30.9509 14.1847C30.8969 14.0757 30.8183 13.9806 30.7214 13.907L25.2269 9.73248C25.0921 9.62803 24.926 9.57062 24.7555 9.56905Z" fill="#264B93"/>
<path d="M12.5958 32.1898C12.3939 32.19 12.2004 32.2703 12.0577 32.413C11.9149 32.5558 11.8346 32.7493 11.8344 32.9512V36.1914C11.8344 36.3934 11.9146 36.587 12.0574 36.7298C12.2002 36.8726 12.3939 36.9528 12.5958 36.9528C12.7977 36.9528 12.9914 36.8726 13.1341 36.7298C13.2769 36.587 13.3571 36.3934 13.3571 36.1914V32.9512C13.3569 32.7493 13.2766 32.5558 13.1339 32.413C12.9912 32.2703 12.7976 32.19 12.5958 32.1898Z" fill="#264B93"/>
</svg>
