<svg width="55" height="55" viewBox="0 0 55 55" fill="none" xmlns="http://www.w3.org/2000/svg">
<g clip-path="url(#clip0)">
<path d="M54.7985 17.0537C54.3949 15.5475 53.4289 14.2885 52.0783 13.5089L45.2449 9.56353C44.7312 9.26706 44.0743 9.4429 43.7776 9.95668C43.4809 10.4705 43.6569 11.1273 44.1707 11.424L51.0042 15.3693C51.8577 15.8622 52.4682 16.6577 52.7233 17.6096C52.9783 18.5617 52.8474 19.5559 52.3546 20.4095L46.9317 29.8023V22.1436C46.9317 20.2611 45.4001 18.7296 43.5176 18.7296C43.0707 18.7296 42.6436 18.8159 42.2519 18.9727V16.0559C42.2519 14.1735 40.7204 12.6419 38.8379 12.6419C38.3713 12.6419 37.9263 12.7359 37.5208 12.9061C37.2398 11.3047 35.8388 10.0839 34.158 10.0839C32.4773 10.0839 31.0763 11.3047 30.7953 12.9061C30.3898 12.736 29.9448 12.6419 29.4783 12.6419C27.5958 12.6419 26.0642 14.1735 26.0642 16.0559L26.064 29.055L24.8718 27.1939C23.9344 25.7304 22.1244 25.0807 20.4704 25.6146C18.4938 26.2523 17.3927 28.3159 17.9635 30.3128L18.0529 30.6253C18.5219 32.2664 19.1616 33.8486 19.9528 35.3475L12.552 31.0747C10.79 30.0573 10.1842 27.7963 11.2015 26.0344L23.9256 3.99599C24.4184 3.14245 25.214 2.53189 26.166 2.27677C27.1179 2.02155 28.1123 2.1526 28.9658 2.64543L35.7997 6.59087C36.3136 6.88766 36.9704 6.7116 37.267 6.19772C37.5637 5.68394 37.3876 5.02709 36.8739 4.7304L30.04 0.784964C28.6894 0.00532911 27.1161 -0.201986 25.6099 0.201688C24.1037 0.605254 22.8446 1.57137 22.065 2.92181L21.3862 4.09739C18.7616 3.33935 16.0478 2.92643 13.306 2.87122C13.2986 2.87111 13.2913 2.87101 13.284 2.87101C12.7008 2.87101 12.2222 3.33784 12.2104 3.92359C12.1985 4.51664 12.6696 5.00721 13.2628 5.01914C15.6391 5.06694 17.9925 5.40326 20.2774 6.01812L13.1631 18.3403C11.6193 17.8095 10.0085 17.5251 8.36253 17.4958C7.76808 17.4838 7.27998 17.9574 7.26934 18.5505C7.25871 19.1438 7.73102 19.633 8.32418 19.6437C9.60287 19.6666 10.8566 19.8676 12.0655 20.2413L9.3412 24.9601C7.73166 27.7479 8.69026 31.3255 11.4781 32.9351L22.5877 39.3492C23.8697 40.9391 25.3479 42.3735 26.9929 43.607V53.9252C26.9929 54.5184 27.4738 54.9994 28.067 54.9994C28.6603 54.9994 29.1412 54.5184 29.1412 53.9252V43.0625C29.1412 42.7157 28.9738 42.3901 28.6917 42.1885C24.5593 39.235 21.5147 34.9186 20.1186 30.0348L20.0292 29.7223C19.7785 28.8454 20.2621 27.9391 21.13 27.6592C21.8562 27.425 22.6513 27.7101 23.0629 28.3526L26.2339 33.3027C26.4911 33.7043 26.9824 33.8882 27.4402 33.7542C27.898 33.6203 28.2125 33.2004 28.2125 32.7233V28.2743C28.2126 28.2672 28.2127 28.2602 28.2127 28.2531V16.056C28.2127 15.3582 28.7805 14.7903 29.4784 14.7903C30.1763 14.7903 30.7441 15.3582 30.7441 16.056V26.1439C30.7441 26.7371 31.225 27.2181 31.8183 27.2181C32.4115 27.2181 32.8924 26.7371 32.8924 26.1439V13.4979C32.8924 12.8 33.4602 12.2322 34.1581 12.2322C34.8561 12.2322 35.4238 12.8 35.4238 13.4979V26.1439C35.4238 26.7371 35.9047 27.2181 36.498 27.2181C37.0913 27.2181 37.5722 26.7371 37.5722 26.1439V16.056C37.5722 15.3582 38.14 14.7903 38.8379 14.7903C39.5358 14.7903 40.1036 15.3582 40.1036 16.056V26.1439C40.1036 26.7371 40.5845 27.2181 41.1777 27.2181C41.771 27.2181 42.2519 26.7371 42.2519 26.1439V22.1438C42.2519 21.4459 42.8197 20.8781 43.5176 20.8781C44.2155 20.8781 44.7833 21.4459 44.7833 22.1438V30.9488C44.7833 35.168 43.0698 39.2965 40.0821 42.2756C39.88 42.4771 39.7664 42.7508 39.7664 43.0363V53.9255C39.7664 54.5186 40.2473 54.9996 40.8406 54.9996C41.4338 54.9996 41.9147 54.5186 41.9147 53.9255V43.4744C44.2494 41.0306 45.8249 38.046 46.5226 34.8076L54.2151 21.4838C54.995 20.1333 55.2021 18.5599 54.7985 17.0537Z" fill="#264B93"/>
<path d="M1.07494 7.31742C1.212 7.31742 1.35143 7.29099 1.48592 7.23514C3.64651 6.33949 5.91795 5.7054 8.2372 5.35039C8.8237 5.2607 9.2263 4.71255 9.13649 4.12615C9.0468 3.53966 8.49887 3.1377 7.91226 3.22686C5.42222 3.60787 2.98331 4.28878 0.663207 5.25071C0.115165 5.47789 -0.144893 6.10629 0.0822949 6.65433C0.253625 7.06789 0.653432 7.31742 1.07494 7.31742Z" fill="#264B93"/>
<path d="M1.07494 14.3218C1.21114 14.3218 1.3496 14.2957 1.48334 14.2406C4.83583 12.8609 8.51734 12.3665 12.1299 12.8106C12.7189 12.884 13.2548 12.4645 13.3272 11.8757C13.3996 11.2869 12.981 10.7508 12.3921 10.6784C8.4139 10.1889 4.35879 10.734 0.665677 12.254C0.117097 12.4798 -0.144679 13.1074 0.0811122 13.6561C0.251906 14.071 0.652465 14.3218 1.07494 14.3218Z" fill="#264B93"/>
<path d="M2.67049 18.4572C1.94511 18.7246 1.2339 19.0491 0.556523 19.4217C0.0367309 19.7077 -0.152861 20.3608 0.133084 20.8806C0.328691 21.2362 0.696165 21.4373 1.07524 21.4373C1.25022 21.4373 1.42789 21.3943 1.59203 21.3041C2.17562 20.9831 2.78844 20.7035 3.4135 20.4731C3.97014 20.268 4.25511 19.6504 4.04984 19.0937C3.84467 18.5371 3.22702 18.2519 2.67049 18.4572Z" fill="#264B93"/>
<path d="M40.5225 9.15177C40.805 9.15177 41.0811 9.03683 41.2819 8.83702C41.4817 8.63722 41.5967 8.36007 41.5967 8.07755C41.5967 7.79396 41.4817 7.51681 41.2819 7.317C41.0811 7.11731 40.8049 7.00226 40.5225 7.00226C40.2399 7.00226 39.9628 7.1172 39.763 7.317C39.5621 7.51788 39.4482 7.79396 39.4482 8.07755C39.4482 8.36007 39.5621 8.63614 39.763 8.83702C39.9628 9.03683 40.2388 9.15177 40.5225 9.15177Z" fill="#264B93"/>
</g>
<defs>
<clipPath id="clip0">
<rect width="55" height="55" fill="white"/>
</clipPath>
</defs>
</svg>
