<svg width="55" height="55" viewBox="0 0 55 55" fill="none" xmlns="http://www.w3.org/2000/svg">
<path d="M53.6636 6.60865C53.301 6.52431 52.92 6.63383 52.6582 6.89819L48.2048 11.3868H46.0698L43.7195 8.95179V6.78699L48.1091 2.33191C48.3688 2.06839 48.4746 1.68948 48.3886 1.32903C48.303 0.968998 48.0378 0.678623 47.687 0.560291C46.5842 0.18851 45.4303 0.000101918 44.2566 0.000101918C40.7578 0.000101918 37.5792 1.63157 35.5357 4.47616C33.6231 7.13905 33.0335 10.4024 33.8782 13.5256L25.9655 21.4383L12.7828 8.22544V5.6322C12.7828 5.25497 12.5847 4.90501 12.2612 4.71114L4.66572 0.153262C4.24275 -0.100606 3.70186 -0.0338871 3.35358 0.314815L0.315552 3.35242C-0.0327302 3.70113 -0.0994492 4.24201 0.154 4.66499L4.71104 12.2605C4.9049 12.584 5.25445 12.7816 5.63168 12.7821L8.22408 12.7829L21.408 25.9958L13.5255 33.8783C10.4023 33.034 7.13727 33.6244 4.47312 35.5383C1.63021 37.5806 0 40.7584 0 44.2571C0 45.4304 0.188408 46.5847 0.560189 47.6871C0.678941 48.04 0.972253 48.3064 1.3348 48.3904C1.69777 48.4747 2.07836 48.3652 2.34062 48.1008L6.7936 43.6126H8.94036L11.3863 46.0585V48.2053L6.89809 52.6583C6.63373 52.9205 6.52421 53.3011 6.60855 53.6641C6.69247 54.0266 6.95893 54.32 7.31183 54.4387C8.41416 54.8105 9.56853 54.9989 10.7418 54.9989C14.2405 54.9989 17.4179 53.3683 19.4606 50.5254C21.3745 47.8612 21.9649 44.5966 21.1206 41.4734L27.4514 35.1426L28.9016 36.7179L28.236 37.383C27.8164 37.8026 27.8164 38.4828 28.236 38.9024C28.6557 39.3216 29.3354 39.3216 29.7555 38.9024L30.358 38.2998L43.9645 53.0796C43.9746 53.0905 43.9851 53.101 43.9956 53.1115C46.5133 55.6292 50.5924 55.63 53.1114 53.111C55.6232 50.598 55.6232 46.5088 53.1114 43.9957C53.1004 43.9848 53.0891 43.9743 53.0778 43.9638L38.275 30.3833L38.8708 29.7875C39.2904 29.3683 39.2904 28.6881 38.8708 28.2684C38.4512 27.8488 37.7714 27.8488 37.3514 28.2684L36.6905 28.9298L35.1123 27.4812L41.4737 21.1199C42.378 21.3616 43.3112 21.4841 44.2566 21.4841C50.1799 21.4841 54.9984 16.6652 54.9984 10.7423C54.9984 9.56863 54.81 8.41468 54.4382 7.31193C54.3194 6.95903 54.0261 6.69258 53.6636 6.60865ZM9.43006 10.95C9.22864 10.7482 8.95547 10.6454 8.67013 10.6454L6.24055 10.6445L2.4279 4.27894L4.27968 2.42717L10.6344 6.24065V8.67023C10.6344 8.95473 10.7472 9.22748 10.9482 9.4289L24.4465 22.9578L22.927 24.4768L9.43006 10.95ZM36.7543 31.904L51.6075 45.5302C53.2666 47.207 53.2616 49.922 51.5919 51.5924C49.9185 53.2659 47.2094 53.2709 45.5293 51.6071L31.8783 36.7791L36.7543 31.904ZM35.1698 30.45L30.4218 35.1972L28.9716 33.6219L33.5916 29.0015L35.1698 30.45ZM44.2566 19.3356C43.3171 19.3356 42.3931 19.185 41.511 18.8879C41.1246 18.7582 40.6974 18.8581 40.4087 19.1464C35.0233 24.5318 23.4193 36.1354 19.1463 40.4088C18.8576 40.6975 18.7573 41.1247 18.8878 41.5116C19.7808 44.1631 19.3536 46.9913 17.7154 49.272C16.0818 51.5459 13.5398 52.8505 10.7418 52.8505C10.4275 52.8505 10.1149 52.8333 9.80519 52.8001L13.2171 49.4146C13.4202 49.2132 13.5348 48.9388 13.5348 48.6522V45.6133C13.5348 45.3284 13.4215 45.0552 13.22 44.8538L10.1447 41.7784C9.94325 41.577 9.67008 41.4637 9.38516 41.4637H6.34629C6.05969 41.4637 5.78526 41.5783 5.58343 41.7814L2.19837 45.1933C2.1648 44.8836 2.14802 44.571 2.14802 44.2567C2.14802 41.4583 3.45219 38.9167 5.72651 37.2831C8.00671 35.6449 10.8354 35.2173 13.4873 36.1107C13.8738 36.2412 14.301 36.1409 14.5897 35.8522C14.6488 35.7934 35.837 14.6049 35.8521 14.5898C36.1408 14.3011 36.2407 13.8743 36.1106 13.4874C35.2172 10.8359 35.6435 8.0085 37.2805 5.72955C38.9153 3.45355 41.4578 2.14854 44.2562 2.14854C44.5801 2.14854 44.902 2.16659 45.2209 2.20183L41.8799 5.59276C41.6818 5.79376 41.571 6.06441 41.571 6.34639V9.38526C41.571 9.66388 41.6789 9.93118 41.8723 10.1313L44.8403 13.2067C45.0425 13.4165 45.3216 13.5349 45.6132 13.5349H48.6521C48.9383 13.5349 49.2127 13.4207 49.4145 13.2172L52.7996 9.80571C52.8332 10.1154 52.8499 10.428 52.8499 10.7423C52.8499 15.4806 48.9949 19.3356 44.2566 19.3356Z" fill="#264B93"/>
<path d="M47.0353 48.5547C47.4549 48.9731 48.1351 48.9731 48.5547 48.5522C48.9735 48.1322 48.9722 47.452 48.5522 47.0332L38.8695 37.3816C38.4495 36.9628 37.7689 36.9641 37.3505 37.3841C36.9313 37.8046 36.9326 38.4843 37.3526 38.9031L47.0353 48.5547Z" fill="#264B93"/>
</svg>
