<svg width="12" height="12" viewBox="0 0 12 12" fill="none" xmlns="http://www.w3.org/2000/svg">
<path d="M6 0C2.69147 0 0 2.69147 0 6C0 9.30853 2.69147 12 6 12C9.30853 12 12 9.30853 12 6C12 2.69147 9.30853 0 6 0Z" fill="#E5E5E5"/>
<path d="M9.04114 4.72839L5.79111 7.97833C5.6936 8.07584 5.56561 8.12491 5.43762 8.12491C5.30963 8.12491 5.18164 8.07584 5.08414 7.97833L3.45917 6.35336C3.26361 6.1579 3.26361 5.84186 3.45917 5.64639C3.65463 5.45084 3.97058 5.45084 4.16614 5.64639L5.43762 6.91788L8.33417 4.02142C8.52963 3.82587 8.84558 3.82587 9.04114 4.02142C9.2366 4.21689 9.2366 4.53284 9.04114 4.72839Z" fill="#2F80ED"/>
</svg>
