<svg width="49" height="38" viewBox="0 0 49 38" fill="none" xmlns="http://www.w3.org/2000/svg">
<g clip-path="url(#clip0)">
<path d="M47.9336 35.465L39.4024 26.9338C41.0549 24.8926 42.0499 22.2989 42.0499 19.4739C42.0499 12.9265 36.7225 7.59901 30.175 7.59901C23.6276 7.59901 18.3002 12.9264 18.3002 19.4739C18.3002 26.0213 23.6276 31.3488 30.1751 31.3488C33 31.3488 35.5938 30.3538 37.635 28.7013L46.1662 37.2324C46.4099 37.4762 46.7299 37.5987 47.0499 37.5987C47.3699 37.5987 47.6899 37.4762 47.9337 37.2324C48.4224 36.7437 48.4224 35.9537 47.9336 35.465ZM30.1751 28.8488C25.0051 28.8488 20.8002 24.6438 20.8002 19.4739C20.8002 14.3039 25.0051 10.0989 30.1751 10.0989C35.345 10.0989 39.55 14.3039 39.55 19.4739C39.55 24.6438 35.345 28.8488 30.1751 28.8488Z" fill="white" stroke="#2F80ED"/>
</g>
<circle cx="13.8002" cy="13.3489" r="11.5" fill="white" stroke="#2F80ED" stroke-width="3"/>
<path d="M15.385 9.04888V18.8489H13.117V10.8689H11.157V9.04888H15.385Z" fill="#333333"/>
<defs>
<clipPath id="clip0">
<rect width="30" height="30" fill="white" transform="translate(18.3002 7.59888)"/>
</clipPath>
</defs>
</svg>
