<svg width="49" height="39" viewBox="0 0 49 39" fill="none" xmlns="http://www.w3.org/2000/svg">
<g clip-path="url(#clip0)">
<path d="M35.3671 35.4551C35.3671 35.7811 41.3534 36.0457 33.3002 36.0457C25.2469 36.0457 30.7017 35.7811 30.7017 35.4551C30.7017 35.1297 24.9943 34.8646 33.3002 34.8646C41.6061 34.8646 35.3671 35.1297 35.3671 35.4551ZM23.0025 20.9276C22.6763 20.9276 22.4119 21.192 22.4119 21.5181C22.4119 21.8443 22.6763 22.1087 23.0025 22.1087H24.2057V28.0142C24.2057 28.3404 24.4701 28.6047 24.7962 28.6047C25.1224 28.6047 25.3868 28.3404 25.3868 28.0142V22.1087H26.59C26.9161 22.1087 27.1805 21.8443 27.1805 21.5181C27.1805 21.192 26.9161 20.9276 26.59 20.9276H23.0025ZM43.4577 16.3213C44.8253 16.3213 45.938 17.4339 45.938 18.8016C45.938 20.1693 44.8253 21.2819 43.4577 21.2819C42.09 21.2819 40.9773 20.1693 40.9773 18.8016C40.9773 17.4339 42.09 16.3213 43.4577 16.3213ZM42.1584 18.8016C42.1584 19.518 42.7413 20.1008 43.4577 20.1008C44.174 20.1008 44.7569 19.518 44.7569 18.8016C44.7569 18.0852 44.174 17.5024 43.4577 17.5024C42.7413 17.5024 42.1584 18.0852 42.1584 18.8016ZM41.8041 36.0457H35.9577C35.6192 36.0457 35.3459 35.7594 35.3684 35.4156C35.389 35.1018 35.6639 34.8646 35.9784 34.8646H41.2136V33.6835H36.8435C35.865 33.6835 35.0718 32.8903 35.0718 31.9118V30.3764C35.0718 29.3979 35.865 28.6047 36.8435 28.6047H41.2136V26.1244H33.064C32.7378 26.1244 32.4734 25.86 32.4734 25.5339V14.5496C32.4734 14.2235 32.7378 13.9591 33.064 13.9591H41.2136V12.4236C41.2136 12.0975 40.9492 11.8331 40.623 11.8331H25.9773C25.6512 11.8331 25.3868 12.0975 25.3868 12.4236V18.2701H30.7017C31.0279 18.2701 31.2923 18.5345 31.2923 18.8606V30.6717C31.2923 30.9978 31.0279 31.2622 30.7017 31.2622H25.3868V34.8646H30.622C30.9365 34.8646 31.2114 35.1018 31.2319 35.4156C31.2544 35.7594 30.9811 36.0457 30.6427 36.0457H24.7962C24.4701 36.0457 24.2057 35.7813 24.2057 35.4551V31.2622H18.8907C18.5646 31.2622 18.3002 30.9978 18.3002 30.6717V18.8606C18.3002 18.5345 18.5646 18.2701 18.8907 18.2701H24.2057V12.4236C24.2057 11.4452 24.9989 10.652 25.9773 10.652H40.623C41.6015 10.652 42.3947 11.4452 42.3947 12.4236V13.9591H47.7096C48.0358 13.9591 48.3002 14.2235 48.3002 14.5496V25.5339C48.3002 25.86 48.0358 26.1244 47.7096 26.1244H42.3947V28.6047H43.9301C44.9086 28.6047 45.7017 29.3979 45.7017 30.3764V31.9118C45.7017 32.8903 44.9086 33.6835 43.9301 33.6835H42.3947V35.4551C42.3947 35.7813 42.1303 36.0457 41.8041 36.0457ZM30.1112 19.4512H19.4813V30.0811H30.1112V19.4512ZM43.9301 29.7858H36.8435C36.5178 29.7858 36.2529 30.0508 36.2529 30.3764V31.9118C36.2529 32.2375 36.5178 32.5024 36.8435 32.5024H43.9301C44.2557 32.5024 44.5206 32.2375 44.5206 31.9118V30.3764C44.5206 30.0508 44.2557 29.7858 43.9301 29.7858ZM33.6545 24.9433H42.8018L37.35 19.847C36.6716 19.2129 35.6087 19.2128 34.9303 19.847L33.6545 21.0397V24.9433ZM47.1191 15.1402H33.6545V19.4229L34.1238 18.9843C35.2545 17.9273 37.026 17.9273 38.1566 18.9843L44.5315 24.9433H47.1191V15.1402Z" fill="white"/>
</g>
<circle cx="13.8002" cy="13.3489" r="11.5" fill="white" stroke="#2F80ED" stroke-width="3"/>
<path d="M17.5393 17.0009V18.8489H10.1333V17.3789L13.9133 13.8089C14.3146 13.4262 14.5853 13.0995 14.7253 12.8289C14.8653 12.5489 14.9353 12.2735 14.9353 12.0029C14.9353 11.6109 14.7999 11.3122 14.5293 11.1069C14.2679 10.8922 13.8806 10.7849 13.3673 10.7849C12.9379 10.7849 12.5506 10.8689 12.2053 11.0369C11.8599 11.1955 11.5706 11.4382 11.3373 11.7649L9.68526 10.7009C10.0679 10.1315 10.5953 9.68821 11.2673 9.37088C11.9393 9.04421 12.7093 8.88088 13.5773 8.88088C14.3053 8.88088 14.9399 9.00221 15.4813 9.24488C16.0319 9.47821 16.4566 9.81421 16.7553 10.2529C17.0633 10.6822 17.2173 11.1909 17.2173 11.7789C17.2173 12.3109 17.1053 12.8102 16.8813 13.2769C16.6573 13.7435 16.2233 14.2755 15.5793 14.8729L13.3253 17.0009H17.5393Z" fill="#333333"/>
<defs>
<clipPath id="clip0">
<rect width="30" height="30" fill="white" transform="translate(18.3002 8.34888)"/>
</clipPath>
</defs>
</svg>
