<svg width="49" height="40" viewBox="0 0 49 40" fill="none" xmlns="http://www.w3.org/2000/svg">
<g clip-path="url(#clip0)">
<path d="M46.2997 9.59865H20.3007C19.1977 9.59865 18.3002 10.4962 18.3002 11.5992V28.0986C18.3002 28.3746 18.5242 28.5986 18.8002 28.5986H47.8001C48.0761 28.5986 48.3001 28.3746 48.3001 28.0986V11.5992C48.3002 10.4962 47.4027 9.59865 46.2997 9.59865ZM47.3002 27.5987H19.3002V11.5992C19.3002 11.0471 19.7492 10.5987 20.3007 10.5987H46.2997C46.8511 10.5987 47.3002 11.0471 47.3002 11.5992V27.5987Z" fill="white"/>
<path d="M47.8002 27.5986H18.8002C18.5242 27.5986 18.3002 27.8226 18.3002 28.0986V30.5981C18.3002 31.7011 19.1977 32.5986 20.3007 32.5986H46.2997C47.4027 32.5986 48.3002 31.7011 48.3002 30.5981V28.0986C48.3002 27.8226 48.0762 27.5986 47.8002 27.5986ZM47.3002 30.5981C47.3002 31.1501 46.8511 31.5986 46.2997 31.5986H20.3007C19.7492 31.5986 19.3002 31.1501 19.3002 30.5981V28.5986H47.3002V30.5981H47.3002Z" fill="white"/>
<path d="M34.8002 29.5987H31.8002C31.5242 29.5987 31.3002 29.8227 31.3002 30.0987C31.3002 30.3747 31.5242 30.5987 31.8002 30.5987H34.8002C35.0761 30.5987 35.3001 30.3747 35.3001 30.0987C35.3001 29.8227 35.0761 29.5987 34.8002 29.5987Z" fill="white"/>
<path d="M39.8001 35.5987H26.8002C25.9732 35.5987 25.3002 36.2717 25.3002 37.0987C25.3002 37.9257 25.9732 38.5987 26.8002 38.5987H39.8002C40.6272 38.5987 41.3002 37.9257 41.3002 37.0987C41.3002 36.2717 40.6271 35.5987 39.8001 35.5987ZM39.8001 37.5987H26.8002C26.5242 37.5987 26.3002 37.3742 26.3002 37.0987C26.3002 36.8232 26.5242 36.5987 26.8002 36.5987H39.8002C40.0762 36.5987 40.3002 36.8232 40.3002 37.0987C40.3002 37.3742 40.0762 37.5987 39.8001 37.5987Z" fill="white"/>
<path d="M38.8002 35.5987C37.1412 35.5987 36.3002 34.4212 36.3002 32.0987C36.3002 31.8227 36.0762 31.5987 35.8002 31.5987H30.8003C30.5243 31.5987 30.3003 31.8227 30.3003 32.0987C30.3003 34.4212 29.4593 35.5987 27.8003 35.5987C27.5243 35.5987 27.3003 35.8227 27.3003 36.0987C27.3003 36.3746 27.5243 36.5986 27.8003 36.5986H38.8002C39.0762 36.5986 39.3002 36.3746 39.3002 36.0987C39.3002 35.8227 39.0762 35.5987 38.8002 35.5987ZM30.2357 35.5987C30.8512 34.9167 31.2137 33.9012 31.2867 32.5987H35.3142C35.3867 33.9012 35.7492 34.9167 36.3652 35.5987H30.2357Z" fill="white"/>
<path d="M42.1921 24.3306L40.9852 23.1236L41.6567 22.4521C41.7812 22.3276 41.8311 22.1466 41.7881 21.9761C41.7451 21.8056 41.6156 21.6706 41.4471 21.6196L36.4472 20.1196C36.2707 20.0666 36.0802 20.1151 35.9502 20.2452C35.8197 20.3752 35.7717 20.5661 35.8247 20.7421L37.3247 25.7421C37.3752 25.9111 37.5106 26.0406 37.6811 26.0836C37.8511 26.1256 38.0326 26.0766 38.1572 25.9521L38.8641 25.2446L40.0711 26.4521C40.1646 26.5461 40.2921 26.5986 40.4246 26.5986C40.5571 26.5986 40.6846 26.5461 40.7781 26.4521L42.1921 25.0376C42.3876 24.8421 42.3876 24.5261 42.1921 24.3306ZM40.4246 25.3916L39.3256 24.2921C39.1981 24.1646 39.0311 24.1011 38.8641 24.1011C38.6966 24.1011 38.5296 24.1651 38.4027 24.2916L38.0417 24.6526L37.0491 21.3441L40.3576 22.3366L39.9706 22.7236C39.8641 22.8306 39.8056 22.9726 39.8056 23.1236C39.8056 23.2752 39.8646 23.4181 39.9716 23.5241L41.1316 24.6841L40.4246 25.3916Z" fill="white"/>
<path d="M39.3002 13.5986H25.3002C25.0242 13.5986 24.8002 13.8226 24.8002 14.0986V16.5986C24.8002 16.8746 25.0242 17.0986 25.3002 17.0986H39.3002C39.5762 17.0986 39.8002 16.8746 39.8002 16.5986V14.0986C39.8002 13.8226 39.5762 13.5986 39.3002 13.5986ZM38.8002 16.0986H25.8002V14.5986H38.8002V16.0986Z" fill="white"/>
<path d="M31.3002 19.0987H27.3002C27.0242 19.0987 26.8002 19.3227 26.8002 19.5986V21.5986C26.8002 21.8746 27.0242 22.0986 27.3002 22.0986H31.3002C31.5761 22.0986 31.8002 21.8746 31.8002 21.5986V19.5986C31.8002 19.3227 31.5761 19.0987 31.3002 19.0987ZM30.8001 21.0986H27.8001V20.0986H30.8001V21.0986Z" fill="white"/>
<path d="M39.3002 13.5986H25.3002C25.0242 13.5986 24.8002 13.8226 24.8002 14.0986V23.5986C24.8002 23.8745 25.0242 24.0985 25.3002 24.0985H37.2032C37.3617 24.0985 37.5102 24.0241 37.6043 23.897C37.6988 23.7701 37.7278 23.6061 37.6822 23.4545L37.0493 21.344L39.1568 21.9766C39.3083 22.0221 39.4723 21.9931 39.5987 21.8986C39.7257 21.8046 39.8002 21.6556 39.8002 21.4976V14.0986C39.8002 13.8226 39.5762 13.5986 39.3002 13.5986ZM38.8002 20.8256L36.4467 20.1196C36.2702 20.0666 36.0797 20.1151 35.9497 20.2451C35.8192 20.3756 35.7712 20.5661 35.8242 20.7426L36.5312 23.0986H25.8002V14.5986H38.8002V20.8256Z" fill="white"/>
</g>
<circle cx="13.8002" cy="13.3486" r="11.5" fill="white" stroke="#2F80ED" stroke-width="3"/>
<path d="M14.7816 13.0386C15.6403 13.1786 16.2983 13.5006 16.7556 14.0046C17.2129 14.4993 17.4416 15.1153 17.4416 15.8526C17.4416 16.422 17.2923 16.9493 16.9936 17.4346C16.6949 17.9106 16.2376 18.2933 15.6216 18.5826C15.0149 18.872 14.2683 19.0166 13.3816 19.0166C12.6909 19.0166 12.0096 18.928 11.3376 18.7506C10.6749 18.564 10.1103 18.3026 9.64359 17.9666L10.5256 16.2306C10.8989 16.5106 11.3283 16.73 11.8136 16.8886C12.3083 17.038 12.8123 17.1126 13.3256 17.1126C13.8949 17.1126 14.3429 17.0053 14.6696 16.7906C14.9963 16.5666 15.1596 16.254 15.1596 15.8526C15.1596 15.05 14.5483 14.6486 13.3256 14.6486H12.2896V13.1506L14.3056 10.8686H10.1336V9.04863H16.9936V10.5186L14.7816 13.0386Z" fill="#333333"/>
<defs>
<clipPath id="clip0">
<rect width="30" height="30" fill="white" transform="translate(18.3002 9.09863)"/>
</clipPath>
</defs>
</svg>
