<svg width="49" height="40" viewBox="0 0 49 40" fill="none" xmlns="http://www.w3.org/2000/svg">
<g clip-path="url(#clip0)">
<path d="M47.7108 39.2612C47.3853 39.2612 47.1214 38.9973 47.1214 38.6717C47.1214 38.3462 47.3853 38.0823 47.7108 38.0823C48.0364 38.0823 48.3003 38.3462 48.3003 38.6717C48.3003 38.9973 48.0364 39.2612 47.7108 39.2612Z" fill="white"/>
<path d="M32.6554 24.3105C32.3305 24.3105 32.0671 24.0471 32.0671 23.7222C32.0671 23.3973 32.3305 23.1339 32.6554 23.1339C32.9803 23.1339 33.2437 23.3973 33.2437 23.7222C33.2437 24.0471 32.9803 24.3105 32.6554 24.3105Z" fill="white"/>
<path d="M24.9519 16.2646C25.4248 15.7916 26.0535 15.5312 26.7223 15.5312C27.3911 15.5312 28.0199 15.7917 28.4928 16.2646C29.469 17.2408 29.469 18.8293 28.4928 19.8056C28.0046 20.2937 27.3636 20.5377 26.7223 20.5377C26.0813 20.5377 25.4399 20.2936 24.9519 19.8056C23.9756 18.8293 23.9756 17.2408 24.9519 16.2646ZM25.7837 18.9736C26.3013 19.4911 27.1434 19.4911 27.6609 18.9736C28.1784 18.4561 28.1784 17.614 27.6609 17.0964C27.4102 16.8457 27.0769 16.7076 26.7223 16.7076C26.3678 16.7076 26.0345 16.8457 25.7838 17.0964C25.2662 17.614 25.2662 18.4561 25.7837 18.9736Z" fill="white"/>
<path d="M40.9521 33.4571C41.243 33.3122 41.596 33.4307 41.7409 33.7215L42.4416 35.1286C42.7462 35.7404 43.359 36.1495 44.0409 36.1961L44.8559 36.2519C44.9936 36.2611 45.0842 36.1925 45.1261 36.1506C45.168 36.1087 45.2368 36.0179 45.2274 35.8803L45.1716 35.0654C45.1249 34.3836 44.7158 33.7707 44.1041 33.466L42.697 32.7654C42.4062 32.6205 42.2878 32.2674 42.4327 31.9766C42.5774 31.6858 42.9306 31.5674 43.2214 31.7122L44.6285 32.4129C45.6124 32.9028 46.2703 33.8884 46.3454 34.985L46.4012 35.7999C46.4313 36.2398 46.2698 36.6708 45.9581 36.9825C45.6711 37.2695 45.283 37.4292 44.8798 37.4292C44.8452 37.4292 44.8103 37.428 44.7755 37.4256L43.9606 37.3699C42.864 37.2948 41.8784 36.637 41.3885 35.6529L40.6878 34.2459C40.5429 33.955 40.6613 33.6019 40.9521 33.4571Z" fill="white"/>
<path d="M18.7063 9.82794C18.9823 9.55601 19.3626 9.4138 19.7489 9.43894L20.2966 9.47386C25.2079 9.78739 29.8042 12.158 32.9069 15.978L34.1962 17.5653L37.5702 17.4662C37.5759 17.466 37.5817 17.4659 37.5874 17.4659C40.2633 17.4659 42.779 18.508 44.6712 20.4001L48.1269 23.8559C48.2913 24.0203 48.3435 24.2661 48.26 24.483C48.1766 24.6999 47.9733 24.8475 47.7411 24.8593L40.4261 25.2351L40.7243 25.6023C40.8746 25.7874 40.8984 26.0449 40.7844 26.2543C40.6698 26.465 40.5497 26.6724 40.4244 26.8764L42.1591 28.9358C42.3074 29.1119 42.3394 29.3583 42.241 29.5665C41.8621 30.3671 41.3592 31.0866 40.746 31.7047C40.118 32.338 39.3837 32.8559 38.5635 33.244C38.4833 33.282 38.3974 33.3006 38.3119 33.3006C38.1794 33.3006 38.0481 33.2558 37.9412 33.1692C37.5675 32.866 37.1367 32.5064 36.7199 32.1587C36.4229 31.9109 36.1191 31.6573 35.835 31.4235C35.6655 31.5255 35.4939 31.6244 35.3197 31.7192C35.2316 31.7671 35.135 31.7907 35.0387 31.7907C34.9106 31.7907 34.7833 31.749 34.678 31.6672L34.277 31.3561L33.8996 38.702C33.8876 38.9342 33.7401 39.1375 33.5232 39.2209C33.4546 39.2473 33.3832 39.2602 33.3123 39.2602C33.1591 39.2602 33.0086 39.2002 32.8962 39.0878L29.4404 35.632C27.5482 33.7398 26.5063 31.2241 26.5063 28.5482V25.3258L25.143 24.2679C21.0573 21.0974 18.569 16.3165 18.3161 11.151L18.3021 10.8647C18.283 10.4777 18.4304 10.0999 18.7063 9.82794ZM46.3595 23.7523L43.8393 21.2321C42.1714 19.5642 39.9543 18.6447 37.5959 18.6425L35.13 18.7149L39.5075 24.1043L46.3595 23.7523ZM37.4737 31.2554C37.7808 31.5115 38.0956 31.7743 38.3877 32.0146C38.9528 31.7085 39.464 31.3267 39.9107 30.8762C40.3434 30.44 40.7116 29.9433 41.0086 29.3961L39.7385 27.8883C39.3545 28.4035 38.9341 28.8916 38.48 29.3488C38.4797 29.3491 38.4793 29.3494 38.479 29.3498C38.4789 29.3499 38.4787 29.3501 38.4786 29.3502C38.4784 29.3504 38.4783 29.3505 38.4781 29.3507C37.9746 29.8574 37.433 30.3224 36.8585 30.7429C37.0614 30.9113 37.2692 31.0847 37.4737 31.2554ZM27.6826 28.5482C27.6826 30.9098 28.6022 33.1301 30.2722 34.8001L32.7924 37.3203L33.1441 30.477L27.6826 26.2389V28.5482H27.6826ZM19.491 11.0935C19.7271 15.9156 22.05 20.3787 25.8641 23.3385L35.0903 30.498C35.8554 30.0509 36.5685 29.523 37.2212 28.925L34.1107 25.8145C33.881 25.5848 33.881 25.2122 34.1107 24.9825C34.3404 24.7527 34.7129 24.7527 34.9427 24.9825L38.0502 28.0901C38.6216 27.4575 39.1276 26.7693 39.5585 26.0332L31.9936 16.7198C29.0972 13.1538 24.8065 10.9407 20.2217 10.6481L19.674 10.6132C19.6022 10.6087 19.5542 10.6443 19.532 10.6661C19.5099 10.6879 19.4734 10.7352 19.4769 10.8073L19.491 11.0935Z" fill="white"/>
</g>
<circle cx="13.8002" cy="13.3486" r="11.5" fill="white" stroke="#2F80ED" stroke-width="3"/>
<path d="M18.494 16.7906H16.898V18.8486H14.686V16.7906H9.408V15.2646L14.028 9.04863H16.408L12.124 14.9426H14.756V13.1086H16.898V14.9426H18.494V16.7906Z" fill="#333333"/>
<defs>
<clipPath id="clip0">
<rect width="30" height="30" fill="white" transform="matrix(-1 0 0 1 48.3003 9.34863)"/>
</clipPath>
</defs>
</svg>
