<svg width="1920" height="691" viewBox="0 0 1920 691" fill="none" xmlns="http://www.w3.org/2000/svg">
<rect y="0.999969" width="1929" height="690" fill="#2F80ED"/>
<g opacity="0.1">
<circle cx="1322.99" cy="50.7132" r="4.60777" transform="rotate(150 1322.99 50.7132)" fill="white"/>
<ellipse cx="1312.29" cy="32.1695" rx="4.60777" ry="4.33672" transform="rotate(150 1312.29 32.1695)" fill="white"/>
<circle cx="1301.58" cy="13.6257" r="4.60777" transform="rotate(150 1301.58 13.6257)" fill="white"/>
<ellipse cx="1290.88" cy="-4.91814" rx="4.60777" ry="4.33672" transform="rotate(150 1290.88 -4.91814)" fill="white"/>
<circle cx="1304.68" cy="61.2841" r="4.60777" transform="rotate(150 1304.68 61.2841)" fill="white"/>
<ellipse cx="1293.98" cy="42.7402" rx="4.60777" ry="4.33672" transform="rotate(150 1293.98 42.7402)" fill="white"/>
<circle cx="1283.27" cy="24.1965" r="4.60777" transform="rotate(150 1283.27 24.1965)" fill="white"/>
<ellipse cx="1272.57" cy="5.65263" rx="4.60777" ry="4.33672" transform="rotate(150 1272.57 5.65263)" fill="white"/>
<circle cx="1286.38" cy="71.8549" r="4.60777" transform="rotate(150 1286.38 71.8549)" fill="white"/>
<ellipse cx="1275.67" cy="53.311" rx="4.60777" ry="4.33672" transform="rotate(150 1275.67 53.311)" fill="white"/>
<circle cx="1264.96" cy="34.7672" r="4.60777" transform="rotate(150 1264.96 34.7672)" fill="white"/>
<ellipse cx="1254.26" cy="16.2234" rx="4.60777" ry="4.33672" transform="rotate(150 1254.26 16.2234)" fill="white"/>
<circle cx="1243.55" cy="-2.32041" r="4.60777" transform="rotate(150 1243.55 -2.32041)" fill="white"/>
<circle cx="1268.07" cy="82.4257" r="4.60777" transform="rotate(150 1268.07 82.4257)" fill="white"/>
<ellipse cx="1257.36" cy="63.8818" rx="4.60777" ry="4.33672" transform="rotate(150 1257.36 63.8818)" fill="white"/>
<circle cx="1246.65" cy="45.338" r="4.60777" transform="rotate(150 1246.65 45.338)" fill="white"/>
<ellipse cx="1235.95" cy="26.7941" rx="4.60777" ry="4.33672" transform="rotate(150 1235.95 26.7941)" fill="white"/>
<circle cx="1225.24" cy="8.25036" r="4.60777" transform="rotate(150 1225.24 8.25036)" fill="white"/>
<circle cx="1249.29" cy="93.2674" r="4.60777" transform="rotate(150 1249.29 93.2674)" fill="white"/>
<ellipse cx="1238.58" cy="74.7236" rx="4.60777" ry="4.33672" transform="rotate(150 1238.58 74.7236)" fill="white"/>
<circle cx="1227.88" cy="56.1798" r="4.60777" transform="rotate(150 1227.88 56.1798)" fill="white"/>
<ellipse cx="1217.17" cy="37.6359" rx="4.60777" ry="4.33672" transform="rotate(150 1217.17 37.6359)" fill="white"/>
<circle cx="1206.46" cy="19.0922" r="4.60777" transform="rotate(150 1206.46 19.0922)" fill="white"/>
</g>
<g opacity="0.1">
<circle cx="1232.46" cy="102.754" r="4.60777" transform="rotate(150 1232.46 102.754)" fill="white"/>
<ellipse cx="1221.76" cy="84.2103" rx="4.60777" ry="4.33672" transform="rotate(150 1221.76 84.2103)" fill="white"/>
<circle cx="1211.05" cy="65.6665" r="4.60777" transform="rotate(150 1211.05 65.6665)" fill="white"/>
<ellipse cx="1200.35" cy="47.1226" rx="4.60777" ry="4.33672" transform="rotate(150 1200.35 47.1226)" fill="white"/>
<circle cx="1189.64" cy="28.5789" r="4.60777" transform="rotate(150 1189.64 28.5789)" fill="white"/>
<circle cx="1214.16" cy="113.325" r="4.60777" transform="rotate(150 1214.16 113.325)" fill="white"/>
<ellipse cx="1203.45" cy="94.781" rx="4.60777" ry="4.33672" transform="rotate(150 1203.45 94.781)" fill="white"/>
<circle cx="1192.74" cy="76.2373" r="4.60777" transform="rotate(150 1192.74 76.2373)" fill="white"/>
<ellipse cx="1182.04" cy="57.6934" rx="4.60777" ry="4.33672" transform="rotate(150 1182.04 57.6934)" fill="white"/>
<circle cx="1171.33" cy="39.1496" r="4.60777" transform="rotate(150 1171.33 39.1496)" fill="white"/>
<circle cx="1195.85" cy="123.896" r="4.60777" transform="rotate(150 1195.85 123.896)" fill="white"/>
<ellipse cx="1185.14" cy="105.352" rx="4.60777" ry="4.33672" transform="rotate(150 1185.14 105.352)" fill="white"/>
<circle cx="1174.43" cy="86.808" r="4.60777" transform="rotate(150 1174.43 86.808)" fill="white"/>
<ellipse cx="1163.73" cy="68.2641" rx="4.60777" ry="4.33672" transform="rotate(150 1163.73 68.2641)" fill="white"/>
<circle cx="1153.02" cy="49.7204" r="4.60777" transform="rotate(150 1153.02 49.7204)" fill="white"/>
<circle cx="1177.54" cy="134.466" r="4.60777" transform="rotate(150 1177.54 134.466)" fill="white"/>
<ellipse cx="1166.83" cy="115.923" rx="4.60777" ry="4.33672" transform="rotate(150 1166.83 115.923)" fill="white"/>
<circle cx="1156.12" cy="97.3788" r="4.60777" transform="rotate(150 1156.12 97.3788)" fill="white"/>
<ellipse cx="1145.42" cy="78.8349" rx="4.60777" ry="4.33672" transform="rotate(150 1145.42 78.8349)" fill="white"/>
<circle cx="1134.71" cy="60.2911" r="4.60777" transform="rotate(150 1134.71 60.2911)" fill="white"/>
<circle cx="1158.76" cy="145.308" r="4.60777" transform="rotate(150 1158.76 145.308)" fill="white"/>
<ellipse cx="1148.05" cy="126.764" rx="4.60777" ry="4.33672" transform="rotate(150 1148.05 126.764)" fill="white"/>
<circle cx="1137.35" cy="108.221" r="4.60777" transform="rotate(150 1137.35 108.221)" fill="white"/>
<ellipse cx="1126.64" cy="89.6767" rx="4.60777" ry="4.33672" transform="rotate(150 1126.64 89.6767)" fill="white"/>
<circle cx="1115.93" cy="71.1329" r="4.60777" transform="rotate(150 1115.93 71.1329)" fill="white"/>
</g>
<g opacity="0.1">
<circle cx="1180.15" cy="589.75" r="4.60777" transform="rotate(150 1180.15 589.75)" fill="white"/>
<ellipse cx="1169.45" cy="571.206" rx="4.60777" ry="4.33672" transform="rotate(150 1169.45 571.206)" fill="white"/>
<circle cx="1158.74" cy="552.663" r="4.60777" transform="rotate(150 1158.74 552.663)" fill="white"/>
<ellipse cx="1148.04" cy="534.119" rx="4.60777" ry="4.33672" transform="rotate(150 1148.04 534.119)" fill="white"/>
<circle cx="1137.33" cy="515.575" r="4.60777" transform="rotate(150 1137.33 515.575)" fill="white"/>
<circle cx="1161.85" cy="600.321" r="4.60777" transform="rotate(150 1161.85 600.321)" fill="white"/>
<ellipse cx="1151.14" cy="581.777" rx="4.60777" ry="4.33672" transform="rotate(150 1151.14 581.777)" fill="white"/>
<circle cx="1140.43" cy="563.233" r="4.60777" transform="rotate(150 1140.43 563.233)" fill="white"/>
<ellipse cx="1129.73" cy="544.689" rx="4.60777" ry="4.33672" transform="rotate(150 1129.73 544.689)" fill="white"/>
<circle cx="1119.02" cy="526.146" r="4.60777" transform="rotate(150 1119.02 526.146)" fill="white"/>
<circle cx="1143.54" cy="610.892" r="4.60777" transform="rotate(150 1143.54 610.892)" fill="white"/>
<ellipse cx="1132.83" cy="592.348" rx="4.60777" ry="4.33672" transform="rotate(150 1132.83 592.348)" fill="white"/>
<circle cx="1122.12" cy="573.804" r="4.60777" transform="rotate(150 1122.12 573.804)" fill="white"/>
<ellipse cx="1111.42" cy="555.26" rx="4.60777" ry="4.33672" transform="rotate(150 1111.42 555.26)" fill="white"/>
<circle cx="1100.71" cy="536.716" r="4.60777" transform="rotate(150 1100.71 536.716)" fill="white"/>
<circle cx="1125.23" cy="621.463" r="4.60777" transform="rotate(150 1125.23 621.463)" fill="white"/>
<ellipse cx="1114.52" cy="602.919" rx="4.60777" ry="4.33672" transform="rotate(150 1114.52 602.919)" fill="white"/>
<circle cx="1103.81" cy="584.375" r="4.60777" transform="rotate(150 1103.81 584.375)" fill="white"/>
<ellipse cx="1093.11" cy="565.831" rx="4.60777" ry="4.33672" transform="rotate(150 1093.11 565.831)" fill="white"/>
<circle cx="1082.4" cy="547.287" r="4.60777" transform="rotate(150 1082.4 547.287)" fill="white"/>
<circle cx="1106.45" cy="632.304" r="4.60777" transform="rotate(150 1106.45 632.304)" fill="white"/>
<ellipse cx="1095.74" cy="613.76" rx="4.60777" ry="4.33672" transform="rotate(150 1095.74 613.76)" fill="white"/>
<circle cx="1085.04" cy="595.217" r="4.60777" transform="rotate(150 1085.04 595.217)" fill="white"/>
<ellipse cx="1074.33" cy="576.673" rx="4.60777" ry="4.33672" transform="rotate(150 1074.33 576.673)" fill="white"/>
<circle cx="1063.62" cy="558.129" r="4.60777" transform="rotate(150 1063.62 558.129)" fill="white"/>
</g>
<g opacity="0.1">
<circle cx="1089.63" cy="641.791" r="4.60777" transform="rotate(150 1089.63 641.791)" fill="white"/>
<ellipse cx="1078.92" cy="623.247" rx="4.60777" ry="4.33672" transform="rotate(150 1078.92 623.247)" fill="white"/>
<circle cx="1068.21" cy="604.703" r="4.60777" transform="rotate(150 1068.21 604.703)" fill="white"/>
<ellipse cx="1057.51" cy="586.159" rx="4.60777" ry="4.33672" transform="rotate(150 1057.51 586.159)" fill="white"/>
<circle cx="1046.8" cy="567.615" r="4.60777" transform="rotate(150 1046.8 567.615)" fill="white"/>
<circle cx="1071.32" cy="652.361" r="4.60777" transform="rotate(150 1071.32 652.361)" fill="white"/>
<ellipse cx="1060.61" cy="633.818" rx="4.60777" ry="4.33672" transform="rotate(150 1060.61 633.818)" fill="white"/>
<circle cx="1049.9" cy="615.274" r="4.60777" transform="rotate(150 1049.9 615.274)" fill="white"/>
<ellipse cx="1039.2" cy="596.73" rx="4.60777" ry="4.33672" transform="rotate(150 1039.2 596.73)" fill="white"/>
<circle cx="1028.49" cy="578.186" r="4.60777" transform="rotate(150 1028.49 578.186)" fill="white"/>
<circle cx="1053.01" cy="662.932" r="4.60777" transform="rotate(150 1053.01 662.932)" fill="white"/>
<ellipse cx="1042.3" cy="644.388" rx="4.60777" ry="4.33672" transform="rotate(150 1042.3 644.388)" fill="white"/>
<circle cx="1031.59" cy="625.845" r="4.60777" transform="rotate(150 1031.59 625.845)" fill="white"/>
<ellipse cx="1020.89" cy="607.301" rx="4.60777" ry="4.33672" transform="rotate(150 1020.89 607.301)" fill="white"/>
<circle cx="1010.18" cy="588.757" r="4.60777" transform="rotate(150 1010.18 588.757)" fill="white"/>
<circle cx="1034.7" cy="673.503" r="4.60777" transform="rotate(150 1034.7 673.503)" fill="white"/>
<ellipse cx="1023.99" cy="654.959" rx="4.60777" ry="4.33672" transform="rotate(150 1023.99 654.959)" fill="white"/>
<circle cx="1013.29" cy="636.415" r="4.60777" transform="rotate(150 1013.29 636.415)" fill="white"/>
<ellipse cx="1002.58" cy="617.871" rx="4.60777" ry="4.33672" transform="rotate(150 1002.58 617.871)" fill="white"/>
<circle cx="991.873" cy="599.328" r="4.60777" transform="rotate(150 991.873 599.328)" fill="white"/>
<circle cx="1015.92" cy="684.345" r="4.60777" transform="rotate(150 1015.92 684.345)" fill="white"/>
<ellipse cx="1005.21" cy="665.801" rx="4.60777" ry="4.33672" transform="rotate(150 1005.21 665.801)" fill="white"/>
<circle cx="994.507" cy="647.257" r="4.60777" transform="rotate(150 994.507 647.257)" fill="white"/>
<ellipse cx="983.801" cy="628.713" rx="4.60777" ry="4.33672" transform="rotate(150 983.801 628.713)" fill="white"/>
<circle cx="973.095" cy="610.169" r="4.60777" transform="rotate(150 973.095 610.169)" fill="white"/>
</g>
<path opacity="0.05" fill-rule="evenodd" clip-rule="evenodd" d="M1928.57 405.568V690.639H1732.73C1730.61 677.531 1729.5 664.082 1729.5 650.375C1729.5 529.759 1814.92 429.092 1928.57 405.568Z" fill="white"/>
<path opacity="0.05" fill-rule="evenodd" clip-rule="evenodd" d="M66.524 229.944C181.212 229.944 274.185 136.971 274.185 22.2829C274.185 15.4245 273.853 8.64382 273.203 1.95602L0 1.95602V219.06C20.8843 226.118 43.2573 229.944 66.524 229.944Z" fill="white"/>
<g opacity="0.08" filter="url(#filter0_f)">
<circle cx="1427.86" cy="316.191" r="185.849" fill="white"/>
</g>
<g opacity="0.04" filter="url(#filter1_f)">
<circle cx="1427.86" cy="316.191" r="238.21" fill="white"/>
</g>
<g opacity="0.03" filter="url(#filter2_f)">
<circle cx="1427.86" cy="316.191" r="277.786" fill="white"/>
</g>
<g opacity="0.05" filter="url(#filter3_f)">
<circle cx="1427.86" cy="316.191" r="354.21" fill="white"/>
</g>
<g opacity="0.06" filter="url(#filter4_f)">
<circle cx="1427.86" cy="316.191" r="209.558" fill="white"/>
</g>
<defs>
<filter id="filter0_f" x="1238.01" y="126.342" width="379.697" height="379.697" filterUnits="userSpaceOnUse" color-interpolation-filters="sRGB">
<feFlood flood-opacity="0" result="BackgroundImageFix"/>
<feBlend mode="normal" in="SourceGraphic" in2="BackgroundImageFix" result="shape"/>
<feGaussianBlur stdDeviation="2" result="effect1_foregroundBlur"/>
</filter>
<filter id="filter1_f" x="1185.65" y="73.9812" width="484.42" height="484.42" filterUnits="userSpaceOnUse" color-interpolation-filters="sRGB">
<feFlood flood-opacity="0" result="BackgroundImageFix"/>
<feBlend mode="normal" in="SourceGraphic" in2="BackgroundImageFix" result="shape"/>
<feGaussianBlur stdDeviation="2" result="effect1_foregroundBlur"/>
</filter>
<filter id="filter2_f" x="1146.08" y="34.4051" width="563.572" height="563.572" filterUnits="userSpaceOnUse" color-interpolation-filters="sRGB">
<feFlood flood-opacity="0" result="BackgroundImageFix"/>
<feBlend mode="normal" in="SourceGraphic" in2="BackgroundImageFix" result="shape"/>
<feGaussianBlur stdDeviation="2" result="effect1_foregroundBlur"/>
</filter>
<filter id="filter3_f" x="1023.65" y="-88.0189" width="808.42" height="808.42" filterUnits="userSpaceOnUse" color-interpolation-filters="sRGB">
<feFlood flood-opacity="0" result="BackgroundImageFix"/>
<feBlend mode="normal" in="SourceGraphic" in2="BackgroundImageFix" result="shape"/>
<feGaussianBlur stdDeviation="25" result="effect1_foregroundBlur"/>
</filter>
<filter id="filter4_f" x="1214.3" y="102.633" width="427.116" height="427.116" filterUnits="userSpaceOnUse" color-interpolation-filters="sRGB">
<feFlood flood-opacity="0" result="BackgroundImageFix"/>
<feBlend mode="normal" in="SourceGraphic" in2="BackgroundImageFix" result="shape"/>
<feGaussianBlur stdDeviation="2" result="effect1_foregroundBlur"/>
</filter>
</defs>
</svg>
