<svg width="27" height="26" viewBox="0 0 27 26" fill="none" xmlns="http://www.w3.org/2000/svg">
<circle cx="13.7998" cy="13" r="11.5" fill="white" stroke="#2F80ED" stroke-width="3"/>
<path d="M14.7812 12.69C15.6399 12.83 16.2979 13.152 16.7552 13.656C17.2126 14.1507 17.4412 14.7667 17.4412 15.504C17.4412 16.0733 17.2919 16.6007 16.9932 17.086C16.6946 17.562 16.2372 17.9447 15.6212 18.234C15.0146 18.5233 14.2679 18.668 13.3812 18.668C12.6906 18.668 12.0092 18.5793 11.3372 18.402C10.6746 18.2153 10.1099 17.954 9.64323 17.618L10.5252 15.882C10.8986 16.162 11.3279 16.3813 11.8132 16.54C12.3079 16.6893 12.8119 16.764 13.3252 16.764C13.8946 16.764 14.3426 16.6567 14.6692 16.442C14.9959 16.218 15.1592 15.9053 15.1592 15.504C15.1592 14.7013 14.5479 14.3 13.3252 14.3H12.2892V12.802L14.3052 10.52H10.1332V8.7H16.9932V10.17L14.7812 12.69Z" fill="#333333"/>
</svg>
