<svg width="26" height="26" viewBox="0 0 26 26" fill="none" xmlns="http://www.w3.org/2000/svg">
<circle cx="13" cy="13" r="11.5" fill="white" stroke="#2F80ED" stroke-width="3"/>
<path d="M16.2391 16.152V18H8.83309V16.53L12.6131 12.96C13.0144 12.5773 13.2851 12.2507 13.4251 11.98C13.5651 11.7 13.6351 11.4247 13.6351 11.154C13.6351 10.762 13.4998 10.4633 13.2291 10.258C12.9678 10.0433 12.5804 9.936 12.0671 9.936C11.6378 9.936 11.2504 10.02 10.9051 10.188C10.5598 10.3467 10.2704 10.5893 10.0371 10.916L8.38509 9.852C8.76776 9.28267 9.29509 8.83933 9.96709 8.522C10.6391 8.19533 11.4091 8.032 12.2771 8.032C13.0051 8.032 13.6398 8.15333 14.1811 8.396C14.7318 8.62933 15.1564 8.96533 15.4551 9.404C15.7631 9.83333 15.9171 10.342 15.9171 10.93C15.9171 11.462 15.8051 11.9613 15.5811 12.428C15.3571 12.8947 14.9231 13.4267 14.2791 14.024L12.0251 16.152H16.2391Z" fill="#333333"/>
</svg>
