<svg width="55" height="55" viewBox="0 0 55 55" fill="none" xmlns="http://www.w3.org/2000/svg">
<path d="M52.8825 19.0355C53.3571 19.3109 53.7029 19.7635 53.8438 20.2938C53.9847 20.8242 53.9091 21.3887 53.6338 21.8634C51.6816 25.2341 49.084 28.1868 45.9896 30.5527C42.8951 32.9186 39.3646 34.6511 35.6 35.6513C31.8354 36.6514 27.9105 36.8995 24.0499 36.3813C20.1893 35.8632 16.4687 34.5889 13.101 32.6315L5.94276 28.4783C5.46813 28.2029 5.12235 27.7503 4.98146 27.22C4.84057 26.6896 4.91612 26.1251 5.19149 25.6504C5.46687 25.1758 5.91951 24.83 6.44983 24.6891C6.98016 24.5483 7.54473 24.6238 8.01936 24.8992L15.1776 29.0524C18.0761 30.734 21.2774 31.8284 24.5987 32.2728C27.9201 32.7173 31.2965 32.5032 34.5351 31.6428C41.0758 29.9052 46.6583 25.6404 50.0546 19.7868C50.33 19.3121 50.7826 18.9663 51.313 18.8255C51.8433 18.6846 52.4079 18.7601 52.8825 19.0355Z" fill="white"/>
<path d="M21.7154 23.2776C22.0913 23.4953 22.3892 23.8258 22.5668 24.2222C22.7443 24.6187 22.7927 25.0609 22.7048 25.4863C22.617 25.9118 22.3975 26.2987 22.0775 26.5924C21.7574 26.8862 21.3531 27.0717 20.9217 27.1227L9.96366 28.4193L14.2766 38.5759C14.3828 38.826 14.4387 39.0946 14.4411 39.3663C14.4435 39.638 14.3924 39.9075 14.2906 40.1594C14.1889 40.4113 14.0385 40.6408 13.8481 40.8346C13.6577 41.0284 13.4309 41.1828 13.1809 41.289C12.6758 41.5035 12.1062 41.5085 11.5974 41.303C11.3455 41.2013 11.1161 41.0509 10.9222 40.8605C10.7284 40.6701 10.574 40.4434 10.4678 40.1933L5.07668 27.4974C4.95113 27.2018 4.89615 26.881 4.91608 26.5604C4.93601 26.2398 5.0303 25.9283 5.19149 25.6504C5.35268 25.3726 5.57634 25.1362 5.84476 24.9598C6.11318 24.7834 6.41899 24.6719 6.73796 24.6341L20.4355 23.0134C20.8795 22.9602 21.3288 23.053 21.7154 23.2776Z" fill="white"/>
</svg>
