<svg width="45" height="45" viewBox="0 0 45 45" fill="none" xmlns="http://www.w3.org/2000/svg">
<path d="M31.5134 0.944824L14.1632 28.5405H6.46416L0.171875 0.944824H8.19808L12.1567 18.8815L23.4544 0.944824H31.5134Z" fill="white"/>
<path d="M22.5156 43.6055C20.7321 43.1584 19.034 42.4236 17.4883 41.43L20.5744 35.5998C21.9612 36.4848 23.4665 37.1696 25.0456 37.6338C26.5827 38.0848 28.1762 38.3156 29.7784 38.3191C30.9805 38.3799 32.18 38.1562 33.279 37.6665C33.6323 37.5235 33.9371 37.2826 34.1574 36.9722C34.3777 36.6619 34.5043 36.2951 34.5222 35.9152C34.5122 35.5808 34.4034 35.2568 34.2094 34.9839C34.0153 34.7111 33.7448 34.5015 33.4317 34.3815C32.3025 33.8831 31.131 33.4863 29.9311 33.1959C28.4142 32.8159 26.9243 32.3362 25.4709 31.7601C24.2838 31.2747 23.2323 30.5096 22.4065 29.5302C21.508 28.4195 21.05 27.0182 21.1197 25.5927C21.0866 23.7337 21.6565 21.9138 22.7446 20.4042C23.9284 18.8423 25.5316 17.6468 27.3684 16.9561C29.6113 16.0977 32.0005 15.6839 34.4022 15.7378C36.2626 15.7269 38.118 15.9314 39.9311 16.347C41.4903 16.6942 42.9846 17.2852 44.3586 18.0982L41.4797 23.9502C40.372 23.2563 39.1663 22.732 37.9028 22.3947C36.6171 22.012 35.2856 21.8034 33.9442 21.7747C32.6823 21.7118 31.4252 21.9701 30.291 22.5253C29.9105 22.6882 29.5844 22.9557 29.3507 23.2966C29.117 23.6376 28.9855 24.0378 28.9714 24.4505C28.9742 24.7921 29.0797 25.1249 29.2741 25.4061C29.4685 25.6872 29.7429 25.9038 30.0619 26.0278C31.2097 26.5264 32.3994 26.9232 33.617 27.2134C35.1302 27.5712 36.6169 28.0328 38.0664 28.5948C39.2343 29.0666 40.2706 29.8129 41.0871 30.7703C41.9641 31.8492 42.4141 33.2114 42.3521 34.5991C42.3829 36.4459 41.8085 38.2524 40.7163 39.744C39.5127 41.3044 37.8962 42.4986 36.0489 43.1921C33.8124 44.0461 31.4312 44.4599 29.0369 44.4104C26.8369 44.4319 24.6439 44.1612 22.5156 43.6055Z" fill="white"/>
</svg>
