<svg width="97" height="218" viewBox="0 0 97 218" fill="none" xmlns="http://www.w3.org/2000/svg">
<path d="M56.5134 87.9448L39.1632 115.541H31.4642L25.1719 87.9448H33.1981L37.1567 105.881L48.4544 87.9448H56.5134Z" fill="white"/>
<path d="M47.5156 130.605C45.7321 130.158 44.034 129.424 42.4883 128.43L45.5744 122.6C46.9612 123.485 48.4665 124.17 50.0456 124.634C51.5827 125.085 53.1762 125.316 54.7784 125.319C55.9805 125.38 57.18 125.156 58.279 124.666C58.6323 124.523 58.9371 124.283 59.1574 123.972C59.3777 123.662 59.5043 123.295 59.5222 122.915C59.5122 122.581 59.4034 122.257 59.2094 121.984C59.0153 121.711 58.7448 121.501 58.4317 121.382C57.3025 120.883 56.131 120.486 54.9311 120.196C53.4142 119.816 51.9243 119.336 50.4709 118.76C49.2838 118.275 48.2323 117.51 47.4065 116.53C46.508 115.42 46.05 114.018 46.1197 112.593C46.0866 110.734 46.6565 108.914 47.7446 107.404C48.9284 105.842 50.5316 104.647 52.3684 103.956C54.6113 103.098 57.0005 102.684 59.4022 102.738C61.2626 102.727 63.118 102.931 64.9311 103.347C66.4903 103.694 67.9846 104.285 69.3586 105.098L66.4797 110.95C65.372 110.256 64.1663 109.732 62.9028 109.395C61.6171 109.012 60.2856 108.803 58.9442 108.775C57.6823 108.712 56.4252 108.97 55.291 109.525C54.9105 109.688 54.5844 109.956 54.3507 110.297C54.117 110.638 53.9855 111.038 53.9714 111.451C53.9742 111.792 54.0797 112.125 54.2741 112.406C54.4685 112.687 54.7429 112.904 55.0619 113.028C56.2097 113.526 57.3994 113.923 58.617 114.213C60.1302 114.571 61.6169 115.033 63.0664 115.595C64.2343 116.067 65.2706 116.813 66.0871 117.77C66.9641 118.849 67.4141 120.211 67.3521 121.599C67.3829 123.446 66.8085 125.252 65.7163 126.744C64.5127 128.304 62.8962 129.499 61.0489 130.192C58.8124 131.046 56.4312 131.46 54.0369 131.41C51.8369 131.432 49.6439 131.161 47.5156 130.605Z" fill="white"/>
<path d="M62.4343 77.7635C62.3625 77.7799 62.2879 77.7799 62.2162 77.7635C62.1501 77.7352 62.0904 77.694 62.0404 77.6425C61.9903 77.591 61.951 77.5302 61.9247 77.4634C61.8983 77.3967 61.8854 77.3255 61.8868 77.2538C61.8882 77.1821 61.9038 77.1113 61.9326 77.0457L95.4551 0.328057C95.4838 0.262349 95.5251 0.202912 95.5768 0.153138C95.6285 0.103365 95.6895 0.0642307 95.7563 0.0379694C95.8231 0.0117081 95.8945 -0.0011658 95.9663 8.28652e-05C96.0381 0.00133153 96.109 0.0166783 96.1749 0.0452468C96.2408 0.0738154 96.3004 0.115046 96.3503 0.166585C96.4002 0.218125 96.4394 0.278963 96.4657 0.345626C96.492 0.412289 96.5049 0.483472 96.5037 0.555111C96.5024 0.62675 96.4871 0.697441 96.4584 0.763149L62.9359 77.4372C62.8922 77.5337 62.8218 77.6157 62.7329 77.6735C62.644 77.7313 62.5404 77.7626 62.4343 77.7635Z" fill="white"/>
<path d="M0.602144 217.004C0.530249 217.019 0.455935 217.019 0.38404 217.004C0.308587 216.98 0.239109 216.941 0.180412 216.888C0.121715 216.836 0.0752003 216.771 0.0440869 216.698C0.0129735 216.626 -0.00199625 216.548 0.000213441 216.469C0.00242313 216.39 0.0217595 216.313 0.0568847 216.242L33.5794 139.568C33.608 139.503 33.6494 139.443 33.701 139.393C33.7527 139.344 33.8137 139.304 33.8805 139.278C33.9474 139.252 34.0187 139.239 34.0906 139.24C34.1624 139.242 34.2333 139.257 34.2991 139.285C34.365 139.314 34.4246 139.355 34.4745 139.407C34.5244 139.458 34.5636 139.519 34.59 139.586C34.6163 139.653 34.6292 139.724 34.628 139.795C34.6267 139.867 34.6113 139.938 34.5827 140.003L1.1474 216.677C1.10216 216.782 1.02521 216.87 0.9274 216.928C0.829586 216.987 0.715829 217.013 0.602144 217.004Z" fill="white"/>
</svg>
